<?xml version="1.0" encoding="utf-8" ?>
<svg xmlns="http://www.w3.org/2000/svg" xmlns:cc="http://creativecommons.org/ns" xmlns:dc="http://purl.org/dc/elements/1.1/" xmlns:ev="http://www.w3.org/2001/xml-events" xmlns:inkscape="http://www.inkscape.org/namespaces/inkscape" xmlns:rdf="http://www.w3.org/1999/02/22-rdf-syntax-ns" xmlns:sodipodi="http://sodipodi.sourceforge.net/DTD/sodipodi-0.dtd" xmlns:xlink="http://www.w3.org/1999/xlink" baseProfile="tiny" height="14.80000799cm" version="1.2" viewBox="0 0 396.850608 559.3703808000001" width="10.50000567cm">
  <metadata>
    <rdf:RDF>
      <cc:Work>
        <dc:format>image/svg+xml</dc:format>
        <dc:source>vpype read 'C:\Users\Thomas\dev\github\generative_art\vsketch\my_sketches\maze\output\maze_liked_2.svg' linemerge linesimplify linesort write 'opt\maze_liked_2_opt.svg'
</dc:source>
        <dc:date>2024-03-25T19:36:00.151762</dc:date>
      </cc:Work>
    </rdf:RDF>
  </metadata>
  <defs/>
  <g fill="none" id="layer1" inkscape:groupmode="layer" inkscape:label="1" stroke="#0000ff" stroke-width="1.0" style="display:inline">
    <line x1="32.315" x2="28.1575" y1="28.1575" y2="32.315"/>
    <line x1="28.1575" x2="36.5729" y1="36.579" y2="28.1575"/>
    <line x1="40.8309" x2="28.1575" y1="28.1575" y2="40.8431"/>
    <line x1="28.1575" x2="45.0888" y1="45.1072" y2="28.1575"/>
    <line x1="49.3468" x2="28.1575" y1="28.1575" y2="49.3713"/>
    <line x1="28.1575" x2="53.6047" y1="53.6354" y2="28.1575"/>
    <line x1="57.8627" x2="28.1575" y1="28.1575" y2="57.8995"/>
    <line x1="28.1575" x2="62.1206" y1="62.1635" y2="28.1575"/>
    <line x1="66.3786" x2="28.1575" y1="28.1575" y2="66.4276"/>
    <line x1="28.1575" x2="70.6365" y1="70.6917" y2="28.1575"/>
    <line x1="74.8944" x2="28.1575" y1="28.1575" y2="74.9558"/>
    <line x1="28.1575" x2="79.1524" y1="79.2199" y2="28.1575"/>
    <line x1="83.4103" x2="28.1575" y1="28.1575" y2="83.4839"/>
    <line x1="28.1575" x2="87.6683" y1="87.748" y2="28.1575"/>
    <line x1="91.9262" x2="28.1575" y1="28.1575" y2="92.0121"/>
    <line x1="28.1575" x2="96.1843" y1="96.2763" y2="28.1575"/>
    <polyline points="100.4422,28.1575 28.1575,100.647 108.9581,181.5579 177.1858,113.4392 364.4352,300.9524 134.6063,531.2129"/>
    <polyline points="130.3484,531.2129 360.1772,301.059 177.1858,117.7033 172.9278,121.8608"/>
    <polyline points="177.1858,121.9674 355.9193,301.059 126.0904,531.2129"/>
    <polyline points="121.8325,531.2129 351.6613,300.9524 172.9278,121.9674 104.7002,190.0861 28.1575,113.4392"/>
    <polyline points="28.1575,117.7033 104.7002,194.3502 172.9278,126.2315 347.4034,300.9524 117.5745,531.2129"/>
    <polyline points="113.3166,531.2129 343.1454,301.059 338.9879,296.7949"/>
    <line x1="338.8875" x2="109.0586" y1="301.059" y2="531.2129"/>
    <polyline points="104.8007,531.2129 338.8875,296.6883 172.9278,130.4956 104.7002,198.6143 28.1575,121.9674"/>
    <line x1="28.1575" x2="100.4422" y1="126.2315" y2="198.6143"/>
    <polyline points="104.7002,198.7209 100.4422,202.8784 28.1575,130.4956"/>
    <polyline points="28.1575,134.7596 100.4422,207.1424 172.9278,134.7596 330.3716,292.4242 92.0267,531.2129"/>
    <polyline points="87.7688,531.2129 326.1136,292.4242 172.9278,139.0237 100.4422,211.4065 28.1575,139.0237"/>
    <polyline points="28.1575,143.2878 100.4422,215.6706 172.9278,143.2878 321.8557,292.4242 83.5108,531.2129"/>
    <polyline points="79.2529,531.2129 317.5977,292.4242 172.9278,147.5519 100.4422,219.9347 28.1575,147.5519"/>
    <polyline points="28.1575,151.816 100.4422,224.1988 172.9278,151.816 313.3398,292.4242 74.9949,531.2129"/>
    <polyline points="70.737,531.2129 304.8239,296.7949 172.9278,164.6082 109.0586,228.4628"/>
    <polyline points="104.8007,228.5695 109.0586,232.7269 172.9278,168.8723 300.5659,296.6883 245.313,352.1213 138.8642,245.5192 143.1222,241.3617 245.2125,343.5932 287.7921,300.9524 168.6699,181.6645 113.3166,237.0976 117.5745,241.2551 160.154,198.7209 266.5022,305.2164 270.7602,301.059 164.4119,194.4568 160.154,198.6143"/>
    <line x1="164.4119" x2="266.5022" y1="198.7209" y2="300.9524"/>
    <line x1="266.5022" x2="253.8289" y1="305.323" y2="318.0087"/>
    <line x1="249.4704" x2="155.896" y1="318.0087" y2="224.3054"/>
    <polyline points="151.6381,224.1988 155.896,220.0413 253.7284,318.0087 249.4704,322.2728 151.6381,224.3054 126.0904,249.7833 236.6966,360.6495 232.5391,364.9136 28.1575,160.3441"/>
    <polyline points="28.1575,156.0801 108.9581,236.991 168.6699,177.4005 292.05,300.9524 296.308,296.7949 172.9278,173.1364 168.6699,177.2939"/>
    <line x1="172.9278" x2="292.05" y1="177.4005" y2="296.6883"/>
    <polyline points="292.05,301.059 245.2125,347.8573 143.1222,245.6258"/>
    <polyline points="134.6063,245.5192 143.1222,237.0976 245.2125,339.3291 249.4704,335.1716"/>
    <line x1="245.2125" x2="147.3801" y1="335.065" y2="237.0976"/>
    <line x1="143.1222" x2="147.2797" y1="236.991" y2="232.8335"/>
    <polyline points="151.6381,232.8335 249.4704,330.8009 279.2762,301.059 168.6699,190.1927"/>
    <polyline points="164.4119,190.0861 168.6699,185.9286 283.5341,301.059 249.4704,335.065 147.3801,232.7269 151.6381,228.5695 249.4704,326.5368 275.0181,300.9524 164.4119,190.1927 117.5745,236.991"/>
    <polyline points="117.5745,241.3617 121.8325,245.5192 155.896,211.5131 253.7284,309.4805"/>
    <polyline points="257.9863,309.5871 253.7284,313.7446 155.896,215.7772 126.0904,245.5192"/>
    <line x1="121.8325" x2="125.9899" y1="245.6258" y2="249.7833"/>
    <polyline points="134.6063,249.8899 240.9546,356.3854 245.2125,352.2279"/>
    <polyline points="240.9546,352.1213 134.6063,245.6258 130.3484,249.7833 236.6966,356.3854"/>
    <line x1="240.9546" x2="236.7971" y1="356.492" y2="360.6495"/>
    <line x1="232.4387" x2="109.0586" y1="360.6495" y2="237.0976"/>
    <polyline points="121.8325,241.2551 155.896,207.249 257.9863,309.4805 262.2443,305.323 160.154,202.985 155.896,207.1424"/>
    <line x1="160.154" x2="257.9863" y1="207.249" y2="305.2164"/>
    <polyline points="304.9244,296.6883 309.0818,292.4242 172.9278,156.0801 104.8007,224.1988"/>
    <polyline points="100.5427,224.3054 104.8007,228.4628 172.9278,160.3441 304.8239,292.4242"/>
    <polyline points="330.472,292.5308 334.6295,296.7949 100.5427,531.2129"/>
    <line x1="96.2848" x2="330.3716" y1="531.2129" y2="296.7949"/>
    <polyline points="368.6931,296.6883 181.4437,109.1751 177.1858,113.3326"/>
    <polyline points="181.4437,113.4392 368.6931,301.059 138.8642,531.2129"/>
    <line x1="143.1222" x2="368.6931" y1="531.2129" y2="305.323"/>
    <line x1="368.6931" x2="147.3801" y1="309.5871" y2="531.2129"/>
    <line x1="151.6381" x2="368.6931" y1="531.2129" y2="313.8512"/>
    <line x1="368.6931" x2="155.896" y1="318.1153" y2="531.2129"/>
    <line x1="160.154" x2="368.6931" y1="531.2129" y2="322.3794"/>
    <line x1="368.6931" x2="164.4119" y1="326.6434" y2="531.2129"/>
    <line x1="168.6699" x2="368.6931" y1="531.2129" y2="330.9075"/>
    <line x1="368.6931" x2="172.9278" y1="335.1716" y2="531.2129"/>
    <line x1="177.1858" x2="368.6931" y1="531.2129" y2="339.4357"/>
    <line x1="368.6931" x2="181.4437" y1="343.6998" y2="531.2129"/>
    <line x1="185.7017" x2="368.6931" y1="531.2129" y2="347.9639"/>
    <line x1="368.6931" x2="189.9596" y1="352.2279" y2="531.2129"/>
    <line x1="194.2176" x2="368.6931" y1="531.2129" y2="356.492"/>
    <line x1="368.6931" x2="198.4755" y1="360.7561" y2="531.2129"/>
    <line x1="202.7335" x2="368.6931" y1="531.2129" y2="365.0202"/>
    <line x1="368.6931" x2="206.9914" y1="369.2843" y2="531.2129"/>
    <line x1="211.2494" x2="368.6931" y1="531.2129" y2="373.5484"/>
    <line x1="368.6931" x2="215.5073" y1="377.8124" y2="531.2129"/>
    <line x1="219.7653" x2="368.6931" y1="531.2129" y2="382.0765"/>
    <line x1="368.6931" x2="224.0232" y1="386.3406" y2="531.2129"/>
    <line x1="228.2812" x2="368.6931" y1="531.2129" y2="390.6047"/>
    <line x1="368.6931" x2="232.5391" y1="394.8688" y2="531.2129"/>
    <line x1="236.7971" x2="368.6931" y1="531.2129" y2="399.1328"/>
    <line x1="368.6931" x2="241.055" y1="403.3969" y2="531.2129"/>
    <line x1="245.313" x2="368.6931" y1="531.2129" y2="407.661"/>
    <line x1="368.6931" x2="249.5709" y1="411.9251" y2="531.2129"/>
    <line x1="253.8289" x2="368.6931" y1="531.2129" y2="416.1892"/>
    <line x1="368.6931" x2="258.0868" y1="420.4533" y2="531.2129"/>
    <line x1="262.3448" x2="368.6931" y1="531.2129" y2="424.7173"/>
    <line x1="368.6931" x2="266.6027" y1="428.9814" y2="531.2129"/>
    <line x1="270.8607" x2="368.6931" y1="531.2129" y2="433.2455"/>
    <line x1="368.6931" x2="275.1186" y1="437.5096" y2="531.2129"/>
    <line x1="279.3767" x2="368.6931" y1="531.2129" y2="441.7737"/>
    <line x1="368.6931" x2="283.6346" y1="446.0378" y2="531.2129"/>
    <line x1="287.8926" x2="368.6931" y1="531.2129" y2="450.3018"/>
    <line x1="368.6931" x2="292.1505" y1="454.5659" y2="531.2129"/>
    <line x1="296.4085" x2="368.6931" y1="531.2129" y2="458.83"/>
    <line x1="368.6931" x2="300.6664" y1="463.0942" y2="531.2129"/>
    <line x1="304.9244" x2="368.6931" y1="531.2129" y2="467.3583"/>
    <line x1="368.6931" x2="309.1823" y1="471.6223" y2="531.2129"/>
    <line x1="313.4402" x2="368.6931" y1="531.2129" y2="475.8864"/>
    <line x1="368.6931" x2="317.6982" y1="480.1505" y2="531.2129"/>
    <line x1="321.9561" x2="368.6931" y1="531.2129" y2="484.4146"/>
    <line x1="368.6931" x2="326.2141" y1="488.6787" y2="531.2129"/>
    <line x1="330.472" x2="368.6931" y1="531.2129" y2="492.9428"/>
    <line x1="368.6931" x2="334.73" y1="497.2068" y2="531.2129"/>
    <line x1="338.9879" x2="368.6931" y1="531.2129" y2="501.4709"/>
    <line x1="368.6931" x2="343.2459" y1="505.735" y2="531.2129"/>
    <line x1="347.5038" x2="368.6931" y1="531.2129" y2="509.9991"/>
    <line x1="368.6931" x2="351.7618" y1="514.2632" y2="531.2129"/>
    <polyline points="356.0197,531.2129 360.2777,527.0554 364.4352,531.2129"/>
    <line x1="364.5356" x2="368.6931" y1="527.0554" y2="531.2129"/>
    <polyline points="368.6931,526.9488 364.5356,522.7913 360.2777,526.9488"/>
    <line x1="364.5356" x2="368.6931" y1="522.6847" y2="518.5273"/>
    <line x1="232.4387" x2="66.479" y1="365.0202" y2="531.2129"/>
    <line x1="62.2211" x2="223.9228" y1="531.2129" y2="369.2843"/>
    <line x1="223.9228" x2="28.1575" y1="364.9136" y2="168.8723"/>
    <polyline points="28.1575,173.1364 223.9228,369.1777 228.1807,365.0202 28.1575,164.6082"/>
    <polyline points="28.1575,177.4005 219.6648,369.1777 57.9631,531.2129"/>
    <polyline points="53.7052,531.2129 215.4069,369.1777 28.1575,181.6645"/>
    <polyline points="28.1575,185.9286 211.1489,369.1777 49.4472,531.2129"/>
    <polyline points="45.1893,531.2129 206.891,369.1777 28.1575,190.1927"/>
    <polyline points="28.1575,194.4568 202.633,369.1777 40.9313,531.2129"/>
    <polyline points="36.6734,531.2129 198.3751,369.1777 28.1575,198.7209"/>
    <polyline points="28.1575,202.985 194.1171,369.1777 32.4154,531.2129"/>
    <polyline points="28.1575,531.2129 368.6931,531.2129 368.6931,28.1575 28.1575,28.1575 28.1575,531.2129 189.8592,369.1777 28.1575,207.249"/>
    <polyline points="28.1575,211.5131 185.6012,369.1777 28.1575,526.9488"/>
    <polyline points="28.1575,522.6847 181.3433,369.2843 177.1858,365.0202"/>
    <line x1="177.0853" x2="28.1575" y1="369.2843" y2="518.4207"/>
    <polyline points="28.1575,514.1566 177.0853,364.9136 28.1575,215.7772"/>
    <polyline points="28.1575,220.0413 138.7638,330.8009 28.1575,441.6671"/>
    <line x1="28.1575" x2="138.7638" y1="445.9312" y2="335.1716"/>
    <line x1="143.0217" x2="138.8642" y1="335.065" y2="330.9075"/>
    <line x1="130.2479" x2="28.1575" y1="330.9075" y2="433.1389"/>
    <line x1="28.1575" x2="125.9899" y1="428.8748" y2="330.9075"/>
    <line x1="125.9899" x2="28.1575" y1="326.5368" y2="228.5695"/>
    <polyline points="28.1575,232.8335 125.9899,330.8009 130.2479,326.6434 28.1575,224.3054"/>
    <polyline points="28.1575,237.0976 121.732,330.8009 28.1575,424.6107"/>
    <polyline points="28.1575,420.3467 117.474,330.8009 28.1575,241.3617"/>
    <polyline points="28.1575,245.6258 113.2161,330.8009 28.1575,416.0826"/>
    <polyline points="28.1575,411.8185 108.9581,330.8009 28.1575,249.8899"/>
    <polyline points="28.1575,254.1539 104.7002,330.8009 28.1575,407.5544"/>
    <polyline points="28.1575,403.2903 100.4422,330.8009 28.1575,258.418"/>
    <polyline points="28.1575,262.6821 96.1843,330.8009 28.1575,399.0262"/>
    <polyline points="28.1575,394.7622 91.9262,330.8009 28.1575,266.9462"/>
    <polyline points="28.1575,271.2103 87.6683,330.8009 28.1575,390.4981"/>
    <polyline points="28.1575,386.234 83.4103,330.9075 79.2529,326.6434"/>
    <line x1="79.1524" x2="28.1575" y1="330.9075" y2="381.9699"/>
    <polyline points="28.1575,377.7058 79.1524,326.5368 28.1575,275.4744"/>
    <polyline points="28.1575,279.7385 74.8944,326.5368 28.1575,373.4418"/>
    <polyline points="28.1575,369.1777 70.6365,326.5368 66.3786,322.3794 28.1575,360.6495"/>
    <line x1="28.1575" x2="66.3786" y1="364.9136" y2="326.6434"/>
    <line x1="66.3786" x2="62.2211" y1="322.2728" y2="318.1153"/>
    <line x1="62.1206" x2="28.1575" y1="322.3794" y2="356.3854"/>
    <polyline points="28.1575,352.1213 62.1206,318.0087 57.8627,313.8512 28.1575,343.5932"/>
    <line x1="28.1575" x2="57.8627" y1="347.8573" y2="318.1153"/>
    <line x1="57.8627" x2="53.7052" y1="313.7446" y2="309.5871"/>
    <line x1="53.6047" x2="28.1575" y1="313.8512" y2="339.3291"/>
    <polyline points="28.1575,335.065 53.6047,309.4805 28.1575,284.0026"/>
    <polyline points="28.1575,288.2667 40.8309,300.9524 28.1575,313.7446"/>
    <polyline points="28.1575,309.4805 36.5729,300.9524 28.1575,292.5308"/>
    <polyline points="28.1575,296.7949 32.315,300.9524 28.1575,305.2164"/>
    <line x1="40.8309" x2="28.1575" y1="305.323" y2="318.0087"/>
    <polyline points="28.1575,322.2728 45.0888,305.323 49.3468,309.4805 28.1575,330.8009"/>
    <line x1="28.1575" x2="45.0888" y1="326.5368" y2="309.5871"/>
    <line x1="45.0888" x2="40.9313" y1="305.2164" y2="301.059"/>
    <polyline points="130.3484,326.6434 134.5058,330.9075 28.1575,437.403"/>
    <polyline points="28.1575,450.1952 143.0217,335.1716 147.2797,339.3291 28.1575,458.7234"/>
    <polyline points="28.1575,462.9876 147.2797,343.6998 151.5376,347.8573 28.1575,471.5157"/>
    <line x1="28.1575" x2="151.5376" y1="475.7798" y2="352.2279"/>
    <line x1="155.7956" x2="151.6381" y1="352.1213" y2="347.9639"/>
    <line x1="147.2797" x2="28.1575" y1="347.9639" y2="467.2517"/>
    <line x1="28.1575" x2="143.0217" y1="454.4593" y2="339.4357"/>
    <polyline points="147.3801,339.4357 172.8274,365.0202 28.1575,509.8925"/>
    <polyline points="28.1575,505.6284 168.5694,364.9136 164.3115,360.7561 28.1575,497.1002"/>
    <line x1="28.1575" x2="164.3115" y1="501.3643" y2="365.0202"/>
    <line x1="164.3115" x2="160.154" y1="360.6495" y2="356.492"/>
    <line x1="160.0535" x2="28.1575" y1="360.7561" y2="492.8362"/>
    <polyline points="28.1575,488.5721 160.0535,356.3854 155.7956,352.2279 28.1575,480.0439"/>
    <line x1="28.1575" x2="155.7956" y1="484.308" y2="356.492"/>
    <polyline points="108.9581,181.6645 104.7002,185.822 28.1575,109.1751"/>
    <line x1="28.1575" x2="104.7002" y1="104.9111" y2="181.5579"/>
    <polyline points="104.8007,168.8723 109.0586,173.0298 194.2176,87.8546 368.6931,262.5755"/>
    <polyline points="368.6931,266.8396 194.2176,92.1187 189.9596,96.2763"/>
    <line x1="194.2176" x2="368.6931" y1="96.3829" y2="271.1037"/>
    <polyline points="368.6931,275.3678 189.9596,96.3829 185.7017,100.5404"/>
    <line x1="189.9596" x2="368.6931" y1="100.647" y2="279.6319"/>
    <polyline points="368.6931,283.896 185.7017,100.647 108.9581,177.2939 32.4154,100.647 104.7002,28.1575"/>
    <polyline points="108.9581,28.1575 36.6734,100.5404 104.7002,168.7657 108.9581,164.5016 70.737,126.1249 168.5694,28.1575"/>
    <polyline points="172.8274,28.1575 74.9949,126.2315 109.0586,160.2375 202.7335,66.5342 368.6931,232.7269"/>
    <polyline points="368.6931,236.991 202.7335,70.7983 109.0586,164.5016"/>
    <polyline points="109.0586,168.7657 198.4755,79.3265 368.6931,249.7833"/>
    <line x1="368.6931" x2="202.7335" y1="245.5192" y2="79.3265"/>
    <polyline points="198.4755,79.2199 202.7335,75.0624 368.6931,241.2551"/>
    <polyline points="368.6931,254.0473 198.4755,83.5906 194.2176,87.748"/>
    <line x1="198.4755" x2="368.6931" y1="87.8546" y2="258.3114"/>
    <polyline points="368.6931,288.1601 185.7017,104.9111 181.4437,109.0685"/>
    <line x1="185.7017" x2="368.6931" y1="109.1751" y2="292.4242"/>
    <polyline points="368.6931,228.4628 202.7335,62.2701 109.0586,155.9734 83.5108,130.4956"/>
    <line x1="83.5108" x2="181.3433" y1="126.1249" y2="28.1575"/>
    <polyline points="177.0853,28.1575 79.2529,126.1249 83.4103,130.389 185.6012,28.1575"/>
    <polyline points="189.8592,28.1575 87.7688,130.4956 109.0586,151.7094 206.9914,53.742 368.6931,215.6706"/>
    <polyline points="368.6931,219.9347 206.9914,58.0061 202.7335,62.1635"/>
    <line x1="206.9914" x2="368.6931" y1="62.2701" y2="224.1988"/>
    <polyline points="368.6931,211.4065 206.9914,49.4779 113.3166,143.1812"/>
    <polyline points="108.9581,143.1812 96.2848,130.389 198.3751,28.1575"/>
    <polyline points="202.633,28.1575 100.5427,130.389 113.2161,143.1812 108.9581,147.4453 92.0267,130.389 194.1171,28.1575"/>
    <polyline points="206.891,28.1575 104.8007,130.4956 109.0586,134.653 211.2494,32.4216 368.6931,190.0861"/>
    <polyline points="368.6931,185.822 211.2494,28.1575 109.0586,130.389"/>
    <polyline points="109.0586,134.7596 113.3166,138.9171 211.2494,40.9497 368.6931,198.6143"/>
    <polyline points="368.6931,194.3502 211.2494,36.6856 113.3166,134.653"/>
    <polyline points="104.7002,164.5016 40.9313,100.5404 113.2161,28.1575"/>
    <polyline points="117.474,28.1575 45.1893,100.5404 49.3468,104.8045 125.9899,28.1575"/>
    <line x1="121.732" x2="49.4472" y1="28.1575" y2="100.5404"/>
    <polyline points="49.4472,104.9111 53.7052,109.0685 134.5058,28.1575"/>
    <line x1="138.7638" x2="57.9631" y1="28.1575" y2="109.0685"/>
    <polyline points="53.7052,109.1751 57.9631,113.3326 143.0217,28.1575"/>
    <line x1="147.2797" x2="62.2211" y1="28.1575" y2="113.3326"/>
    <polyline points="57.9631,113.4392 62.2211,117.5967 151.5376,28.1575"/>
    <line x1="155.7956" x2="66.479" y1="28.1575" y2="117.5967"/>
    <polyline points="62.2211,117.7033 66.479,121.8608 160.0535,28.1575"/>
    <line x1="164.3115" x2="70.737" y1="28.1575" y2="121.8608"/>
    <line x1="66.479" x2="70.6365" y1="121.9674" y2="126.1249"/>
    <line x1="53.7052" x2="130.2479" y1="104.8045" y2="28.1575"/>
    <polyline points="206.9914,49.3713 211.2494,45.2138 368.6931,202.8784"/>
    <line x1="368.6931" x2="211.2494" y1="207.1424" y2="49.4779"/>
    <line x1="215.5073" x2="368.6931" y1="28.1575" y2="181.5579"/>
    <line x1="368.6931" x2="219.7653" y1="177.2939" y2="28.1575"/>
    <line x1="224.0232" x2="368.6931" y1="28.1575" y2="173.0298"/>
    <line x1="368.6931" x2="228.2812" y1="168.7657" y2="28.1575"/>
    <line x1="232.5391" x2="368.6931" y1="28.1575" y2="164.5016"/>
    <line x1="368.6931" x2="236.7971" y1="160.2375" y2="28.1575"/>
    <line x1="241.055" x2="368.6931" y1="28.1575" y2="155.9734"/>
    <line x1="368.6931" x2="245.313" y1="151.7094" y2="28.1575"/>
    <line x1="249.5709" x2="368.6931" y1="28.1575" y2="147.4453"/>
    <line x1="368.6931" x2="253.8289" y1="143.1812" y2="28.1575"/>
    <line x1="258.0868" x2="368.6931" y1="28.1575" y2="138.9171"/>
    <line x1="368.6931" x2="262.3448" y1="134.653" y2="28.1575"/>
    <line x1="266.6027" x2="368.6931" y1="28.1575" y2="130.389"/>
    <line x1="368.6931" x2="270.8607" y1="126.1249" y2="28.1575"/>
    <line x1="275.1186" x2="368.6931" y1="28.1575" y2="121.8608"/>
    <line x1="368.6931" x2="279.3767" y1="117.5967" y2="28.1575"/>
    <line x1="283.6346" x2="368.6931" y1="28.1575" y2="113.3326"/>
    <line x1="368.6931" x2="287.8926" y1="109.0685" y2="28.1575"/>
    <line x1="292.1505" x2="368.6931" y1="28.1575" y2="104.8045"/>
    <line x1="368.6931" x2="296.4085" y1="100.5404" y2="28.1575"/>
    <line x1="300.6664" x2="368.6931" y1="28.1575" y2="96.2763"/>
    <line x1="368.6931" x2="304.9244" y1="92.0121" y2="28.1575"/>
    <line x1="309.1823" x2="368.6931" y1="28.1575" y2="87.748"/>
    <line x1="368.6931" x2="313.4402" y1="83.4839" y2="28.1575"/>
    <line x1="317.6982" x2="368.6931" y1="28.1575" y2="79.2199"/>
    <line x1="368.6931" x2="321.9561" y1="74.9558" y2="28.1575"/>
    <line x1="326.2141" x2="368.6931" y1="28.1575" y2="70.6917"/>
    <line x1="368.6931" x2="330.472" y1="66.4276" y2="28.1575"/>
    <line x1="334.73" x2="368.6931" y1="28.1575" y2="62.1635"/>
    <line x1="368.6931" x2="338.9879" y1="57.8995" y2="28.1575"/>
    <line x1="343.2459" x2="368.6931" y1="28.1575" y2="53.6354"/>
    <line x1="368.6931" x2="347.5038" y1="49.3713" y2="28.1575"/>
    <line x1="351.7618" x2="368.6931" y1="28.1575" y2="45.1072"/>
    <line x1="368.6931" x2="356.0197" y1="40.8431" y2="28.1575"/>
    <line x1="360.2777" x2="368.6931" y1="28.1575" y2="36.579"/>
    <line x1="368.6931" x2="364.5356" y1="32.315" y2="28.1575"/>
  </g>
</svg>
