<?xml version="1.0" encoding="utf-8" ?>
<svg xmlns="http://www.w3.org/2000/svg" xmlns:cc="http://creativecommons.org/ns" xmlns:dc="http://purl.org/dc/elements/1.1/" xmlns:ev="http://www.w3.org/2001/xml-events" xmlns:inkscape="http://www.inkscape.org/namespaces/inkscape" xmlns:rdf="http://www.w3.org/1999/02/22-rdf-syntax-ns" xmlns:sodipodi="http://sodipodi.sourceforge.net/DTD/sodipodi-0.dtd" xmlns:xlink="http://www.w3.org/1999/xlink" baseProfile="tiny" height="14.80000799cm" version="1.2" viewBox="0 0 396.850608 559.3703808000001" width="10.50000567cm">
  <metadata>
    <rdf:RDF>
      <cc:Work>
        <dc:format>image/svg+xml</dc:format>
        <dc:source>vpype read 'C:\Users\Thomas\dev\github\generative_art\vsketch\my_sketches\maze\output\maze_liked_3.svg' linemerge linesimplify linesort write 'opt\maze_liked_3_opt.svg'
</dc:source>
        <dc:date>2024-03-25T19:36:00.949450</dc:date>
      </cc:Work>
    </rdf:RDF>
  </metadata>
  <defs/>
  <g fill="none" id="layer1" inkscape:groupmode="layer" inkscape:label="1" stroke="#0000ff" stroke-width="1.0" style="display:inline">
    <line x1="33.4488" x2="27.0236" y1="27.0236" y2="33.4488"/>
    <line x1="27.0236" x2="39.9176" y1="39.8449" y2="27.0236"/>
    <line x1="46.3864" x2="27.0236" y1="27.0236" y2="46.2411"/>
    <line x1="27.0236" x2="52.8552" y1="52.6372" y2="27.0236"/>
    <line x1="59.324" x2="27.0236" y1="27.0236" y2="59.0333"/>
    <line x1="27.0236" x2="65.7929" y1="65.4294" y2="27.0236"/>
    <line x1="72.2617" x2="27.0236" y1="27.0236" y2="71.8256"/>
    <line x1="27.0236" x2="78.7305" y1="78.2217" y2="27.0236"/>
    <line x1="85.1993" x2="27.0236" y1="27.0236" y2="84.6178"/>
    <line x1="27.0236" x2="91.6681" y1="91.0139" y2="27.0236"/>
    <line x1="98.137" x2="27.0236" y1="27.0236" y2="97.4102"/>
    <line x1="27.0236" x2="104.6058" y1="103.8063" y2="27.0236"/>
    <line x1="111.0746" x2="27.0236" y1="27.0236" y2="110.2024"/>
    <line x1="27.0236" x2="117.5434" y1="116.5985" y2="27.0236"/>
    <line x1="124.0122" x2="27.0236" y1="27.0236" y2="122.9946"/>
    <line x1="27.0236" x2="130.481" y1="129.3908" y2="27.0236"/>
    <line x1="136.9498" x2="27.0236" y1="27.0236" y2="135.7869"/>
    <line x1="27.0236" x2="143.4186" y1="142.183" y2="27.0236"/>
    <line x1="149.8874" x2="27.0236" y1="27.0236" y2="148.5791"/>
    <line x1="27.0236" x2="156.3562" y1="154.9753" y2="27.0236"/>
    <line x1="162.8251" x2="27.0236" y1="27.0236" y2="161.3714"/>
    <line x1="27.0236" x2="169.2939" y1="167.7675" y2="27.0236"/>
    <line x1="175.7627" x2="27.0236" y1="27.0236" y2="174.1636"/>
    <line x1="27.0236" x2="182.2315" y1="180.5598" y2="27.0236"/>
    <line x1="188.7003" x2="27.0236" y1="27.0236" y2="186.9559"/>
    <line x1="27.0236" x2="195.1691" y1="193.352" y2="27.0236"/>
    <line x1="201.6379" x2="27.0236" y1="27.0236" y2="199.7481"/>
    <line x1="27.0236" x2="208.1067" y1="206.1443" y2="27.0236"/>
    <line x1="214.5755" x2="27.0236" y1="27.0236" y2="212.5404"/>
    <line x1="27.0236" x2="221.0443" y1="218.9365" y2="27.0236"/>
    <line x1="227.5131" x2="27.0236" y1="27.0236" y2="225.3326"/>
    <line x1="27.0236" x2="233.9819" y1="231.7287" y2="27.0236"/>
    <line x1="240.4507" x2="27.0236" y1="27.0236" y2="238.1249"/>
    <line x1="27.0236" x2="246.9195" y1="244.521" y2="27.0236"/>
    <line x1="253.3883" x2="27.0236" y1="27.0236" y2="250.9171"/>
    <line x1="27.0236" x2="259.8572" y1="257.3132" y2="27.0236"/>
    <line x1="266.326" x2="27.0236" y1="27.0236" y2="263.7094"/>
    <line x1="27.0236" x2="272.7948" y1="270.1055" y2="27.0236"/>
    <line x1="279.2637" x2="27.0236" y1="27.0236" y2="276.5016"/>
    <line x1="27.0236" x2="285.7325" y1="282.8978" y2="27.0236"/>
    <line x1="292.2013" x2="27.0236" y1="27.0236" y2="289.294"/>
    <line x1="27.0236" x2="298.6701" y1="295.6901" y2="27.0236"/>
    <line x1="305.1389" x2="27.0236" y1="27.0236" y2="302.0862"/>
    <line x1="27.0236" x2="311.6077" y1="308.4823" y2="27.0236"/>
    <line x1="318.0765" x2="27.0236" y1="27.0236" y2="314.8785"/>
    <line x1="27.0236" x2="324.5453" y1="321.2746" y2="27.0236"/>
    <line x1="331.0141" x2="27.0236" y1="27.0236" y2="327.6707"/>
    <line x1="27.0236" x2="337.4829" y1="334.0668" y2="27.0236"/>
    <line x1="343.9517" x2="27.0236" y1="27.0236" y2="340.4629"/>
    <line x1="27.0236" x2="350.4206" y1="346.8591" y2="27.0236"/>
    <line x1="356.8894" x2="27.0236" y1="27.0236" y2="353.2552"/>
    <line x1="27.0236" x2="363.3582" y1="359.6513" y2="27.0236"/>
    <line x1="369.827" x2="27.0236" y1="27.0236" y2="366.0474"/>
    <line x1="27.0236" x2="369.827" y1="372.4436" y2="33.4197"/>
    <line x1="369.827" x2="27.0236" y1="39.8159" y2="378.8397"/>
    <polyline points="27.0236,385.2358 111.1182,302.0571 227.5131,417.1874 221.0443,423.6126 169.2939,372.4145 162.8687,378.8397 214.5755,430.0087 111.1182,532.3468"/>
    <polyline points="117.587,532.3468 233.9819,417.2164 117.587,302.0862 124.0558,295.661 253.3883,423.5835 143.4622,532.3468"/>
    <polyline points="136.9934,532.3468 246.9195,423.6126 240.4943,417.1874"/>
    <line x1="240.4507" x2="130.5246" y1="423.5835" y2="532.3468"/>
    <polyline points="124.0558,532.3468 240.4507,417.2164 124.0558,302.0571"/>
    <line x1="124.0558" x2="369.827" y1="295.6901" y2="52.6081"/>
    <line x1="369.827" x2="111.1182" y1="46.212" y2="302.0862"/>
    <polyline points="111.1182,314.8494 143.4186,346.8591 27.0236,461.9893"/>
    <polyline points="27.0236,455.5932 136.9498,346.83 104.6058,314.8494 27.0236,391.6319"/>
    <polyline points="27.0236,398.0281 104.6058,321.2455 124.0122,340.4339 27.0236,436.4048"/>
    <line x1="27.0236" x2="124.0122" y1="442.8009" y2="346.83"/>
    <polyline points="124.0558,340.4339 130.481,346.8591 27.0236,449.1971"/>
    <line x1="27.0236" x2="143.4186" y1="468.3855" y2="353.2261"/>
    <polyline points="143.4622,346.83 149.8874,353.2552 27.0236,474.7816"/>
    <polyline points="27.0236,481.1778 156.3562,353.2552 111.1182,308.4533 104.6494,314.8785"/>
    <line x1="104.6058" x2="27.0236" y1="334.0378" y2="410.8203"/>
    <polyline points="27.0236,417.2164 111.0746,334.0378 104.6058,327.6416 27.0236,404.4242"/>
    <line x1="27.0236" x2="111.0746" y1="423.6126" y2="340.4339"/>
    <polyline points="111.1182,334.0378 117.5434,340.4629 27.0236,430.0087"/>
    <line x1="27.0236" x2="156.3562" y1="487.5739" y2="359.6222"/>
    <polyline points="156.3999,353.2261 162.8251,359.6513 27.0236,493.97"/>
    <line x1="27.0236" x2="162.8251" y1="500.3661" y2="366.0184"/>
    <polyline points="162.8687,359.6222 169.2939,366.0474 27.0236,506.7623"/>
    <line x1="27.0236" x2="162.8251" y1="513.1584" y2="378.8106"/>
    <line x1="169.3375" x2="214.5755" y1="378.8106" y2="423.6126"/>
    <line x1="214.6191" x2="221.0443" y1="430.0087" y2="423.5835"/>
    <line x1="221.0443" x2="169.3375" y1="417.2164" y2="366.0184"/>
    <line x1="162.8687" x2="201.6379" y1="391.6029" y2="430.0087"/>
    <polyline points="201.6815,436.4048 208.1067,429.9796 162.8687,385.2067 156.3999,391.6319"/>
    <line x1="156.3562" x2="46.43" y1="423.5835" y2="532.3468"/>
    <polyline points="39.9612,532.3468 156.3999,417.1874 162.8251,423.6126 52.8988,532.3468"/>
    <line x1="59.3677" x2="162.8251" y1="532.3468" y2="429.9796"/>
    <polyline points="162.8687,423.5835 169.2939,430.0087 65.8365,532.3468"/>
    <line x1="72.3053" x2="169.2939" y1="532.3468" y2="436.3757"/>
    <polyline points="169.3375,429.9796 175.7627,436.4048 78.7741,532.3468"/>
    <line x1="85.2429" x2="175.7627" y1="532.3468" y2="442.7719"/>
    <polyline points="175.8063,436.3757 182.2315,442.8009 91.7117,532.3468"/>
    <polyline points="98.1806,532.3468 188.7003,442.8009 156.3999,410.7912 33.4924,532.3468"/>
    <polyline points="27.0236,532.3468 156.3562,404.3951 195.1691,442.8009 201.6379,436.3757 156.3562,391.6029 27.0236,519.5545"/>
    <polyline points="27.0236,525.9506 156.3562,397.999 195.1691,436.4048"/>
    <line x1="195.1691" x2="104.6494" y1="442.7719" y2="532.3468"/>
    <line x1="149.9311" x2="253.3883" y1="532.3468" y2="429.9796"/>
    <polyline points="253.432,423.5835 259.8572,430.0087 266.326,423.6126 136.9934,295.661"/>
    <line x1="136.9934" x2="369.827" y1="289.294" y2="59.0042"/>
    <polyline points="369.827,65.4004 188.7439,244.4919 266.326,321.2455 259.9008,327.6707 182.2751,250.888 175.8063,257.3132"/>
    <polyline points="175.8063,263.6803 253.432,340.4629 259.8572,334.0378 182.2751,257.2842"/>
    <line x1="182.2751" x2="188.7003" y1="250.9171" y2="244.4919"/>
    <line x1="188.7439" x2="259.8572" y1="250.888" y2="321.2746"/>
    <line x1="266.3696" x2="369.827" y1="321.2746" y2="218.9074"/>
    <polyline points="369.827,212.5113 266.3696,314.8785 259.9008,308.4533"/>
    <line x1="266.3696" x2="369.827" y1="308.4823" y2="206.1152"/>
    <polyline points="369.827,199.7191 259.9008,308.4823 195.2127,244.521 369.827,71.7965"/>
    <polyline points="369.827,78.1926 201.6815,244.521 246.9632,289.294 369.827,167.7384"/>
    <polyline points="369.827,161.3423 246.9632,282.8978 240.4943,276.4725"/>
    <line x1="240.4943" x2="369.827" y1="270.1055" y2="142.1539"/>
    <polyline points="369.827,135.7578 234.0255,270.1055 208.1503,244.521 369.827,84.5887"/>
    <polyline points="369.827,90.9849 214.6191,244.521 221.0879,250.9171 369.827,103.7772"/>
    <line x1="369.827" x2="227.5567" y1="110.1733" y2="250.9171"/>
    <polyline points="227.5567,257.2842 234.0255,263.7094 369.827,129.3617"/>
    <line x1="369.827" x2="234.0255" y1="122.9656" y2="257.3132"/>
    <polyline points="234.0255,270.0764 240.4943,276.5016 369.827,148.5501"/>
    <line x1="369.827" x2="246.9632" y1="154.9462" y2="276.5016"/>
    <polyline points="246.9632,289.2649 253.432,295.6901 369.827,180.5307"/>
    <line x1="369.827" x2="253.432" y1="174.1346" y2="289.294"/>
    <polyline points="253.432,295.661 259.9008,302.0862 369.827,193.3229"/>
    <line x1="369.827" x2="259.9008" y1="186.9268" y2="295.6901"/>
    <line x1="259.9008" x2="369.827" y1="334.0668" y2="225.3036"/>
    <line x1="369.827" x2="253.432" y1="231.6997" y2="346.8591"/>
    <line x1="246.9195" x2="169.3375" y1="346.8591" y2="270.0764"/>
    <line x1="169.2939" x2="162.8687" y1="263.6803" y2="270.1055"/>
    <polyline points="162.8687,276.4725 246.9632,359.6513 369.827,238.0958"/>
    <polyline points="369.827,244.4919 246.9632,366.0474 156.3999,276.4725 149.9311,282.8978"/>
    <polyline points="149.9311,289.2649 246.9632,385.2358 369.827,263.6803"/>
    <polyline points="369.827,257.2842 246.9632,378.8397 149.9311,282.8688 143.4622,289.294 266.326,410.8203 369.827,308.4533"/>
    <polyline points="369.827,314.8494 266.326,417.2164 136.9498,289.2649 130.5246,295.6901 259.8572,423.6126"/>
    <line x1="259.8572" x2="156.3999" y1="429.9796" y2="532.3468"/>
    <line x1="162.8687" x2="369.827" y1="532.3468" y2="327.6416"/>
    <line x1="369.827" x2="266.3696" y1="321.2455" y2="423.6126"/>
    <line x1="266.3696" x2="369.827" y1="398.0281" y2="295.661"/>
    <polyline points="369.827,302.0571 266.3696,404.4242 259.9008,397.999"/>
    <line x1="259.9008" x2="369.827" y1="391.6319" y2="282.8688"/>
    <polyline points="369.827,289.2649 259.9008,398.0281 253.432,391.6029"/>
    <line x1="253.432" x2="369.827" y1="385.2358" y2="270.0764"/>
    <polyline points="369.827,276.4725 253.432,391.6319 246.9632,385.2067"/>
    <polyline points="253.3883,334.0668 175.8063,257.2842 169.3375,263.7094 253.3883,346.83 246.9632,353.2552 162.8687,270.0764 156.3999,276.5016"/>
    <polyline points="156.3999,282.8688 246.9632,372.4436 369.827,250.888"/>
    <line x1="369.827" x2="169.3375" y1="334.0378" y2="532.3468"/>
    <line x1="175.8063" x2="369.827" y1="532.3468" y2="340.4339"/>
    <line x1="369.827" x2="182.2751" y1="346.83" y2="532.3468"/>
    <line x1="188.7439" x2="369.827" y1="532.3468" y2="353.2261"/>
    <line x1="369.827" x2="195.2127" y1="359.6222" y2="532.3468"/>
    <line x1="201.6815" x2="369.827" y1="532.3468" y2="366.0184"/>
    <line x1="369.827" x2="208.1503" y1="372.4145" y2="532.3468"/>
    <line x1="214.6191" x2="369.827" y1="532.3468" y2="378.8106"/>
    <line x1="369.827" x2="221.0879" y1="385.2067" y2="532.3468"/>
    <line x1="227.5567" x2="369.827" y1="532.3468" y2="391.6029"/>
    <line x1="369.827" x2="234.0255" y1="397.999" y2="532.3468"/>
    <line x1="240.4943" x2="369.827" y1="532.3468" y2="404.3951"/>
    <line x1="369.827" x2="246.9632" y1="410.7912" y2="532.3468"/>
    <line x1="253.432" x2="369.827" y1="532.3468" y2="417.1874"/>
    <line x1="369.827" x2="259.9008" y1="423.5835" y2="532.3468"/>
    <line x1="266.3696" x2="369.827" y1="532.3468" y2="429.9796"/>
    <line x1="369.827" x2="272.8384" y1="436.3757" y2="532.3468"/>
    <line x1="279.3073" x2="369.827" y1="532.3468" y2="442.7719"/>
    <line x1="369.827" x2="285.7761" y1="449.168" y2="532.3468"/>
    <line x1="292.2449" x2="369.827" y1="532.3468" y2="455.5641"/>
    <line x1="369.827" x2="298.7137" y1="461.9602" y2="532.3468"/>
    <line x1="305.1825" x2="369.827" y1="532.3468" y2="468.3564"/>
    <line x1="369.827" x2="311.6513" y1="474.7526" y2="532.3468"/>
    <line x1="318.1201" x2="369.827" y1="532.3468" y2="481.1487"/>
    <line x1="369.827" x2="324.5889" y1="487.5448" y2="532.3468"/>
    <line x1="331.0577" x2="369.827" y1="532.3468" y2="493.9409"/>
    <line x1="369.827" x2="337.5265" y1="500.3371" y2="532.3468"/>
    <line x1="343.9954" x2="369.827" y1="532.3468" y2="506.7332"/>
    <line x1="369.827" x2="350.4642" y1="513.1293" y2="532.3468"/>
    <line x1="356.933" x2="369.827" y1="532.3468" y2="519.5254"/>
    <line x1="369.827" x2="363.4018" y1="525.9216" y2="532.3468"/>
    <polygon points="369.827,532.3468 369.827,27.0236 27.0236,27.0236 27.0236,532.3468"/>
    <polyline points="221.0879,250.888 227.5567,257.3132 369.827,116.5695"/>
    <line x1="369.827" x2="221.0879" y1="97.3811" y2="244.521"/>
  </g>
</svg>
