<?xml version="1.0" encoding="utf-8" ?>
<svg xmlns="http://www.w3.org/2000/svg" xmlns:cc="http://creativecommons.org/ns" xmlns:dc="http://purl.org/dc/elements/1.1/" xmlns:ev="http://www.w3.org/2001/xml-events" xmlns:inkscape="http://www.inkscape.org/namespaces/inkscape" xmlns:rdf="http://www.w3.org/1999/02/22-rdf-syntax-ns" xmlns:sodipodi="http://sodipodi.sourceforge.net/DTD/sodipodi-0.dtd" xmlns:xlink="http://www.w3.org/1999/xlink" baseProfile="tiny" height="14.80000799cm" version="1.2" viewBox="0 0 396.850608 559.3703808000001" width="10.50000567cm">
  <metadata>
    <rdf:RDF>
      <cc:Work>
        <dc:format>image/svg+xml</dc:format>
        <dc:source>vpype read 'C:\Users\Thomas\dev\github\generative_art\vsketch\my_sketches\maze\output\maze_liked_1.svg' linemerge linesimplify linesort write 'opt\maze_liked_1_opt.svg'
</dc:source>
        <dc:date>2024-03-25T19:35:57.810868</dc:date>
      </cc:Work>
    </rdf:RDF>
  </metadata>
  <defs/>
  <g fill="none" id="layer1" inkscape:groupmode="layer" inkscape:label="1" stroke="#0000ff" stroke-width="1.0" style="display:inline">
    <line x1="32.315" x2="28.1575" y1="28.1575" y2="32.315"/>
    <line x1="28.1575" x2="36.5729" y1="36.579" y2="28.1575"/>
    <line x1="40.8309" x2="28.1575" y1="28.1575" y2="40.8431"/>
    <line x1="28.1575" x2="45.0888" y1="45.1072" y2="28.1575"/>
    <line x1="49.3468" x2="28.1575" y1="28.1575" y2="49.3713"/>
    <line x1="28.1575" x2="53.6047" y1="53.6354" y2="28.1575"/>
    <line x1="57.8627" x2="28.1575" y1="28.1575" y2="57.8995"/>
    <line x1="28.1575" x2="62.1206" y1="62.1635" y2="28.1575"/>
    <line x1="66.3786" x2="28.1575" y1="28.1575" y2="66.4276"/>
    <line x1="28.1575" x2="70.6365" y1="70.6917" y2="28.1575"/>
    <line x1="74.8944" x2="28.1575" y1="28.1575" y2="74.9558"/>
    <line x1="28.1575" x2="79.1524" y1="79.2199" y2="28.1575"/>
    <line x1="83.4103" x2="28.1575" y1="28.1575" y2="83.4839"/>
    <line x1="28.1575" x2="87.6683" y1="87.748" y2="28.1575"/>
    <line x1="91.9262" x2="28.1575" y1="28.1575" y2="92.0121"/>
    <line x1="28.1575" x2="96.1843" y1="96.2763" y2="28.1575"/>
    <line x1="100.4422" x2="28.1575" y1="28.1575" y2="100.5404"/>
    <line x1="28.1575" x2="104.7002" y1="104.8045" y2="28.1575"/>
    <line x1="108.9581" x2="28.1575" y1="28.1575" y2="109.0685"/>
    <line x1="28.1575" x2="113.2161" y1="113.3326" y2="28.1575"/>
    <line x1="117.474" x2="28.1575" y1="28.1575" y2="117.5967"/>
    <line x1="28.1575" x2="121.732" y1="121.8608" y2="28.1575"/>
    <line x1="125.9899" x2="28.1575" y1="28.1575" y2="126.1249"/>
    <line x1="28.1575" x2="130.2479" y1="130.389" y2="28.1575"/>
    <line x1="134.5058" x2="28.1575" y1="28.1575" y2="134.653"/>
    <line x1="28.1575" x2="138.7638" y1="138.9171" y2="28.1575"/>
    <line x1="143.0217" x2="28.1575" y1="28.1575" y2="143.1812"/>
    <line x1="28.1575" x2="147.2797" y1="147.4453" y2="28.1575"/>
    <line x1="151.5376" x2="28.1575" y1="28.1575" y2="151.7094"/>
    <line x1="28.1575" x2="155.7956" y1="155.9734" y2="28.1575"/>
    <line x1="160.0535" x2="28.1575" y1="28.1575" y2="160.2375"/>
    <line x1="28.1575" x2="164.3115" y1="164.5016" y2="28.1575"/>
    <line x1="168.5694" x2="28.1575" y1="28.1575" y2="168.7657"/>
    <line x1="28.1575" x2="172.8274" y1="173.0298" y2="28.1575"/>
    <line x1="177.0853" x2="28.1575" y1="28.1575" y2="177.2939"/>
    <line x1="28.1575" x2="181.3433" y1="181.5579" y2="28.1575"/>
    <line x1="185.6012" x2="28.1575" y1="28.1575" y2="185.822"/>
    <line x1="28.1575" x2="189.8592" y1="190.0861" y2="28.1575"/>
    <line x1="194.1171" x2="28.1575" y1="28.1575" y2="194.3502"/>
    <line x1="28.1575" x2="198.3751" y1="198.6143" y2="28.1575"/>
    <line x1="202.633" x2="28.1575" y1="28.1575" y2="202.8784"/>
    <line x1="28.1575" x2="206.891" y1="207.1424" y2="28.1575"/>
    <line x1="211.1489" x2="28.1575" y1="28.1575" y2="211.4065"/>
    <line x1="28.1575" x2="215.4069" y1="215.6706" y2="28.1575"/>
    <line x1="219.6648" x2="28.1575" y1="28.1575" y2="219.9347"/>
    <line x1="28.1575" x2="223.9228" y1="224.1988" y2="28.1575"/>
    <line x1="228.1807" x2="28.1575" y1="28.1575" y2="228.4628"/>
    <line x1="28.1575" x2="232.4387" y1="232.7269" y2="28.1575"/>
    <line x1="236.6966" x2="28.1575" y1="28.1575" y2="236.991"/>
    <line x1="28.1575" x2="240.9546" y1="241.2551" y2="28.1575"/>
    <line x1="245.2125" x2="28.1575" y1="28.1575" y2="245.5192"/>
    <line x1="28.1575" x2="249.4704" y1="249.7833" y2="28.1575"/>
    <line x1="253.7284" x2="28.1575" y1="28.1575" y2="254.0473"/>
    <line x1="28.1575" x2="257.9863" y1="258.3114" y2="28.1575"/>
    <line x1="262.2443" x2="28.1575" y1="28.1575" y2="262.5755"/>
    <line x1="28.1575" x2="266.5022" y1="266.8396" y2="28.1575"/>
    <line x1="270.7602" x2="28.1575" y1="28.1575" y2="271.1037"/>
    <line x1="28.1575" x2="275.0181" y1="275.3678" y2="28.1575"/>
    <line x1="279.2762" x2="28.1575" y1="28.1575" y2="279.6319"/>
    <line x1="28.1575" x2="283.5341" y1="283.896" y2="28.1575"/>
    <line x1="287.7921" x2="28.1575" y1="28.1575" y2="288.1601"/>
    <line x1="28.1575" x2="292.05" y1="292.4242" y2="28.1575"/>
    <polyline points="296.308,28.1575 28.1575,296.6883 223.9228,492.8362 185.7017,531.2129"/>
    <polyline points="189.9596,531.2129 228.1807,492.8362 32.4154,296.6883 300.5659,28.1575"/>
    <polyline points="304.8239,28.1575 36.6734,296.6883 232.4387,492.8362 194.2176,531.2129"/>
    <polyline points="198.4755,531.2129 236.6966,492.8362 49.4472,305.323"/>
    <line x1="49.4472" x2="321.8557" y1="300.9524" y2="28.1575"/>
    <polyline points="326.1136,28.1575 49.4472,305.2164 45.1893,301.059"/>
    <line x1="45.1893" x2="313.3398" y1="296.6883" y2="28.1575"/>
    <polyline points="317.5977,28.1575 45.0888,300.9524 40.9313,296.6883 309.0818,28.1575"/>
    <polyline points="330.3716,28.1575 53.7052,305.323 57.9631,309.4805 202.7335,164.6082 368.6931,330.8009"/>
    <polyline points="368.6931,335.065 202.7335,168.8723 62.2211,309.4805"/>
    <polyline points="57.9631,309.5871 62.2211,313.7446 198.4755,177.4005 368.6931,347.8573"/>
    <polyline points="368.6931,352.1213 198.4755,181.6645 66.479,313.7446 245.2125,492.8362 206.9914,531.2129"/>
    <polyline points="202.7335,531.2129 240.9546,492.8362 62.2211,313.8512"/>
    <polyline points="57.9631,305.2164 206.9914,156.0801 368.6931,318.0087"/>
    <polyline points="368.6931,322.2728 206.9914,160.3441 202.7335,164.5016"/>
    <line x1="206.9914" x2="368.6931" y1="164.6082" y2="326.5368"/>
    <polyline points="368.6931,313.7446 211.2494,155.9734 215.5073,151.816 368.6931,305.2164"/>
    <polyline points="368.6931,300.9524 219.7653,151.7094 224.0232,147.5519 368.6931,292.4242"/>
    <polyline points="368.6931,288.1601 228.2812,147.5519 347.4034,28.1575"/>
    <polyline points="351.6613,28.1575 232.5391,147.5519 368.6931,283.896"/>
    <polyline points="368.6931,279.6319 236.7971,147.5519 355.9193,28.1575"/>
    <polyline points="360.1772,28.1575 241.055,147.5519 368.6931,275.3678"/>
    <polyline points="368.6931,271.1037 245.313,147.5519 364.4352,28.1575"/>
    <polyline points="368.6931,28.1575 28.1575,28.1575 28.1575,531.2129 368.6931,531.2129 368.6931,28.1575 249.5709,147.4453 368.6931,266.8396"/>
    <polyline points="368.6931,262.5755 253.8289,147.4453 368.6931,32.4216"/>
    <polyline points="368.6931,36.6856 258.0868,147.4453 368.6931,258.3114"/>
    <line x1="368.6931" x2="266.6027" y1="254.0473" y2="151.816"/>
    <line x1="266.6027" x2="368.6931" y1="147.4453" y2="45.2138"/>
    <polyline points="368.6931,40.9497 262.3448,147.5519 266.6027,151.7094 368.6931,49.4779"/>
    <polyline points="368.6931,53.742 270.8607,151.7094 368.6931,249.7833"/>
    <polyline points="368.6931,245.5192 275.1186,151.7094 368.6931,58.0061"/>
    <line x1="368.6931" x2="283.6346" y1="62.2701" y2="147.4453"/>
    <line x1="283.6346" x2="368.6931" y1="151.816" y2="236.991"/>
    <polyline points="368.6931,241.2551 279.3767,151.7094 283.6346,147.5519 368.6931,232.7269"/>
    <polyline points="368.6931,228.4628 287.8926,147.4453 368.6931,66.5342"/>
    <polyline points="368.6931,70.7983 292.1505,147.4453 368.6931,224.1988"/>
    <polyline points="368.6931,219.9347 296.4085,147.4453 300.6664,143.2878 368.6931,211.4065"/>
    <polyline points="368.6931,207.1424 304.9244,143.1812 368.6931,79.3265"/>
    <line x1="368.6931" x2="300.6664" y1="75.0624" y2="143.1812"/>
    <line x1="300.6664" x2="368.6931" y1="147.5519" y2="215.6706"/>
    <polyline points="368.6931,202.8784 309.1823,143.1812 368.6931,83.5906"/>
    <polyline points="368.6931,87.8546 313.4402,143.1812 368.6931,198.6143"/>
    <polyline points="368.6931,194.3502 317.6982,143.1812 368.6931,92.1187"/>
    <polyline points="368.6931,96.3829 321.9561,143.1812 368.6931,190.0861"/>
    <polyline points="368.6931,185.822 326.2141,143.1812 368.6931,100.647"/>
    <polyline points="368.6931,104.9111 330.472,143.1812 368.6931,181.5579"/>
    <polyline points="368.6931,177.2939 334.73,143.1812 338.9879,139.0237 368.6931,168.7657"/>
    <line x1="368.6931" x2="338.9879" y1="173.0298" y2="143.2878"/>
    <polyline points="338.9879,138.9171 343.2459,134.7596 368.6931,160.2375"/>
    <line x1="368.6931" x2="343.2459" y1="164.5016" y2="139.0237"/>
    <polyline points="343.2459,134.653 347.5038,130.4956 368.6931,151.7094"/>
    <line x1="368.6931" x2="347.5038" y1="155.9734" y2="134.7596"/>
    <line x1="347.5038" x2="368.6931" y1="130.389" y2="109.1751"/>
    <line x1="368.6931" x2="360.2777" y1="113.4392" y2="121.8608"/>
    <line x1="360.2777" x2="368.6931" y1="126.2315" y2="134.653"/>
    <polyline points="368.6931,130.389 360.2777,121.9674 356.0197,126.1249"/>
    <line x1="356.0197" x2="368.6931" y1="130.4956" y2="143.1812"/>
    <polyline points="368.6931,138.9171 356.0197,126.2315 351.7618,130.389 368.6931,147.4453"/>
    <polyline points="368.6931,126.1249 364.5356,121.8608 368.6931,117.7033"/>
    <line x1="343.1454" x2="224.0232" y1="28.1575" y2="147.4453"/>
    <line x1="224.0232" x2="368.6931" y1="151.816" y2="296.6883"/>
    <line x1="368.6931" x2="215.5073" y1="309.4805" y2="156.0801"/>
    <line x1="215.5073" x2="338.8875" y1="151.7094" y2="28.1575"/>
    <line x1="334.6295" x2="206.9914" y1="28.1575" y2="155.9734"/>
    <line x1="202.7335" x2="368.6931" y1="177.4005" y2="343.5932"/>
    <polyline points="368.6931,339.3291 202.7335,173.1364 198.4755,177.2939"/>
    <line x1="198.4755" x2="368.6931" y1="220.0413" y2="390.4981"/>
    <polyline points="368.6931,394.7622 194.2176,220.0413 104.8007,309.4805 326.1136,531.2129"/>
    <polyline points="321.8557,531.2129 100.4422,309.5871 96.2848,313.8512 313.3398,531.2129"/>
    <line x1="317.5977" x2="100.5427" y1="531.2129" y2="313.8512"/>
    <polyline points="100.5427,309.4805 198.4755,211.5131 368.6931,381.9699"/>
    <polyline points="368.6931,386.234 198.4755,215.7772 194.2176,219.9347"/>
    <line x1="194.2176" x2="368.6931" y1="232.8335" y2="407.5544"/>
    <polyline points="368.6931,411.8185 189.9596,232.8335 185.7017,236.991"/>
    <line x1="189.9596" x2="368.6931" y1="237.0976" y2="416.0826"/>
    <polyline points="368.6931,420.3467 185.7017,237.0976 138.8642,283.896"/>
    <line x1="138.8642" x2="368.6931" y1="288.2667" y2="518.4207"/>
    <polyline points="368.6931,522.6847 134.6063,288.2667 130.3484,292.4242"/>
    <line x1="134.6063" x2="368.6931" y1="292.5308" y2="526.9488"/>
    <polyline points="368.6931,531.2129 130.3484,292.5308 126.0904,296.6883"/>
    <line x1="130.3484" x2="364.4352" y1="296.7949" y2="531.2129"/>
    <polyline points="360.1772,531.2129 126.0904,296.7949 121.8325,300.9524"/>
    <line x1="126.0904" x2="355.9193" y1="301.059" y2="531.2129"/>
    <polyline points="351.6613,531.2129 121.8325,301.059 117.5745,305.2164"/>
    <line x1="121.8325" x2="347.4034" y1="305.323" y2="531.2129"/>
    <polyline points="343.1454,531.2129 117.474,305.323 113.3166,309.5871 334.6295,531.2129"/>
    <polyline points="330.3716,531.2129 109.0586,309.4805 194.2176,224.3054 368.6931,399.0262"/>
    <polyline points="368.6931,403.2903 194.2176,228.5695 189.9596,232.7269"/>
    <line x1="185.7017" x2="368.6931" y1="245.6258" y2="428.8748"/>
    <polyline points="368.6931,433.1389 181.4437,245.6258 177.1858,249.7833"/>
    <line x1="181.4437" x2="368.6931" y1="249.8899" y2="437.403"/>
    <polyline points="368.6931,441.6671 177.1858,249.8899 172.9278,254.0473"/>
    <line x1="177.1858" x2="368.6931" y1="254.1539" y2="445.9312"/>
    <polyline points="368.6931,450.1952 172.9278,254.1539 168.6699,258.3114"/>
    <line x1="172.9278" x2="368.6931" y1="258.418" y2="454.4593"/>
    <polyline points="368.6931,458.7234 168.6699,258.418 164.4119,262.5755"/>
    <line x1="168.6699" x2="368.6931" y1="262.6821" y2="462.9876"/>
    <polyline points="368.6931,467.2517 164.4119,262.6821 160.154,266.8396"/>
    <line x1="164.4119" x2="368.6931" y1="266.9462" y2="471.5157"/>
    <polyline points="368.6931,475.7798 160.154,266.9462 155.896,271.1037"/>
    <line x1="160.154" x2="368.6931" y1="271.2103" y2="480.0439"/>
    <polyline points="368.6931,484.308 155.896,271.2103 151.6381,275.3678"/>
    <line x1="155.896" x2="368.6931" y1="275.4744" y2="488.5721"/>
    <polyline points="368.6931,492.8362 151.6381,275.4744 147.3801,279.6319"/>
    <line x1="151.6381" x2="368.6931" y1="279.7385" y2="497.1002"/>
    <polyline points="368.6931,501.3643 147.3801,279.7385 143.1222,283.896 368.6931,509.8925"/>
    <polyline points="368.6931,514.1566 138.8642,284.0026 134.6063,288.1601"/>
    <line x1="147.3801" x2="368.6931" y1="284.0026" y2="505.6284"/>
    <line x1="338.8875" x2="117.5745" y1="531.2129" y2="309.5871"/>
    <polyline points="28.1575,309.5871 211.1489,492.9428 177.0853,526.9488 28.1575,377.8124"/>
    <polyline points="28.1575,373.5484 177.0853,522.6847 206.891,492.9428 28.1575,313.8512"/>
    <polyline points="28.1575,318.1153 202.633,492.9428 198.3751,497.1002 28.1575,326.6434"/>
    <line x1="28.1575" x2="198.3751" y1="322.3794" y2="492.8362"/>
    <polyline points="198.3751,497.2068 177.0853,518.4207 28.1575,369.2843"/>
    <polyline points="28.1575,365.0202 177.0853,514.1566 181.3433,509.9991"/>
    <line x1="177.0853" x2="28.1575" y1="509.8925" y2="360.7561"/>
    <polyline points="28.1575,356.492 181.3433,509.8925 185.6012,505.735"/>
    <line x1="181.3433" x2="28.1575" y1="505.6284" y2="352.2279"/>
    <polyline points="28.1575,347.9639 185.6012,505.6284 189.8592,501.4709"/>
    <line x1="185.6012" x2="28.1575" y1="501.3643" y2="343.6998"/>
    <polyline points="28.1575,339.4357 189.8592,501.3643 194.1171,497.2068 28.1575,330.9075"/>
    <line x1="28.1575" x2="189.8592" y1="335.1716" y2="497.1002"/>
    <polyline points="181.4437,531.2129 219.6648,492.8362 28.1575,301.059"/>
    <polyline points="28.1575,305.323 215.4069,492.9428 177.0853,531.2129 28.1575,382.0765"/>
    <line x1="28.1575" x2="172.8274" y1="386.3406" y2="531.2129"/>
    <line x1="168.5694" x2="28.1575" y1="531.2129" y2="390.6047"/>
    <line x1="28.1575" x2="164.3115" y1="394.8688" y2="531.2129"/>
    <line x1="160.0535" x2="28.1575" y1="531.2129" y2="399.1328"/>
    <line x1="28.1575" x2="155.7956" y1="403.3969" y2="531.2129"/>
    <line x1="151.5376" x2="28.1575" y1="531.2129" y2="407.661"/>
    <line x1="28.1575" x2="147.2797" y1="411.9251" y2="531.2129"/>
    <line x1="143.0217" x2="28.1575" y1="531.2129" y2="416.1892"/>
    <line x1="28.1575" x2="138.7638" y1="420.4533" y2="531.2129"/>
    <line x1="134.5058" x2="28.1575" y1="531.2129" y2="424.7173"/>
    <line x1="28.1575" x2="130.2479" y1="428.9814" y2="531.2129"/>
    <line x1="125.9899" x2="28.1575" y1="531.2129" y2="433.2455"/>
    <line x1="28.1575" x2="121.732" y1="437.5096" y2="531.2129"/>
    <line x1="117.474" x2="28.1575" y1="531.2129" y2="441.7737"/>
    <line x1="28.1575" x2="113.2161" y1="446.0378" y2="531.2129"/>
    <line x1="108.9581" x2="28.1575" y1="531.2129" y2="450.3018"/>
    <line x1="28.1575" x2="104.7002" y1="454.5659" y2="531.2129"/>
    <line x1="100.4422" x2="28.1575" y1="531.2129" y2="458.83"/>
    <line x1="28.1575" x2="96.1843" y1="463.0942" y2="531.2129"/>
    <line x1="91.9262" x2="28.1575" y1="531.2129" y2="467.3583"/>
    <line x1="28.1575" x2="87.6683" y1="471.6223" y2="531.2129"/>
    <line x1="83.4103" x2="28.1575" y1="531.2129" y2="475.8864"/>
    <line x1="28.1575" x2="79.1524" y1="480.1505" y2="531.2129"/>
    <line x1="74.8944" x2="28.1575" y1="531.2129" y2="484.4146"/>
    <line x1="28.1575" x2="70.6365" y1="488.6787" y2="531.2129"/>
    <line x1="66.3786" x2="28.1575" y1="531.2129" y2="492.9428"/>
    <line x1="28.1575" x2="62.1206" y1="497.2068" y2="531.2129"/>
    <line x1="57.8627" x2="28.1575" y1="531.2129" y2="501.4709"/>
    <line x1="28.1575" x2="53.6047" y1="505.735" y2="531.2129"/>
    <line x1="49.3468" x2="28.1575" y1="531.2129" y2="509.9991"/>
    <line x1="28.1575" x2="45.0888" y1="514.2632" y2="531.2129"/>
    <line x1="40.8309" x2="28.1575" y1="531.2129" y2="518.5273"/>
    <line x1="28.1575" x2="36.5729" y1="522.7913" y2="531.2129"/>
    <line x1="32.315" x2="28.1575" y1="531.2129" y2="527.0554"/>
    <polyline points="211.2494,531.2129 249.4704,492.8362 70.737,313.7446 198.4755,185.9286 368.6931,356.3854"/>
    <polyline points="368.6931,360.6495 198.4755,190.1927 74.9949,313.7446 257.9863,497.1002 224.0232,531.2129"/>
    <polyline points="219.7653,531.2129 253.7284,497.2068 249.5709,492.9428"/>
    <line x1="249.4704" x2="215.5073" y1="497.2068" y2="531.2129"/>
    <polyline points="228.2812,531.2129 262.2443,497.1002 79.2529,313.7446 198.4755,194.4568 368.6931,364.9136"/>
    <polyline points="368.6931,369.1777 198.4755,198.7209 83.5108,313.7446 266.5022,497.1002 232.5391,531.2129"/>
    <line x1="236.7971" x2="266.5022" y1="531.2129" y2="501.4709"/>
    <line x1="270.7602" x2="266.6027" y1="501.3643" y2="497.2068"/>
    <line x1="270.7602" x2="245.313" y1="505.735" y2="531.2129"/>
    <polyline points="249.5709,531.2129 275.0181,505.735 270.8607,501.4709 241.055,531.2129"/>
    <line x1="253.8289" x2="275.0181" y1="531.2129" y2="509.9991"/>
    <line x1="279.2762" x2="275.1186" y1="509.8925" y2="505.735"/>
    <line x1="279.2762" x2="262.3448" y1="514.2632" y2="531.2129"/>
    <polyline points="266.6027,531.2129 283.5341,514.2632 279.3767,509.9991 258.0868,531.2129"/>
    <polyline points="270.8607,531.2129 283.6346,518.5273 287.7921,522.7913 279.3767,531.2129"/>
    <line x1="283.6346" x2="287.7921" y1="531.2129" y2="527.0554"/>
    <polyline points="287.8926,531.2129 292.05,526.9488 287.8926,522.7913"/>
    <line x1="283.5341" x2="275.1186" y1="522.7913" y2="531.2129"/>
    <line x1="292.1505" x2="296.308" y1="527.0554" y2="531.2129"/>
    <line x1="300.5659" x2="283.6346" y1="531.2129" y2="514.2632"/>
    <polyline points="304.8239,531.2129 87.7688,313.7446 198.4755,202.985 368.6931,373.4418"/>
    <polyline points="368.6931,377.7058 198.4755,207.249 92.0267,313.7446 309.0818,531.2129"/>
    <polyline points="368.6931,424.6107 185.7017,241.3617 181.4437,245.5192"/>
  </g>
</svg>
