<?xml version="1.0" encoding="utf-8" ?>
<svg xmlns="http://www.w3.org/2000/svg" xmlns:cc="http://creativecommons.org/ns" xmlns:dc="http://purl.org/dc/elements/1.1/" xmlns:ev="http://www.w3.org/2001/xml-events" xmlns:inkscape="http://www.inkscape.org/namespaces/inkscape" xmlns:rdf="http://www.w3.org/1999/02/22-rdf-syntax-ns" xmlns:sodipodi="http://sodipodi.sourceforge.net/DTD/sodipodi-0.dtd" xmlns:xlink="http://www.w3.org/1999/xlink" baseProfile="tiny" height="14.80000799cm" version="1.2" viewBox="0 0 396.850608 559.3703808000001" width="10.50000567cm">
  <metadata>
    <rdf:RDF>
      <cc:Work>
        <dc:format>image/svg+xml</dc:format>
        <dc:source>vpype read 'C:\Users\Thomas\dev\github\generative_art\vsketch\my_sketches\maze\output\maze_liked_11.svg' linemerge linesimplify linesort write 'opt\maze_liked_11_opt.svg'
</dc:source>
        <dc:date>2024-03-25T19:35:59.330123</dc:date>
      </cc:Work>
    </rdf:RDF>
  </metadata>
  <defs/>
  <g fill="none" id="layer1" inkscape:groupmode="layer" inkscape:label="1" stroke="#0000ff" stroke-width="1.0" style="display:inline">
    <line x1="25.852" x2="15.7228" y1="15.7228" y2="25.852"/>
    <line x1="15.7228" x2="36.0027" y1="36.0048" y2="15.7228"/>
    <line x1="46.1534" x2="15.7228" y1="15.7228" y2="46.1577"/>
    <line x1="15.7228" x2="56.3042" y1="56.3105" y2="15.7228"/>
    <line x1="66.4549" x2="15.7228" y1="15.7228" y2="66.4634"/>
    <line x1="15.7228" x2="76.6056" y1="76.6162" y2="15.7228"/>
    <line x1="86.7564" x2="15.7228" y1="15.7228" y2="86.7691"/>
    <line x1="15.7228" x2="96.9072" y1="96.922" y2="15.7228"/>
    <line x1="107.0579" x2="15.7228" y1="15.7228" y2="107.0749"/>
    <line x1="15.7228" x2="117.2086" y1="117.2277" y2="15.7228"/>
    <line x1="127.3594" x2="15.7228" y1="15.7228" y2="127.3806"/>
    <line x1="15.7228" x2="137.5101" y1="137.5334" y2="15.7228"/>
    <line x1="147.6608" x2="15.7228" y1="15.7228" y2="147.6863"/>
    <line x1="15.7228" x2="157.8116" y1="157.8391" y2="15.7228"/>
    <line x1="167.9623" x2="15.7228" y1="15.7228" y2="167.9919"/>
    <line x1="15.7228" x2="178.113" y1="178.1448" y2="15.7228"/>
    <line x1="188.2638" x2="15.7228" y1="15.7228" y2="188.2976"/>
    <line x1="15.7228" x2="198.4145" y1="198.4505" y2="15.7228"/>
    <line x1="208.5652" x2="15.7228" y1="15.7228" y2="208.6033"/>
    <line x1="15.7228" x2="218.716" y1="218.7562" y2="15.7228"/>
    <line x1="228.8667" x2="15.7228" y1="15.7228" y2="228.909"/>
    <line x1="15.7228" x2="239.0174" y1="239.0619" y2="15.7228"/>
    <line x1="249.1682" x2="15.7228" y1="15.7228" y2="249.2147"/>
    <line x1="15.7228" x2="259.3189" y1="259.3676" y2="15.7228"/>
    <line x1="269.4696" x2="15.7228" y1="15.7228" y2="269.5204"/>
    <line x1="15.7228" x2="279.6204" y1="279.6734" y2="15.7228"/>
    <line x1="289.7712" x2="107.0795" y1="15.7228" y2="198.4505"/>
    <line x1="127.381" x2="289.7712" y1="198.4742" y2="360.8962"/>
    <line x1="299.9435" x2="381.1278" y1="360.8962" y2="279.6971"/>
    <line x1="381.1278" x2="310.0942" y1="269.5441" y2="340.5905"/>
    <polyline points="299.9219,340.5905 208.5868,249.2147 381.1278,76.6399"/>
    <polyline points="381.1278,86.7928 218.7376,249.2147 228.8667,259.3676"/>
    <line x1="228.8883" x2="381.1278" y1="249.2147" y2="96.9457"/>
    <polyline points="381.1278,107.0986 228.8883,259.3676 310.0726,340.5905 299.9219,350.7433 198.4361,249.2147 381.1278,66.4871"/>
    <polyline points="381.1278,56.3342 188.2854,249.2147 299.9219,360.8962 289.7712,371.049 117.2302,198.4505 127.381,188.3214 167.9839,228.909 381.1278,15.7228"/>
    <polyline points="370.977,15.7228 167.9623,218.7562 137.5317,188.2976 310.0726,15.7228"/>
    <line x1="299.9219" x2="127.381" y1="15.7228" y2="188.2976"/>
    <line x1="157.8332" x2="330.3741" y1="188.2976" y2="15.7228"/>
    <polyline points="320.2234,15.7228 147.6824,188.2976 157.8116,198.4505 340.5248,15.7228"/>
    <line x1="350.6756" x2="167.9839" y1="15.7228" y2="198.4505"/>
    <polyline points="157.8332,198.4742 167.9839,208.6033 360.8263,15.7228"/>
    <line x1="381.1278" x2="178.1346" y1="25.8757" y2="228.909"/>
    <polyline points="167.9839,228.9328 178.1346,239.0619 381.1278,36.0285"/>
    <line x1="381.1278" x2="188.2854" y1="46.1814" y2="239.0619"/>
    <line x1="178.1346" x2="188.2638" y1="239.0856" y2="249.2147"/>
    <polyline points="137.5317,269.5441 259.3189,391.3784 107.0795,543.6475"/>
    <polyline points="96.9288,543.6475 249.1682,391.3547 137.5101,279.6971 15.7228,401.5076"/>
    <polyline points="15.7228,411.6604 137.5101,289.8499 147.6608,299.9791 15.7228,431.9661"/>
    <line x1="15.7228" x2="137.5101" y1="421.8133" y2="300.0028"/>
    <line x1="147.6824" x2="228.8667" y1="300.0028" y2="381.2019"/>
    <line x1="228.8667" x2="76.6272" y1="391.3784" y2="543.6475"/>
    <polyline points="86.778,543.6475 239.0174,391.3784 228.8883,381.2256 66.4765,543.6475"/>
    <polyline points="56.3258,543.6475 218.716,381.2019 147.6608,310.1556 15.7228,442.119"/>
    <polyline points="15.7228,452.2718 147.6608,320.3085 208.5652,381.2019 46.175,543.6475"/>
    <polyline points="36.0243,543.6475 198.4145,381.2256 188.2854,371.0727 15.7228,543.6475 381.1278,543.6475 381.1278,15.7228 15.7228,15.7228 15.7228,543.6475"/>
    <line x1="25.8736" x2="188.2638" y1="543.6475" y2="381.2256"/>
    <line x1="188.2638" x2="157.8332" y1="371.049" y2="340.6142"/>
    <line x1="147.6608" x2="15.7228" y1="340.6142" y2="472.5776"/>
    <polyline points="15.7228,462.4247 147.6608,330.4613 157.8116,340.5905 15.7228,482.7305"/>
    <polyline points="15.7228,492.8833 157.8116,350.767 167.9623,360.8962 15.7228,513.189"/>
    <line x1="15.7228" x2="167.9623" y1="523.3418" y2="371.0727"/>
    <polyline points="167.9839,360.9199 178.113,371.0727 15.7228,533.4947"/>
    <line x1="15.7228" x2="157.8116" y1="503.0361" y2="360.9199"/>
    <line x1="127.3594" x2="15.7228" y1="269.5441" y2="381.2019"/>
    <polyline points="15.7228,391.3547 137.5101,269.5204 127.3594,259.3913 15.7228,371.049"/>
    <line x1="15.7228" x2="117.2086" y1="360.8962" y2="259.3913"/>
    <line x1="127.3594" x2="117.2302" y1="259.3676" y2="249.2385"/>
    <line x1="107.0579" x2="15.7228" y1="249.2385" y2="340.5905"/>
    <polyline points="15.7228,330.4376 107.0579,239.0856 117.2086,249.2147 15.7228,350.7433"/>
    <polyline points="15.7228,320.2848 107.0579,228.909 96.9072,218.7799 15.7228,299.9791"/>
    <line x1="15.7228" x2="96.9072" y1="310.1319" y2="228.9328"/>
    <polyline points="107.0795,228.9328 269.4696,391.3547 117.2302,543.6475"/>
    <line x1="127.381" x2="279.6204" y1="543.6475" y2="391.3784"/>
    <polyline points="279.6204,381.2019 107.0795,208.6271 96.9288,218.7562"/>
    <polyline points="107.0795,218.7799 279.6204,391.3547 289.7712,381.2256"/>
    <polyline points="299.9435,300.0028 310.0942,310.1319 381.1278,239.0856"/>
    <polyline points="381.1278,249.2385 310.0942,320.2848 259.3405,269.5441"/>
    <line x1="259.3405" x2="381.1278" y1="259.3676" y2="137.5571"/>
    <polyline points="381.1278,127.4043 249.1898,259.3913 259.3405,269.5204 381.1278,147.71"/>
    <polyline points="381.1278,157.8628 269.4912,269.5441 279.642,279.6734 381.1278,178.1685"/>
    <polyline points="381.1278,188.3214 289.7928,279.6971 299.9435,289.8262 381.1278,208.6271"/>
    <polyline points="381.1278,218.7799 299.9435,299.9791 279.642,279.6971"/>
    <line x1="279.642" x2="381.1278" y1="269.5204" y2="168.0157"/>
    <line x1="381.1278" x2="299.9435" y1="198.4742" y2="279.6734"/>
    <line x1="310.0942" x2="381.1278" y1="299.9791" y2="228.9328"/>
    <polyline points="381.1278,259.3913 310.0726,330.4376 239.039,259.3676 381.1278,117.2514"/>
    <polyline points="381.1278,289.8499 289.7712,381.2019 107.0795,198.4742 15.7228,289.8262"/>
    <line x1="137.5317" x2="381.1278" y1="543.6475" y2="300.0028"/>
    <line x1="381.1278" x2="147.6824" y1="310.1556" y2="543.6475"/>
    <line x1="157.8332" x2="381.1278" y1="543.6475" y2="320.3085"/>
    <line x1="381.1278" x2="167.9839" y1="330.4613" y2="543.6475"/>
    <line x1="178.1346" x2="381.1278" y1="543.6475" y2="340.6142"/>
    <line x1="381.1278" x2="188.2854" y1="350.767" y2="543.6475"/>
    <line x1="198.4361" x2="381.1278" y1="543.6475" y2="360.9199"/>
    <line x1="381.1278" x2="208.5868" y1="371.0727" y2="543.6475"/>
    <line x1="218.7376" x2="381.1278" y1="543.6475" y2="381.2256"/>
    <line x1="381.1278" x2="228.8883" y1="391.3784" y2="543.6475"/>
    <line x1="239.039" x2="381.1278" y1="543.6475" y2="401.5313"/>
    <line x1="381.1278" x2="249.1898" y1="411.6841" y2="543.6475"/>
    <line x1="259.3405" x2="381.1278" y1="543.6475" y2="421.837"/>
    <line x1="381.1278" x2="269.4912" y1="431.9898" y2="543.6475"/>
    <line x1="279.642" x2="381.1278" y1="543.6475" y2="442.1427"/>
    <line x1="381.1278" x2="289.7928" y1="452.2955" y2="543.6475"/>
    <line x1="299.9435" x2="381.1278" y1="543.6475" y2="462.4484"/>
    <line x1="381.1278" x2="310.0942" y1="472.6013" y2="543.6475"/>
    <line x1="320.245" x2="381.1278" y1="543.6475" y2="482.7542"/>
    <line x1="381.1278" x2="330.3957" y1="492.907" y2="543.6475"/>
    <line x1="340.5464" x2="381.1278" y1="543.6475" y2="503.0599"/>
    <line x1="381.1278" x2="350.6972" y1="513.2127" y2="543.6475"/>
    <line x1="360.8479" x2="381.1278" y1="543.6475" y2="523.3656"/>
    <line x1="381.1278" x2="370.9986" y1="533.5184" y2="543.6475"/>
  </g>
</svg>
