<?xml version="1.0" encoding="utf-8" ?>
<svg xmlns="http://www.w3.org/2000/svg" xmlns:cc="http://creativecommons.org/ns" xmlns:dc="http://purl.org/dc/elements/1.1/" xmlns:ev="http://www.w3.org/2001/xml-events" xmlns:inkscape="http://www.inkscape.org/namespaces/inkscape" xmlns:rdf="http://www.w3.org/1999/02/22-rdf-syntax-ns" xmlns:sodipodi="http://sodipodi.sourceforge.net/DTD/sodipodi-0.dtd" xmlns:xlink="http://www.w3.org/1999/xlink" baseProfile="tiny" height="14.80000799cm" version="1.2" viewBox="0 0 396.850608 559.3703808000001" width="10.50000567cm">
  <metadata>
    <rdf:RDF>
      <cc:Work>
        <dc:format>image/svg+xml</dc:format>
        <dc:source>vpype read '.\random_lines_liked_4.svg' linemerge linesimplify linesort write random_lines_opt_1.svg
</dc:source>
        <dc:date>2024-03-22T17:30:09.038495</dc:date>
      </cc:Work>
    </rdf:RDF>
  </metadata>
  <defs/>
  <g fill="none" id="layer1" inkscape:groupmode="layer" inkscape:label="1" stroke="#0000ff" stroke-width="1.0" style="display:inline">
    <polygon points="74.7515,133.8715 53.2715,134.5092 43.6598,156.7883 45.7167,193.6953 51.8967,224.9866 44.9303,264.9336 54.7158,296.7449 40.5137,336.0354 48.1452,358.1724 54.7529,408.3743 52.4958,440.1418 86.4233,434.8351 117.3369,432.0977 155.8496,438.7879 182.4019,430.7144 216.5015,433.4333 243.641,423.7724 279.3236,423.6477 311.0347,441.1564 351.5015,420.7441 352.4003,395.5717 345.8824,361.6139 356.3369,331.7799 350.9392,293.8867 344.0681,257.1334 336.5194,222.4694 345.8826,199.2716 352.713,159.7159 350.8564,131.4052 313.5841,126.6165 280.7142,118.214 248.7583,126.1925 216.3915,136.4849 188.8737,138.2539 153.3797,129.5731 101.34,128.5139 74.7515,133.8715 88.1013,166.4276 78.4251,186.7962 77.564,231.9616 88.4227,273.6241 78.5354,304.9228 73.6254,337.1516 80.1611,352.8101 84.0391,395.1317 86.4233,434.8351 84.0391,395.1317 80.1611,352.8101 73.6254,337.1516 78.5354,304.9228 88.4227,273.6241 77.564,231.9616 78.4251,186.7962 88.1013,166.4276"/>
    <polyline points="72.9615,133.9246 84.3978,165.6243 75.6994,187.3711 75.425,231.3803 84.7983,272.8999 76.5505,304.2414 70.8661,337.0586 77.4931,353.257 81.5985,396.2352 83.596,435.2773"/>
    <polyline points="80.7688,435.7196 79.158,397.3388 74.8252,353.7038 68.1068,336.9656 74.5655,303.5599 81.174,272.1757 73.2861,230.7991 72.9737,187.946 80.6944,164.821 71.1715,133.9778"/>
    <polyline points="69.3815,134.0309 76.9909,164.0178 70.248,188.521 71.1472,230.2178 77.5496,271.4515 72.5805,302.8784 65.3475,336.8726 72.1572,354.1507 76.7175,398.4423 77.9415,436.1618"/>
    <polyline points="75.1142,436.604 74.277,399.5459 69.4892,354.5975 62.5882,336.7795 70.5956,302.1969 73.9252,270.7272 69.0082,229.6366 67.5223,189.0959 73.2875,163.2145 67.5915,134.0841"/>
    <polyline points="65.8015,134.1372 69.584,162.4112 64.7966,189.6708 66.8693,229.0553 70.3008,270.003 68.6106,301.5154 59.8289,336.6865 66.8212,355.0444 71.8365,400.6494 72.2869,437.0462"/>
    <polyline points="69.4596,437.4885 69.396,401.753 64.1532,355.4913 57.0695,336.5935 66.6256,300.8339 66.6765,269.2788 64.7304,228.4741 62.0709,190.2458 65.8805,161.6079 64.0115,134.1904"/>
    <polyline points="62.2215,134.2435 62.1771,160.8046 59.3452,190.8207 62.5914,227.8929 63.0521,268.5546 64.6407,300.1524 54.3102,336.5005 61.4852,355.9381 66.9554,402.8565 66.6323,437.9307"/>
    <polyline points="63.805,438.3729 64.5149,403.9601 58.8172,356.385 51.5509,336.4075 62.6557,299.4709 59.4277,267.8304 60.4525,227.3116 56.6195,191.3956 58.4736,160.0014 60.4315,134.2966"/>
    <polyline points="58.6415,134.3498 54.7701,159.1981 53.8938,191.9705 58.3135,226.7304 55.8034,267.1062 60.6707,298.7894 48.7916,336.3144 56.1492,356.8319 62.0744,405.0636 60.9777,438.8152"/>
    <polyline points="58.1504,439.2574 59.6339,406.1672 53.4812,357.2787 46.0323,336.2214 58.6858,298.1079 52.179,266.382 56.1746,226.1491 51.1681,192.5455 51.0667,158.3948 56.8515,134.4029"/>
    <polyline points="55.0615,134.4561 47.3632,157.5915 48.4424,193.1204 54.0357,225.5679 48.5546,265.6578 56.7008,297.4264 43.273,336.1284 50.8132,357.7256 57.1934,407.2707 55.3231,439.6996"/>
    <polyline points="52.6839,437.4945 86.2246,431.5265 116.2078,429.3053 155.5363,436.0531 182.7431,427.1512 216.5876,429.5383 243.3963,421.8545 278.9615,421.6455 311.0215,437.1114 351.5764,418.6464"/>
    <polyline points="351.6513,416.5487 311.0083,433.0663 278.5994,419.6432 243.1517,419.9366 216.6738,425.6432 183.0842,423.588 155.223,433.3183 115.0786,426.5128 86.026,428.2179 52.872,434.8472"/>
    <polyline points="53.0601,432.1999 85.8273,424.9092 113.9495,423.7204 154.9097,430.5834 183.4254,420.0247 216.76,421.7482 242.907,418.0188 278.2372,417.641 310.9951,429.0212 351.7262,414.451"/>
    <polyline points="351.8011,412.3533 310.9819,424.9762 277.8751,415.6388 242.6623,416.1009 216.8461,417.8532 183.7666,416.4615 154.5964,427.8486 112.8203,420.928 85.6286,421.6006 53.2482,429.5526"/>
    <polyline points="53.4363,426.9053 85.4299,418.292 111.6912,418.1356 154.2832,425.1138 184.1078,412.8982 216.9323,413.9581 242.4177,414.183 277.5129,413.6366 310.9687,420.9311 351.876,410.2556"/>
    <polyline points="351.9509,408.1579 310.9556,416.8861 277.1507,411.6343 242.173,412.2651 217.0184,410.0631 184.449,409.335 153.9699,422.379 110.5621,415.3432 85.2312,414.9834 53.6243,424.2581"/>
    <polyline points="53.8124,421.6108 85.0325,411.6748 109.4329,412.5507 153.6566,419.6442 184.7902,405.7717 217.1046,406.1681 241.9284,410.3473 276.7886,409.6321 310.9424,412.841 352.0258,406.0602"/>
    <polyline points="352.1007,403.9625 310.9292,408.796 276.4265,407.6299 241.6837,408.4294 217.1907,402.273 185.1313,402.2085 153.3433,416.9094 108.3038,409.7583 84.8338,408.3661 54.0005,418.9635"/>
    <polyline points="54.1886,416.3162 84.6351,405.0575 107.1746,406.9659 153.03,414.1746 185.4725,398.6452 217.2769,398.378 241.4391,406.5115 310.916,404.7509 352.1756,401.8648"/>
    <polyline points="352.2505,399.7671 310.9028,400.7058 275.7022,403.6255 241.1944,404.5937 217.363,394.483 185.8137,395.082 152.7168,411.4398 106.0455,404.1735 84.4364,401.7489 54.3767,413.6689"/>
    <polyline points="54.5648,411.0216 84.2377,398.4403 152.4035,408.705 186.1549,391.5187 217.4492,390.5879 240.9497,402.6758 275.3401,401.6232 310.8897,396.6608 352.3254,397.6694"/>
    <polygon points="352.4003,395.5717 310.8765,392.6157 274.978,399.621 240.7051,400.7579 217.5353,386.6929 186.4961,387.9555 152.0902,405.9701 103.7872,398.5887 84.0391,395.1317 54.7529,408.3743 84.0391,395.1317 103.7872,398.5887 152.0902,405.9701 186.4961,387.9555 217.5353,386.6929 240.7051,400.7579 274.978,399.621 310.8765,392.6157"/>
    <polyline points="351.8571,392.7419 310.6646,391.0732 276.1019,396.3405 240.4796,397.2269 217.9689,384.8523 186.8796,386.7329 151.559,401.6833 104.541,396.5101 83.7159,391.6049 54.2022,404.1908"/>
    <polyline points="53.6516,400.0073 83.3927,388.0781 105.2948,394.4315 151.0279,397.3966 187.263,385.5104 218.4025,383.0117 240.2541,393.6959 277.2258,393.0599 310.4528,389.5308 351.314,389.912"/>
    <polyline points="350.7708,387.0822 310.241,387.9883 278.3498,389.7793 240.0286,390.1649 218.836,381.1711 187.6465,384.2879 150.4967,393.1098 106.0486,392.3529 83.0696,384.5513 53.101,395.8238"/>
    <polyline points="52.5503,391.6403 82.7464,381.0245 106.8024,390.2743 149.9656,388.823 188.03,383.0654 219.2696,379.3305 239.8031,386.6339 310.0291,386.4458 350.2277,384.2524"/>
    <polyline points="349.6845,381.4226 309.8173,384.9033 280.5976,383.2182 239.5776,383.1029 219.7031,377.4899 188.4135,381.8429 149.4344,384.5362 107.5562,388.1958 82.4233,377.4977 51.9997,387.4568"/>
    <polyline points="51.4491,383.2734 82.1001,373.9709 108.31,386.1172 148.9032,380.2494 188.797,380.6204 220.1367,375.6493 239.3521,379.5719 281.7216,379.9377 309.6055,383.3608 349.1413,378.5928"/>
    <polyline points="348.5982,375.763 309.3936,381.8184 282.8455,376.6571 239.1266,376.0409 220.5703,373.8087 189.1805,379.3979 148.3721,375.9626 109.0638,384.0386 81.7769,370.4441 50.8984,379.0899"/>
    <polyline points="50.3478,374.9064 81.4538,366.9173 109.8176,381.96 147.8409,371.6758 189.564,378.1754 221.0038,371.9681 283.9694,373.3766 309.1818,380.2759 348.055,372.9332"/>
    <polyline points="347.5118,370.1034 308.97,378.7334 285.0933,370.096 238.6755,368.9789 221.4374,370.1275 189.9475,376.9528 147.3098,367.389 110.5714,379.8814 81.1306,363.3905 49.7972,370.7229"/>
    <polyline points="49.2465,366.5394 80.8075,359.8637 111.3252,377.8029 146.7786,363.1022 190.331,375.7303 221.871,368.287 238.45,365.4479 286.2172,366.8155 308.7581,377.1909 346.9687,367.2736"/>
    <polyline points="346.4255,364.4438 308.5463,375.6484 287.3411,363.5349 238.2245,361.9169 222.3045,366.4464 190.7145,374.5078 146.2474,358.8154 112.079,375.7243 80.4843,356.3369 48.6959,362.3559"/>
    <polyline points="47.5093,356.3277 79.6165,351.5052 112.0249,369.688 145.9737,352.8002 190.0668,370.0006 221.1038,361.8811 237.8503,355.8994 286.9771,358.0857 307.967,370.0359 346.7536,359.1278"/>
    <polyline points="347.6248,356.6416 307.5996,365.9659 285.4891,355.917 237.7015,353.4129 219.4696,359.1564 189.0355,366.7158 146.2312,351.0717 111.217,365.7304 79.0719,350.2004 46.8733,354.4829"/>
    <polyline points="46.2374,352.6382 78.5272,348.8955 110.4092,361.7727 146.4887,349.3432 188.0043,363.4311 217.8354,356.4317 237.5528,350.9264 284.0012,353.7483 307.2322,361.8958 348.496,354.1554"/>
    <polyline points="349.3672,351.6693 306.8647,357.8258 282.5132,351.5796 237.404,348.4398 216.2011,353.707 186.9731,360.1463 146.7461,347.6148 109.6013,357.8151 77.9826,347.5906 45.6014,350.7934"/>
    <polyline points="44.9654,348.9487 77.4379,346.2857 108.7934,353.8574 147.0036,345.8863 185.9418,356.8616 214.5669,350.9823 237.2552,345.9533 281.0253,349.411 306.4973,353.7558 350.2384,349.1831"/>
    <polyline points="351.1096,346.6969 306.1299,349.6857 237.1065,343.4668 184.9106,353.5768 147.2611,344.1578 107.9856,349.8998 76.8933,344.9809 44.3295,347.1039"/>
    <polyline points="43.6935,345.2592 76.3486,343.676 107.1777,345.9421 147.5185,342.4294 183.8794,350.2921 236.9577,340.9803 278.0494,345.0736 305.7624,345.6157 351.9809,344.2108"/>
    <polyline points="352.8521,341.7246 305.395,341.5457 276.5613,342.9049 236.809,338.4938 182.8481,347.0073 147.776,340.7009 106.3698,341.9844 75.804,342.3711 43.0575,343.4144"/>
    <polyline points="42.4216,341.5696 75.2593,341.0662 105.562,338.0268 148.0335,338.9724 181.8169,343.7226 236.6602,336.0073 275.0734,340.7362 305.0276,337.4756 353.7233,339.2384"/>
    <polyline points="354.5945,336.7523 304.6601,333.4056 273.5854,338.5676 236.5115,333.5207 180.7857,340.4379 148.2909,337.244 104.7541,334.0691 74.7147,339.7614 41.7856,339.7249"/>
    <polyline points="41.1496,337.8801 74.1701,338.4565 103.9462,330.1115 148.5484,335.5155 179.7544,337.1531 236.3627,331.0342 272.0975,336.3989 304.2927,329.3355 355.4657,334.2661"/>
    <polyline points="355.8871,328.6222 305.2403,322.5699 271.771,331.9792 237.6841,326.7144 179.6666,330.9165 148.0058,330.0993 104.5042,323.5959 74.0346,334.4659 41.6972,332.7612"/>
    <polyline points="42.8807,329.487 74.4438,331.7802 105.87,321.038 147.2057,326.4116 180.6099,327.9646 239.1543,324.8811 272.9324,329.7283 306.5554,319.8742 355.4373,325.4644"/>
    <polyline points="354.9875,322.3066 307.8704,317.1786 274.0938,327.4773 240.6244,323.0477 181.5533,325.0128 146.4056,322.7239 107.2358,318.48 74.8529,329.0944 44.0642,326.2128"/>
    <polyline points="45.2477,322.9386 75.2621,326.4087 108.6016,315.9221 182.4967,322.0609 242.0946,321.2144 275.2552,325.2264 309.1854,314.4829 354.5377,319.1489"/>
    <polyline points="354.0879,315.9911 310.5005,311.7873 276.4167,322.9754 243.5648,319.3811 183.4401,319.109 144.8054,315.3485 109.9674,313.3642 75.6713,323.723 46.4312,319.6644"/>
    <polyline points="47.6147,316.3902 76.0804,321.0372 111.3332,310.8063 144.0053,311.6608 184.3834,316.1571 245.0349,317.5478 277.5781,320.7244 311.8155,309.0916 353.6381,312.8333"/>
    <polyline points="353.1883,309.6756 313.1306,306.396 278.7396,318.4735 246.5051,315.7145 185.3268,313.2053 143.2052,307.9731 112.6989,308.2484 76.4896,318.3515 48.7983,313.116"/>
    <polyline points="49.9818,309.8417 76.8988,315.6658 114.0647,305.6904 142.4051,304.2854 186.2702,310.2534 247.9753,313.8812 279.9011,316.2225 314.4456,303.7003 352.7384,306.5178"/>
    <polyline points="352.2886,303.36 315.7607,301.0047 281.0625,313.9715 249.4455,312.0478 187.2135,307.3015 141.605,300.5977 115.4305,303.1325 77.3079,312.98 51.1653,306.5675"/>
    <polyline points="52.3488,303.2933 77.7171,310.2943 116.7963,300.5746 140.8049,296.91 188.1569,304.3497 205.0383,306.2526 250.9156,310.2145 282.2239,311.7206 317.0757,298.309 351.8388,300.2023"/>
    <polyline points="351.389,297.0445 318.3908,295.6134 283.3853,309.4696 252.3858,308.3812 205.2294,303.687 189.1003,301.3978 140.0048,293.2223 118.1621,298.0167 78.1263,307.6086 53.5323,300.0191"/>
    <polyline points="53.9004,294.094 79.3594,302.3146 118.461,293.641 139.9347,286.9307 189.9403,295.6654 206.6858,297.1933 252.5769,302.3755 285.0114,302.9126 319.3638,289.5068 350.3666,290.824"/>
    <polyline points="349.794,287.7612 319.0218,286.0958 285.4759,298.6066 251.2978,298.2032 207.9511,293.2653 189.8368,292.8848 140.6646,284.3268 117.3941,291.8232 80.1833,299.7064 53.0849,291.4431"/>
    <polyline points="52.2694,288.7921 81.0072,297.0982 116.3273,290.0054 141.3946,281.723 189.7334,290.1043 209.2164,289.3374 250.0187,294.0308 285.9405,294.3006 318.6798,282.6849 349.2214,284.6984"/>
    <polyline points="348.6488,281.6357 318.3378,279.2739 286.4051,289.9946 248.7396,289.8584 210.4817,285.4094 189.63,287.3237 142.1245,279.1191 115.2604,288.1876 81.8312,294.49 51.454,286.1412"/>
    <polyline points="50.6385,283.4903 82.6551,291.8817 114.1935,286.3698 142.8545,276.5151 189.5266,284.5432 211.747,281.4815 247.4605,285.6861 286.8697,285.6885 317.9958,275.8628 348.0762,278.5729"/>
    <polyline points="347.5036,275.51 317.6538,272.4519 287.3343,281.3825 246.1814,281.5137 213.0123,277.5534 189.4232,281.7626 143.5844,273.9112 113.1266,284.552 83.4791,289.2735 49.823,280.8393"/>
    <polyline points="49.0076,278.1884 84.303,286.6653 112.0597,282.7343 144.3143,271.3074 189.3197,278.982 214.2776,273.6255 244.9023,277.3413 287.7989,277.0764 317.3118,269.0409 346.931,272.4473"/>
    <polyline points="346.3585,269.3845 316.9698,265.63 288.2634,272.7703 243.6232,273.1689 215.5429,269.6975 189.2163,276.2014 145.0443,268.7035 110.9928,280.9165 85.1269,284.0571 48.1921,275.5374"/>
    <polyline points="47.3766,272.8864 85.9509,281.4488 109.9259,279.0987 145.7742,266.0996 189.1129,273.4208 216.8082,265.7695 242.3442,268.9965 288.728,268.4643 316.6278,262.219 345.7859,266.3217"/>
    <polyline points="345.2133,263.259 316.2858,258.8081 289.1926,264.1583 241.0651,264.8242 218.0735,261.8416 189.0095,270.6403 146.5041,263.4958 108.859,277.2808 86.7748,278.8406 46.5612,270.2355"/>
    <polyline points="45.7457,267.5846 87.5988,276.2323 107.7921,275.463 147.2341,260.8919 188.9061,267.8597 219.3388,257.9136 239.786,260.6518 289.6572,259.8523 315.9438,255.3971 344.6407,260.1962"/>
    <polyline points="343.439,254.2448 316.1254,249.6372 289.7686,254.0107 240.0889,253.6314 220.5638,251.6243 188.645,262.7703 148.003,255.6671 106.6354,270.0896 87.5178,270.1522 45.5108,261.6047"/>
    <polyline points="46.0913,258.2758 86.6129,266.6803 106.5455,266.534 148.042,253.0462 188.4874,260.4614 220.5235,249.2629 241.6709,250.7834 289.4154,252.4751 316.649,247.2883 342.81,251.3561"/>
    <polyline points="342.1809,248.4674 317.1726,244.9393 289.0623,250.9395 243.2529,247.9353 220.4832,246.9016 188.3298,258.1525 148.081,250.4252 106.4557,262.9784 85.708,263.2084 46.6719,254.9469"/>
    <polyline points="47.2524,251.618 84.8031,259.7366 106.3658,259.4228 148.12,247.8043 188.1721,255.8436 220.4429,244.5402 244.8348,245.0873 288.7091,249.4039 317.6961,242.5904 341.5518,245.5788"/>
    <polyline points="340.9228,242.6901 318.2197,240.2414 288.3559,247.8683 246.4168,242.2393 220.4025,242.1789 188.0145,253.5347 148.159,245.1834 106.2759,255.8672 83.8982,256.2647 47.833,248.289"/>
    <polyline points="48.4135,244.9601 82.9933,252.7928 106.1861,252.3116 148.198,242.5624 187.8569,251.2257 220.3622,239.8175 247.9988,239.3912 288.0028,246.3327 318.7433,237.8925 340.2937,239.8014"/>
    <polyline points="339.6647,236.9128 319.2669,235.5436 287.6496,244.7972 249.5808,236.5432 220.3219,237.4561 187.6993,248.9168 148.237,239.9415 106.0962,248.756 82.0884,249.3209 48.994,241.6312"/>
    <polyline points="49.5746,238.3023 81.1836,245.8491 106.0064,245.2003 148.276,237.3206 187.5416,246.6079 220.2816,235.0948 251.1628,233.6952 287.2964,243.2616 319.7905,233.1946 339.0356,234.0241"/>
    <polyline points="338.4065,231.1354 320.314,230.8457 286.9433,241.726 252.7448,230.8471 220.2413,232.7334 187.384,244.299 148.315,234.6996 105.9165,241.6447 80.2787,242.3772 50.1551,234.9734"/>
    <polyline points="50.7356,231.6445 79.3738,238.9053 105.8267,238.0891 148.354,232.0787 187.2264,241.9901 220.201,230.3721 254.3268,227.9991 286.5901,240.1904 320.8376,228.4967 337.7775,228.2467"/>
    <polyline points="337.1484,225.3581 321.3612,226.1478 286.2369,238.6548 255.9088,225.151 220.1607,228.0107 187.0688,239.6812 148.393,229.4578 105.7368,234.5335 78.4689,235.4334 51.3162,228.3156"/>
    <polyline points="51.3817,222.379 77.6357,228.1978 105.9004,228.7508 148.4156,224.1507 186.7102,233.4882 218.8402,222.6379 255.7434,219.1947 284.878,233.4129 320.8904,221.1999 337.2996,220.5363"/>
    <polyline points="338.0799,218.6031 319.8959,218.601 283.8721,229.7066 253.9961,216.0864 217.5599,219.6265 186.5092,229.6041 148.3992,221.4646 106.1539,226.5237 77.7075,224.434 50.8667,219.7714"/>
    <polyline points="50.3517,217.1638 106.4074,224.2965 148.3828,218.7785 186.3082,225.72 216.2797,216.615 252.2487,212.9781 282.8663,226.0003 318.9015,216.002 338.8602,216.67"/>
    <polyline points="339.6404,214.7368 317.9071,213.4031 281.8605,222.294 250.5014,209.8697 214.9995,213.6036 186.1073,221.8359 148.3665,216.0924 106.6609,222.0694 77.851,216.9064 49.8367,214.5562"/>
    <polyline points="49.3217,211.9486 77.9228,213.1427 106.9144,219.8423 148.3501,213.4063 185.9063,217.9518 213.7193,210.5921 248.754,206.7614 280.8547,218.5877 316.9127,210.8042 340.4207,212.8037"/>
    <polyline points="341.201,210.8705 315.9182,208.2053 279.8489,214.8814 247.0067,203.6531 212.4391,207.5807 185.7053,214.0677 148.3337,210.7202 107.1679,217.6151 77.9945,209.3789 48.8067,209.341"/>
    <polyline points="48.2917,206.7334 78.0663,205.6151 107.4214,215.388 148.3173,208.0341 185.5044,210.1836 211.1589,204.5692 245.2593,200.5448 278.8431,211.1751 314.9238,205.6064 341.9813,208.9374"/>
    <polyline points="342.7615,207.0042 313.9294,203.0074 277.8373,207.4688 243.512,197.4365 209.8786,201.5578 185.3034,206.2995 148.3009,205.3481 107.6749,213.1609 78.138,201.8513 47.7767,204.1258"/>
    <polyline points="47.2617,201.5182 78.2098,198.0875 107.9283,210.9338 148.2845,202.662 185.1024,202.4155 208.5984,198.5463 241.7646,194.3282 276.8314,203.7625 312.935,200.4085 343.5418,205.0711"/>
    <polyline points="344.3221,203.1379 311.9406,197.8096 275.8255,200.0562 240.0173,191.2199 184.9015,198.5314 148.2682,199.9759 108.1818,208.7066 78.2815,194.3237 46.7467,198.9105"/>
    <polyline points="46.2317,196.3029 78.3533,190.56 108.4353,206.4795 148.2518,197.2898 184.7005,194.6473 206.038,192.5234 238.2699,188.1115 274.8197,196.3499 310.9461,195.2107 345.1024,201.2048"/>
    <polyline points="346.4518,195.9753 310.4386,190.0983 273.6279,191.0339 237.1533,184.0156 204.9957,187.6781 184.1883,188.1821 148.9464,192.103 109.7138,200.2687 79.2314,185.0988 45.5452,190.6197"/>
    <polyline points="45.3738,187.5442 80.0378,183.4014 110.7388,196.285 149.6573,189.6023 183.8771,185.601 205.2336,185.8441 237.784,183.028 273.4419,189.4242 310.9256,187.5849 347.021,192.679"/>
    <polyline points="347.5902,189.3827 311.4125,185.0714 273.2559,187.8145 238.4147,182.0404 205.4715,184.0102 183.5659,183.0199 150.3683,187.1016 111.7638,192.3013 80.8441,181.704 45.2024,184.4686"/>
    <polyline points="45.031,181.393 81.6505,180.0067 112.7888,188.3176 151.0793,184.6009 183.2547,180.4389 205.7095,182.1763 239.0454,181.0529 273.0698,186.2048 311.8994,182.558 348.1594,186.0864"/>
    <polyline points="348.7286,182.7901 312.3864,180.0445 272.8838,184.5951 239.6761,180.0653 205.9474,180.3424 182.9435,177.8578 151.7902,182.1002 113.8138,184.3339 82.4568,178.3093 44.8596,178.3174"/>
    <polyline points="44.6882,175.2418 83.2632,176.6119 114.8388,180.3502 152.5012,179.5995 182.6322,175.2767 206.1853,178.5084 240.3068,179.0777 272.6978,182.9854 312.8733,177.5311 349.2978,179.4938"/>
    <polyline points="349.867,176.1974 313.3602,175.0176 272.5118,181.3757 240.9375,178.0901 206.4232,176.6745 182.321,172.6956 153.2122,177.0988 115.8638,176.3665 84.0695,174.9145 44.5168,172.1662"/>
    <polyline points="44.3454,169.0906 84.8759,173.2171 116.8888,172.3828 153.9231,174.5981 182.0098,170.1146 206.6612,174.8406 241.5682,177.1025 272.3258,179.766 313.8471,172.5042 350.4362,172.9011"/>
    <polyline points="351.0054,169.6048 314.3341,169.9907 272.1398,178.1563 242.1989,176.1149 206.8991,173.0067 181.6986,167.5335 154.6341,172.0974 117.9139,168.3991 85.6822,171.5197 44.174,166.015"/>
    <polyline points="44.0026,162.9394 86.4886,169.8224 118.9389,164.4154 155.3451,169.5967 181.3874,164.9524 207.137,171.1727 242.8296,175.1273 271.9537,176.5465 314.821,167.4773 351.5746,166.3085"/>
    <polyline points="352.1438,163.0122 315.3079,164.9638 271.7677,174.9368 243.4603,174.1397 207.3749,169.3388 181.0762,162.3713 156.0561,167.096 119.9639,160.4317 87.2949,168.125 43.8312,159.8639"/>
    <polyline points="44.4607,154.9317 86.9888,163.7146 119.3515,154.1201 156.4847,161.6768 181.4407,157.9956 208.3444,164.9199 244.48,169.2388 272.3427,168.7344 315.6106,159.4642 352.5583,157.3567"/>
    <polygon points="352.713,159.7159 315.7949,162.4504 271.5817,173.3271 244.091,173.1521 207.6129,167.5049 180.765,159.7903 156.767,164.5953 120.9889,156.448 88.1013,166.4276 43.6598,156.7883 88.1013,166.4276 120.9889,156.448 156.767,164.5953 180.765,159.7903 207.6129,167.5049 244.091,173.1521 271.5817,173.3271 315.7949,162.4504"/>
    <polyline points="352.4036,154.9975 315.4264,156.4781 273.1038,164.1416 244.8689,165.3255 209.076,162.3349 182.1164,156.2009 156.2025,158.7583 117.7141,151.7923 85.8763,161.0016 45.2617,153.0751"/>
    <polyline points="46.0627,151.2185 84.7638,158.2886 116.0767,149.4645 155.9202,155.8397 182.7922,154.4062 209.8075,159.7499 245.2578,161.4122 273.8648,159.5488 315.2422,153.4919 352.2489,152.6382"/>
    <polyline points="352.0941,150.279 315.0579,150.5057 274.6259,154.9561 245.6468,157.4989 210.5391,157.1649 183.4679,152.6115 155.6379,152.9212 114.4392,147.1366 83.6514,155.5756 46.8637,149.3619"/>
    <polyline points="47.6646,147.5053 82.5389,152.8625 112.8018,144.8088 155.3556,150.0027 184.1436,150.8168 211.2706,154.5799 246.0357,153.5856 275.3869,150.3633 314.8737,147.5196 351.9394,147.9198"/>
    <polyline points="351.7847,145.5606 314.6895,144.5334 276.1479,145.7706 246.4246,149.6723 212.0022,151.9949 184.8193,149.0221 155.0734,147.0842 111.1644,142.4809 81.4264,150.1495 48.4656,145.6487"/>
    <polyline points="49.2666,143.7922 80.3139,147.4365 109.527,140.1531 154.7911,144.1657 185.4951,147.2274 212.7337,149.4099 246.8136,145.759 276.909,141.1778 314.5053,141.5473 351.63,143.2013"/>
    <polyline points="351.4753,140.8421 277.67,136.585 247.2025,141.8457 213.4653,146.8249 186.1708,145.4327 154.5088,141.2471 107.8896,137.8253 79.2014,144.7235 50.0676,141.9356"/>
    <polyline points="50.8686,140.079 78.0889,142.0105 106.2522,135.4974 154.2265,138.3286 186.8465,143.638 214.1968,144.2399 278.4311,131.9923 314.1368,135.5749 351.3206,138.4829"/>
    <polyline points="351.1658,136.1237 313.9526,132.5888 279.1922,127.3995 247.9804,134.0191 214.9284,141.6549 187.5223,141.8433 153.9442,135.4101 104.6148,133.1696 76.9764,139.2975 51.6695,138.2224"/>
    <polyline points="52.4705,136.3658 75.8639,136.5845 102.9774,130.8418 153.662,132.4916 188.198,140.0486 215.6599,139.0699 248.3693,130.1058 279.9532,122.8067 313.7684,129.6026 351.0111,133.7645"/>
    <polyline points="347.7504,131.0062 349.6365,159.9438 342.8884,198.7166 335.2998,222.5802 348.3364,293.806 351.9693,331.2371 342.7534,362.6549 348.94,395.3253 348.1293,422.4451"/>
    <polyline points="344.757,424.1462 345.4797,395.079 339.6244,363.6959 347.6016,330.6942 345.7336,293.7252 339.3237,256.2756 334.0803,222.691 339.8941,198.1616 346.56,160.1716 344.6444,130.6071"/>
    <polyline points="341.5383,130.208 343.4835,160.3995 336.8999,197.6066 332.8607,222.8018 336.9515,255.8466 343.1309,293.6445 343.234,330.1513 336.4954,364.7369 342.0193,394.8327 341.3848,425.8472"/>
    <polyline points="338.0126,427.5482 338.559,394.5864 333.3664,365.7779 338.8664,329.6085 340.5281,293.5637 334.5793,255.4177 331.6412,222.9125 333.9057,197.0517 340.407,160.6274 338.4323,129.809"/>
    <polyline points="335.3263,129.4099 337.3305,160.8553 330.9114,196.4967 330.4216,223.0233 332.2071,254.9888 337.9253,293.483 334.4987,329.0656 330.2374,366.8189 335.0987,394.34 334.6403,429.2492"/>
    <polyline points="331.2681,430.9503 331.6384,394.0937 327.1084,367.8599 330.1311,328.5227 335.3225,293.4022 329.8349,254.5598 329.2021,223.1341 327.9172,195.9417 334.2539,161.0831 332.2203,129.0108"/>
    <polyline points="329.1142,128.6118 331.1774,161.311 324.9229,195.3867 327.9825,223.2449 327.4628,254.1309 332.7197,293.3215 325.7635,327.9799 323.9794,368.9009 328.1781,393.8474 327.8959,432.6513"/>
    <polyline points="324.5236,434.3523 324.7178,393.601 320.8504,369.9419 321.3958,327.437 330.1169,293.2407 325.0906,253.7019 326.763,223.3557 321.9287,194.8317 328.1009,161.5389 326.0082,128.2127"/>
    <polyline points="322.9022,127.8137 325.0244,161.7668 318.9344,194.2767 325.5434,223.4665 322.7184,253.273 327.5142,293.16 317.0282,326.8941 317.7214,370.9829 321.2574,393.3547 321.1514,436.0533"/>
    <polyline points="317.7791,437.7544 317.7971,393.1084 314.5925,372.0239 312.6605,326.3512 324.9114,293.0792 320.3462,252.8441 324.3239,223.5772 315.9402,193.7217 321.9479,161.9946 319.7962,127.4146"/>
    <polyline points="316.6901,127.0155 318.8714,162.2225 312.946,193.1667 323.1043,223.688 317.974,252.4151 322.3086,292.9985 308.2929,325.8084 311.4635,373.0649 314.3368,392.8621 314.4069,439.4554"/>
    <polyline points="308.3921,439.6974 307.8849,393.1995 306.6787,372.9516 301.149,326.0126 316.7759,294.1095 313.4785,252.2829 318.8847,224.9088 306.9402,192.6144 312.1104,163.3568 310.845,125.9163"/>
    <polyline points="308.1058,125.216 308.426,164.2632 303.9288,192.6171 315.8846,226.0189 311.3551,252.5795 313.846,295.3012 298.3727,326.7596 305.0229,371.7973 304.8934,393.7833 305.7495,438.2383"/>
    <polyline points="303.1069,436.7792 301.9019,394.367 303.3671,370.643 295.5964,327.5067 310.916,296.4929 309.2318,252.8762 312.8845,227.1289 300.9173,192.6197 304.7416,165.1696 305.3667,124.5158"/>
    <polyline points="302.6275,123.8156 301.0572,166.076 297.9058,192.6224 309.8844,228.239 307.1085,253.1729 307.9861,297.6847 292.8201,328.2537 301.7113,369.4887 298.9103,394.9508 300.4643,435.3202"/>
    <polyline points="297.8217,433.8611 295.9188,395.5346 300.0555,368.3344 290.0437,329.0008 305.0562,298.8764 304.9851,253.4695 306.8844,229.349 294.8943,192.625 297.3728,166.9824 299.8883,123.1154"/>
    <polyline points="297.1492,122.4152 291.8829,192.6277 303.8843,230.459 302.8618,253.7662 302.1263,300.0682 287.2674,329.7479 298.3998,367.1801 292.9273,396.1184 295.1791,432.402"/>
    <polyline points="292.5366,430.943 289.9357,396.7021 296.744,366.0258 284.4911,330.4949 299.1964,301.2599 300.7385,254.0629 300.8842,231.5691 288.8714,192.6303 290.0039,168.7952 294.41,121.715"/>
    <polyline points="291.6709,121.0148 286.3195,169.7016 285.8599,192.633 297.8841,232.6791 298.6151,254.3596 296.2665,302.4517 281.7148,331.242 295.0882,364.8715 286.9442,397.2859 289.894,429.4839"/>
    <polyline points="287.2514,428.0249 283.9527,397.8697 293.4324,363.7172 278.9385,331.989 293.3365,303.6434 296.4918,254.6562 294.884,233.7891 282.8484,192.6356 282.6351,170.6079 288.9317,120.3146"/>
    <polyline points="286.1926,119.6144 278.9506,171.5143 279.837,192.6383 291.8839,234.8992 294.3684,254.9529 290.4066,304.8352 276.1621,332.7361 291.7766,362.5629 280.9611,398.4535 284.6088,426.5658"/>
    <polyline points="281.9662,425.1067 277.9696,399.0372 290.1208,361.4086 273.3858,333.4832 287.4767,306.0269 292.2451,255.2496 288.8839,236.0092 276.8254,192.6409 275.2661,172.4207 283.4534,118.9142"/>
    <polyline points="278.0513,118.8788 269.2908,173.3126 270.7063,192.0069 283.5177,235.8846 285.8205,255.624 281.9892,307.1628 267.7432,333.7567 284.2595,360.0986 272.1219,399.7158 276.35,423.6581"/>
    <polyline points="273.3764,423.6685 269.2658,399.8105 280.054,359.9429 264.8769,333.2831 279.4317,307.1069 281.5193,255.7018 281.1516,234.6499 267.5987,191.3702 266.9999,173.298 275.3882,119.5437"/>
    <polyline points="272.7252,120.2086 264.709,173.2834 264.4911,190.7335 278.7855,233.4152 277.218,255.7795 276.874,307.051 262.0106,332.8096 275.8485,359.7872 266.4097,399.9052 270.4029,423.6789"/>
    <polyline points="267.4293,423.6892 263.5537,400.0 271.643,359.6315 259.1443,332.336 274.3164,306.9951 272.9167,255.8573 276.4194,232.1805 261.3835,190.0968 262.4181,173.2688 270.0622,120.8735"/>
    <polyline points="267.3992,121.5384 260.1273,173.2542 258.2759,189.4601 274.0533,230.9458 268.6155,255.9351 271.7589,306.9392 256.278,331.8625 267.4375,359.4758 260.6976,400.0947 264.4558,423.6996"/>
    <polyline points="261.4822,423.71 257.8415,400.1895 263.232,359.3201 253.4117,331.389 269.2013,306.8833 264.3143,256.0128 271.6872,229.7111 255.1682,188.8234 257.8364,173.2396 264.7362,122.2032"/>
    <polyline points="262.0732,122.8681 255.5455,173.225 252.0606,188.1867 269.3211,228.4764 260.013,256.0906 266.6438,306.8274 250.5454,330.9154 259.0265,359.1644 254.9855,400.2842 258.5087,423.7204"/>
    <polyline points="255.5352,423.7308 252.1294,400.3789 254.821,359.0087 247.6791,330.4419 264.0862,306.7715 255.7118,256.1684 266.9551,227.2418 248.953,187.55 253.2546,173.2105 259.4102,123.533"/>
    <polyline points="256.7472,124.1979 250.9637,173.1959 245.8454,186.9133 264.589,226.0071 251.4106,256.2461 261.5286,306.7156 244.8128,329.9683 250.6155,358.853 249.2733,400.4737 252.5616,423.7412"/>
    <polyline points="249.5881,423.7516 246.4172,400.5684 246.41,358.6973 241.9465,329.4948 258.9711,306.6597 247.1093,256.3239 262.2229,224.7724 242.7378,186.2766 248.6728,173.1813 254.0843,124.8627"/>
    <polyline points="251.4213,125.5276 246.3819,173.1667 239.6302,185.6399 259.8568,223.5377 242.8081,256.4017 256.4135,306.6038 239.0802,329.0212 242.2045,358.5416 243.5612,400.6632 246.6145,423.762"/>
    <polyline points="241.3793,424.5774 238.7743,399.5858 236.7273,358.9042 233.4567,328.8279 249.8197,306.0957 237.015,256.2716 254.3766,222.5819 233.8755,185.379 241.0512,172.6815 246.061,127.0502"/>
    <polyline points="243.3638,127.9079 238.0113,172.2109 231.2284,185.7547 251.2624,222.8607 235.5231,256.0638 245.7834,305.6434 230.6995,329.108 235.4555,359.4226 236.8435,398.4137 239.1177,425.3825"/>
    <polyline points="236.8561,426.1876 234.9126,397.2417 234.1838,359.9409 227.9423,329.3882 241.7471,305.1912 234.0312,255.856 248.1482,223.1396 228.5814,186.1304 234.9715,171.7403 240.6666,128.7656"/>
    <polyline points="237.9693,129.6233 231.9316,171.2697 225.9343,186.5061 245.034,223.4185 232.5393,255.6482 237.7108,304.739 225.1851,329.6683 232.912,360.4592 232.9818,396.0696 234.5945,426.9927"/>
    <polyline points="232.3329,427.7978 231.051,394.8975 231.6403,360.9775 222.4278,329.9485 233.6745,304.2868 231.0474,255.4404 241.9198,223.6973 223.2872,186.8819 228.8918,170.7991 235.2721,130.481"/>
    <polyline points="232.5749,131.3387 225.8519,170.3285 220.6402,187.2576 238.8056,223.9762 229.5555,255.2326 229.6382,303.8346 219.6706,330.2286 230.3686,361.4958 229.1202,393.7254 230.0712,428.6028"/>
    <polyline points="227.8096,429.4079 227.1894,392.5533 229.0968,362.0142 216.9134,330.5088 225.6019,303.3824 228.0636,255.0247 235.6914,224.255 217.9931,187.6333 222.8121,169.8579 229.8776,132.1964"/>
    <polyline points="227.1804,133.0541 219.7722,169.3873 215.346,188.0091 232.5772,224.5339 226.5717,254.8169 221.5656,302.9301 214.1562,330.7889 227.8251,362.5325 225.2586,391.3812 225.548,430.213"/>
    <polyline points="223.2864,431.0181 223.3278,390.2091 226.5533,363.0508 211.3989,331.0691 217.5294,302.4779 225.0798,254.6091 229.463,224.8128 212.699,188.3848 224.4832,133.9118"/>
    <polyline points="221.7859,134.7695 213.6925,168.4461 210.0519,188.7605 226.3488,225.0916 223.5879,254.4013 213.4931,302.0257 208.6417,331.3492 225.2816,363.5691 221.397,389.0371 221.0247,431.8232"/>
    <polyline points="218.7631,432.6282 219.4661,387.865 224.0098,364.0874 205.8845,331.6294 209.4568,301.5735 222.096,254.1935 223.2346,225.3705 207.4048,189.1363 210.6527,167.9755 219.0887,135.6272"/>
    <polyline points="214.0983,136.6323 205.3755,166.862 203.0696,189.6163 217.3529,226.6263 217.954,254.9101 204.1391,300.8983 201.0936,332.0728 220.1014,365.3291 214.9487,386.7981 213.6599,433.2067"/>
    <polyline points="210.8182,432.9802 212.3621,386.9033 217.4647,366.0524 199.0599,332.236 202.8577,300.6754 215.3038,255.8346 214.5855,227.6032 201.3814,189.7205 203.1382,166.2191 211.8052,136.7798"/>
    <polyline points="209.512,136.9272 200.9009,165.5762 199.6932,189.8248 211.8181,228.5801 212.6537,256.759 201.5763,300.4524 197.0263,332.3992 214.8281,366.7757 209.7755,387.0085 207.9766,432.7536"/>
    <polyline points="205.135,432.527 207.1889,387.1137 212.1914,367.4989 194.9926,332.5625 200.2949,300.2295 210.0036,257.6835 209.0506,229.557 198.005,189.929 198.6636,164.9333 207.2189,137.0746"/>
    <polyline points="204.9257,137.222 196.4262,164.2904 196.3168,190.0333 206.2832,230.5339 207.3535,258.608 199.0135,300.0065 192.9589,332.7257 209.5547,368.2222 204.6023,387.219 202.2933,432.3005"/>
    <polyline points="199.4517,432.0739 202.0157,387.3242 206.918,368.9455 190.9252,332.8889 197.7321,299.7836 204.7034,259.5324 203.5158,231.5108 194.6286,190.1376 194.1889,163.6476 202.6326,137.3694"/>
    <polyline points="200.3394,137.5168 191.9516,163.0047 192.9405,190.2418 200.7483,232.4877 202.0532,260.4569 196.4507,299.5606 188.8916,333.0522 204.2814,369.6688 199.4291,387.4294 196.6101,431.8473"/>
    <polyline points="193.7684,431.6207 196.8425,387.5346 201.6447,370.3921 186.8579,333.2154 195.1693,299.3377 199.4031,261.3813 197.9809,233.4647 191.2523,190.3461 189.7143,162.3618 198.0463,137.6642"/>
    <polyline points="195.7531,137.8116 187.4769,161.7189 189.5641,190.4504 195.2134,234.4416 196.753,262.3058 193.8879,299.1147 184.8242,333.3787 199.008,371.1154 194.2559,387.6398 190.9268,431.3942"/>
    <polyline points="188.0851,431.1676 191.6693,387.745 196.3713,371.8387 182.7905,333.5419 192.6065,298.8918 194.1029,263.2303 192.446,235.4185 187.8759,190.5546 185.2396,161.076 193.46,137.959"/>
    <polyline points="191.1669,138.1065 183.0023,160.4331 186.1877,190.6589 189.6786,236.3954 191.4528,264.1547 191.3251,298.6689 180.7569,333.7051 193.7347,372.562 189.0827,387.8502 185.2435,430.941"/>
    <polygon points="182.4019,430.7144 186.4961,387.9555 191.098,373.2853 178.7232,333.8684 190.0437,298.4459 188.8026,265.0792 186.9111,237.3723 184.4995,190.7632 180.765,159.7903 188.8737,138.2539 180.765,159.7903 184.4995,190.7632 186.9111,237.3723 188.8026,265.0792 190.0437,298.4459 178.7232,333.8684 191.098,373.2853 186.4961,387.9555"/>
    <polyline points="180.1892,431.3872 183.6289,389.4567 187.3162,371.7222 176.2301,333.8616 185.8071,297.7033 185.3994,264.5133 183.7045,236.4943 181.4775,191.0832 178.7651,160.1907 185.9159,137.5305"/>
    <polyline points="182.958,136.8071 176.7653,160.5911 181.9962,263.9473 181.5705,296.9607 173.737,333.8548 183.5344,370.1592 180.7617,390.9579 177.9765,432.06"/>
    <polyline points="175.7638,432.7328 177.8946,392.4591 179.7526,368.5961 171.2439,333.848 177.3339,296.2181 178.593,263.3814 175.4335,191.7233 174.7655,160.9915 180.0002,136.0837"/>
    <polyline points="177.0424,135.3603 172.7657,161.3919 172.4115,192.0433 175.1898,262.8155 173.0974,295.4755 168.7507,333.8413 175.9708,367.0331 173.5511,433.4056"/>
    <polyline points="171.3384,434.0784 172.1603,395.4616 172.1889,365.47 166.2576,333.8345 168.8608,294.7329 171.7866,262.2495 169.3895,192.3634 170.7658,161.7924 174.0845,134.6369"/>
    <polyline points="171.1267,133.9135 166.3675,192.6834 168.3833,261.6836 164.6242,293.9902 163.7645,333.8277 168.4071,363.907 169.2931,396.9628 169.1257,434.7512"/>
    <polyline points="166.913,435.424 166.426,398.464 164.6253,362.3439 161.2714,333.8209 160.3876,293.2476 164.9801,261.1177 164.465,231.2266 163.3454,193.0035 166.7662,162.5932 168.1689,133.1901"/>
    <polyline points="165.211,132.4667 164.7663,162.9936 160.3234,193.3235 161.2584,230.3487 161.5769,260.5517 156.1511,292.505 158.7783,333.8142 163.5588,399.9652 164.7003,436.0967"/>
    <polyline points="162.4876,436.7695 160.6917,401.4665 157.0617,359.2178 156.2852,333.8074 151.9145,291.7624 158.1737,259.9858 158.0518,229.4707 157.3014,193.6435 162.7665,163.394 162.2532,131.7433"/>
    <polyline points="159.2954,131.0199 160.7667,163.7945 154.2794,193.9636 154.8452,228.5927 154.7705,259.4199 147.6779,291.0198 153.7921,333.8006 153.2799,357.6547 157.8245,402.9677 160.2749,437.4423"/>
    <polyline points="158.0623,438.1151 154.9574,404.4689 149.4981,356.0917 151.299,333.7938 143.4413,290.2772 151.3672,258.854 151.6386,227.7148 151.2574,194.2836 158.7668,164.1949 156.3375,130.2965"/>
    <polyline points="149.0431,129.4848 153.7855,163.9164 144.9398,195.4077 144.5275,259.5678 137.565,290.0282 145.0002,333.1509 142.976,356.1217 148.065,405.355 152.6402,438.2304"/>
    <polyline points="149.4308,437.6728 144.0397,404.7399 140.2357,357.7148 141.1946,332.5148 135.9253,290.5219 141.0909,260.8476 141.6443,196.2118 150.804,163.2374 144.7064,129.3965"/>
    <polyline points="140.3698,129.3083 147.8225,162.5585 138.3487,197.0158 137.7357,227.8721 137.6543,262.1273 134.2855,291.0156 137.389,331.8787 137.4954,359.3079 140.0145,404.1248 146.2214,437.1153"/>
    <polyline points="143.012,436.5578 135.9892,403.5096 133.5834,331.2426 132.6458,291.5093 134.2178,263.4071 134.1703,228.2172 135.0532,197.8199 144.841,161.8795 136.0331,129.22"/>
    <polyline points="131.6965,129.1318 141.8595,161.2006 131.7576,198.624 130.6049,228.5623 131.0061,292.003 129.7777,330.6065 132.0148,362.4941 131.964,402.8945 139.8026,436.0003"/>
    <polyline points="136.5932,435.4428 127.9387,402.2794 129.2745,364.0872 125.9721,329.9704 129.3663,292.4967 127.3446,265.9666 127.0395,228.9074 128.4621,199.428 138.8779,160.5216 127.3599,129.0435"/>
    <polyline points="123.0232,128.9552 135.8964,159.8427 125.1665,200.2321 123.4741,229.2525 123.9081,267.2464 127.7266,292.9903 122.1665,329.3343 126.5342,365.6803 123.9135,401.6643 133.3838,434.8853"/>
    <polyline points="130.1745,434.3277 119.8882,401.0491 123.7939,367.2733 118.3609,328.6982 126.0869,293.484 120.4715,268.5262 119.9086,229.5975 121.871,201.0361 132.9149,159.1638 118.6866,128.867"/>
    <polyline points="114.3499,128.7787 129.9334,158.4848 118.5755,201.8402 116.3432,229.9426 117.0349,269.8059 124.4471,293.9777 114.5552,328.0621 121.0536,368.8664 115.863,400.434 126.9651,433.7702"/>
    <polyline points="123.7557,433.2127 111.8377,399.8189 118.3133,370.4595 110.7496,327.426 122.8074,294.4714 113.5984,271.0857 112.7778,230.2877 115.2799,202.6443 126.9519,157.8059 110.0133,128.6904"/>
    <polyline points="105.6766,128.6022 123.9704,157.1269 111.9844,203.4483 109.2124,230.6328 110.1618,272.3655 121.1677,294.9651 106.944,326.7899 115.573,372.0526 107.8125,399.2038 120.5463,432.6552"/>
    <polyline points="114.7608,432.3258 102.1415,398.3006 110.1101,371.9094 100.679,327.0703 116.1119,296.2474 105.2,273.6435 103.3067,231.0599 106.1668,202.7977 118.2482,157.2796 99.1243,128.9604"/>
    <polygon points="101.34,128.5139 120.9889,156.448 108.6888,204.2524 105.647,230.9779 106.7252,273.6452 119.5279,295.4588 103.1384,326.1538 112.8327,373.6457 103.7872,398.5887 117.3369,432.0977 103.7872,398.5887 112.8327,373.6457 103.1384,326.1538 119.5279,295.4588 106.7252,273.6452 105.647,230.9779 108.6888,204.2524 120.9889,156.448"/>
    <polyline points="96.9086,129.4068 115.5076,158.1112 103.6449,201.343 100.9665,231.1418 103.6748,273.6417 112.6959,297.0361 98.2196,327.9868 107.3875,370.1731 100.4959,398.0125 112.1847,432.5539"/>
    <polyline points="109.6085,432.782 98.8502,397.7244 104.6649,368.4368 95.7602,328.9033 109.2798,297.8248 102.1496,273.6399 98.6262,231.2238 101.1229,199.8883 112.767,158.9429 94.6929,129.8533"/>
    <polyline points="92.4771,130.2998 110.0264,159.7745 98.6009,198.4337 96.286,231.3058 100.6244,273.6382 105.8638,298.6134 93.3008,329.8197 101.9422,366.7005 97.2045,397.4363 107.0324,433.0102"/>
    <polyline points="104.4563,433.2383 95.5589,397.1482 99.2196,364.9642 90.8413,330.7362 102.4478,299.4021 93.9458,231.3878 96.079,196.979 107.2858,160.6061 90.2614,130.7462"/>
    <polyline points="88.0457,131.1927 104.5451,161.4378 93.557,195.5243 91.6054,231.4697 97.574,273.6347 99.0317,300.1908 88.3818,331.6527 96.497,363.2279 93.9132,396.8602 101.8802,433.4664"/>
    <polyline points="99.304,433.6945 92.2674,396.5721 93.7744,361.4916 85.9224,332.5692 95.6157,300.9795 96.0488,273.6329 89.2652,231.5517 91.0349,194.0696 101.8045,162.2694 85.83,131.6392"/>
    <polyline points="83.6143,132.0856 99.0639,163.101 88.5129,192.6149 86.9249,231.6337 94.5236,273.6311 92.1996,301.7681 83.463,333.4857 91.0516,359.7553 90.6217,396.284 96.7279,433.9226"/>
    <polyline points="94.1518,434.1507 88.9761,395.9959 88.329,358.019 81.0036,334.4022 88.7835,302.5568 92.9984,273.6294 84.5847,231.7156 85.991,191.1602 96.3233,163.9327 81.3986,132.5321"/>
    <polyline points="79.1829,132.9786 93.5826,164.7643 83.469,189.7056 82.2445,231.7976 91.4731,273.6276 78.5442,335.3187 85.6064,356.2827 87.3304,395.7078 91.5756,434.3789"/>
    <polyline points="88.9995,434.607 85.6847,395.4197 82.8838,354.5464 76.0848,336.2351 81.9515,304.1342 89.9479,273.6258 79.9042,231.8796 80.947,188.2509 90.8419,165.596 76.9672,133.425"/>
    <polygon points="148.2354,194.6037 148.432,226.8368 147.964,258.288 139.2048,289.5346 148.8059,333.787 145.7163,354.5286 155.8496,438.7879 145.7163,354.5286 148.8059,333.787 139.2048,289.5346 147.964,258.288 148.432,226.8368 148.2354,194.6037 156.767,164.5953 153.3797,129.5731 156.767,164.5953"/>
    <polygon points="77.564,231.9616 105.647,230.9779 148.432,226.8368 186.9111,237.3723 220.1204,225.6493 257.4908,222.303 285.8838,237.1192 321.8848,223.7988 336.5194,222.4694 321.8848,223.7988 285.8838,237.1192 257.4908,222.303 220.1204,225.6493 186.9111,237.3723 148.432,226.8368 105.647,230.9779 77.564,231.9616 51.8967,224.9866"/>
    <polygon points="88.4227,273.6241 44.9303,264.9336 88.4227,273.6241 106.7252,273.6452 147.964,258.288 188.8026,265.0792 220.6041,253.9857 238.5069,256.4794 290.1218,255.5462 315.6018,251.9862 344.0681,257.1334 315.6018,251.9862 290.1218,255.5462 238.5069,256.4794 220.6041,253.9857 188.8026,265.0792 147.964,258.288 106.7252,273.6452"/>
    <polygon points="78.5354,304.9228 54.7158,296.7449 78.5354,304.9228 119.5279,295.4588 139.2048,289.5346 205.4205,301.1213 253.856,306.5479 284.5468,307.2187 319.7058,292.9177 350.9392,293.8867 319.7058,292.9177 284.5468,307.2187 253.856,306.5479 205.4205,301.1213 139.2048,289.5346 119.5279,295.4588"/>
    <polygon points="145.7163,354.5286 112.8327,373.6457 80.1611,352.8101 48.1452,358.1724 80.1611,352.8101 112.8327,373.6457 145.7163,354.5286 191.098,373.2853 222.7381,364.6058 237.999,358.3859 288.465,360.2543 308.3345,374.1059 345.8824,361.6139 308.3345,374.1059 288.465,360.2543 237.999,358.3859 222.7381,364.6058 191.098,373.2853"/>
    <polygon points="222.7381,364.6058 217.5353,386.6929 216.5015,433.4333 217.5353,386.6929 222.7381,364.6058 203.1273,331.9095 205.4205,301.1213 220.6041,253.9857 220.1204,225.6493 204.7578,189.512 207.6129,167.5049 216.3915,136.4849 207.6129,167.5049 204.7578,189.512 220.1204,225.6493 220.6041,253.9857 205.4205,301.1213 203.1273,331.9095"/>
    <polygon points="270.6095,334.2302 303.9253,325.2655 356.3369,331.7799 303.9253,325.2655 270.6095,334.2302 236.2139,328.5477 203.1273,331.9095 178.7232,333.8684 148.8059,333.787 103.1384,326.1538 73.6254,337.1516 40.5137,336.0354 73.6254,337.1516 103.1384,326.1538 148.8059,333.787 178.7232,333.8684 203.1273,331.9095 236.2139,328.5477"/>
    <polygon points="285.8838,237.1192 273.8139,192.6436 271.5817,173.3271 280.7142,118.214 271.5817,173.3271 273.8139,192.6436 285.8838,237.1192 290.1218,255.5462 284.5468,307.2187 270.6095,334.2302 288.465,360.2543 274.978,399.621 279.3236,423.6477 274.978,399.621 288.465,360.2543 270.6095,334.2302 284.5468,307.2187 290.1218,255.5462"/>
    <polygon points="257.4908,222.303 238.5069,256.4794 253.856,306.5479 236.2139,328.5477 240.7051,400.7579 243.641,423.7724 240.7051,400.7579 236.2139,328.5477 253.856,306.5479 238.5069,256.4794 257.4908,222.303 236.5226,185.0032 244.091,173.1521 248.7583,126.1925 244.091,173.1521 236.5226,185.0032"/>
    <polygon points="236.5226,185.0032 273.8139,192.6436 309.9517,192.6118 345.8826,199.2716 309.9517,192.6118 273.8139,192.6436 236.5226,185.0032 204.7578,189.512 184.4995,190.7632 148.2354,194.6037 108.6888,204.2524 78.4251,186.7962 45.7167,193.6953 78.4251,186.7962 108.6888,204.2524 148.2354,194.6037 184.4995,190.7632 204.7578,189.512"/>
    <polygon points="321.8848,223.7988 309.9517,192.6118 315.7949,162.4504 313.5841,126.6165 315.7949,162.4504 309.9517,192.6118 321.8848,223.7988 315.6018,251.9862 319.7058,292.9177 303.9253,325.2655 308.3345,374.1059 310.8765,392.6157 311.0347,441.1564 310.8765,392.6157 308.3345,374.1059 303.9253,325.2655 319.7058,292.9177 315.6018,251.9862"/>
  </g>
</svg>
