<?xml version="1.0" encoding="utf-8" ?>
<svg xmlns="http://www.w3.org/2000/svg" xmlns:cc="http://creativecommons.org/ns" xmlns:dc="http://purl.org/dc/elements/1.1/" xmlns:ev="http://www.w3.org/2001/xml-events" xmlns:inkscape="http://www.inkscape.org/namespaces/inkscape" xmlns:rdf="http://www.w3.org/1999/02/22-rdf-syntax-ns" xmlns:sodipodi="http://sodipodi.sourceforge.net/DTD/sodipodi-0.dtd" xmlns:xlink="http://www.w3.org/1999/xlink" baseProfile="tiny" height="14.8cm" version="1.2" viewBox="0 0 396.85039370078744 559.3700787401575" width="10.5cm">
  <metadata>
    <rdf:RDF>
      <cc:Work>
        <dc:format>image/svg+xml</dc:format>
        <dc:source>Vsketch with params {'__seed__': 0, 'NUM_LINES': 8, 'INTERPOLATION_STEPS_VERTICAL': 6, 'INTERPOLATION_STEPS_HORIZONTAL': 6, 'STEPS': 10, 'RANDOM_LOWER': -0.3, 'RANDOM_UPPER': 0.3}</dc:source>
        <dc:date>2024-03-22T17:40:53.719633</dc:date>
      </cc:Work>
    </rdf:RDF>
  </metadata>
  <defs/>
  <g fill="none" id="layer1" inkscape:groupmode="layer" inkscape:label="1" stroke="#0000ff" style="display:inline">
    <polygon points="74.7515,133.8714 53.2715,134.5091 43.6598,156.7882 45.7167,193.6952 51.8967,224.9865 44.9303,264.9335 54.7158,296.7447 40.5137,336.0352 48.1452,358.1722 54.7529,408.3741 52.4958,440.1416 86.4233,434.8349 117.3368,432.0975 155.8495,438.7877 182.4018,430.7142 216.5014,433.4331 243.6409,423.7722 279.3234,423.6475 311.0345,441.1562 351.5013,420.7439 352.4001,395.5715 345.8822,361.6137 356.3367,331.7797 350.939,293.8865 344.0679,257.1333 336.5192,222.4693 345.8824,199.2715 352.7128,159.7158 350.8562,131.4051 313.5839,126.6164 280.714,118.2139 248.7582,126.1924 216.3914,136.4848 188.8736,138.2538 153.3796,129.573 101.3399,128.5138"/>
    <polygon points="74.7515,133.8714 88.1013,166.4275 78.4251,186.7961 77.564,231.9615 88.4227,273.624 78.5354,304.9226 73.6254,337.1514 80.1611,352.8099 84.0391,395.1315 86.4233,434.8349 84.0391,395.1315 80.1611,352.8099 73.6254,337.1514 78.5354,304.9226 88.4227,273.624 77.564,231.9615 78.4251,186.7961 88.1013,166.4275"/>
    <polyline points="71.1715,133.9777 80.6944,164.8209 72.9737,187.9459 73.2861,230.799 81.174,272.1756 74.5655,303.5597 68.1068,336.9654 74.8252,353.7036 79.158,397.3386 80.7688,435.7194"/>
    <polyline points="75.1142,436.6038 74.277,399.5457 69.4892,354.5973 62.5882,336.7793 70.5956,302.1967 73.9252,270.7271 69.0082,229.6365 67.5223,189.0958 73.2875,163.2144 67.5915,134.084"/>
    <polyline points="64.0115,134.1903 65.8805,161.6078 62.0709,190.2457 64.7304,228.474 66.6765,269.2787 66.6256,300.8337 57.0695,336.5933 64.1532,355.4911 69.396,401.7528 69.4596,437.4883"/>
    <polyline points="63.805,438.3727 64.5149,403.9599 58.8172,356.3848 51.5509,336.4073 62.6557,299.4707 59.4277,267.8303 60.4525,227.3115 56.6195,191.3955 58.4736,160.0013 60.4315,134.2965"/>
    <polyline points="56.8515,134.4028 51.0667,158.3947 51.1681,192.5454 56.1746,226.149 52.179,266.3819 58.6858,298.1077 46.0323,336.2212 53.4812,357.2785 59.6339,406.167 58.1504,439.2572"/>
    <polyline points="52.872,434.847 86.026,428.2177 115.0785,426.5126 155.2229,433.3181 183.0841,423.5878 216.6737,425.643 243.1516,419.9364 278.5992,419.643 311.0081,433.0661 351.6511,416.5485"/>
    <polyline points="351.8009,412.3531 310.9817,424.976 277.8749,415.6386 242.6622,416.1007 216.846,417.853 183.7665,416.4613 154.5963,427.8484 112.8202,420.9278 85.6286,421.6004 53.2482,429.5524"/>
    <polyline points="53.6243,424.2579 85.2312,414.9832 110.562,415.343 153.9698,422.3788 184.4489,409.3348 217.0183,410.0629 242.1729,412.2649 277.1506,411.6341 310.9554,416.8859 351.9507,408.1577"/>
    <polyline points="352.1005,403.9623 310.929,408.7958 276.4264,407.6297 241.6836,408.4292 217.1906,402.2728 185.1312,402.2083 153.3432,416.9092 108.3037,409.7581 84.8338,408.3659 54.0005,418.9633"/>
    <polyline points="54.3767,413.6687 84.4364,401.7487 106.0454,404.1733 152.7167,411.4396 185.8136,395.0818 217.3629,394.4828 241.1943,404.5935 275.7021,403.6253 310.9026,400.7056 352.2503,399.7669"/>
    <polygon points="352.4001,395.5715 310.8763,392.6155 274.9779,399.6208 240.705,400.7577 217.5352,386.6927 186.496,387.9553 152.0901,405.9699 103.7871,398.5885 84.0391,395.1315 54.7529,408.3741 84.0391,395.1315 103.7871,398.5885 152.0901,405.9699 186.496,387.9553 217.5352,386.6927 240.705,400.7577 274.9779,399.6208 310.8763,392.6155"/>
    <polyline points="351.3138,389.9118 310.4526,389.5306 277.2257,393.0597 240.254,393.6957 218.4024,383.0115 187.2629,385.5102 151.0278,397.3964 105.2947,394.4313 83.3927,388.0779 53.6516,400.0071"/>
    <polyline points="52.5503,391.6401 82.7464,381.0243 106.8023,390.2741 149.9655,388.8228 188.0299,383.0652 219.2695,379.3303 239.803,386.6337 310.0289,386.4456 350.2275,384.2522"/>
    <polyline points="349.1411,378.5926 309.6053,383.3606 281.7214,379.9375 239.352,379.5717 220.1366,375.6491 188.7969,380.6202 148.9031,380.2492 108.3099,386.117 82.1001,373.9707 51.4491,383.2732"/>
    <polyline points="50.3478,374.9062 81.4538,366.9171 109.8175,381.9598 147.8408,371.6756 189.5639,378.1752 221.0037,371.9679 283.9692,373.3764 309.1816,380.2757 348.0548,372.933"/>
    <polyline points="346.9685,367.2734 308.7579,377.1907 286.217,366.8153 238.4499,365.4477 221.8709,368.2868 190.3309,375.7301 146.7785,363.102 111.3251,377.8027 80.8075,359.8635 49.2465,366.5392"/>
    <polyline points="46.8733,354.4827 79.0719,350.2002 111.2169,365.7302 146.2311,351.0715 189.0354,366.7156 219.4695,359.1562 237.7014,353.4127 285.4889,355.9168 307.5994,365.9657 347.6246,356.6414"/>
    <polyline points="349.367,351.6691 306.8645,357.8256 282.513,351.5794 237.4039,348.4396 216.201,353.7068 186.973,360.1461 146.746,347.6146 109.6012,357.8149 77.9826,347.5904 45.6014,350.7932"/>
    <polyline points="44.3295,347.1037 76.8933,344.9807 107.9855,349.8996 147.261,344.1576 184.9105,353.5766 237.1064,343.4666 306.1297,349.6855 351.1094,346.6967"/>
    <polyline points="352.8519,341.7244 305.3948,341.5455 276.5612,342.9047 236.8089,338.4936 182.848,347.0071 147.7759,340.7007 106.3697,341.9842 75.804,342.3709 43.0575,343.4142"/>
    <polyline points="41.7856,339.7247 74.7147,339.7612 104.754,334.0689 148.2908,337.2438 180.7856,340.4377 236.5114,333.5205 273.5853,338.5674 304.6599,333.4054 354.5943,336.7521"/>
    <polyline points="355.4371,325.4642 306.5552,319.874 272.9323,329.7281 239.1542,324.8809 180.6098,327.9644 147.2056,326.4114 105.8699,321.0378 74.4438,331.78 42.8807,329.4868"/>
    <polyline points="45.2477,322.9384 75.2621,326.4085 108.6015,315.9219 182.4966,322.0607 242.0945,321.2142 275.2551,325.2262 309.1852,314.4827 354.5375,319.1487"/>
    <polyline points="353.6379,312.8331 311.8153,309.0914 277.578,320.7242 245.0348,317.5476 184.3833,316.1569 144.0052,311.6606 111.3331,310.8061 76.0804,321.037 47.6147,316.39"/>
    <polyline points="49.9818,309.8415 76.8988,315.6656 114.0646,305.6902 142.405,304.2852 186.2701,310.2532 247.9752,313.881 279.9009,316.2223 314.4454,303.7001 352.7382,306.5176"/>
    <polyline points="351.8386,300.2021 317.0755,298.3088 282.2237,311.7204 250.9155,310.2143 205.0382,306.2524 188.1568,304.3495 140.8048,296.9098 116.7962,300.5744 77.7171,310.2941 52.3488,303.2931"/>
    <polyline points="53.0849,291.4429 80.1833,299.7062 117.394,291.823 140.6645,284.3266 189.8367,292.8846 207.951,293.2651 251.2977,298.203 285.4757,298.6064 319.0216,286.0956 349.7938,287.761"/>
    <polyline points="348.6486,281.6355 318.3376,279.2737 286.4049,289.9944 248.7395,289.8582 210.4816,285.4092 189.6299,287.3235 142.1244,279.1189 115.2603,288.1874 81.8312,294.4898 51.454,286.141"/>
    <polyline points="49.823,280.8391 83.4791,289.2733 113.1265,284.5518 143.5843,273.9111 189.4231,281.7624 213.0122,277.5533 246.1813,281.5135 287.3341,281.3823 317.6536,272.4518 347.5034,275.5099"/>
    <polyline points="346.3583,269.3844 316.9696,265.6299 288.2632,272.7702 243.6231,273.1688 215.5428,269.6974 189.2162,276.2013 145.0442,268.7034 110.9927,280.9163 85.1269,284.0569 48.1921,275.5373"/>
    <polyline points="46.5612,270.2354 86.7748,278.8404 108.8589,277.2807 146.504,263.4957 189.0094,270.6402 218.0734,261.8415 241.065,264.8241 289.1924,264.1582 316.2856,258.808 345.2131,263.2589"/>
    <polyline points="342.8098,251.356 316.6488,247.2882 289.4152,252.475 241.6708,250.7833 220.5234,249.2628 188.4873,260.4613 148.0419,253.0461 106.5454,266.5339 86.6129,266.6802 46.0913,258.2757"/>
    <polyline points="47.2524,251.6179 84.8031,259.7365 106.3657,259.4227 148.1199,247.8042 188.172,255.8435 220.4428,244.5401 244.8347,245.0872 288.7089,249.4038 317.6959,242.5903 341.5516,245.5787"/>
    <polyline points="340.2935,239.8013 318.7431,237.8924 288.0026,246.3326 247.9987,239.3911 220.3621,239.8174 187.8568,251.2256 148.1979,242.5623 106.186,252.3115 82.9933,252.7927 48.4135,244.96"/>
    <polyline points="49.5746,238.3022 81.1836,245.849 106.0063,245.2002 148.2759,237.3205 187.5415,246.6078 220.2815,235.0947 251.1627,233.6951 287.2962,243.2615 319.7903,233.1945 339.0354,234.024"/>
    <polyline points="337.7773,228.2466 320.8374,228.4966 286.5899,240.1903 254.3267,227.999 220.2009,230.372 187.2263,241.99 148.3539,232.0786 105.8266,238.089 79.3738,238.9052 50.7356,231.6444"/>
    <polyline points="50.8667,219.7713 77.7075,224.4339 106.1538,226.5236 148.3991,221.4645 186.5091,229.604 217.5598,219.6264 253.996,216.0863 283.8719,229.7065 319.8957,218.6009 338.0797,218.603"/>
    <polyline points="339.6402,214.7367 317.9069,213.403 281.8603,222.2939 250.5013,209.8696 214.9994,213.6035 186.1072,221.8358 148.3664,216.0923 106.6608,222.0693 77.851,216.9063 49.8367,214.5561"/>
    <polyline points="48.8067,209.3409 77.9945,209.3788 107.1678,217.615 148.3336,210.7201 185.7052,214.0676 212.439,207.5806 247.0066,203.653 279.8487,214.8813 315.918,208.2052 341.2008,210.8704"/>
    <polyline points="342.7613,207.0041 313.9292,203.0073 277.8371,207.4687 243.5119,197.4364 209.8785,201.5577 185.3033,206.2994 148.3008,205.348 107.6748,213.1608 78.138,201.8512 47.7767,204.1257"/>
    <polyline points="46.7467,198.9104 78.2815,194.3236 108.1817,208.7065 148.2681,199.9758 184.9014,198.5313 240.0172,191.2198 275.8254,200.0561 311.9404,197.8095 344.3219,203.1378"/>
    <polyline points="347.0208,192.6789 310.9254,187.5848 273.4418,189.4241 237.7839,183.0279 205.2335,185.844 183.877,185.6009 149.6572,189.6022 110.7387,196.2849 80.0378,183.4013 45.3738,187.5441"/>
    <polyline points="45.031,181.3929 81.6505,180.0066 112.7887,188.3175 151.0792,184.6008 183.2546,180.4388 205.7094,182.1762 239.0453,181.0528 273.0697,186.2047 311.8992,182.5579 348.1592,186.0863"/>
    <polyline points="349.2976,179.4937 312.8731,177.531 272.6977,182.9853 240.3067,179.0776 206.1852,178.5083 182.6321,175.2766 152.5011,179.5994 114.8387,180.3501 83.2632,176.6118 44.6882,175.2417"/>
    <polyline points="44.3454,169.0905 84.8759,173.217 116.8887,172.3827 153.923,174.598 182.0097,170.1145 206.6611,174.8405 241.5681,177.1024 272.3257,179.7659 313.8469,172.5041 350.436,172.901"/>
    <polyline points="351.5744,166.3084 314.8208,167.4772 271.9536,176.5464 242.8295,175.1272 207.1369,171.1726 181.3873,164.9523 155.345,169.5966 118.9388,164.4153 86.4886,169.8223 44.0026,162.9393"/>
    <polyline points="45.2617,153.075 85.8763,161.0015 117.714,151.7922 156.2024,158.7582 182.1163,156.2008 209.0759,162.3348 244.8688,165.3254 273.1037,164.1415 315.4262,156.478 352.4034,154.9974"/>
    <polygon points="352.7128,159.7158 315.7947,162.4503 271.5816,173.327 244.0909,173.152 207.6128,167.5048 180.7649,159.7902 156.7669,164.5952 120.9888,156.4479 88.1013,166.4275 43.6598,156.7882 88.1013,166.4275 120.9888,156.4479 156.7669,164.5952 180.7649,159.7902 207.6128,167.5048 244.0909,173.152 271.5816,173.327 315.7947,162.4503"/>
    <polyline points="352.0939,150.2789 315.0577,150.5056 274.6258,154.956 245.6467,157.4988 210.539,157.1648 183.4678,152.6114 155.6378,152.9211 114.4391,147.1365 83.6514,155.5755 46.8637,149.3618"/>
    <polyline points="48.4656,145.6486 81.4264,150.1494 111.1643,142.4808 155.0733,147.0841 184.8192,149.022 212.0021,151.9948 246.4245,149.6722 276.1478,145.7705 314.6893,144.5333 351.7845,145.5605"/>
    <polyline points="351.4751,140.842 277.6699,136.5849 247.2024,141.8456 213.4652,146.8248 186.1707,145.4326 154.5087,141.247 107.8895,137.8252 79.2014,144.7234 50.0676,141.9355"/>
    <polyline points="51.6695,138.2223 76.9764,139.2974 104.6147,133.1695 153.9441,135.41 187.5222,141.8432 214.9283,141.6548 247.9803,134.019 279.192,127.3994 313.9524,132.5887 351.1656,136.1236"/>
    <polyline points="344.6442,130.607 346.5598,160.1715 339.8939,198.1615 334.0801,222.6909 339.3235,256.2755 345.7334,293.725 347.6014,330.694 339.6242,363.6957 345.4795,395.0788 344.7568,424.146"/>
    <polyline points="338.0124,427.548 338.5588,394.5862 333.3662,365.7777 338.8662,329.6083 340.5279,293.5635 334.5791,255.4176 331.641,222.9124 333.9055,197.0516 340.4068,160.6273 338.4321,129.8089"/>
    <polyline points="332.2201,129.0107 334.2537,161.083 327.917,195.9416 329.2019,223.134 329.8347,254.5597 335.3223,293.402 330.1309,328.5225 327.1082,367.8597 331.6382,394.0935 331.2679,430.9501"/>
    <polyline points="324.5234,434.3521 324.7176,393.6008 320.8502,369.9417 321.3956,327.4368 330.1167,293.2405 325.0904,253.7018 326.7628,223.3556 321.9285,194.8316 328.1007,161.5388 326.008,128.2126"/>
    <polyline points="319.796,127.4145 321.9477,161.9945 315.94,193.7216 324.3237,223.5771 320.346,252.844 324.9112,293.079 312.6603,326.351 314.5923,372.0237 317.7969,393.1082 317.7789,437.7542"/>
    <polyline points="305.7493,438.2381 304.8932,393.7831 305.0227,371.7971 298.3725,326.7594 313.8458,295.301 311.3549,252.5794 315.8844,226.0188 303.9286,192.617 308.4258,164.2631 308.1056,125.2159"/>
    <polyline points="302.6273,123.8155 301.057,166.0759 297.9056,192.6223 309.8842,228.2389 307.1083,253.1728 307.9859,297.6845 292.8199,328.2535 301.7111,369.4885 298.9101,394.9506 300.4641,435.32"/>
    <polyline points="295.1789,432.4018 292.9271,396.1182 298.3996,367.1799 287.2672,329.7477 302.1261,300.068 302.8616,253.7661 303.8841,230.4589 291.8827,192.6276 297.149,122.4151"/>
    <polyline points="291.6707,121.0147 286.3193,169.7015 285.8597,192.6329 297.8839,232.679 298.6149,254.3595 296.2663,302.4515 281.7146,331.2418 295.088,364.8713 286.944,397.2857 289.8938,429.4837"/>
    <polyline points="284.6086,426.5656 280.9609,398.4533 291.7764,362.5627 276.162,332.7359 290.4064,304.835 294.3682,254.9528 291.8837,234.8991 279.8368,192.6382 278.9504,171.5142 286.1924,119.6143"/>
    <polyline points="275.3881,119.5436 266.9998,173.2979 267.5986,191.3701 281.1514,234.6498 281.5191,255.7017 279.4315,307.1067 264.8768,333.2829 280.0538,359.9427 269.2657,399.8103 273.3763,423.6683"/>
    <polyline points="267.4292,423.689 263.5536,399.9998 271.6429,359.6313 259.1442,332.3358 274.3163,306.9949 272.9166,255.8572 276.4193,232.1804 261.3834,190.0967 262.418,173.2687 270.0621,120.8734"/>
    <polyline points="264.7361,122.2031 257.8363,173.2395 255.1681,188.8233 271.6871,229.711 264.3142,256.0127 269.2012,306.8831 253.4116,331.3888 263.2319,359.3199 257.8414,400.1893 261.4821,423.7098"/>
    <polyline points="255.5351,423.7306 252.1293,400.3787 254.8209,359.0085 247.679,330.4417 264.0861,306.7713 255.7117,256.1683 266.955,227.2417 248.9529,187.5499 253.2545,173.2104 259.4101,123.5329"/>
    <polyline points="254.0842,124.8626 248.6727,173.1812 242.7377,186.2765 262.2228,224.7723 247.1092,256.3238 258.971,306.6595 241.9464,329.4946 246.4099,358.6971 246.4171,400.5682 249.588,423.7514"/>
    <polyline points="239.1176,425.3823 236.8434,398.4135 235.4554,359.4224 230.6994,329.1078 245.7833,305.6432 235.523,256.0637 251.2623,222.8606 231.2283,185.7546 238.0112,172.2108 243.3637,127.9078"/>
    <polyline points="237.9692,129.6232 231.9315,171.2696 225.9342,186.506 245.0339,223.4184 232.5392,255.6481 237.7107,304.7388 225.185,329.6681 232.9119,360.459 232.9817,396.0694 234.5944,426.9925"/>
    <polyline points="230.0711,428.6026 229.1201,393.7252 230.3685,361.4956 219.6705,330.2284 229.6381,303.8344 229.5554,255.2325 238.8055,223.9761 220.6401,187.2575 225.8518,170.3284 232.5748,131.3386"/>
    <polyline points="227.1803,133.054 219.7721,169.3872 215.3459,188.009 232.5771,224.5338 226.5716,254.8168 221.5655,302.9299 214.1561,330.7887 227.825,362.5323 225.2585,391.381 225.5479,430.2128"/>
    <polyline points="221.0246,431.823 221.3969,389.0369 225.2815,363.5689 208.6416,331.349 213.493,302.0255 223.5878,254.4012 226.3487,225.0915 210.0518,188.7604 213.6924,168.446 221.7858,134.7694"/>
    <polyline points="211.8051,136.7797 203.1381,166.219 201.3813,189.7204 214.5854,227.6031 215.3037,255.8345 202.8576,300.6752 199.0598,332.2358 217.4646,366.0522 212.362,386.9031 210.8181,432.98"/>
    <polyline points="205.1349,432.5268 207.1888,387.1135 212.1913,367.4987 194.9925,332.5623 200.2948,300.2293 210.0035,257.6834 209.0505,229.5569 198.0049,189.9289 198.6635,164.9332 207.2188,137.0745"/>
    <polyline points="202.6325,137.3693 194.1888,163.6475 194.6285,190.1375 203.5157,231.5107 204.7033,259.5323 197.732,299.7834 190.9251,332.8887 206.9179,368.9453 202.0156,387.324 199.4516,432.0737"/>
    <polyline points="193.7683,431.6205 196.8424,387.5344 201.6446,370.3919 186.8578,333.2152 195.1692,299.3375 199.403,261.3812 197.9808,233.4646 191.2522,190.346 189.7142,162.3617 198.0462,137.6641"/>
    <polyline points="193.4599,137.9589 185.2395,161.0759 187.8758,190.5545 192.4459,235.4184 194.1028,263.2302 192.6064,298.8916 182.7904,333.5417 196.3712,371.8385 191.6692,387.7448 188.085,431.1674"/>
    <polygon points="182.4018,430.7142 186.496,387.9553 191.0979,373.2851 178.7231,333.8682 190.0436,298.4457 188.8025,265.0791 186.911,237.3722 184.4994,190.7631 180.7649,159.7902 188.8736,138.2538 180.7649,159.7902 184.4994,190.7631 186.911,237.3722 188.8025,265.0791 190.0436,298.4457 178.7231,333.8682 191.0979,373.2851 186.496,387.9553"/>
    <polyline points="177.9764,432.0598 180.7616,390.9577 183.5343,370.159 173.7369,333.8546 181.5704,296.9605 181.9961,263.9472 176.7652,160.591 182.9579,136.807"/>
    <polyline points="177.0423,135.3602 172.7656,161.3918 172.4114,192.0432 175.1897,262.8154 173.0973,295.4753 168.7506,333.8411 175.9707,367.0329 173.551,433.4054"/>
    <polyline points="169.1256,434.751 169.293,396.9626 168.407,363.9068 163.7644,333.8275 164.6241,293.99 168.3832,261.6835 166.3674,192.6833 171.1266,133.9134"/>
    <polyline points="165.2109,132.4666 164.7662,162.9935 160.3233,193.3234 161.2583,230.3486 161.5768,260.5516 156.151,292.5048 158.7782,333.814 163.5587,399.965 164.7002,436.0965"/>
    <polyline points="160.2748,437.4421 157.8244,402.9675 153.2798,357.6545 153.792,333.8004 147.6778,291.0196 154.7704,259.4198 154.8451,228.5926 154.2793,193.9635 160.7666,163.7944 159.2953,131.0198"/>
    <polyline points="144.7063,129.3964 150.8039,163.2373 141.6442,196.2117 141.0908,260.8475 135.9252,290.5217 141.1945,332.5146 140.2356,357.7146 144.0396,404.7397 149.4307,437.6726"/>
    <polyline points="143.0119,436.5576 135.9891,403.5094 133.5833,331.2424 132.6457,291.5091 134.2177,263.407 134.1702,228.2171 135.0531,197.8198 144.8409,161.8794 136.033,129.2199"/>
    <polyline points="127.3598,129.0434 138.8778,160.5215 128.462,199.4279 127.0394,228.9073 127.3445,265.9665 129.3662,292.4965 125.972,329.9702 129.2744,364.087 127.9386,402.2792 136.5931,435.4426"/>
    <polyline points="130.1744,434.3275 119.8881,401.0489 123.7938,367.2731 118.3608,328.698 126.0868,293.4838 120.4714,268.5261 119.9085,229.5974 121.8709,201.036 132.9148,159.1637 118.6865,128.8669"/>
    <polyline points="110.0132,128.6903 126.9518,157.8058 115.2798,202.6442 112.7777,230.2876 113.5983,271.0856 122.8073,294.4712 110.7495,327.4258 118.3132,370.4593 111.8376,399.8187 123.7556,433.2125"/>
    <polyline points="112.1846,432.5537 100.4958,398.0123 107.3874,370.1729 98.2195,327.9866 112.6958,297.0359 103.6747,273.6416 100.9664,231.1417 103.6448,201.3429 115.5075,158.1111 96.9085,129.4067"/>
    <polygon points="101.3399,128.5138 120.9888,156.4479 108.6887,204.2523 105.6469,230.9778 106.7251,273.6451 119.5278,295.4586 103.1383,326.1536 112.8326,373.6455 103.7871,398.5885 117.3368,432.0975 103.7871,398.5885 112.8326,373.6455 103.1383,326.1536 119.5278,295.4586 106.7251,273.6451 105.6469,230.9778 108.6887,204.2523 120.9888,156.4479"/>
    <polyline points="92.4771,130.2997 110.0263,159.7744 98.6008,198.4336 96.2859,231.3057 100.6243,273.6381 105.8637,298.6132 93.3007,329.8195 101.9421,366.7003 97.2044,397.4361 107.0323,433.01"/>
    <polyline points="101.8801,433.4662 93.9131,396.86 96.4969,363.2277 88.3818,331.6525 99.0316,300.1906 97.5739,273.6346 91.6054,231.4696 93.5569,195.5242 104.545,161.4377 88.0457,131.1926"/>
    <polyline points="83.6143,132.0855 99.0638,163.1009 88.5129,192.6148 86.9249,231.6336 94.5235,273.631 92.1996,301.7679 83.463,333.4855 91.0516,359.7551 90.6217,396.2838 96.7278,433.9224"/>
    <polyline points="91.5756,434.3787 87.3304,395.7076 85.6064,356.2825 78.5442,335.3185 91.4731,273.6275 82.2445,231.7975 83.469,189.7055 93.5825,164.7642 79.1829,132.9785"/>
    <polygon points="148.2353,194.6036 148.4319,226.8367 147.9639,258.2879 139.2047,289.5344 148.8058,333.7868 145.7162,354.5284 155.8495,438.7877 145.7162,354.5284 148.8058,333.7868 139.2047,289.5344 147.9639,258.2879 148.4319,226.8367 148.2353,194.6036 156.7669,164.5952 153.3796,129.573 156.7669,164.5952"/>
    <polygon points="77.564,231.9615 105.6469,230.9778 148.4319,226.8367 186.911,237.3722 220.1203,225.6492 257.4907,222.3029 285.8836,237.1191 321.8846,223.7987 336.5192,222.4693 321.8846,223.7987 285.8836,237.1191 257.4907,222.3029 220.1203,225.6492 186.911,237.3722 148.4319,226.8367 105.6469,230.9778 77.564,231.9615 51.8967,224.9865"/>
    <polygon points="88.4227,273.624 44.9303,264.9335 88.4227,273.624 106.7251,273.6451 147.9639,258.2879 188.8025,265.0791 220.604,253.9856 238.5068,256.4793 290.1216,255.5461 315.6016,251.9861 344.0679,257.1333 315.6016,251.9861 290.1216,255.5461 238.5068,256.4793 220.604,253.9856 188.8025,265.0791 147.9639,258.2879 106.7251,273.6451"/>
    <polygon points="78.5354,304.9226 54.7158,296.7447 78.5354,304.9226 119.5278,295.4586 139.2047,289.5344 205.4204,301.1211 253.8559,306.5477 284.5466,307.2185 319.7056,292.9175 350.939,293.8865 319.7056,292.9175 284.5466,307.2185 253.8559,306.5477 205.4204,301.1211 139.2047,289.5344 119.5278,295.4586"/>
    <polygon points="145.7162,354.5284 112.8326,373.6455 80.1611,352.8099 48.1452,358.1722 80.1611,352.8099 112.8326,373.6455 145.7162,354.5284 191.0979,373.2851 222.738,364.6056 237.9989,358.3857 288.4648,360.2541 308.3343,374.1057 345.8822,361.6137 308.3343,374.1057 288.4648,360.2541 237.9989,358.3857 222.738,364.6056 191.0979,373.2851"/>
    <polygon points="222.738,364.6056 217.5352,386.6927 216.5014,433.4331 217.5352,386.6927 222.738,364.6056 203.1272,331.9093 205.4204,301.1211 220.604,253.9856 220.1203,225.6492 204.7577,189.5119 207.6128,167.5048 216.3914,136.4848 207.6128,167.5048 204.7577,189.5119 220.1203,225.6492 220.604,253.9856 205.4204,301.1211 203.1272,331.9093"/>
    <polygon points="270.6094,334.23 303.9251,325.2653 356.3367,331.7797 303.9251,325.2653 270.6094,334.23 236.2138,328.5475 203.1272,331.9093 178.7231,333.8682 148.8058,333.7868 103.1383,326.1536 73.6254,337.1514 40.5137,336.0352 73.6254,337.1514 103.1383,326.1536 148.8058,333.7868 178.7231,333.8682 203.1272,331.9093 236.2138,328.5475"/>
    <polygon points="285.8836,237.1191 273.8138,192.6435 271.5816,173.327 280.714,118.2139 271.5816,173.327 273.8138,192.6435 285.8836,237.1191 290.1216,255.5461 284.5466,307.2185 270.6094,334.23 288.4648,360.2541 274.9779,399.6208 279.3234,423.6475 274.9779,399.6208 288.4648,360.2541 270.6094,334.23 284.5466,307.2185 290.1216,255.5461"/>
    <polygon points="257.4907,222.3029 238.5068,256.4793 253.8559,306.5477 236.2138,328.5475 240.705,400.7577 243.6409,423.7722 240.705,400.7577 236.2138,328.5475 253.8559,306.5477 238.5068,256.4793 257.4907,222.3029 236.5225,185.0031 244.0909,173.152 248.7582,126.1924 244.0909,173.152 236.5225,185.0031"/>
    <polygon points="236.5225,185.0031 273.8138,192.6435 309.9515,192.6117 345.8824,199.2715 309.9515,192.6117 273.8138,192.6435 236.5225,185.0031 204.7577,189.5119 184.4994,190.7631 148.2353,194.6036 108.6887,204.2523 78.4251,186.7961 45.7167,193.6952 78.4251,186.7961 108.6887,204.2523 148.2353,194.6036 184.4994,190.7631 204.7577,189.5119"/>
    <polygon points="321.8846,223.7987 309.9515,192.6117 315.7947,162.4503 313.5839,126.6164 315.7947,162.4503 309.9515,192.6117 321.8846,223.7987 315.6016,251.9861 319.7056,292.9175 303.9251,325.2653 308.3343,374.1057 310.8763,392.6155 311.0345,441.1562 310.8763,392.6155 308.3343,374.1057 303.9251,325.2653 319.7056,292.9175 315.6016,251.9861"/>
  </g>
</svg>
