<?xml version="1.0" encoding="utf-8" ?>
<svg xmlns="http://www.w3.org/2000/svg" xmlns:cc="http://creativecommons.org/ns" xmlns:dc="http://purl.org/dc/elements/1.1/" xmlns:ev="http://www.w3.org/2001/xml-events" xmlns:inkscape="http://www.inkscape.org/namespaces/inkscape" xmlns:rdf="http://www.w3.org/1999/02/22-rdf-syntax-ns" xmlns:sodipodi="http://sodipodi.sourceforge.net/DTD/sodipodi-0.dtd" xmlns:xlink="http://www.w3.org/1999/xlink" baseProfile="tiny" height="42.0cm" version="1.2" viewBox="0 0 1122.5196850393702 1587.4015748031497" width="29.7cm">
  <metadata>
    <rdf:RDF>
      <cc:Work>
        <dc:format>image/svg+xml</dc:format>
        <dc:source>Vsketch with params {'__seed__': 896598421}</dc:source>
        <dc:date>2023-12-15T16:24:46.665666</dc:date>
      </cc:Work>
    </rdf:RDF>
  </metadata>
  <defs/>
  <g fill="none" id="layer1" inkscape:groupmode="layer" inkscape:label="1" stroke="#0000ff" style="display:inline">
    <polygon points="359.9407,608.9622 359.3763,608.3953 358.8069,608.9572 359.3663,609.5291"/>
    <polyline points="360.6347,610.8869 423.4192,613.3392 461.5655,600.1017 538.0367,597.0207 594.0809,602.8464 623.6257,614.9454 660.7036,616.4579 699.1179,613.3773 743.5235,598.4778"/>
    <polyline points="744.1406,600.7019 698.6918,615.9286 660.9072,619.3792 622.6898,616.3463 592.7335,605.5991 539.2632,599.4216 507.8691,601.6996 461.098,602.2074 422.1677,616.2365 361.8955,612.8117"/>
    <polyline points="363.1564,614.7364 420.9161,619.1339 460.6305,604.3131 506.9555,605.1076 540.4898,601.8226 591.3861,608.3518 621.7538,617.7473 661.1108,622.3004 698.2658,618.4798 744.7578,602.9259"/>
    <polyline points="745.3749,605.1499 697.8398,621.0311 661.3143,625.2217 620.8179,619.1483 590.0387,611.1045 541.7164,604.2236 506.0418,608.5156 460.163,606.4187 419.6646,622.0313 364.4172,616.6612"/>
    <polyline points="365.6781,618.5859 418.413,624.9287 459.6955,608.5244 505.1281,611.9237 542.943,606.6245 588.6914,613.8571 619.882,620.5493 661.5179,628.1429 697.4137,623.5823 745.9921,607.374"/>
    <polyline points="746.6092,609.598 696.9877,626.1336 661.7215,631.0642 618.946,621.9502 544.1695,609.0255 504.2144,615.3317 459.228,610.6301 417.1615,627.826 366.9389,620.5106"/>
    <polyline points="368.1998,622.4354 415.9099,630.7234 458.7605,612.7358 503.3007,618.7397 545.3961,611.4265 585.9966,619.3625 618.0101,623.3512 661.9251,633.9855 696.5616,628.6848 747.2264,611.8221"/>
    <polyline points="747.8435,614.0461 696.1356,631.2361 662.1287,636.9067 617.0742,624.7522 584.6492,622.1152 546.6227,613.8274 502.387,622.1477 458.293,614.8415 414.6584,633.6208 369.4606,624.3601"/>
    <polyline points="370.7215,626.2849 413.4068,636.5181 457.8255,616.9471 501.4733,625.5558 547.8493,616.2284 583.3019,624.8679 616.1382,626.1531 662.3322,639.828 695.7096,633.7873 748.4607,616.2702"/>
    <polyline points="749.0779,618.4942 695.2835,636.3386 662.5358,642.7492 615.2023,627.5541 581.9545,627.6206 549.0758,618.6294 500.5596,628.9638 457.358,619.0528 412.1553,639.4155 371.9823,628.2096"/>
    <polyline points="373.2432,630.1343 410.9037,642.3129 456.8905,621.1585 499.6459,632.3718 550.3024,621.0303 580.6071,630.3733 614.2664,628.9551 662.7394,645.6705 694.8575,638.8898 749.695,620.7182"/>
    <polyline points="750.3122,622.9423 694.4315,641.4411 662.943,648.5917 613.3304,630.3561 579.2597,633.1259 551.529,623.4313 498.7322,635.7798 456.423,623.2642 409.6522,645.2103 374.5041,632.0591"/>
    <polyline points="375.7649,633.9838 408.4006,648.1076 455.9555,625.3699 497.8186,639.1878 552.7556,625.8322 577.9124,635.8786 612.3945,631.757 663.1465,651.513 694.0054,643.9923 750.9293,625.1663"/>
    <polyline points="751.5465,627.3904 693.5794,646.5436 663.3501,654.4342 611.4586,633.158 576.565,638.6313 553.9821,628.2332 496.9049,642.5959 455.488,627.4755 407.1491,651.005 377.0258,635.9085"/>
    <polygon points="378.8535,637.8333 378.2891,637.2664 377.7197,637.8283 378.2791,638.4002"/>
    <polyline points="378.1367,641.4357 406.3593,656.1383 456.0941,634.2023 495.8954,648.155 554.6396,634.9746 575.5713,644.1268 610.505,637.9375 664.6399,659.5647 693.7149,652.3574 751.2226,632.3554"/>
    <polyline points="750.2817,635.0964 694.2764,655.62 665.7261,661.7739 610.4874,641.3161 575.9251,646.8695 554.0705,639.315 495.7996,650.3061 457.1676,638.8233 406.8211,658.3741 377.9868,645.0382"/>
    <polyline points="377.8369,648.6406 407.283,660.61 458.2411,643.4443 495.7038,652.4572 553.5014,643.6554 576.2788,649.6123 610.4697,644.6947 666.8123,663.983 694.8379,658.8826 749.3407,637.8374"/>
    <polyline points="748.3997,640.5785 695.3994,662.1452 667.8984,666.1922 610.4521,648.0733 576.6325,652.3551 552.9322,647.9958 495.608,654.6083 459.3147,648.0653 407.7448,662.8459 377.6869,652.2431"/>
    <polyline points="377.537,655.8456 408.2066,665.0818 460.3882,652.6863 495.5121,656.7594 552.3631,652.3362 576.9862,655.0979 610.4344,651.4518 668.9846,668.4014 695.9609,665.4078 747.4587,643.3195"/>
    <polyline points="746.5178,646.0605 696.5224,668.6704 670.0708,670.6106 610.4168,654.8304 577.34,657.8406 551.794,656.6766 495.4163,658.9105 461.4618,657.3074 408.6684,667.3177 377.3871,659.448"/>
    <polyline points="377.2372,663.0505 409.1302,669.5536 462.5353,661.9284 495.3205,661.0616 551.2249,661.017 577.6937,660.5834 610.3991,658.209 671.157,672.8198 697.084,671.933 745.5768,648.8015"/>
    <polyline points="744.6358,651.5425 697.6455,675.1956 672.2432,675.029 610.3815,661.5875 578.0474,663.3262 550.6558,665.3574 495.2247,663.2127 409.592,671.7894 377.0873,666.6529"/>
    <polyline points="376.9374,670.2554 410.0538,674.0253 464.6824,671.1704 495.1289,665.3639 550.0867,669.6978 578.4012,666.069 610.3638,664.9661 673.3294,677.2382 698.207,678.4582 743.6948,654.2835"/>
    <polyline points="742.7538,657.0245 698.7685,681.7209 674.4156,679.4474 610.3462,668.3447 578.7549,668.8117 549.5176,674.0382 495.0331,667.515 465.756,675.7915 410.5156,676.2612 376.7874,673.8578"/>
    <polyline points="376.6375,677.4603 466.8295,680.4125 494.9373,669.6661 548.9484,678.3786 579.1086,671.5545 610.3285,671.7233 675.5017,681.6565 699.33,684.9835 741.8129,659.7655"/>
    <polyline points="740.8719,662.5065 699.8915,688.2461 676.5879,683.8657 610.3109,675.1018 579.4624,674.2973 548.3793,682.719 494.8415,671.8172 467.903,685.0335 411.4392,680.733 376.4876,681.0627"/>
    <polyline points="376.3377,684.6652 411.901,682.9689 468.9766,689.6545 494.7457,673.9683 547.8102,687.0594 579.8161,677.04 610.2932,678.4804 677.6741,686.0749 700.453,691.5087 739.9309,665.2475"/>
    <polyline points="738.9899,667.9885 701.0146,694.7713 678.7603,688.2841 610.2756,681.859 580.1698,679.7828 547.2411,691.3998 494.6499,676.1194 470.0501,694.2755 412.3628,685.2048 376.1878,688.2676"/>
    <polygon points="376.0403,691.3032 375.4709,691.8651 376.0304,692.437 376.6048,691.8701"/>
    <polyline points="375.211,694.5887 413.7172,690.4057 470.0677,700.3082 495.0679,680.7461 545.641,697.1466 581.5704,685.725 610.2742,687.6139 677.9906,692.8413 702.8268,699.4663 738.2471,674.9104"/>
    <polyline points="738.4453,679.0913 704.0775,700.8986 676.1347,695.1893 610.2904,689.9903 582.6172,688.9244 544.61,698.5529 495.5817,683.2218 469.0116,701.7199 414.6097,693.3708 374.3841,697.3073"/>
    <polyline points="373.5572,700.0259 415.5022,696.3358 467.9556,703.1315 496.0956,685.6974 543.5791,699.9593 583.664,692.1239 610.3067,692.3667 674.2789,697.5373 705.3282,702.331 738.6435,683.2721"/>
    <polyline points="738.8417,687.453 706.5789,703.7634 672.423,699.8853 610.3229,694.743 584.7109,695.3233 542.5481,701.3657 496.6094,688.173 466.8996,704.5432 416.3948,699.3009 372.7303,702.7445"/>
    <polyline points="371.9034,705.4631 417.2873,702.2659 465.8436,705.9549 497.1232,690.6487 541.5171,702.772 585.7577,698.5227 610.3392,697.1194 707.8297,705.1958 739.0398,691.6339"/>
    <polyline points="739.238,695.8147 709.0804,706.6282 668.7113,704.5812 610.3554,699.4958 586.8045,701.7222 540.4862,704.1784 497.637,693.1243 464.7876,707.3665 418.1798,705.231 371.0766,708.1817"/>
    <polyline points="370.2497,710.9002 419.0724,708.1961 463.7316,708.7782 498.1508,695.5999 539.4552,705.5848 587.8514,704.9216 610.3717,701.8721 666.8554,706.9292 710.3311,708.0605 739.4362,699.9956"/>
    <polyline points="739.6344,704.1764 711.5818,709.4929 664.9996,709.2772 610.3879,704.2485 588.8982,708.121 538.4242,706.9912 498.6646,698.0756 462.6756,710.1898 419.9649,711.1611 369.4228,713.6188"/>
    <polyline points="368.5959,716.3374 420.8574,714.1262 461.6195,711.6015 499.1785,700.5512 537.3933,708.3975 589.945,711.3204 610.4042,706.6249 663.1437,711.6252 712.8326,710.9253 739.8325,708.3573"/>
    <polyline points="740.0307,712.5382 714.0833,712.3577 661.2878,713.9732 610.4204,709.0012 590.9918,714.5199 536.3623,709.8039 499.6923,703.0268 460.5635,713.0132 421.75,717.0913 367.7691,719.056"/>
    <polyline points="366.9422,721.7746 422.6425,720.0563 459.5075,714.4248 500.2061,705.5025 535.3313,711.2103 592.0387,717.7193 610.4367,711.3776 659.432,716.3212 715.334,713.79 740.2289,716.719"/>
    <polyline points="740.427,720.8999 716.5847,715.2224 657.5761,718.6692 610.4529,713.7539 593.0855,720.9187 500.7199,707.9781 458.4515,715.8365 423.5351,723.0214 366.1153,724.4932"/>
    <polyline points="365.2884,727.2118 424.4276,725.9864 457.3955,717.2481 501.2337,710.4537 533.2694,714.023 594.1323,724.1182 610.4691,716.1303 655.7202,721.0172 717.8354,716.6548 740.6252,725.0808"/>
    <polyline points="740.8234,729.2616 719.0862,718.0872 653.8644,723.3651 610.4854,718.5067 595.1792,727.3176 532.2384,715.4294 501.7476,712.9294 456.3395,718.6598 425.3201,728.9515 364.4615,729.9304"/>
    <polygon points="363.6371,732.0821 363.0677,732.644 363.6371,733.2159 364.2016,732.649"/>
    <polyline points="364.9597,734.7424 424.4934,734.1604 455.2117,723.9578 501.3745,718.2809 531.7808,720.5348 595.8378,733.97 611.2461,725.048 653.5269,728.7586 719.1647,723.2748 741.0928,736.2349"/>
    <polygon points="741.0216,733.4425 720.3369,719.5196 652.0085,725.7131 610.5016,720.883 596.226,730.517 531.2075,716.8358 502.2614,715.405 455.2835,720.0715 426.2127,731.9166 363.6347,732.649 426.2127,731.9166 455.2835,720.0715 502.2614,715.405 531.2075,716.8358 596.226,730.517 610.5016,720.883 652.0085,725.7131 720.3369,719.5196"/>
    <polygon points="741.0241,732.8756 740.4547,733.4375 741.0141,734.0094 741.5885,733.4425"/>
    <polyline points="741.1639,739.0274 717.9926,727.03 655.0453,731.8042 611.9905,729.213 595.4497,737.4229 532.3541,724.2339 500.4876,721.1568 455.1399,727.8441 422.7741,736.4042 366.2847,736.8358"/>
    <polyline points="367.6097,738.9292 421.0548,738.648 455.0681,731.7304 499.6008,724.0327 532.9274,727.933 595.0615,740.8759 612.7349,733.378 656.5637,734.8497 716.8205,730.7852 741.2351,741.8198"/>
    <polyline points="741.3063,744.6123 715.6484,734.5404 658.0821,737.8952 613.4794,737.5429 594.6733,744.3288 533.5007,731.6321 498.7139,726.9086 454.9963,735.6167 419.3355,740.8919 368.9348,741.0226"/>
    <polyline points="370.2598,743.116 417.6162,743.1357 454.9245,739.503 497.827,729.7845 534.074,735.3312 594.2852,747.7818 614.2238,741.7079 659.6006,740.9407 714.4762,738.2957 741.3775,747.4047"/>
    <polyline points="741.4487,750.1971 713.3041,742.0509 614.9682,745.8729 593.897,751.2347 534.6473,739.0303 496.9402,732.6605 454.8527,743.3894 415.8969,745.3795 371.5848,745.2094"/>
    <polyline points="372.9099,747.3028 414.1776,747.6233 454.7809,747.2757 496.0533,735.5364 535.2206,742.7294 593.5089,754.6877 615.7127,750.0378 662.6374,747.0317 712.132,745.8061 741.5198,752.9896"/>
    <polyline points="741.591,755.782 710.9598,749.5613 664.1558,750.0772 616.4571,754.2028 593.1207,758.1406 495.1664,738.4123 454.7091,751.162 412.4583,749.8671 374.2349,749.3962"/>
    <polyline points="375.5599,751.4896 410.739,752.111 454.6373,755.0483 494.2796,741.2882 592.7325,761.5936 617.2015,758.3678 665.6742,753.1228 709.7877,753.3165 741.6622,758.5745"/>
    <polyline points="741.7334,761.3669 708.6156,757.0717 667.1926,756.1683 617.946,762.5327 592.3444,765.0465 536.9406,753.8267 493.3927,744.1641 454.5655,758.9346 409.0197,754.3548 376.8849,753.583"/>
    <polyline points="378.21,755.6764 407.3004,756.5986 454.4937,762.821 492.5058,747.04 537.5139,757.5258 591.9562,768.4995 618.6904,766.6977 668.711,759.2138 707.4434,760.827 741.8046,764.1594"/>
    <polyline points="741.8757,766.9518 670.2294,762.2593 619.4348,770.8627 591.568,771.9524 538.0872,761.2249 491.619,749.9159 454.4219,766.7073 405.5811,758.8424 379.535,757.7698"/>
    <polyline points="380.86,759.8632 403.8618,761.0863 454.3502,770.5936 490.7321,752.7918 538.6605,764.9239 591.1799,775.4054 620.1792,775.0276 671.7478,765.3048 705.0992,768.3374 741.9469,769.7442"/>
    <polyline points="742.0181,772.5367 703.927,772.0926 673.2662,768.3503 620.9237,779.1926 590.7917,778.8583 539.2338,768.623 489.8452,755.6677 454.2784,774.4799 402.1425,763.3301 382.1851,761.9566"/>
    <polygon points="382.9432,764.045 383.5126,764.6169 384.077,764.05 383.5126,763.4831"/>
    <polyline points="382.3756,766.3666 401.5178,769.27 454.2748,780.8686 490.0516,761.7683 540.3679,775.3556 589.5421,783.665 622.2153,784.2707 673.6791,773.4529 703.8254,777.8943 743.4334,777.5289"/>
    <polygon points="742.0818,775.896 742.6562,775.3291 742.0918,774.7622 741.5224,775.3241"/>
    <polyline points="744.7775,779.7286 704.896,779.9408 672.5735,775.5099 622.7624,785.1837 588.6807,785.0187 540.9287,778.3891 491.1449,764.9931 454.3431,783.3711 381.241,768.6832"/>
    <polyline points="380.1065,770.9998 403.707,776.6622 454.4114,785.8735 492.2381,768.2178 541.4894,781.4226 587.8192,786.3724 623.3095,786.0968 671.468,777.567 705.9665,781.9873 746.1216,781.9283"/>
    <polyline points="747.4657,784.1281 707.037,784.0337 670.3624,779.624 623.8567,787.0099 586.9578,787.7261 542.0502,784.456 493.3314,771.4425 454.4796,788.3759 404.8016,780.3583 378.972,773.3163"/>
    <polyline points="377.8375,775.6329 405.8962,784.0545 454.5479,790.8783 494.4246,774.6672 542.6109,787.4895 586.0963,789.0798 624.4038,787.923 669.2569,781.6811 708.1075,786.0802 748.8098,786.3278"/>
    <polyline points="750.1538,788.5276 709.178,788.1267 668.1513,783.7381 624.951,788.8361 585.2349,790.4335 543.1717,790.523 495.5179,777.8919 454.6161,793.3807 406.9908,787.7506 376.703,777.9495"/>
    <polyline points="375.5684,780.2661 408.0854,791.4467 454.6844,795.8831 496.6111,781.1166 543.7324,793.5565 625.4981,789.7492 667.0458,785.7952 710.2486,790.1731 751.4979,790.7273"/>
    <polyline points="752.842,792.927 711.3191,792.2196 665.9402,787.8522 626.0453,790.6622 583.512,793.141 544.2932,796.5899 497.7044,784.3414 454.7527,798.3855 409.18,795.1428 374.4339,782.5827"/>
    <polyline points="373.2994,784.8992 410.2747,798.8389 454.8209,800.888 498.7976,787.5661 544.854,799.6234 582.6506,794.4947 626.5924,791.5753 664.8346,789.9093 712.3896,794.2661 754.1861,795.1268"/>
    <polyline points="755.5302,797.3265 713.4601,796.3126 663.7291,791.9663 627.1396,792.4884 581.7891,795.8484 545.4147,802.6569 499.8909,790.7908 454.8892,803.3904 411.3693,802.535 372.1649,787.2158"/>
    <polyline points="371.0303,789.5324 412.4639,806.2311 454.9575,805.8928 500.9841,794.0155 545.9755,805.6904 580.9277,797.2021 627.6867,793.4015 662.6235,794.0234 714.5307,798.359 756.8743,799.5263"/>
    <polyline points="758.2184,801.726 715.6012,800.4055 661.518,796.0804 628.2338,794.3146 580.0662,798.5558 546.5362,808.7238 502.0774,797.2402 455.0257,808.3952 413.5585,809.9272 369.8958,791.849"/>
    <polyline points="368.7613,794.1656 414.6531,813.6233 455.094,810.8976 503.1706,800.4649 547.097,811.7573 579.2048,799.9095 628.781,795.2277 660.4124,798.1375 716.6717,802.452 759.5625,803.9257"/>
    <polyline points="760.9066,806.1255 717.7422,804.4984 659.3069,800.1945 629.3281,796.1407 578.3433,801.2632 547.6577,814.7908 504.2639,803.6896 455.1623,813.4 415.7477,817.3195 367.6268,796.4821"/>
    <polygon points="367.0592,798.7987 366.4947,798.2318 365.9253,798.7937 366.4848,799.3656"/>
    <polyline points="365.912,802.0317 416.5987,822.6765 454.5378,818.7908 505.3071,810.3799 547.0373,819.6527 577.1503,805.9945 630.039,801.7487 658.3497,804.7608 717.485,809.5074 762.4161,811.2354"/>
    <polyline points="762.5815,814.1456 716.1572,812.4698 658.4982,807.27 630.2027,806.4436 576.8187,809.3721 545.8561,821.4811 505.257,813.8455 453.8451,821.6791 416.3551,824.3374 365.3317,805.2648"/>
    <polyline points="364.7515,808.4978 416.1114,825.9983 453.1524,824.5675 505.207,817.3111 544.675,823.3095 576.4871,812.7496 630.3664,811.1385 658.6466,809.7792 714.8294,815.4323 762.7468,817.0558"/>
    <polyline points="762.9122,819.9659 713.5016,818.3948 658.795,812.2884 630.5301,815.8334 576.1555,816.1272 543.4938,825.138 505.1569,820.7766 452.4597,827.4559 415.8678,827.6592 364.1712,811.7308"/>
    <polyline points="363.5909,814.9638 415.6242,829.3202 451.767,830.3442 505.1068,824.2422 542.3126,826.9664 575.8239,819.5048 630.6938,820.5283 658.9434,814.7976 712.1738,821.3572 763.0776,822.8761"/>
    <polyline points="763.243,825.7863 710.846,824.3197 659.0919,817.3068 630.8575,825.2232 575.4923,822.8823 541.1314,828.7948 505.0568,827.7078 451.0743,833.2326 415.3805,830.9811 363.0107,818.1969"/>
    <polyline points="362.4304,821.4299 415.1369,832.642 450.3815,836.1209 505.0067,831.1734 539.9502,830.6232 575.1607,826.2599 631.0212,829.9181 659.2403,819.816 709.5181,827.2821 763.4084,828.6965"/>
    <polyline points="763.5737,831.6067 708.1903,830.2446 659.3887,822.3252 631.1849,834.613 574.8291,829.6375 538.7691,832.4517 504.9567,834.6389 449.6888,839.0093 414.8933,834.3029 361.8501,824.6629"/>
    <polyline points="361.2699,827.8959 414.6496,835.9638 448.9961,841.8976 504.9066,838.1045 537.5879,834.2801 574.4975,833.015 631.3486,839.3079 659.5372,824.8344 706.8625,833.2071 763.7391,834.5169"/>
    <polyline points="763.9045,837.427 705.5347,836.1695 659.6856,827.3436 631.5123,844.0028 574.1659,836.3926 536.4067,836.1085 504.8566,841.5701 448.3034,844.786 414.406,837.6248 360.6896,831.129"/>
    <polyline points="360.1093,834.362 414.1624,839.2857 447.6107,847.6743 504.8065,845.0357 535.2255,837.9369 573.8343,839.7702 631.676,848.6977 659.834,829.8528 704.2069,839.132 764.0699,840.3372"/>
    <polyline points="764.2352,843.2474 702.8791,842.0945 659.9824,832.362 631.8398,853.3926 573.5027,843.1478 534.0443,839.7654 504.7564,848.5012 446.918,850.5627 413.9187,840.9466 359.5291,837.595"/>
    <polyline points="358.9488,840.8281 413.6751,842.6075 446.2253,853.4511 504.7064,851.9668 532.8631,841.5938 573.1711,846.5253 632.0035,858.0875 660.1309,834.8712 701.5513,845.0569 764.4006,846.1576"/>
    <polyline points="764.566,849.0678 700.2235,848.0194 660.2793,837.3804 632.1672,862.7824 572.8395,849.9029 531.682,843.4222 504.6563,855.4324 445.5326,856.3394 413.4315,844.2685 358.3685,844.0611"/>
    <polygon points="357.2214,847.2891 357.7908,847.861 358.3552,847.2941 357.7908,846.7272"/>
    <polyline points="358.7844,849.4851 413.8806,850.0567 446.2868,860.9874 504.0032,861.5289 531.4349,849.2594 572.5943,856.2028 632.0507,868.3721 660.5311,844.4012 699.7171,854.5968 763.5702,855.0812"/>
    <polygon points="764.1645,851.973 764.7239,852.5448 765.2983,851.978 764.7339,851.411"/>
    <polyline points="762.409,858.1844 700.5385,858.2118 660.6344,848.9129 631.7706,869.2668 572.6807,859.1252 532.3689,853.2681 503.4001,864.1598 447.7337,862.747 414.5735,854.1839 359.7806,851.6762"/>
    <polyline points="360.7768,853.8672 415.2663,858.3112 449.1806,864.5066 502.797,866.7907 533.303,857.2768 572.7672,862.0475 631.4904,870.1616 660.7378,853.4245 701.3599,861.8268 761.2478,861.2876"/>
    <polyline points="760.0866,864.3908 702.1813,865.4417 660.8412,857.9362 631.2103,871.0564 572.8536,864.9699 534.2371,861.2855 502.194,869.4216 450.6275,866.2662 361.7729,856.0583"/>
    <polyline points="362.7691,858.2493 416.6519,866.5657 452.0744,868.0258 501.5909,872.0525 535.1712,865.2942 630.9301,871.9511 660.9445,862.4478 703.0026,869.0567 758.9254,867.494"/>
    <polyline points="757.7642,870.5972 703.824,872.6717 661.0479,866.9595 630.65,872.8459 536.1053,869.303 500.9878,874.6834 453.5213,869.7854 417.3447,870.693 363.7652,860.4404"/>
    <polyline points="364.7614,862.6314 418.0375,874.8203 454.9682,871.5451 500.3847,877.3144 537.0394,873.3117 573.1129,873.7369 630.3698,873.7406 661.1512,871.4711 704.6454,876.2866 756.603,873.7004"/>
    <polyline points="755.4417,876.8036 705.4668,879.9016 661.2546,875.9828 630.0897,874.6354 573.1994,876.6593 537.9734,877.3204 499.7817,879.9453 456.4151,873.3047 418.7304,878.9476 365.7575,864.8224"/>
    <polyline points="366.7537,867.0135 419.4232,883.0748 457.862,875.0643 499.1786,882.5762 538.9075,881.3291 573.2858,879.5816 629.8095,875.5301 661.358,880.4944 706.2882,883.5166 754.2805,879.9068"/>
    <polyline points="753.1193,883.01 707.1096,887.1315 661.4613,885.0061 629.5294,876.4249 573.3723,882.504 539.8416,885.3378 498.5755,885.2071 459.3089,876.8239 420.116,887.2021 367.7499,869.2045"/>
    <polyline points="368.746,871.3956 420.8088,891.3294 460.7558,878.5835 497.9724,887.838 540.7757,889.3465 573.4587,885.4264 629.2492,877.3197 661.5647,889.5177 707.9309,890.7465 751.9581,886.1132"/>
    <polyline points="750.7969,889.2164 708.7523,894.3615 661.668,894.0294 628.9691,878.2144 573.5451,888.3487 541.7098,893.3553 497.3693,890.4689 462.2027,880.3431 421.5016,895.4567 369.7422,873.5866"/>
    <polyline points="370.7383,875.7776 422.1944,899.5839 463.6496,882.1027 496.7663,893.0998 542.6439,897.364 573.6316,891.2711 628.6889,879.1092 661.7714,898.541 709.5737,897.9765 749.6357,892.3196"/>
    <polyline points="748.4745,895.4228 710.3951,901.5914 661.8748,903.0527 628.4088,880.0039 573.718,894.1934 543.578,901.3727 496.1632,895.7307 465.0965,883.8624 422.8873,903.7112 371.7345,877.9687"/>
    <polygon points="372.7332,879.5928 372.1637,880.1547 372.7232,880.7266 373.2976,880.1597"/>
    <polyline points="373.4247,883.2518 423.1988,910.3266 466.2449,888.2109 496.0641,901.4536 544.0078,907.7233 627.4664,883.9475 661.5938,910.1462 710.4473,907.575 748.0035,901.6433"/>
    <polygon points="747.8802,898.526 747.3158,897.9591 746.7464,898.521 747.3158,899.0929"/>
    <polyline points="748.6937,904.7606 709.6782,909.9437 661.2095,912.728 626.8043,886.9963 574.2806,900.8717 543.5035,910.0652 496.568,904.5455 465.9464,890.7998 422.8175,912.8147 374.1188,886.3438"/>
    <polyline points="374.8129,889.4359 422.4363,915.3027 465.6479,893.3887 497.072,907.6375 542.9992,912.4072 574.5187,902.7496 626.1421,890.0451 660.8253,915.3099 708.909,912.3123 749.3839,907.8779"/>
    <polyline points="750.0741,910.9952 708.1399,914.681 660.441,917.8917 625.4799,893.0939 574.7567,904.6275 542.495,914.7491 497.5759,910.7294 465.3494,895.9776 422.055,917.7908 375.507,892.528"/>
    <polyline points="376.201,895.62 421.6738,920.2789 465.0509,898.5665 498.0799,913.8214 541.9907,917.091 574.9948,906.5055 624.8177,896.1428 660.0567,920.4736 750.7644,914.1126"/>
    <polyline points="751.4546,917.2299 706.6016,919.4183 659.6724,923.0554 624.1555,899.1916 575.2328,908.3834 541.4865,919.4329 498.5838,916.9133 464.7524,901.1554 421.2925,922.767 376.8951,898.7121"/>
    <polyline points="377.5892,901.8041 420.9112,925.255 464.4539,903.7443 499.0878,920.0053 540.9822,921.7748 575.4709,910.2613 623.4934,902.2404 659.2881,925.6373 705.8324,921.7869 752.1448,920.3472"/>
    <polyline points="752.835,923.4645 705.0633,924.1556 658.9038,928.2191 622.8312,905.2892 575.709,912.1393 540.4779,924.1167 499.5918,923.0972 464.1554,906.3332 420.53,927.7431 378.2833,904.8962"/>
    <polyline points="378.9773,907.9882 420.1487,930.2312 463.8569,908.9221 500.0957,926.1891 539.9737,926.4586 575.947,914.0172 622.169,908.338 658.5195,930.801 704.2941,926.5242 753.5252,926.5818"/>
    <polyline points="754.2154,929.6991 703.525,928.8929 658.1352,933.3828 621.5068,911.3868 576.1851,915.8952 539.4694,928.8006 500.5997,929.2811 463.5584,911.511 419.7674,932.7193 379.6714,911.0803"/>
    <polyline points="380.3655,914.1724 419.3862,935.2074 463.2599,914.0999 501.1036,932.373 538.9652,931.1425 576.4232,917.7731 620.8446,914.4357 657.751,935.9647 702.7558,931.2615 754.9056,932.8164"/>
    <polyline points="755.5958,935.9337 701.9867,933.6301 657.3667,938.5465 620.1824,917.4845 576.6612,919.651 538.4609,933.4844 501.6076,935.465 462.9614,916.6888 419.0049,937.6954 381.0595,917.2644"/>
    <polyline points="381.7536,920.3565 418.6236,940.1835 462.6629,919.2777 502.1115,938.5569 537.9566,935.8263 576.8993,921.529 619.5203,920.5333 656.9824,941.1284 701.2175,935.9988 756.286,939.051"/>
    <polyline points="756.9762,942.1683 700.4484,938.3674 656.5981,943.7102 618.8581,923.5821 577.1374,923.4069 537.4524,938.1682 502.6155,941.6488 462.3645,921.8665 418.2424,942.6716 382.4477,923.4485"/>
    <polygon points="383.7087,926.5406 383.1443,925.9737 382.5749,926.5356 383.1343,927.1075"/>
    <polyline points="382.1892,930.9567 417.6959,948.1763 460.9373,928.2385 502.7997,946.1307 536.8962,942.2382 578.1489,929.1312 617.6073,930.2174 657.5989,948.6912 699.412,942.5848 756.5702,947.039"/>
    <polygon points="757.6689,945.8525 758.2334,945.2856 757.6689,944.7187 757.0995,945.2806"/>
    <polyline points="755.4741,948.7923 699.1448,944.4335 658.984,951.0903 617.0186,933.8039 578.9224,932.9776 536.8442,943.9662 502.4801,947.5207 459.8086,932.0216 417.5307,951.1928 381.2366,935.3728"/>
    <polyline points="380.284,939.7888 417.3655,954.2094 458.6799,935.8047 502.1604,948.9106 536.7923,945.6942 579.6958,936.8239 616.43,937.3903 660.3691,953.4893 698.8776,946.2822 754.3779,950.5456"/>
    <polyline points="753.2817,952.299 698.6103,948.1308 661.7541,955.8884 615.8414,940.9768 580.4693,940.6703 536.7404,947.4222 501.8407,950.3006 457.5512,939.5878 417.2003,957.226 379.3314,944.2049"/>
    <polyline points="378.3788,948.621 417.0352,960.2426 456.4225,943.3709 501.521,951.6905 536.6885,949.1503 581.2427,944.5167 615.2528,944.5633 663.1392,958.2875 698.3431,949.9795 752.1855,954.0523"/>
    <polyline points="751.0893,955.8057 698.0759,951.8282 664.5243,960.6866 614.6641,948.1498 582.0162,948.363 501.2013,953.0805 455.2938,947.154 416.87,963.2591 377.4262,953.0371"/>
    <polyline points="376.4736,957.4532 416.7048,966.2757 454.1651,950.9371 500.8816,954.4704 536.5846,952.6063 614.0755,951.7362 665.9094,963.0857 697.8087,953.6769 749.9931,957.559"/>
    <polyline points="748.897,959.3123 697.5414,955.5256 667.2945,965.4848 613.4869,955.3227 583.5631,956.0557 536.5327,954.3343 500.5619,955.8603 453.0364,954.7202 416.5396,969.2923 375.5211,961.8693"/>
    <polyline points="374.5685,966.2853 416.3744,972.3089 451.9077,958.5033 536.4807,956.0624 584.3366,959.9021 612.8982,958.9092 668.6796,967.8838 697.2742,957.3743 747.8008,961.0657"/>
    <polyline points="746.7046,962.819 697.007,959.223 670.0647,970.2829 612.3096,962.4957 585.1101,963.7485 536.4288,957.7904 499.9225,958.6402 450.779,962.2864 416.2092,975.3254 373.6159,970.7014"/>
    <polyline points="372.6633,975.1175 416.044,978.342 449.6503,966.0695 499.6028,960.0302 536.3769,959.5184 585.8835,967.5948 611.721,966.0821 671.4497,972.682 696.7398,961.0717 745.6084,964.5723"/>
    <polyline points="744.5122,966.3257 696.4725,962.9204 672.8348,975.0811 611.1324,969.6686 586.657,971.4412 536.325,961.2464 499.2831,961.4201 448.5216,969.8526 415.8788,981.3586 371.7107,979.5336"/>
    <polyline points="370.7581,983.9497 415.7136,984.3752 447.3929,973.6357 498.9634,962.8101 536.273,962.9745 587.4304,975.2875 610.5437,973.2551 674.2199,977.4802 696.2053,964.7691 743.416,968.079"/>
    <polyline points="742.3199,969.8324 695.9381,966.6178 675.605,979.8792 609.9551,976.8416 588.2039,979.1339 536.2211,964.7025 498.6437,964.2 446.2642,977.4188 415.5484,987.3917 369.8055,988.3658"/>
    <polygon points="368.286,992.7769 368.8554,993.3488 369.4199,992.7819 368.8554,992.2149"/>
    <polyline points="371.955,992.6236 385.4564,927.7819 376.1206,882.005 361.4816,847.2031 369.8489,800.2798 384.6376,764.1516 367.8065,732.6002 378.4903,691.5748 380.1273,638.9046 363.7269,609.0608"/>
    <polyline points="368.0801,609.1595 381.9681,639.9758 380.9428,691.2795 371.9784,732.5514 385.7652,764.2532 373.2056,801.761 365.1749,847.1121 379.5106,883.8502 387.771,929.0231 375.057,992.4654"/>
    <polyline points="378.159,992.3071 390.0856,930.2644 382.9005,885.6955 368.8682,847.0212 376.5623,803.2421 386.8927,764.3548 376.1503,732.5025 383.3952,690.9842 383.8088,641.0471 372.4332,609.2581"/>
    <polyline points="376.7863,609.3568 385.6495,642.1184 385.8477,690.6889 380.3221,732.4537 388.0202,764.4564 379.9189,804.7232 372.5615,846.9302 386.2905,887.5407 392.4003,931.5057 381.261,992.1489"/>
    <polyline points="384.363,991.9907 394.7149,932.7469 389.6805,889.386 376.2548,846.8392 383.2756,806.2043 389.1478,764.558 384.494,732.4049 388.3001,690.3936 387.4903,643.1896 381.1395,609.4554"/>
    <polyline points="385.4926,609.554 389.331,644.2609 390.7526,690.0983 388.6659,732.356 390.2753,764.6596 386.6323,807.6855 379.9481,846.7482 393.0704,891.2312 397.0295,933.9882 387.4651,991.8324"/>
    <polyline points="390.5671,991.6742 399.3441,935.2295 396.4604,893.0765 383.6414,846.6572 389.989,809.1666 391.4029,764.7612 392.8377,732.3072 393.205,689.803 389.8457,609.6527"/>
    <polyline points="394.1989,609.7513 393.0124,646.4035 395.6575,689.5077 397.0096,732.2584 392.5304,764.8627 393.3456,810.6477 387.3347,846.5662 399.8503,894.9217 401.6588,936.4708 393.6691,991.516"/>
    <polyline points="396.7711,991.3577 403.9734,937.712 403.2403,896.767 391.028,846.4753 396.7023,812.1288 393.6579,764.9643 401.1815,732.2095 394.8532,647.4747 398.552,609.85"/>
    <polyline points="402.9051,609.9486 396.6939,648.546 400.5624,688.9171 405.3533,732.1607 394.7855,765.0659 400.059,813.6099 394.7213,846.3843 406.6303,898.6122 406.288,938.9533 399.8731,991.1995"/>
    <polyline points="402.9752,991.0413 408.6026,940.1946 410.0202,900.4575 398.4146,846.2933 403.4156,815.0911 395.913,765.1675 409.5252,732.1119 403.0148,688.6218 398.5346,649.6173 407.2583,610.0472"/>
    <polyline points="411.6114,610.1459 400.3754,650.6886 405.4673,688.3265 413.6971,732.0631 397.0405,765.2691 406.7723,816.5722 402.1079,846.2023 413.4102,902.3027 410.9172,941.4359 406.0772,990.883"/>
    <polyline points="409.1792,990.7248 416.8002,904.148 405.8012,846.1113 410.129,818.0533 398.1681,765.3707 417.8689,732.0142 407.9197,688.0312 402.2161,651.7598 415.9645,610.2445"/>
    <polyline points="420.3177,610.3432 404.0568,652.8311 410.3722,687.7359 422.0408,731.9654 399.2956,765.4723 413.4856,819.5344 409.4945,846.0204 420.1901,905.9932 415.5465,943.9184 412.2812,990.5666"/>
    <polygon points="415.9502,990.4083 415.3857,989.8414 414.8163,990.4033 415.3758,990.9752"/>
    <polyline points="417.3667,989.7946 420.8081,943.7794 426.4443,906.3574 415.298,846.8159 419.4015,820.6747 404.0087,766.4267 428.1507,731.1269 416.7112,688.2044 409.1724,652.281 427.1616,609.6121"/>
    <polyline points="429.6524,608.7824 412.4473,650.6595 420.5978,688.9681 430.0888,730.3372 407.5943,767.2795 421.9607,820.3338 417.4081,847.7025 429.3085,904.8763 423.7551,942.3991 419.3502,989.1808"/>
    <polyline points="421.3337,988.567 426.7021,941.0188 432.1727,903.3952 419.5182,848.5891 424.52,819.9929 411.1798,768.1324 432.0268,729.5475 424.4844,689.7318 415.7221,649.0381 432.1432,607.9526"/>
    <polyline points="434.634,607.1229 418.997,647.4167 428.371,690.4955 433.9649,728.7579 414.7654,768.9852 427.0792,819.6521 421.6284,849.4756 435.0369,901.9141 429.6491,939.6385 423.3172,987.9533"/>
    <polyline points="425.3007,987.3395 437.9012,900.433 423.7385,850.3622 429.6384,819.3112 418.351,769.838 435.9029,727.9682 432.2576,691.2593 422.2719,645.7953 437.1249,606.2932"/>
    <polyline points="439.6157,605.4635 425.5467,644.1739 436.1443,692.023 437.841,727.1785 421.9365,770.6908 432.1976,818.9703 425.8486,851.2487 440.7654,898.9519 435.5431,936.878 427.2841,986.7258"/>
    <polyline points="429.2676,986.112 438.49,935.4977 443.6296,897.4708 427.9588,852.1353 434.7568,818.6294 425.5221,771.5437 439.779,726.3888 440.0309,692.7867 428.8216,642.5525 442.1065,604.6338"/>
    <polyline points="444.5973,603.8041 432.0965,640.9311 443.9175,693.5505 441.7171,725.5992 429.1076,772.3965 437.316,818.2886 430.0689,853.0219 446.4938,895.9897 441.437,934.1174 431.2511,985.4982"/>
    <polyline points="433.2346,984.8845 444.384,932.7371 449.358,894.5086 432.1791,853.9084 439.8752,817.9477 432.6932,773.2493 443.6551,724.8095 447.8041,694.3142 435.3713,639.3097 447.0881,602.9743"/>
    <polyline points="449.5789,602.1446 438.6462,637.6883 451.6907,695.0779 445.5932,724.0198 436.2788,774.1021 442.4345,817.6068 434.2892,854.795 452.2223,893.0275 447.331,931.3569 435.2181,984.2707"/>
    <polyline points="437.2016,983.657 450.278,929.9766 455.0865,891.5464 436.3993,855.6815 444.9937,817.2659 439.8643,774.9549 447.5312,723.2302 455.5773,695.8417 441.9211,636.0669 452.0697,601.3149"/>
    <polyline points="454.5606,600.4852 445.1959,634.4455 459.4639,696.6054 449.4693,722.4405 443.4499,775.8078 447.5529,816.9251 438.5095,856.5681 457.9507,890.0653 453.225,928.5963 439.185,983.0432"/>
    <polyline points="441.1685,982.4294 456.172,927.216 460.8149,888.5842 440.6196,857.4546 450.1121,816.5842 447.0354,776.6606 451.4074,721.6508 463.3505,697.3691 448.4708,632.824 457.0514,599.6555"/>
    <polyline points="459.5422,598.8257 451.7456,631.2026 467.2371,698.1328 453.3454,720.8611 450.621,777.5134 452.6713,816.2433 442.7297,858.3412 463.6791,887.1031 459.119,925.8357 443.152,981.8157"/>
    <polygon points="445.138,980.635 444.5686,981.1969 445.128,981.7688 445.7024,981.2019"/>
    <polyline points="448.6814,980.1611 464.8029,925.8078 468.4778,886.4713 448.8243,859.2058 458.5723,815.3032 456.5233,777.0447 458.4153,719.7604 472.6857,697.5215 457.7519,630.6761 465.2106,597.7885"/>
    <polyline points="468.3881,597.581 460.4833,631.7709 474.2477,696.1464 461.5472,719.4493 458.8401,775.7232 461.9141,814.704 452.8087,859.1838 470.4123,887.3206 467.5398,927.1602 452.2273,979.1203"/>
    <polyline points="455.7732,978.0795 470.2767,928.5125 472.3467,888.1699 456.7931,859.1618 465.2558,814.1048 461.1569,774.4017 464.679,719.1382 475.8098,694.7714 463.2146,632.8658 471.5657,597.3735"/>
    <polyline points="474.7433,597.166 465.946,633.9606 477.3718,693.3963 467.8109,718.8271 463.4737,773.0802 468.5976,813.5056 460.7776,859.1398 474.2812,889.0192 473.0136,929.8649 459.3191,977.0387"/>
    <polyline points="462.865,975.9979 475.7505,931.2172 476.2156,889.8685 464.762,859.1178 471.9394,812.9064 465.7905,771.7587 470.9428,718.516 478.9338,692.0212 468.6774,635.0554 477.9208,596.9585"/>
    <polyline points="481.0984,596.751 471.4088,636.1503 480.4958,690.6461 474.0746,718.2049 468.1073,770.4372 475.2812,812.3072 468.7464,859.0958 478.1501,890.7178 478.4874,932.5696 466.4109,974.9571"/>
    <polyline points="469.9568,973.9163 481.2243,933.9219 480.0845,891.5672 472.7309,859.0739 478.6229,811.708 470.4241,769.1157 477.2065,717.8938 482.0579,689.2711 474.1402,637.2451 484.276,596.5435"/>
    <polyline points="487.4535,596.336 476.8715,638.34 483.6199,687.896 480.3383,717.5827 472.7409,767.7942 481.9647,811.1088 476.7153,859.0519 482.019,892.4165 483.9612,935.2743 473.5027,972.8755"/>
    <polyline points="477.0486,971.8347 486.6981,936.6267 483.9534,893.2658 480.6997,859.0299 485.3065,810.5096 475.0576,766.4727 483.4702,717.2716 485.1819,686.5209 479.6029,639.4348 490.6311,596.1285"/>
    <polyline points="493.8087,595.921 482.3343,640.5297 486.744,685.1459 486.6021,716.9605 477.3744,765.1512 488.6483,809.9104 484.6841,859.0079 485.8879,894.1151 489.435,937.979 480.5945,970.7939"/>
    <polyline points="484.1404,969.7531 492.1718,939.3314 487.8223,894.9644 488.6686,858.9859 491.99,809.3112 479.6912,763.8297 489.7339,716.6494 488.306,683.7708 485.0657,641.6245 496.9862,595.7136"/>
    <polyline points="500.1638,595.5061 487.797,642.7193 489.868,682.3957 492.8658,716.3383 482.008,762.5082 495.3318,808.712 492.653,858.9639 489.7568,895.8137 494.9087,940.6837 487.6863,968.7123"/>
    <polyline points="491.2322,967.6716 497.6456,942.0361 491.6912,896.663 496.6374,858.9419 498.6736,808.1128 484.3248,761.1866 495.9977,716.0272 491.43,681.0207 490.5284,643.8142 503.3414,595.2986"/>
    <polyline points="506.519,595.0911 493.2598,644.909 492.9921,679.6456 499.1295,715.7161 486.6416,759.8651 502.0154,807.5136 500.6218,858.9199 493.6257,897.5123 500.3825,943.3884 494.7781,966.6308"/>
    <polygon points="497.7571,965.585 498.3165,966.1568 498.8909,965.59 498.3265,965.023"/>
    <polyline points="500.847,965.646 505.3747,944.4587 498.8236,898.8296 506.3326,857.9881 508.2146,807.6417 492.3483,759.4622 504.1911,715.5004 498.0286,679.4352 499.939,644.9792 511.5041,594.866"/>
    <polyline points="513.3117,594.8484 503.8868,643.9546 501.5031,680.5998 506.1209,715.5958 495.7382,760.3808 511.072,808.369 508.0589,857.0783 502.087,899.2976 507.6299,944.1767 503.37,965.702"/>
    <polyline points="505.893,965.7581 509.8852,943.8947 505.3505,899.7656 509.7852,856.1685 513.9294,809.0963 499.1281,761.2993 508.0506,715.6912 504.9777,681.7644 507.8347,642.9299 515.1192,594.8308"/>
    <polyline points="516.9268,594.8132 511.7825,641.9053 508.4522,682.9291 509.9803,715.7865 502.518,762.2179 516.7868,809.8237 511.5115,855.2587 508.614,900.2336 512.1404,943.6126 508.416,965.8141"/>
    <polyline points="510.9391,965.8701 514.3957,943.3306 511.8774,900.7016 513.2378,854.3489 519.6443,810.551 505.9079,763.1365 511.9101,715.8819 511.9267,684.0937 515.7304,640.8806 518.7344,594.7956"/>
    <polyline points="520.542,594.778 519.6782,639.856 515.4012,685.2584 513.8398,715.9773 509.2979,764.055 522.5017,811.2783 514.9641,853.439 515.1409,901.1696 516.6509,943.0485 513.4621,965.9262"/>
    <polyline points="515.9851,965.9822 518.9062,942.7665 518.4043,901.6375 516.6904,852.5292 525.3591,812.0056 512.6878,764.9736 515.7695,716.0727 523.626,638.8313 522.3495,594.7604"/>
    <polyline points="524.1571,594.7428 527.5739,637.8067 522.3503,687.5877 517.6993,716.1681 516.0777,765.8922 528.2165,812.733 518.4167,851.6194 521.6678,902.1055 521.1614,942.4844 518.5081,966.0382"/>
    <polyline points="521.0311,966.0943 523.4166,942.2024 524.9313,902.5735 520.143,850.7096 531.074,813.4603 519.4676,766.8107 519.629,716.2635 525.8248,688.7523 531.5217,636.782 525.9647,594.7253"/>
    <polyline points="527.7722,594.7077 535.4695,635.7574 529.2993,689.917 521.5588,716.3588 522.8575,767.7293 533.9314,814.1876 521.8693,849.7998 528.1947,903.0415 525.6719,941.9204 523.5541,966.1503"/>
    <polyline points="526.0771,966.2064 527.9271,941.6383 531.4582,903.5095 523.5956,848.8899 536.7888,814.9149 526.2475,768.6479 523.4885,716.4542 532.7739,691.0816 539.4174,634.7328 529.5798,594.6901"/>
    <polyline points="531.3874,594.6725 543.3652,633.7081 536.2484,692.2463 525.4182,716.5496 529.6374,769.5664 539.6462,815.6423 525.3219,847.9801 534.7216,903.9775 530.1824,941.3563 528.6001,966.2624"/>
    <polyline points="531.1231,966.3184 532.4376,941.0742 537.9851,904.4454 527.0482,847.0703 542.5037,816.3696 533.0273,770.485 527.348,716.645 539.7229,693.4109 547.313,632.6835 533.195,594.6549"/>
    <polyline points="535.0025,594.6373 551.2609,631.6588 543.1975,694.5755 529.2777,716.7404 536.4172,771.4036 545.3611,817.0969 528.7745,846.1605 541.2486,904.9134 534.6929,940.7922 533.6462,966.3745"/>
    <polygon points="536.1717,965.8636 535.6023,966.4255 536.1717,966.9974 536.7361,966.4305"/>
    <polyline points="539.6897,967.5338 539.6433,939.4951 546.4649,904.8304 533.3012,845.786 550.1694,816.8104 543.1802,772.9881 535.542,717.7478 548.9287,694.8592 556.5426,631.3508 540.718,594.9847"/>
    <polyline points="544.6258,595.3496 557.8766,632.0675 551.1855,693.9782 539.8766,718.6599 546.5533,773.654 552.1203,815.7966 536.1017,846.3213 548.4177,904.2793 542.3384,938.4801 543.2103,968.6371"/>
    <polyline points="546.7308,969.7405 545.0336,937.4651 550.3705,903.7283 538.9022,846.8566 554.0712,814.7828 544.2112,719.572 553.4423,693.0973 559.2105,632.7841 548.5337,595.7145"/>
    <polyline points="552.4416,596.0795 560.5444,633.5008 555.6991,692.2163 548.5457,720.4841 553.2995,774.9859 556.0221,813.769 541.7027,847.3919 552.3233,903.1772 547.7287,936.4501 550.2514,970.8438"/>
    <polyline points="553.7719,971.9471 550.4239,935.435 554.2762,902.6262 544.5031,847.9273 557.973,812.7551 556.6726,775.6518 552.8803,721.3962 557.9558,691.3353 561.8783,634.2174 556.3495,596.4444"/>
    <polyline points="560.2574,596.8093 563.2123,634.9341 560.2126,690.4544 557.2149,722.3083 560.0457,776.3178 559.9239,811.7413 547.3036,848.4626 556.229,902.0752 553.119,934.42 557.2924,973.0504"/>
    <polyline points="560.813,974.1537 555.8142,933.405 558.1818,901.5241 550.1041,848.9979 561.8748,810.7275 563.4188,776.9837 561.5494,723.2203 562.4694,689.5734 564.5462,635.6508 564.1652,597.1742"/>
    <polyline points="568.0731,597.5392 565.8801,636.3674 564.7261,688.6924 565.884,724.1324 566.7919,777.6497 563.8256,809.7137 552.9046,849.5332 560.1347,900.9731 558.5093,932.39 564.3335,975.257"/>
    <polyline points="567.8541,976.3604 561.2045,931.375 562.0875,900.422 555.705,850.0685 565.7765,808.6999 570.165,778.3156 570.2186,725.0445 566.9829,687.8114 567.214,637.0841 571.981,597.9041"/>
    <polyline points="575.8889,598.269 568.548,637.8007 569.2397,686.9305 574.5532,725.9566 573.5381,778.9816 567.7274,807.686 558.5055,850.6039 564.0403,899.871 563.8997,930.36 571.3746,977.4637"/>
    <polyline points="574.8952,978.567 566.5948,929.3449 565.9931,899.3199 561.306,851.1392 569.6783,806.6722 576.9112,779.6475 578.8877,726.8687 571.4965,686.0495 569.8819,638.5174 579.7967,598.634"/>
    <polyline points="583.7046,598.9989 571.2158,639.234 573.7532,685.1685 583.2223,727.7808 580.2843,780.3134 571.6292,805.6584 564.1064,851.6745 567.946,898.7689 569.29,928.3299 578.4157,979.6703"/>
    <polyline points="581.9363,980.7736 571.9851,927.3149 566.9069,852.2098 573.5801,804.6446 583.6574,780.9794 587.5569,728.6928 576.01,684.2875 572.5497,639.9507 587.6125,599.3638"/>
    <polyline points="591.5204,599.7288 573.8837,640.6673 578.2668,683.4066 591.8914,729.6049 587.0305,781.6453 575.531,803.6307 569.7074,852.7451 571.8516,897.6668 574.6803,926.2999 585.4568,981.8769"/>
    <polygon points="588.9799,983.5472 589.5443,982.9803 588.9799,982.4133 588.4105,982.9753"/>
    <polyline points="590.3366,982.8101 580.0968,925.3746 577.4261,896.0346 576.4961,854.2269 580.9748,802.246 592.4878,782.381 597.1777,729.8747 582.5058,682.7064 577.5713,640.929 597.3705,600.9904"/>
    <polyline points="599.3127,601.8871 579.9249,640.474 584.4881,682.8872 598.1294,729.2325 594.5722,782.4508 584.4677,801.8752 580.4843,855.1734 581.0477,894.9535 582.8182,925.4643 591.6959,982.64"/>
    <polyline points="593.0552,982.4698 585.5395,925.5541 584.6693,893.8724 584.4725,856.1198 587.9606,801.5043 596.6565,782.5205 599.0811,728.5902 586.4704,683.068 582.2786,640.019 601.2549,602.7838"/>
    <polyline points="603.1971,603.6806 584.6323,639.564 588.4527,683.2488 600.0328,727.9479 598.7408,782.5903 591.4535,801.1334 588.4607,857.0663 588.2609,925.6438 594.4145,982.2997"/>
    <polyline points="595.7737,982.1295 590.9823,925.7335 591.9125,891.7101 592.4489,858.0128 594.9464,800.7625 600.8251,782.66 600.9845,727.3057 590.435,683.4296 586.986,639.109 605.1394,604.5773"/>
    <polyline points="607.0816,605.474 589.3396,638.654 592.4173,683.6104 601.9363,726.6634 602.9094,782.7298 598.4393,800.3917 595.5341,890.6289 593.7036,925.8233 597.133,981.9594"/>
    <polyline points="598.4923,981.7892 596.425,925.913 599.1557,889.5478 600.4253,859.9057 601.9321,800.0208 604.9937,782.7996 602.888,726.0212 594.3996,683.7912 591.6933,638.199 609.0238,606.3707"/>
    <polyline points="610.966,607.2674 594.047,637.744 596.3819,683.972 603.8397,725.3789 607.078,782.8693 605.425,799.6499 604.4135,860.8521 602.7773,888.4667 599.1464,926.0028 599.8516,981.6191"/>
    <polyline points="601.2108,981.4489 601.8677,926.0925 606.399,887.3855 608.4017,861.7986 609.1623,782.9391 604.7914,724.7366 598.3642,684.1528 596.4006,637.289 612.9083,608.1641"/>
    <polyline points="614.8505,609.0608 598.7543,636.834 600.3465,684.3336 605.7431,724.0944 611.2466,783.0088 612.4108,798.9082 612.3899,862.745 610.0206,886.3044 604.5891,926.1822 602.5701,981.2788"/>
    <polyline points="603.9294,981.1086 607.3104,926.272 613.6422,885.2232 616.3781,863.6915 615.9037,798.5373 613.3309,783.0786 602.3288,684.5144 601.108,636.379 616.7927,609.9575"/>
    <polyline points="618.7349,610.8543 603.4616,635.924 604.3111,684.6952 607.6465,722.8098 615.4152,783.1483 619.3966,798.1664 620.3663,864.638 610.0318,926.3617 605.2886,980.9385"/>
    <polyline points="606.6479,980.7683 612.7532,926.4514 624.3545,865.5844 622.8895,797.7956 617.4995,783.2181 608.5982,722.1676 606.2933,684.876 605.8153,635.469 620.6772,611.751"/>
    <polyline points="622.6194,612.6477 608.169,635.014 608.2756,685.0568 609.5499,721.5253 619.5838,783.2878 626.3824,797.4247 628.3427,866.5309 624.507,881.9798 615.4745,926.5412 608.0072,980.5982"/>
    <polygon points="609.3665,980.4281 676.9901,982.2783 695.6709,968.4664 741.2237,971.5857 757.6664,945.2856 747.3133,898.526 764.7314,851.978 762.2507,808.3252 742.0893,775.3291 741.0216,733.4425 738.049,670.7295 752.1636,629.6144 742.9063,596.2538 699.5439,610.8261 660.5,613.5367 624.5616,613.5444 595.4282,600.0937 536.8101,594.6197 509.6965,594.8836 462.033,597.996 424.6708,610.4418 359.3738,608.9622 378.2866,637.8333 376.0378,691.8701 363.6347,732.649 383.5101,764.05 366.4923,798.7987 357.7883,847.2941 372.7307,880.1597 383.1418,926.5406 368.8529,992.7819 415.3832,990.4083 445.1355,981.2019 498.324,965.59 536.1692,966.4305 588.9774,982.9803"/>
    <polygon points="609.369,979.8611 608.7996,980.4231 609.369,980.995 609.9334,980.4281"/>
    <polyline points="613.8747,980.5514 620.7304,927.9417 634.204,865.6381 631.7637,797.4003 625.2092,782.5601 613.2688,721.2051 614.8972,685.5879 614.0581,636.0787 626.9575,613.5439"/>
    <polygon points="625.1285,613.5444 624.5641,612.9775 623.9947,613.5394 624.5641,614.1113"/>
    <polyline points="629.3534,613.5434 617.5935,637.5985 619.5364,685.9383 616.0359,721.5271 628.7503,781.7627 633.6521,797.7469 636.0771,863.799 632.6419,884.4541 623.265,929.2524 618.3829,980.6748"/>
    <polyline points="622.8912,980.7981 625.7995,930.5631 634.8985,886.2318 637.9502,861.9598 635.5405,798.0934 632.2914,780.9652 618.803,721.8491 624.1756,686.2887 621.1289,639.1183 631.7493,613.5429"/>
    <polyline points="634.1452,613.5423 624.6643,640.638 628.8149,686.6391 621.5701,722.1711 635.8325,780.1678 637.4289,798.4399 639.8234,860.1206 637.1552,888.0095 628.334,931.8739 627.3994,980.9215"/>
    <polyline points="631.9077,981.0448 630.8685,933.1846 639.4118,889.7872 641.6965,858.2814 639.3173,798.7864 639.3736,779.3703 624.3373,722.4931 633.4541,686.9895 628.1997,642.1578 636.5411,613.5418"/>
    <polyline points="638.937,613.5413 631.7351,643.6776 638.0934,687.3399 627.1044,722.8151 642.9147,778.5729 641.2057,799.1329 643.5696,856.4422 641.6684,891.5649 633.4031,934.4954 636.4159,981.1682"/>
    <polyline points="640.9242,981.2915 635.9376,935.8061 643.9251,893.3426 645.4427,854.603 643.0941,799.4795 646.4558,777.7754 629.8715,723.1371 642.7326,687.6902 635.2705,645.1973 641.3329,613.5408"/>
    <polyline points="643.7288,613.5403 638.8059,646.7171 647.3718,688.0406 632.6386,723.4591 649.9969,776.978 644.9825,799.826 647.3159,852.7639 646.1817,895.1204 638.4721,937.1169 645.4324,981.4149"/>
    <polyline points="649.9406,981.5382 641.0066,938.4276 648.4383,896.8981 649.189,850.9247 646.8709,800.1725 653.538,776.1805 635.4058,723.7811 652.0111,688.391 642.3413,648.2369 646.1247,613.5398"/>
    <polyline points="648.5206,613.5393 645.8767,649.7566 656.6503,688.7414 638.1729,724.1031 657.0791,775.3831 648.7593,800.519 651.0621,849.0855 650.695,898.6758 643.5412,939.7384 654.4489,981.6616"/>
    <polyline points="658.9571,981.7849 646.0757,941.0491 652.9516,900.4535 652.9352,847.2463 650.6477,800.8655 660.6202,774.5856 640.94,724.4251 661.2895,689.0918 649.4121,651.2764 650.9165,613.5387"/>
    <polyline points="653.3123,613.5382 652.9475,652.7962 665.9288,689.4421 643.7071,724.7471 664.1613,773.7882 652.5361,801.212 654.8084,845.4071 655.2082,902.2312 648.6102,942.3599 663.4654,981.9083"/>
    <polyline points="667.9736,982.0316 651.1447,943.6706 657.4649,904.0089 656.6815,843.5679 654.4245,801.5586 667.7024,772.9907 646.4743,725.0691 670.568,689.7925 656.4829,654.3159 655.7082,613.5377"/>
    <polyline points="658.1041,613.5372 660.0183,655.8357 675.2072,690.1429 649.2414,725.3911 671.2435,772.1933 656.3129,801.9051 658.5546,841.7287 659.7215,905.7866 653.6793,944.9814 672.4818,982.155"/>
    <polygon points="677.557,982.2783 676.9926,981.7114 676.4232,982.2733 676.9926,982.8453"/>
    <polyline points="678.2355,981.3575 659.1115,945.9217 665.2607,907.4071 662.9923,840.629 662.2421,802.5378 676.6493,771.6926 656.5637,725.3002 681.2951,690.996 665.527,656.8048 663.103,613.356"/>
    <polyline points="665.7059,613.1753 667.5003,656.2541 682.7438,691.4987 661.119,724.8873 678.514,771.9894 666.2828,802.824 665.5568,841.3685 668.5432,907.2499 662.0092,945.5513 679.4809,980.4367"/>
    <polyline points="680.7262,979.516 664.9069,945.1809 671.8258,907.0927 668.1213,842.108 670.3236,803.1103 680.3787,772.2862 665.6742,724.4744 684.1924,692.0014 669.4736,655.7033 668.3088,612.9946"/>
    <polyline points="670.9117,612.8139 671.4469,655.1526 685.641,692.5041 670.2294,724.0615 682.2434,772.583 674.3644,803.3965 670.6859,842.8475 675.1083,906.9355 667.8046,944.8105 681.9716,978.5952"/>
    <polyline points="683.217,977.6744 670.7023,944.4401 678.3909,906.7783 673.2504,843.587 678.4051,803.6827 684.1081,772.8798 674.7846,723.6486 687.0897,693.0068 673.4203,654.6019 673.5147,612.6332"/>
    <polyline points="676.1176,612.4524 675.3936,654.0512 688.5383,693.5095 679.3399,723.2357 685.9728,773.1766 682.4459,803.9689 675.8149,844.3265 681.6735,906.6211 673.6,944.0697 684.4624,976.7536"/>
    <polyline points="685.7078,975.8328 676.4977,943.6993 684.956,906.464 678.3795,845.066 686.4866,804.2551 687.8374,773.4734 683.8951,722.8228 689.987,694.0122 677.3669,653.5005 678.7205,612.2717"/>
    <polyline points="681.3234,612.091 679.3402,652.9498 691.4356,694.5149 688.4503,722.4099 690.5274,804.5414 680.944,845.8054 688.2386,906.3068 679.3954,943.3289 686.9532,974.912"/>
    <polyline points="688.1986,973.9912 682.2931,942.9585 691.5211,906.1496 683.5085,846.5449 694.5682,804.8276 691.5668,774.067 693.0055,721.997 692.8842,695.0176 681.3135,652.3991 683.9264,611.9103"/>
    <polyline points="686.5293,611.7296 683.2868,651.8484 694.3329,695.5204 697.5608,721.5841 693.4315,774.3638 698.6089,805.1138 686.0731,847.2844 694.8037,905.9924 685.1908,942.5881 689.4439,973.0704"/>
    <polyline points="690.6893,972.1496 688.0885,942.2177 698.0862,905.8352 688.6376,848.0239 702.6497,805.4 695.2962,774.6606 702.116,721.1712 695.7815,696.0231 685.2601,651.2977 689.1322,611.5489"/>
    <polyline points="691.7351,611.3682 687.2334,650.7469 697.2301,696.5258 706.6712,720.7583 697.1609,774.9574 706.6905,805.6862 691.2021,848.7634 701.3688,905.678 690.9862,941.8473 691.9347,971.2288"/>
    <polyline points="693.1801,970.308 693.8839,941.4769 704.6513,905.5208 693.7667,849.5029 710.7312,805.9725 699.0255,775.2542 711.2264,720.3454 698.6788,697.0285 689.2067,650.1962 694.3381,611.1875"/>
    <polyline points="696.941,611.0068 691.18,649.6455 700.1274,697.5312 715.7817,719.9325 700.8902,775.551 714.772,806.2587 696.3312,850.2424 707.9339,905.3636 696.7816,941.1065 694.4255,969.3872"/>
    <polygon points="696.2378,968.4664 695.6734,967.8995 695.104,968.4615 695.6734,969.0334"/>
    <polyline points="698.7077,968.6744 703.5451,941.0394 713.6229,904.761 703.2848,851.0482 721.7086,806.6636 705.3772,775.8133 721.7159,720.4478 704.0076,696.2136 697.0874,647.7961 702.4347,609.8546"/>
    <polyline points="705.3256,608.8831 701.0214,646.4974 706.4391,694.3933 723.0948,721.3759 707.9995,775.7787 724.6045,806.7823 707.6738,851.1147 716.0294,904.3157 707.4109,941.3427 701.7446,968.8823"/>
    <polyline points="704.7814,969.0903 711.2767,941.646 718.4358,903.8703 712.0629,851.1811 727.5003,806.901 710.6218,775.7441 724.4738,722.3041 708.8706,692.573 704.9554,645.1987 708.2164,607.9116"/>
    <polyline points="711.1072,606.9401 708.8894,643.9 711.3022,690.7527 725.8528,723.2323 713.2441,775.7095 730.3962,807.0197 716.4519,851.2475 720.8423,903.425 715.1425,941.9493 707.8183,969.2982"/>
    <polyline points="710.8551,969.5062 719.0083,942.2526 723.2487,902.9796 720.841,851.3139 733.2921,807.1383 715.8664,775.6749 727.2318,724.1605 713.7337,688.9324 712.8234,642.6013 713.998,605.9687"/>
    <polyline points="716.8889,604.9972 716.1652,687.1121 728.6108,725.0887 718.4887,775.6404 736.1879,807.257 725.23,851.3803 725.6552,902.5342 722.8741,942.5559 713.892,969.7141"/>
    <polyline points="716.9288,969.9221 726.7399,942.8592 729.619,851.4467 739.0838,807.3757 721.111,775.6058 729.9897,726.0169 718.5967,685.2919 720.6915,640.004 719.7797,604.0257"/>
    <polyline points="722.6705,603.0542 724.6255,638.7053 721.0283,683.4716 731.3687,726.9451 723.7332,775.5712 741.9797,807.4944 734.0081,851.5131 730.4681,901.6435 730.6057,943.1625 719.9657,970.13"/>
    <polyline points="723.0025,970.338 734.4716,943.4658 732.8746,901.1982 738.3971,851.5795 744.8755,807.6131 726.3555,775.5366 732.7477,727.8733 723.4598,681.6513 728.5595,637.4066 725.5613,602.0827"/>
    <polyline points="728.4522,601.1112 732.4935,636.1079 725.8913,679.831 734.1267,728.8015 728.9778,775.502 747.7714,807.7318 742.7862,851.6459 735.281,900.7528 738.3374,943.7691 726.0394,970.5459"/>
    <polyline points="729.0763,970.7539 742.2032,944.0724 737.6875,900.3075 747.1752,851.7123 750.6672,807.8505 731.6001,775.4674 735.5057,729.7297 728.3229,678.0107 736.4276,634.8092 731.343,600.1397"/>
    <polyline points="734.2338,599.1682 740.3616,633.5105 730.7544,676.1904 736.8846,730.6579 734.2224,775.4329 753.5631,807.9691 751.5643,851.7787 740.0939,899.8621 746.069,944.3757 732.1131,970.9618"/>
    <polyline points="735.15,971.1698 749.9348,944.679 742.5004,899.4167 755.9533,851.8451 756.459,808.0878 736.8447,775.3983 738.2636,731.5861 733.1859,674.3701 744.2956,632.2118 737.1247,598.1967"/>
    <polyline points="740.0155,597.2253 748.2296,630.9131 735.6174,672.5498 739.6426,732.5143 739.467,775.3637 759.3548,808.2065 760.3423,851.9116 744.9069,898.9714 753.8006,944.9823 738.1868,971.3777"/>
    <polygon points="741.2262,971.0188 740.6568,971.5807 741.2262,972.1526 741.7906,971.5857"/>
    <polygon points="699.1123,940.7311 699.6718,941.303 700.2462,940.7361 699.6817,940.1692"/>
    <polygon points="711.209,905.7733 711.7834,905.2064 711.2189,904.6395 710.6495,905.2014"/>
    <polygon points="711.2165,905.2064 699.6793,940.7361 695.6709,968.4664 699.6793,940.7361 711.2165,905.2064 698.8957,850.9818 718.8128,806.5449 702.7549,775.8478 720.3369,719.5196 701.5761,698.0339 693.1534,649.0948 699.5439,610.8261 693.1534,649.0948 701.5761,698.0339 720.3369,719.5196 702.7549,775.8478 718.8128,806.5449 698.8957,850.9818"/>
    <polygon points="711.2165,905.2064 661.9781,907.5643 628.1286,880.8987 573.8045,897.1158 544.512,905.3814 495.5601,898.3617 466.5433,885.622 423.5801,907.8385 372.7307,880.1597 423.5801,907.8385 466.5433,885.622 495.5601,898.3617 544.512,905.3814 573.8045,897.1158 628.1286,880.8987 661.9781,907.5643 711.2165,905.2064 747.3133,898.526"/>
    <polygon points="662.5451,907.5643 661.9806,906.9974 661.4112,907.5593 661.9706,908.1312"/>
    <polygon points="661.9781,907.5643 660.4277,839.8896 658.2013,802.2516 674.7847,771.3958 652.0085,725.7131 679.8465,690.4933 663.5537,657.3555 660.5,613.5367 663.5537,657.3555 679.8465,690.4933 652.0085,725.7131 674.7847,771.3958 658.2013,802.2516 660.4277,839.8896 661.9781,907.5643 656.2138,946.2921 676.9901,982.2783 656.2138,946.2921"/>
    <polygon points="655.6469,946.2871 656.2163,946.859 656.7807,946.2921 656.2163,945.7252"/>
    <polygon points="618.1984,926.064 617.629,926.6259 618.1884,927.1978 618.7628,926.6309"/>
    <polygon points="577.3779,924.7179 576.8085,925.2799 577.3679,925.8517 577.9424,925.2849"/>
    <polygon points="574.3714,897.1158 573.807,896.5488 573.2376,897.1108 573.797,897.6827"/>
    <polygon points="545.079,905.3814 544.5145,904.8145 543.9451,905.3764 544.5145,905.9483"/>
    <polygon points="544.512,905.3814 530.5008,845.2506 548.2185,817.8243 539.8071,772.3221 531.2075,716.8358 546.672,695.7402 555.2087,630.6342 536.8101,594.6197 555.2087,630.6342 546.672,695.7402 531.2075,716.8358 539.8071,772.3221 548.2185,817.8243 530.5008,845.2506 544.512,905.3814 536.9481,940.5101 536.1692,966.4305 536.9481,940.5101"/>
    <polygon points="536.9506,939.9432 536.3812,940.5052 536.9406,941.077 537.515,940.5101"/>
    <polygon points="503.6864,944.7408 503.1219,944.1739 502.5525,944.7358 503.1219,945.3077"/>
    <polygon points="462.6329,924.4554 462.0685,923.8885 461.4991,924.4505 462.0585,925.0223"/>
    <polygon points="462.066,924.4554 417.8611,945.1597 383.1418,926.5406 417.8611,945.1597 462.066,924.4554 503.1194,944.7408 536.9481,940.5101 577.3754,925.2849 618.1959,926.6309 656.2138,946.2921 699.6793,940.7361 757.6664,945.2856 699.6793,940.7361 656.2138,946.2921 618.1959,926.6309 577.3754,925.2849 536.9481,940.5101 503.1194,944.7408"/>
    <polygon points="467.1103,885.622 466.5458,885.055 465.9764,885.617 466.5359,886.1889"/>
    <polygon points="495.5626,898.9286 496.127,898.3617 495.5626,897.7947 494.9932,898.3567"/>
    <polygon points="504.6088,858.331 504.0394,858.893 504.5988,859.4648 505.1732,858.898"/>
    <polygon points="530.5033,845.8176 531.0677,845.2506 530.5033,844.6837 529.9339,845.2457"/>
    <polygon points="548.221,817.2573 547.6516,817.8193 548.211,818.3911 548.7854,817.8243"/>
    <polygon points="576.915,802.6119 577.4744,803.1838 578.0488,802.6169 577.4844,802.05"/>
    <polygon points="590.3961,782.8782 590.9705,782.3113 590.406,781.7444 589.8366,782.3063"/>
    <polygon points="590.4035,782.3113 577.4819,802.6169 572.5079,853.2805 573.8045,897.1158 577.3754,925.2849 588.9774,982.9803 577.3754,925.2849 573.8045,897.1158 572.5079,853.2805 577.4819,802.6169 590.4035,782.3113 596.226,730.517 580.5235,682.5256 575.2176,641.384 595.4282,600.0937 575.2176,641.384 580.5235,682.5256 596.226,730.517"/>
    <polygon points="621.6706,783.9245 622.235,783.3576 621.6706,782.7907 621.1012,783.3526"/>
    <polygon points="629.3084,797.0488 629.8678,797.6207 630.4422,797.0538 629.8778,796.4869"/>
    <polygon points="629.8753,797.0538 621.6681,783.3576 610.5016,720.883 610.2579,685.2376 610.5227,634.559 624.5616,613.5444 610.5227,634.559 610.2579,685.2376 610.5016,720.883 621.6681,783.3576 629.8753,797.0538 632.3309,867.4773 628.1286,880.8987 618.1959,926.6309 609.3665,980.4281 618.1959,926.6309 628.1286,880.8987 632.3309,867.4773"/>
    <polygon points="658.2038,801.6847 657.6344,802.2466 658.1938,802.8185 658.7682,802.2516"/>
    <polygon points="675.3516,771.3958 674.7871,770.8289 674.2177,771.3908 674.7772,771.9627"/>
    <polygon points="702.7574,775.2809 702.188,775.8429 702.7574,776.4148 703.3218,775.8478"/>
    <polygon points="718.8153,805.978 718.2459,806.5399 718.8053,807.1118 719.3797,806.5449"/>
    <polygon points="762.2532,807.7583 761.6838,808.3202 762.2532,808.8921 762.8176,808.3252"/>
    <polygon points="699.4627,850.9818 698.8982,850.4149 698.3288,850.9769 698.8982,851.5488"/>
    <polygon points="659.8608,839.8846 660.4202,840.4564 660.9947,839.8896 660.4302,839.3226"/>
    <polygon points="632.8978,867.4773 632.3334,866.9104 631.764,867.4723 632.3234,868.0442"/>
    <polygon points="628.6955,880.8987 628.1311,880.3318 627.5617,880.8937 628.1311,881.4656"/>
    <polygon points="572.5079,853.2805 530.5008,845.2506 504.6063,858.898 444.8399,859.2278 413.1878,845.9294 357.7883,847.2941 413.1878,845.9294 444.8399,859.2278 504.6063,858.898 530.5008,845.2506 572.5079,853.2805 632.3309,867.4773 660.4277,839.8896 698.8957,850.9818 764.7314,851.978 698.8957,850.9818 660.4277,839.8896 632.3309,867.4773"/>
    <polygon points="571.9409,853.2755 572.5004,853.8473 573.0748,853.2805 572.5103,852.7135"/>
    <polygon points="504.7902,806.9094 505.3496,807.4812 505.9241,806.9144 505.3596,806.3474"/>
    <polygon points="539.8071,772.3221 590.4035,782.3113 621.6681,783.3576 674.7847,771.3958 702.7549,775.8478 742.0893,775.3291 702.7549,775.8478 674.7847,771.3958 621.6681,783.3576 590.4035,782.3113 539.8071,772.3221 488.9584,758.5436 454.2066,778.3662 400.4232,765.5739 383.5101,764.05 400.4232,765.5739 454.2066,778.3662 488.9584,758.5436"/>
    <polygon points="540.3741,772.3221 539.8096,771.7552 539.2402,772.3171 539.8096,772.8891"/>
    <polygon points="488.9584,758.5436 505.3571,806.9144 504.6063,858.898 495.5601,898.3617 503.1194,944.7408 498.324,965.59 503.1194,944.7408 495.5601,898.3617 504.6063,858.898 505.3571,806.9144 488.9584,758.5436 502.2614,715.405 494.5541,678.2705 495.9912,646.0039 509.6965,594.8836 495.9912,646.0039 494.5541,678.2705 502.2614,715.405"/>
    <polygon points="488.9608,757.9767 488.3914,758.5386 488.9608,759.1106 489.5253,758.5436"/>
    <polygon points="454.7735,778.3662 454.2091,777.7993 453.6397,778.3612 454.2091,778.9331"/>
    <polygon points="455.2305,815.9024 416.8423,821.0156 366.4923,798.7987 416.8423,821.0156 455.2305,815.9024 505.3571,806.9144 548.2185,817.8243 577.4819,802.6169 629.8753,797.0538 658.2013,802.2516 718.8128,806.5449 762.2507,808.3252 718.8128,806.5449 658.2013,802.2516 629.8753,797.0538 577.4819,802.6169 548.2185,817.8243 505.3571,806.9144"/>
    <polygon points="455.7974,815.9024 455.233,815.3355 454.6636,815.8974 455.233,816.4694"/>
    <polygon points="416.8448,820.4486 416.2754,821.0106 416.8448,821.5825 417.4092,821.0156"/>
    <polygon points="413.7548,845.9294 413.1903,845.3625 412.6209,845.9244 413.1803,846.4963"/>
    <polygon points="444.8424,859.7947 445.4068,859.2278 444.8424,858.6608 444.273,859.2228"/>
    <polygon points="423.5826,908.4054 424.147,907.8385 423.5826,907.2716 423.0132,907.8335"/>
    <polygon points="417.8636,944.5928 417.2942,945.1547 417.8536,945.7266 418.428,945.1597"/>
    <polygon points="400.4257,765.007 399.8563,765.5689 400.4157,766.1408 400.9901,765.5739"/>
    <polygon points="425.6457,731.9116 426.2152,732.4835 426.7796,731.9166 426.2152,731.3496"/>
    <polygon points="455.286,719.5045 454.7166,720.0665 455.276,720.6383 455.8504,720.0715"/>
    <polygon points="470.5568,698.8916 471.1262,699.4635 471.6906,698.8966 471.1262,698.3296"/>
    <polygon points="471.1237,698.8966 455.0205,629.5812 462.033,597.996 455.0205,629.5812 471.1237,698.8966 455.2835,720.0715 454.2066,778.3662 455.2305,815.9024 444.8399,859.2278 466.5433,885.622 462.066,924.4554 445.1355,981.2019 462.066,924.4554 466.5433,885.622 444.8399,859.2278 455.2305,815.9024 454.2066,778.3662 455.2835,720.0715"/>
    <polygon points="494.5566,678.8374 495.121,678.2705 494.5566,677.7036 493.9872,678.2655"/>
    <polygon points="496.5581,646.0039 495.9937,645.437 495.4243,645.9989 495.9937,646.5708"/>
    <polygon points="455.023,629.0143 454.4536,629.5762 455.013,630.1481 455.5874,629.5812"/>
    <polygon points="462.0255,598.5629 462.5999,597.996 462.0355,597.4291 461.4661,597.991"/>
    <polygon points="424.6633,611.0087 425.2377,610.4418 424.6733,609.8749 424.1039,610.4368"/>
    <polygon points="405.3306,653.8974 405.8901,654.4692 406.4645,653.9024 405.9,653.3354"/>
    <polygon points="412.2577,687.4356 412.8172,688.0075 413.3916,687.4406 412.8271,686.8737"/>
    <polygon points="412.8246,687.4406 426.2127,731.9166 400.4232,765.5739 416.8423,821.0156 413.1878,845.9294 423.5801,907.8385 417.8611,945.1597 415.3832,990.4083 417.8611,945.1597 423.5801,907.8385 413.1878,845.9294 416.8423,821.0156 400.4232,765.5739 426.2127,731.9166 412.8246,687.4406 405.8975,653.9024 424.6708,610.4418 405.8975,653.9024"/>
    <polygon points="412.8246,687.4406 376.0378,691.8701 412.8246,687.4406 471.1237,698.8966 494.5541,678.2705 546.672,695.7402 580.5235,682.5256 610.2579,685.2376 679.8465,690.4933 701.5761,698.0339 738.049,670.7295 701.5761,698.0339 679.8465,690.4933 610.2579,685.2376 580.5235,682.5256 546.672,695.7402 494.5541,678.2705 471.1237,698.8966"/>
    <polygon points="502.2539,715.9719 502.8283,715.405 502.2639,714.8381 501.6945,715.4"/>
    <polygon points="530.6406,716.8308 531.21,717.4027 531.7744,716.8358 531.21,716.2688"/>
    <polygon points="547.2389,695.7402 546.6745,695.1733 546.1051,695.7352 546.6645,696.3071"/>
    <polygon points="580.526,681.9587 579.9566,682.5206 580.5161,683.0925 581.0905,682.5256"/>
    <polygon points="610.2505,685.8044 610.8249,685.2376 610.2604,684.6706 609.691,685.2326"/>
    <polygon points="609.9347,720.8781 610.5041,721.45 611.0686,720.883 610.5041,720.3161"/>
    <polygon points="596.7929,730.517 596.2285,729.9501 595.6591,730.512 596.2185,731.0839"/>
    <polygon points="652.5754,725.7131 652.011,725.1462 651.4416,725.7081 652.001,726.28"/>
    <polygon points="679.2796,690.4883 679.839,691.0602 680.4134,690.4933 679.849,689.9264"/>
    <polygon points="701.0092,698.0289 701.5686,698.6008 702.143,698.0339 701.5786,697.467"/>
    <polygon points="720.3394,720.0865 720.9038,719.5196 720.3394,718.9526 719.77,719.5146"/>
    <polygon points="738.0515,670.1626 737.4821,670.7246 738.0515,671.2965 738.6159,670.7295"/>
    <polygon points="752.1661,629.0475 751.5967,629.6094 752.1661,630.1813 752.7306,629.6144"/>
    <polygon points="742.3394,596.2488 742.8988,596.8206 743.4732,596.2538 742.9088,595.6868"/>
    <polygon points="699.5464,611.393 700.1108,610.8261 699.5464,610.2592 698.977,610.8211"/>
    <polygon points="693.1558,649.6617 693.7203,649.0948 693.1558,648.5279 692.5864,649.0898"/>
    <polygon points="663.5562,657.9224 664.1206,657.3555 663.5562,656.7886 662.9868,657.3505"/>
    <polygon points="659.9331,613.5317 660.5025,614.1036 661.067,613.5367 660.5025,612.9698"/>
    <polygon points="610.5152,635.1258 611.0896,634.559 610.5251,633.992 609.9557,634.554"/>
    <polygon points="575.7845,641.384 575.2201,640.8171 574.6507,641.379 575.2101,641.9509"/>
    <polygon points="555.2087,630.6342 495.9912,646.0039 455.0205,629.5812 405.8975,653.9024 378.2866,637.8333 405.8975,653.9024 455.0205,629.5812 495.9912,646.0039 555.2087,630.6342 575.2176,641.384 610.5227,634.559 663.5537,657.3555 693.1534,649.0948 752.1636,629.6144 693.1534,649.0948 663.5537,657.3555 610.5227,634.559 575.2176,641.384"/>
    <polygon points="554.6418,630.6292 555.2112,631.2011 555.7756,630.6342 555.2112,630.0672"/>
    <polygon points="536.2432,594.6147 536.8126,595.1866 537.377,594.6197 536.8126,594.0528"/>
    <polygon points="509.1296,594.8786 509.699,595.4505 510.2635,594.8836 509.699,594.3166"/>
    <polygon points="594.8613,600.0887 595.4208,600.6606 595.9952,600.0937 595.4307,599.5268"/>
  </g>
</svg>
