<?xml version="1.0" encoding="utf-8" ?>
<svg xmlns="http://www.w3.org/2000/svg" xmlns:cc="http://creativecommons.org/ns" xmlns:dc="http://purl.org/dc/elements/1.1/" xmlns:ev="http://www.w3.org/2001/xml-events" xmlns:inkscape="http://www.inkscape.org/namespaces/inkscape" xmlns:rdf="http://www.w3.org/1999/02/22-rdf-syntax-ns" xmlns:sodipodi="http://sodipodi.sourceforge.net/DTD/sodipodi-0.dtd" xmlns:xlink="http://www.w3.org/1999/xlink" baseProfile="tiny" height="14.80000799cm" version="1.2" viewBox="0 0 396.850608 559.3703808000001" width="10.50000567cm">
  <metadata>
    <rdf:RDF>
      <cc:Work>
        <dc:format>image/svg+xml</dc:format>
        <dc:source>vpype read '.\random_lines_liked_5.svg' linemerge linesimplify linesort write random_lines_opt_2.svg
</dc:source>
        <dc:date>2024-03-22T17:41:06.468836</dc:date>
      </cc:Work>
    </rdf:RDF>
  </metadata>
  <defs/>
  <g fill="none" id="layer1" inkscape:groupmode="layer" inkscape:label="1" stroke="#0000ff" stroke-width="1.0" style="display:inline">
    <polygon points="74.7515,133.8715 53.2715,134.5092 43.6598,156.7883 45.7167,193.6953 51.8967,224.9866 44.9303,264.9336 54.7158,296.7449 40.5137,336.0354 48.1452,358.1724 54.7529,408.3743 52.4958,440.1418 86.4233,434.8351 117.3369,432.0977 155.8496,438.7879 182.4019,430.7144 216.5015,433.4333 243.641,423.7724 279.3236,423.6477 311.0347,441.1564 351.5015,420.7441 352.4003,395.5717 345.8824,361.6139 356.3369,331.7799 350.9392,293.8867 344.0681,257.1334 336.5194,222.4694 345.8826,199.2716 352.713,159.7159 350.8564,131.4052 313.5841,126.6165 280.7142,118.214 248.7583,126.1925 216.3915,136.4849 188.8737,138.2539 153.3797,129.5731 101.34,128.5139 74.7515,133.8715 88.1013,166.4276 78.4251,186.7962 77.564,231.9616 88.4227,273.6241 78.5354,304.9228 73.6254,337.1516 80.1611,352.8101 84.0391,395.1317 86.4233,434.8351 84.0391,395.1317 80.1611,352.8101 73.6254,337.1516 78.5354,304.9228 88.4227,273.6241 77.564,231.9616 78.4251,186.7962 88.1013,166.4276"/>
    <polyline points="71.1715,133.9778 80.6944,164.821 72.9737,187.946 73.2861,230.7991 81.174,272.1757 74.5655,303.5599 68.1068,336.9656 74.8252,353.7038 79.158,397.3388 80.7688,435.7196"/>
    <polyline points="75.1142,436.604 74.277,399.5459 69.4892,354.5975 62.5882,336.7795 70.5956,302.1969 73.9252,270.7272 69.0082,229.6366 67.5223,189.0959 73.2875,163.2145 67.5915,134.0841"/>
    <polyline points="64.0115,134.1904 65.8805,161.6079 62.0709,190.2458 64.7304,228.4741 66.6765,269.2788 66.6256,300.8339 57.0695,336.5935 64.1532,355.4913 69.396,401.753 69.4596,437.4885"/>
    <polyline points="63.805,438.3729 64.5149,403.9601 58.8172,356.385 51.5509,336.4075 62.6557,299.4709 59.4277,267.8304 60.4525,227.3116 56.6195,191.3956 58.4736,160.0014 60.4315,134.2966"/>
    <polyline points="56.8515,134.4029 51.0667,158.3948 51.1681,192.5455 56.1746,226.1491 52.179,266.382 58.6858,298.1079 46.0323,336.2214 53.4812,357.2787 59.6339,406.1672 58.1504,439.2574"/>
    <polyline points="52.872,434.8472 86.026,428.2179 115.0786,426.5128 155.223,433.3183 183.0842,423.588 216.6738,425.6432 243.1517,419.9366 278.5994,419.6432 311.0083,433.0663 351.6513,416.5487"/>
    <polyline points="351.8011,412.3533 310.9819,424.9762 277.8751,415.6388 242.6623,416.1009 216.8461,417.8532 183.7666,416.4615 154.5964,427.8486 112.8203,420.928 85.6286,421.6006 53.2482,429.5526"/>
    <polyline points="53.6243,424.2581 85.2312,414.9834 110.5621,415.3432 153.9699,422.379 184.449,409.335 217.0184,410.0631 242.173,412.2651 277.1507,411.6343 310.9556,416.8861 351.9509,408.1579"/>
    <polyline points="352.1007,403.9625 310.9292,408.796 276.4265,407.6299 241.6837,408.4294 217.1907,402.273 185.1313,402.2085 153.3433,416.9094 108.3038,409.7583 84.8338,408.3661 54.0005,418.9635"/>
    <polyline points="54.3767,413.6689 84.4364,401.7489 106.0455,404.1735 152.7168,411.4398 185.8137,395.082 217.363,394.483 241.1944,404.5937 275.7022,403.6255 310.9028,400.7058 352.2505,399.7671"/>
    <polygon points="352.4003,395.5717 310.8765,392.6157 274.978,399.621 240.7051,400.7579 217.5353,386.6929 186.4961,387.9555 152.0902,405.9701 103.7872,398.5887 84.0391,395.1317 54.7529,408.3743 84.0391,395.1317 103.7872,398.5887 152.0902,405.9701 186.4961,387.9555 217.5353,386.6929 240.7051,400.7579 274.978,399.621 310.8765,392.6157"/>
    <polyline points="351.314,389.912 310.4528,389.5308 277.2258,393.0599 240.2541,393.6959 218.4025,383.0117 187.263,385.5104 151.0279,397.3966 105.2948,394.4315 83.3927,388.0781 53.6516,400.0073"/>
    <polyline points="52.5503,391.6403 82.7464,381.0245 106.8024,390.2743 149.9656,388.823 188.03,383.0654 219.2696,379.3305 239.8031,386.6339 310.0291,386.4458 350.2277,384.2524"/>
    <polyline points="349.1413,378.5928 309.6055,383.3608 281.7216,379.9377 239.3521,379.5719 220.1367,375.6493 188.797,380.6204 148.9032,380.2494 108.31,386.1172 82.1001,373.9709 51.4491,383.2734"/>
    <polyline points="50.3478,374.9064 81.4538,366.9173 109.8176,381.96 147.8409,371.6758 189.564,378.1754 221.0038,371.9681 283.9694,373.3766 309.1818,380.2759 348.055,372.9332"/>
    <polyline points="346.9687,367.2736 308.7581,377.1909 286.2172,366.8155 238.45,365.4479 221.871,368.287 190.331,375.7303 146.7786,363.1022 111.3252,377.8029 80.8075,359.8637 49.2465,366.5394"/>
    <polyline points="46.8733,354.4829 79.0719,350.2004 111.217,365.7304 146.2312,351.0717 189.0355,366.7158 219.4696,359.1564 237.7015,353.4129 285.4891,355.917 307.5996,365.9659 347.6248,356.6416"/>
    <polyline points="349.3672,351.6693 306.8647,357.8258 282.5132,351.5796 237.404,348.4398 216.2011,353.707 186.9731,360.1463 146.7461,347.6148 109.6013,357.8151 77.9826,347.5906 45.6014,350.7934"/>
    <polyline points="44.3295,347.1039 76.8933,344.9809 107.9856,349.8998 147.2611,344.1578 184.9106,353.5768 237.1065,343.4668 306.1299,349.6857 351.1096,346.6969"/>
    <polyline points="352.8521,341.7246 305.395,341.5457 276.5613,342.9049 236.809,338.4938 182.8481,347.0073 147.776,340.7009 106.3698,341.9844 75.804,342.3711 43.0575,343.4144"/>
    <polyline points="41.7856,339.7249 74.7147,339.7614 104.7541,334.0691 148.2909,337.244 180.7857,340.4379 236.5115,333.5207 273.5854,338.5676 304.6601,333.4056 354.5945,336.7523"/>
    <polyline points="355.4373,325.4644 306.5554,319.8742 272.9324,329.7283 239.1543,324.8811 180.6099,327.9646 147.2057,326.4116 105.87,321.038 74.4438,331.7802 42.8807,329.487"/>
    <polyline points="45.2477,322.9386 75.2621,326.4087 108.6016,315.9221 182.4967,322.0609 242.0946,321.2144 275.2552,325.2264 309.1854,314.4829 354.5377,319.1489"/>
    <polyline points="353.6381,312.8333 311.8155,309.0916 277.5781,320.7244 245.0349,317.5478 184.3834,316.1571 144.0053,311.6608 111.3332,310.8063 76.0804,321.0372 47.6147,316.3902"/>
    <polyline points="49.9818,309.8417 76.8988,315.6658 114.0647,305.6904 142.4051,304.2854 186.2702,310.2534 247.9753,313.8812 279.9011,316.2225 314.4456,303.7003 352.7384,306.5178"/>
    <polyline points="351.8388,300.2023 317.0757,298.309 282.2239,311.7206 250.9156,310.2145 205.0383,306.2526 188.1569,304.3497 140.8049,296.91 116.7963,300.5746 77.7171,310.2943 52.3488,303.2933"/>
    <polyline points="53.0849,291.4431 80.1833,299.7064 117.3941,291.8232 140.6646,284.3268 189.8368,292.8848 207.9511,293.2653 251.2978,298.2032 285.4759,298.6066 319.0218,286.0958 349.794,287.7612"/>
    <polyline points="348.6488,281.6357 318.3378,279.2739 286.4051,289.9946 248.7396,289.8584 210.4817,285.4094 189.63,287.3237 142.1245,279.1191 115.2604,288.1876 81.8312,294.49 51.454,286.1412"/>
    <polyline points="49.823,280.8393 83.4791,289.2735 113.1266,284.552 143.5844,273.9112 189.4232,281.7626 213.0123,277.5534 246.1814,281.5137 287.3343,281.3825 317.6538,272.4519 347.5036,275.51"/>
    <polyline points="346.3585,269.3845 316.9698,265.63 288.2634,272.7703 243.6232,273.1689 215.5429,269.6975 189.2163,276.2014 145.0443,268.7035 110.9928,280.9165 85.1269,284.0571 48.1921,275.5374"/>
    <polyline points="46.5612,270.2355 86.7748,278.8406 108.859,277.2808 146.5041,263.4958 189.0095,270.6403 218.0735,261.8416 241.0651,264.8242 289.1926,264.1583 316.2858,258.8081 345.2133,263.259"/>
    <polyline points="342.81,251.3561 316.649,247.2883 289.4154,252.4751 241.6709,250.7834 220.5235,249.2629 188.4874,260.4614 148.042,253.0462 106.5455,266.534 86.6129,266.6803 46.0913,258.2758"/>
    <polyline points="47.2524,251.618 84.8031,259.7366 106.3658,259.4228 148.12,247.8043 188.1721,255.8436 220.4429,244.5402 244.8348,245.0873 288.7091,249.4039 317.6961,242.5904 341.5518,245.5788"/>
    <polyline points="340.2937,239.8014 318.7433,237.8925 288.0028,246.3327 247.9988,239.3912 220.3622,239.8175 187.8569,251.2257 148.198,242.5624 106.1861,252.3116 82.9933,252.7928 48.4135,244.9601"/>
    <polyline points="49.5746,238.3023 81.1836,245.8491 106.0064,245.2003 148.276,237.3206 187.5416,246.6079 220.2816,235.0948 251.1628,233.6952 287.2964,243.2616 319.7905,233.1946 339.0356,234.0241"/>
    <polyline points="337.7775,228.2467 320.8376,228.4967 286.5901,240.1904 254.3268,227.9991 220.201,230.3721 187.2264,241.9901 148.354,232.0787 105.8267,238.0891 79.3738,238.9053 50.7356,231.6445"/>
    <polyline points="50.8667,219.7714 77.7075,224.434 106.1539,226.5237 148.3992,221.4646 186.5092,229.6041 217.5599,219.6265 253.9961,216.0864 283.8721,229.7066 319.8959,218.601 338.0799,218.6031"/>
    <polyline points="339.6404,214.7368 317.9071,213.4031 281.8605,222.294 250.5014,209.8697 214.9995,213.6036 186.1073,221.8359 148.3665,216.0924 106.6609,222.0694 77.851,216.9064 49.8367,214.5562"/>
    <polyline points="48.8067,209.341 77.9945,209.3789 107.1679,217.6151 148.3337,210.7202 185.7053,214.0677 212.4391,207.5807 247.0067,203.6531 279.8489,214.8814 315.9182,208.2053 341.201,210.8705"/>
    <polyline points="342.7615,207.0042 313.9294,203.0074 277.8373,207.4688 243.512,197.4365 209.8786,201.5578 185.3034,206.2995 148.3009,205.3481 107.6749,213.1609 78.138,201.8513 47.7767,204.1258"/>
    <polyline points="46.7467,198.9105 78.2815,194.3237 108.1818,208.7066 148.2682,199.9759 184.9015,198.5314 240.0173,191.2199 275.8255,200.0562 311.9406,197.8096 344.3221,203.1379"/>
    <polyline points="347.021,192.679 310.9256,187.5849 273.4419,189.4242 237.784,183.028 205.2336,185.8441 183.8771,185.601 149.6573,189.6023 110.7388,196.285 80.0378,183.4014 45.3738,187.5442"/>
    <polyline points="45.031,181.393 81.6505,180.0067 112.7888,188.3176 151.0793,184.6009 183.2547,180.4389 205.7095,182.1763 239.0454,181.0529 273.0698,186.2048 311.8994,182.558 348.1594,186.0864"/>
    <polyline points="349.2978,179.4938 312.8733,177.5311 272.6978,182.9854 240.3068,179.0777 206.1853,178.5084 182.6322,175.2767 152.5012,179.5995 114.8388,180.3502 83.2632,176.6119 44.6882,175.2418"/>
    <polyline points="44.3454,169.0906 84.8759,173.2171 116.8888,172.3828 153.9231,174.5981 182.0098,170.1146 206.6612,174.8406 241.5682,177.1025 272.3258,179.766 313.8471,172.5042 350.4362,172.9011"/>
    <polyline points="351.5746,166.3085 314.821,167.4773 271.9537,176.5465 242.8296,175.1273 207.137,171.1727 181.3874,164.9524 155.3451,169.5967 118.9389,164.4154 86.4886,169.8224 44.0026,162.9394"/>
    <polyline points="45.2617,153.0751 85.8763,161.0016 117.7141,151.7923 156.2025,158.7583 182.1164,156.2009 209.076,162.3349 244.8689,165.3255 273.1038,164.1416 315.4264,156.4781 352.4036,154.9975"/>
    <polygon points="352.713,159.7159 315.7949,162.4504 271.5817,173.3271 244.091,173.1521 207.6129,167.5049 180.765,159.7903 156.767,164.5953 120.9889,156.448 88.1013,166.4276 43.6598,156.7883 88.1013,166.4276 120.9889,156.448 156.767,164.5953 180.765,159.7903 207.6129,167.5049 244.091,173.1521 271.5817,173.3271 315.7949,162.4504"/>
    <polyline points="352.0941,150.279 315.0579,150.5057 274.6259,154.9561 245.6468,157.4989 210.5391,157.1649 183.4679,152.6115 155.6379,152.9212 114.4392,147.1366 83.6514,155.5756 46.8637,149.3619"/>
    <polyline points="48.4656,145.6487 81.4264,150.1495 111.1644,142.4809 155.0734,147.0842 184.8193,149.0221 212.0022,151.9949 246.4246,149.6723 276.1479,145.7706 314.6895,144.5334 351.7847,145.5606"/>
    <polyline points="351.4753,140.8421 277.67,136.585 247.2025,141.8457 213.4653,146.8249 186.1708,145.4327 154.5088,141.2471 107.8896,137.8253 79.2014,144.7235 50.0676,141.9356"/>
    <polyline points="51.6695,138.2224 76.9764,139.2975 104.6148,133.1696 153.9442,135.4101 187.5223,141.8433 214.9284,141.6549 247.9804,134.0191 279.1922,127.3995 313.9526,132.5888 351.1658,136.1237"/>
    <polyline points="344.6444,130.6071 346.56,160.1716 339.8941,198.1616 334.0803,222.691 339.3237,256.2756 345.7336,293.7252 347.6016,330.6942 339.6244,363.6959 345.4797,395.079 344.757,424.1462"/>
    <polyline points="338.0126,427.5482 338.559,394.5864 333.3664,365.7779 338.8664,329.6085 340.5281,293.5637 334.5793,255.4177 331.6412,222.9125 333.9057,197.0517 340.407,160.6274 338.4323,129.809"/>
    <polyline points="332.2203,129.0108 334.2539,161.0831 327.9172,195.9417 329.2021,223.1341 329.8349,254.5598 335.3225,293.4022 330.1311,328.5227 327.1084,367.8599 331.6384,394.0937 331.2681,430.9503"/>
    <polyline points="324.5236,434.3523 324.7178,393.601 320.8504,369.9419 321.3958,327.437 330.1169,293.2407 325.0906,253.7019 326.763,223.3557 321.9287,194.8317 328.1009,161.5389 326.0082,128.2127"/>
    <polyline points="319.7962,127.4146 321.9479,161.9946 315.9402,193.7217 324.3239,223.5772 320.3462,252.8441 324.9114,293.0792 312.6605,326.3512 314.5925,372.0239 317.7971,393.1084 317.7791,437.7544"/>
    <polyline points="305.7495,438.2383 304.8934,393.7833 305.0229,371.7973 298.3727,326.7596 313.846,295.3012 311.3551,252.5795 315.8846,226.0189 303.9288,192.6171 308.426,164.2632 308.1058,125.216"/>
    <polyline points="302.6275,123.8156 301.0572,166.076 297.9058,192.6224 309.8844,228.239 307.1085,253.1729 307.9861,297.6847 292.8201,328.2537 301.7113,369.4887 298.9103,394.9508 300.4643,435.3202"/>
    <polyline points="295.1791,432.402 292.9273,396.1184 298.3998,367.1801 287.2674,329.7479 302.1263,300.0682 302.8618,253.7662 303.8843,230.459 291.8829,192.6277 297.1492,122.4152"/>
    <polyline points="291.6709,121.0148 286.3195,169.7016 285.8599,192.633 297.8841,232.6791 298.6151,254.3596 296.2665,302.4517 281.7148,331.242 295.0882,364.8715 286.9442,397.2859 289.894,429.4839"/>
    <polyline points="284.6088,426.5658 280.9611,398.4535 291.7766,362.5629 276.1621,332.7361 290.4066,304.8352 294.3684,254.9529 291.8839,234.8992 279.837,192.6383 278.9506,171.5143 286.1926,119.6144"/>
    <polyline points="275.3882,119.5437 266.9999,173.298 267.5987,191.3702 281.1516,234.6499 281.5193,255.7018 279.4317,307.1069 264.8769,333.2831 280.054,359.9429 269.2658,399.8105 273.3764,423.6685"/>
    <polyline points="267.4293,423.6892 263.5537,400.0 271.643,359.6315 259.1443,332.336 274.3164,306.9951 272.9167,255.8573 276.4194,232.1805 261.3835,190.0968 262.4181,173.2688 270.0622,120.8735"/>
    <polyline points="264.7362,122.2032 257.8364,173.2396 255.1682,188.8234 271.6872,229.7111 264.3143,256.0128 269.2013,306.8833 253.4117,331.389 263.232,359.3201 257.8415,400.1895 261.4822,423.71"/>
    <polyline points="255.5352,423.7308 252.1294,400.3789 254.821,359.0087 247.6791,330.4419 264.0862,306.7715 255.7118,256.1684 266.9551,227.2418 248.953,187.55 253.2546,173.2105 259.4102,123.533"/>
    <polyline points="254.0843,124.8627 248.6728,173.1813 242.7378,186.2766 262.2229,224.7724 247.1093,256.3239 258.9711,306.6597 241.9465,329.4948 246.41,358.6973 246.4172,400.5684 249.5881,423.7516"/>
    <polyline points="239.1177,425.3825 236.8435,398.4137 235.4555,359.4226 230.6995,329.108 245.7834,305.6434 235.5231,256.0638 251.2624,222.8607 231.2284,185.7547 238.0113,172.2109 243.3638,127.9079"/>
    <polyline points="237.9693,129.6233 231.9316,171.2697 225.9343,186.5061 245.034,223.4185 232.5393,255.6482 237.7108,304.739 225.1851,329.6683 232.912,360.4592 232.9818,396.0696 234.5945,426.9927"/>
    <polyline points="230.0712,428.6028 229.1202,393.7254 230.3686,361.4958 219.6706,330.2286 229.6382,303.8346 229.5555,255.2326 238.8056,223.9762 220.6402,187.2576 225.8519,170.3285 232.5749,131.3387"/>
    <polyline points="227.1804,133.0541 219.7722,169.3873 215.346,188.0091 232.5772,224.5339 226.5717,254.8169 221.5656,302.9301 214.1562,330.7889 227.8251,362.5325 225.2586,391.3812 225.548,430.213"/>
    <polyline points="221.0247,431.8232 221.397,389.0371 225.2816,363.5691 208.6417,331.3492 213.4931,302.0257 223.5879,254.4013 226.3488,225.0916 210.0519,188.7605 213.6925,168.4461 221.7859,134.7695"/>
    <polyline points="211.8052,136.7798 203.1382,166.2191 201.3814,189.7205 214.5855,227.6032 215.3038,255.8346 202.8577,300.6754 199.0599,332.236 217.4647,366.0524 212.3621,386.9033 210.8182,432.9802"/>
    <polyline points="205.135,432.527 207.1889,387.1137 212.1914,367.4989 194.9926,332.5625 200.2949,300.2295 210.0036,257.6835 209.0506,229.557 198.005,189.929 198.6636,164.9333 207.2189,137.0746"/>
    <polyline points="202.6326,137.3694 194.1889,163.6476 194.6286,190.1376 203.5158,231.5108 204.7034,259.5324 197.7321,299.7836 190.9252,332.8889 206.918,368.9455 202.0157,387.3242 199.4517,432.0739"/>
    <polyline points="193.7684,431.6207 196.8425,387.5346 201.6447,370.3921 186.8579,333.2154 195.1693,299.3377 199.4031,261.3813 197.9809,233.4647 191.2523,190.3461 189.7143,162.3618 198.0463,137.6642"/>
    <polyline points="193.46,137.959 185.2396,161.076 187.8759,190.5546 192.446,235.4185 194.1029,263.2303 192.6065,298.8918 182.7905,333.5419 196.3713,371.8387 191.6693,387.745 188.0851,431.1676"/>
    <polygon points="182.4019,430.7144 186.4961,387.9555 191.098,373.2853 178.7232,333.8684 190.0437,298.4459 188.8026,265.0792 186.9111,237.3723 184.4995,190.7632 180.765,159.7903 188.8737,138.2539 180.765,159.7903 184.4995,190.7632 186.9111,237.3723 188.8026,265.0792 190.0437,298.4459 178.7232,333.8684 191.098,373.2853 186.4961,387.9555"/>
    <polyline points="177.9765,432.06 180.7617,390.9579 183.5344,370.1592 173.737,333.8548 181.5705,296.9607 181.9962,263.9473 176.7653,160.5911 182.958,136.8071"/>
    <polyline points="177.0424,135.3603 172.7657,161.3919 172.4115,192.0433 175.1898,262.8155 173.0974,295.4755 168.7507,333.8413 175.9708,367.0331 173.5511,433.4056"/>
    <polyline points="169.1257,434.7512 169.2931,396.9628 168.4071,363.907 163.7645,333.8277 164.6242,293.9902 168.3833,261.6836 166.3675,192.6834 171.1267,133.9135"/>
    <polyline points="165.211,132.4667 164.7663,162.9936 160.3234,193.3235 161.2584,230.3487 161.5769,260.5517 156.1511,292.505 158.7783,333.8142 163.5588,399.9652 164.7003,436.0967"/>
    <polyline points="160.2749,437.4423 157.8245,402.9677 153.2799,357.6547 153.7921,333.8006 147.6779,291.0198 154.7705,259.4199 154.8452,228.5927 154.2794,193.9636 160.7667,163.7945 159.2954,131.0199"/>
    <polyline points="144.7064,129.3965 150.804,163.2374 141.6443,196.2118 141.0909,260.8476 135.9253,290.5219 141.1946,332.5148 140.2357,357.7148 144.0397,404.7399 149.4308,437.6728"/>
    <polyline points="143.012,436.5578 135.9892,403.5096 133.5834,331.2426 132.6458,291.5093 134.2178,263.4071 134.1703,228.2172 135.0532,197.8199 144.841,161.8795 136.0331,129.22"/>
    <polyline points="127.3599,129.0435 138.8779,160.5216 128.4621,199.428 127.0395,228.9074 127.3446,265.9666 129.3663,292.4967 125.9721,329.9704 129.2745,364.0872 127.9387,402.2794 136.5932,435.4428"/>
    <polyline points="130.1745,434.3277 119.8882,401.0491 123.7939,367.2733 118.3609,328.6982 126.0869,293.484 120.4715,268.5262 119.9086,229.5975 121.871,201.0361 132.9149,159.1638 118.6866,128.867"/>
    <polyline points="110.0133,128.6904 126.9519,157.8059 115.2799,202.6443 112.7778,230.2877 113.5984,271.0857 122.8074,294.4714 110.7496,327.426 118.3133,370.4595 111.8377,399.8189 123.7557,433.2127"/>
    <polyline points="112.1847,432.5539 100.4959,398.0125 107.3875,370.1731 98.2196,327.9868 112.6959,297.0361 103.6748,273.6417 100.9665,231.1418 103.6449,201.343 115.5076,158.1112 96.9086,129.4068"/>
    <polygon points="101.34,128.5139 120.9889,156.448 108.6888,204.2524 105.647,230.9779 106.7252,273.6452 119.5279,295.4588 103.1384,326.1538 112.8327,373.6457 103.7872,398.5887 117.3369,432.0977 103.7872,398.5887 112.8327,373.6457 103.1384,326.1538 119.5279,295.4588 106.7252,273.6452 105.647,230.9779 108.6888,204.2524 120.9889,156.448"/>
    <polyline points="92.4771,130.2998 110.0264,159.7745 98.6009,198.4337 96.286,231.3058 100.6244,273.6382 105.8638,298.6134 93.3008,329.8197 101.9422,366.7005 97.2045,397.4363 107.0324,433.0102"/>
    <polyline points="101.8802,433.4664 93.9132,396.8602 96.497,363.2279 88.3818,331.6527 99.0317,300.1908 97.574,273.6347 91.6054,231.4697 93.557,195.5243 104.5451,161.4378 88.0457,131.1927"/>
    <polyline points="83.6143,132.0856 99.0639,163.101 88.5129,192.6149 86.9249,231.6337 94.5236,273.6311 92.1996,301.7681 83.463,333.4857 91.0516,359.7553 90.6217,396.284 96.7279,433.9226"/>
    <polyline points="91.5756,434.3789 87.3304,395.7078 85.6064,356.2827 78.5442,335.3187 91.4731,273.6276 82.2445,231.7976 83.469,189.7056 93.5826,164.7643 79.1829,132.9786"/>
    <polygon points="148.2354,194.6037 148.432,226.8368 147.964,258.288 139.2048,289.5346 148.8059,333.787 145.7163,354.5286 155.8496,438.7879 145.7163,354.5286 148.8059,333.787 139.2048,289.5346 147.964,258.288 148.432,226.8368 148.2354,194.6037 156.767,164.5953 153.3797,129.5731 156.767,164.5953"/>
    <polygon points="77.564,231.9616 105.647,230.9779 148.432,226.8368 186.9111,237.3723 220.1204,225.6493 257.4908,222.303 285.8838,237.1192 321.8848,223.7988 336.5194,222.4694 321.8848,223.7988 285.8838,237.1192 257.4908,222.303 220.1204,225.6493 186.9111,237.3723 148.432,226.8368 105.647,230.9779 77.564,231.9616 51.8967,224.9866"/>
    <polygon points="88.4227,273.6241 44.9303,264.9336 88.4227,273.6241 106.7252,273.6452 147.964,258.288 188.8026,265.0792 220.6041,253.9857 238.5069,256.4794 290.1218,255.5462 315.6018,251.9862 344.0681,257.1334 315.6018,251.9862 290.1218,255.5462 238.5069,256.4794 220.6041,253.9857 188.8026,265.0792 147.964,258.288 106.7252,273.6452"/>
    <polygon points="78.5354,304.9228 54.7158,296.7449 78.5354,304.9228 119.5279,295.4588 139.2048,289.5346 205.4205,301.1213 253.856,306.5479 284.5468,307.2187 319.7058,292.9177 350.9392,293.8867 319.7058,292.9177 284.5468,307.2187 253.856,306.5479 205.4205,301.1213 139.2048,289.5346 119.5279,295.4588"/>
    <polygon points="145.7163,354.5286 112.8327,373.6457 80.1611,352.8101 48.1452,358.1724 80.1611,352.8101 112.8327,373.6457 145.7163,354.5286 191.098,373.2853 222.7381,364.6058 237.999,358.3859 288.465,360.2543 308.3345,374.1059 345.8824,361.6139 308.3345,374.1059 288.465,360.2543 237.999,358.3859 222.7381,364.6058 191.098,373.2853"/>
    <polygon points="222.7381,364.6058 217.5353,386.6929 216.5015,433.4333 217.5353,386.6929 222.7381,364.6058 203.1273,331.9095 205.4205,301.1213 220.6041,253.9857 220.1204,225.6493 204.7578,189.512 207.6129,167.5049 216.3915,136.4849 207.6129,167.5049 204.7578,189.512 220.1204,225.6493 220.6041,253.9857 205.4205,301.1213 203.1273,331.9095"/>
    <polygon points="270.6095,334.2302 303.9253,325.2655 356.3369,331.7799 303.9253,325.2655 270.6095,334.2302 236.2139,328.5477 203.1273,331.9095 178.7232,333.8684 148.8059,333.787 103.1384,326.1538 73.6254,337.1516 40.5137,336.0354 73.6254,337.1516 103.1384,326.1538 148.8059,333.787 178.7232,333.8684 203.1273,331.9095 236.2139,328.5477"/>
    <polygon points="285.8838,237.1192 273.8139,192.6436 271.5817,173.3271 280.7142,118.214 271.5817,173.3271 273.8139,192.6436 285.8838,237.1192 290.1218,255.5462 284.5468,307.2187 270.6095,334.2302 288.465,360.2543 274.978,399.621 279.3236,423.6477 274.978,399.621 288.465,360.2543 270.6095,334.2302 284.5468,307.2187 290.1218,255.5462"/>
    <polygon points="257.4908,222.303 238.5069,256.4794 253.856,306.5479 236.2139,328.5477 240.7051,400.7579 243.641,423.7724 240.7051,400.7579 236.2139,328.5477 253.856,306.5479 238.5069,256.4794 257.4908,222.303 236.5226,185.0032 244.091,173.1521 248.7583,126.1925 244.091,173.1521 236.5226,185.0032"/>
    <polygon points="236.5226,185.0032 273.8139,192.6436 309.9517,192.6118 345.8826,199.2716 309.9517,192.6118 273.8139,192.6436 236.5226,185.0032 204.7578,189.512 184.4995,190.7632 148.2354,194.6037 108.6888,204.2524 78.4251,186.7962 45.7167,193.6953 78.4251,186.7962 108.6888,204.2524 148.2354,194.6037 184.4995,190.7632 204.7578,189.512"/>
    <polygon points="321.8848,223.7988 309.9517,192.6118 315.7949,162.4504 313.5841,126.6165 315.7949,162.4504 309.9517,192.6118 321.8848,223.7988 315.6018,251.9862 319.7058,292.9177 303.9253,325.2655 308.3345,374.1059 310.8765,392.6157 311.0347,441.1564 310.8765,392.6157 308.3345,374.1059 303.9253,325.2655 319.7058,292.9177 315.6018,251.9862"/>
  </g>
</svg>
