<?xml version="1.0" encoding="utf-8" ?>
<svg xmlns="http://www.w3.org/2000/svg" xmlns:cc="http://creativecommons.org/ns" xmlns:dc="http://purl.org/dc/elements/1.1/" xmlns:ev="http://www.w3.org/2001/xml-events" xmlns:inkscape="http://www.inkscape.org/namespaces/inkscape" xmlns:rdf="http://www.w3.org/1999/02/22-rdf-syntax-ns" xmlns:sodipodi="http://sodipodi.sourceforge.net/DTD/sodipodi-0.dtd" xmlns:xlink="http://www.w3.org/1999/xlink" baseProfile="tiny" height="14.8cm" version="1.2" viewBox="0 0 396.85039370078744 559.3700787401575" width="10.5cm">
  <metadata>
    <rdf:RDF>
      <cc:Work>
        <dc:format>image/svg+xml</dc:format>
        <dc:source>Vsketch with params {'__seed__': 0, 'NUM_LINES': 8, 'INTERPOLATION_STEPS_VERTICAL': 12, 'INTERPOLATION_STEPS_HORIZONTAL': 12, 'STEPS': 10, 'RANDOM_LOWER': -0.3, 'RANDOM_UPPER': 0.3}</dc:source>
        <dc:date>2024-03-22T17:29:01.727616</dc:date>
      </cc:Work>
    </rdf:RDF>
  </metadata>
  <defs/>
  <g fill="none" id="layer1" inkscape:groupmode="layer" inkscape:label="1" stroke="#0000ff" style="display:inline">
    <polygon points="74.7515,133.8714 53.2715,134.5091 43.6598,156.7882 45.7167,193.6952 51.8967,224.9865 44.9303,264.9335 54.7158,296.7447 40.5137,336.0352 48.1452,358.1722 54.7529,408.3741 52.4958,440.1416 86.4233,434.8349 117.3368,432.0975 155.8495,438.7877 182.4018,430.7142 216.5014,433.4331 243.6409,423.7722 279.3234,423.6475 311.0345,441.1562 351.5013,420.7439 352.4001,395.5715 345.8822,361.6137 356.3367,331.7797 350.939,293.8865 344.0679,257.1333 336.5192,222.4693 345.8824,199.2715 352.7128,159.7158 350.8562,131.4051 313.5839,126.6164 280.714,118.2139 248.7582,126.1924 216.3914,136.4848 188.8736,138.2538 153.3796,129.573 101.3399,128.5138"/>
    <polygon points="74.7515,133.8714 88.1013,166.4275 78.4251,186.7961 77.564,231.9615 88.4227,273.624 78.5354,304.9226 73.6254,337.1514 80.1611,352.8099 84.0391,395.1315 86.4233,434.8349 84.0391,395.1315 80.1611,352.8099 73.6254,337.1514 78.5354,304.9226 88.4227,273.624 77.564,231.9615 78.4251,186.7961 88.1013,166.4275"/>
    <polyline points="72.9615,133.9245 84.3978,165.6242 75.6994,187.371 75.425,231.3802 84.7983,272.8998 76.5505,304.2412 70.8661,337.0584 77.4931,353.2568 81.5985,396.235 83.596,435.2771"/>
    <polyline points="80.7688,435.7194 79.158,397.3386 74.8252,353.7036 68.1068,336.9654 74.5655,303.5597 81.174,272.1756 73.2861,230.799 72.9737,187.9459 80.6944,164.8209 71.1715,133.9777"/>
    <polyline points="69.3815,134.0308 76.9909,164.0177 70.248,188.5209 71.1472,230.2177 77.5496,271.4514 72.5805,302.8782 65.3475,336.8724 72.1572,354.1505 76.7175,398.4421 77.9415,436.1616"/>
    <polyline points="75.1142,436.6038 74.277,399.5457 69.4892,354.5973 62.5882,336.7793 70.5956,302.1967 73.9252,270.7271 69.0082,229.6365 67.5223,189.0958 73.2875,163.2144 67.5915,134.084"/>
    <polyline points="65.8015,134.1371 69.584,162.4111 64.7966,189.6707 66.8693,229.0552 70.3008,270.0029 68.6106,301.5152 59.8289,336.6863 66.8212,355.0442 71.8365,400.6492 72.2869,437.046"/>
    <polyline points="69.4596,437.4883 69.396,401.7528 64.1532,355.4911 57.0695,336.5933 66.6256,300.8337 66.6765,269.2787 64.7304,228.474 62.0709,190.2457 65.8805,161.6078 64.0115,134.1903"/>
    <polyline points="62.2215,134.2434 62.1771,160.8045 59.3452,190.8206 62.5914,227.8928 63.0521,268.5545 64.6407,300.1522 54.3102,336.5003 61.4852,355.9379 66.9554,402.8563 66.6323,437.9305"/>
    <polyline points="63.805,438.3727 64.5149,403.9599 58.8172,356.3848 51.5509,336.4073 62.6557,299.4707 59.4277,267.8303 60.4525,227.3115 56.6195,191.3955 58.4736,160.0013 60.4315,134.2965"/>
    <polyline points="58.6415,134.3497 54.7701,159.198 53.8938,191.9704 58.3135,226.7303 55.8034,267.1061 60.6707,298.7892 48.7916,336.3142 56.1492,356.8317 62.0744,405.0634 60.9777,438.815"/>
    <polyline points="58.1504,439.2572 59.6339,406.167 53.4812,357.2785 46.0323,336.2212 58.6858,298.1077 52.179,266.3819 56.1746,226.149 51.1681,192.5454 51.0667,158.3947 56.8515,134.4028"/>
    <polyline points="55.0615,134.456 47.3632,157.5914 48.4424,193.1203 54.0357,225.5678 48.5546,265.6577 56.7008,297.4262 43.273,336.1282 50.8132,357.7254 57.1934,407.2705 55.3231,439.6994"/>
    <polyline points="52.6839,437.4943 86.2246,431.5263 116.2077,429.3051 155.5362,436.0529 182.743,427.151 216.5875,429.5381 243.3962,421.8543 278.9613,421.6453 311.0213,437.1112 351.5762,418.6462"/>
    <polyline points="351.6511,416.5485 311.0081,433.0661 278.5992,419.643 243.1516,419.9364 216.6737,425.643 183.0841,423.5878 155.2229,433.3181 115.0785,426.5126 86.026,428.2177 52.872,434.847"/>
    <polyline points="53.0601,432.1997 85.8273,424.909 113.9494,423.7202 154.9096,430.5832 183.4253,420.0245 216.7599,421.748 242.9069,418.0186 278.237,417.6408 310.9949,429.021 351.726,414.4508"/>
    <polyline points="351.8009,412.3531 310.9817,424.976 277.8749,415.6386 242.6622,416.1007 216.846,417.853 183.7665,416.4613 154.5963,427.8484 112.8202,420.9278 85.6286,421.6004 53.2482,429.5524"/>
    <polyline points="53.4363,426.9051 85.4299,418.2918 111.6911,418.1354 154.2831,425.1136 184.1077,412.898 216.9322,413.9579 242.4176,414.1828 277.5128,413.6364 310.9685,420.9309 351.8758,410.2554"/>
    <polyline points="351.9507,408.1577 310.9554,416.8859 277.1506,411.6341 242.1729,412.2649 217.0183,410.0629 184.4489,409.3348 153.9698,422.3788 110.562,415.343 85.2312,414.9832 53.6243,424.2579"/>
    <polyline points="53.8124,421.6106 85.0325,411.6746 109.4328,412.5505 153.6565,419.644 184.7901,405.7715 217.1045,406.1679 241.9283,410.3471 276.7885,409.6319 310.9422,412.8408 352.0256,406.06"/>
    <polyline points="352.1005,403.9623 310.929,408.7958 276.4264,407.6297 241.6836,408.4292 217.1906,402.2728 185.1312,402.2083 153.3432,416.9092 108.3037,409.7581 84.8338,408.3659 54.0005,418.9633"/>
    <polyline points="54.1886,416.316 84.6351,405.0573 107.1745,406.9657 153.0299,414.1744 185.4724,398.645 217.2768,398.3778 241.439,406.5113 310.9158,404.7507 352.1754,401.8646"/>
    <polyline points="352.2503,399.7669 310.9026,400.7056 275.7021,403.6253 241.1943,404.5935 217.3629,394.4828 185.8136,395.0818 152.7167,411.4396 106.0454,404.1733 84.4364,401.7487 54.3767,413.6687"/>
    <polyline points="54.5648,411.0214 84.2377,398.4401 152.4034,408.7048 186.1548,391.5185 217.4491,390.5877 240.9496,402.6756 275.34,401.623 310.8895,396.6606 352.3252,397.6692"/>
    <polygon points="352.4001,395.5715 310.8763,392.6155 274.9779,399.6208 240.705,400.7577 217.5352,386.6927 186.496,387.9553 152.0901,405.9699 103.7871,398.5885 84.0391,395.1315 54.7529,408.3741 84.0391,395.1315 103.7871,398.5885 152.0901,405.9699 186.496,387.9553 217.5352,386.6927 240.705,400.7577 274.9779,399.6208 310.8763,392.6155"/>
    <polyline points="351.8569,392.7417 310.6644,391.073 276.1018,396.3403 240.4795,397.2267 217.9688,384.8521 186.8795,386.7327 151.5589,401.6831 104.5409,396.5099 83.7159,391.6047 54.2022,404.1906"/>
    <polyline points="53.6516,400.0071 83.3927,388.0779 105.2947,394.4313 151.0278,397.3964 187.2629,385.5102 218.4024,383.0115 240.254,393.6957 277.2257,393.0597 310.4526,389.5306 351.3138,389.9118"/>
    <polyline points="350.7706,387.082 310.2408,387.9881 278.3496,389.7791 240.0285,390.1647 218.8359,381.1709 187.6464,384.2877 150.4966,393.1096 106.0485,392.3527 83.0696,384.5511 53.101,395.8236"/>
    <polyline points="52.5503,391.6401 82.7464,381.0243 106.8023,390.2741 149.9655,388.8228 188.0299,383.0652 219.2695,379.3303 239.803,386.6337 310.0289,386.4456 350.2275,384.2522"/>
    <polyline points="349.6843,381.4224 309.8171,384.9031 280.5974,383.218 239.5775,383.1027 219.703,377.4897 188.4134,381.8427 149.4343,384.536 107.5561,388.1956 82.4233,377.4975 51.9997,387.4566"/>
    <polyline points="51.4491,383.2732 82.1001,373.9707 108.3099,386.117 148.9031,380.2492 188.7969,380.6202 220.1366,375.6491 239.352,379.5717 281.7214,379.9375 309.6053,383.3606 349.1411,378.5926"/>
    <polyline points="348.598,375.7628 309.3934,381.8182 282.8453,376.6569 239.1265,376.0407 220.5702,373.8085 189.1804,379.3977 148.372,375.9624 109.0637,384.0384 81.7769,370.4439 50.8984,379.0897"/>
    <polyline points="50.3478,374.9062 81.4538,366.9171 109.8175,381.9598 147.8408,371.6756 189.5639,378.1752 221.0037,371.9679 283.9692,373.3764 309.1816,380.2757 348.0548,372.933"/>
    <polyline points="347.5116,370.1032 308.9698,378.7332 285.0931,370.0958 238.6754,368.9787 221.4373,370.1273 189.9474,376.9526 147.3097,367.3888 110.5713,379.8812 81.1306,363.3903 49.7972,370.7227"/>
    <polyline points="49.2465,366.5392 80.8075,359.8635 111.3251,377.8027 146.7785,363.102 190.3309,375.7301 221.8709,368.2868 238.4499,365.4477 286.217,366.8153 308.7579,377.1907 346.9685,367.2734"/>
    <polyline points="346.4253,364.4436 308.5461,375.6482 287.3409,363.5347 238.2244,361.9167 222.3044,366.4462 190.7144,374.5076 146.2473,358.8152 112.0789,375.7241 80.4843,356.3367 48.6959,362.3557"/>
    <polyline points="47.5093,356.3275 79.6165,351.505 112.0248,369.6878 145.9736,352.8 190.0667,370.0004 221.1037,361.8809 237.8502,355.8992 286.9769,358.0855 307.9668,370.0357 346.7534,359.1276"/>
    <polyline points="347.6246,356.6414 307.5994,365.9657 285.4889,355.9168 237.7014,353.4127 219.4695,359.1562 189.0354,366.7156 146.2311,351.0715 111.2169,365.7302 79.0719,350.2002 46.8733,354.4827"/>
    <polyline points="46.2374,352.638 78.5272,348.8953 110.4091,361.7725 146.4886,349.343 188.0042,363.4309 217.8353,356.4315 237.5527,350.9262 284.001,353.7481 307.232,361.8956 348.4958,354.1552"/>
    <polyline points="349.367,351.6691 306.8645,357.8256 282.513,351.5794 237.4039,348.4396 216.201,353.7068 186.973,360.1461 146.746,347.6146 109.6012,357.8149 77.9826,347.5904 45.6014,350.7932"/>
    <polyline points="44.9654,348.9485 77.4379,346.2855 108.7933,353.8572 147.0035,345.8861 185.9417,356.8614 214.5668,350.9821 237.2551,345.9531 281.0251,349.4108 306.4971,353.7556 350.2382,349.1829"/>
    <polyline points="351.1094,346.6967 306.1297,349.6855 237.1064,343.4666 184.9105,353.5766 147.261,344.1576 107.9855,349.8996 76.8933,344.9807 44.3295,347.1037"/>
    <polyline points="43.6935,345.259 76.3486,343.6758 107.1776,345.9419 147.5184,342.4292 183.8793,350.2919 236.9576,340.9801 278.0492,345.0734 305.7622,345.6155 351.9807,344.2106"/>
    <polyline points="352.8519,341.7244 305.3948,341.5455 276.5612,342.9047 236.8089,338.4936 182.848,347.0071 147.7759,340.7007 106.3697,341.9842 75.804,342.3709 43.0575,343.4142"/>
    <polyline points="42.4216,341.5694 75.2593,341.066 105.5619,338.0266 148.0334,338.9722 181.8168,343.7224 236.6601,336.0071 275.0733,340.736 305.0274,337.4754 353.7231,339.2382"/>
    <polyline points="354.5943,336.7521 304.6599,333.4054 273.5853,338.5674 236.5114,333.5205 180.7856,340.4377 148.2908,337.2438 104.754,334.0689 74.7147,339.7612 41.7856,339.7247"/>
    <polyline points="41.1496,337.8799 74.1701,338.4563 103.9461,330.1113 148.5483,335.5153 179.7543,337.1529 236.3626,331.034 272.0974,336.3987 304.2925,329.3353 355.4655,334.2659"/>
    <polyline points="355.8869,328.622 305.2401,322.5697 271.7709,331.979 237.684,326.7142 179.6665,330.9163 148.0057,330.0991 104.5041,323.5957 74.0346,334.4657 41.6972,332.761"/>
    <polyline points="42.8807,329.4868 74.4438,331.78 105.8699,321.0378 147.2056,326.4114 180.6098,327.9644 239.1542,324.8809 272.9323,329.7281 306.5552,319.874 355.4371,325.4642"/>
    <polyline points="354.9873,322.3064 307.8702,317.1784 274.0937,327.4771 240.6243,323.0475 181.5532,325.0126 146.4055,322.7237 107.2357,318.4798 74.8529,329.0942 44.0642,326.2126"/>
    <polyline points="45.2477,322.9384 75.2621,326.4085 108.6015,315.9219 182.4966,322.0607 242.0945,321.2142 275.2551,325.2262 309.1852,314.4827 354.5375,319.1487"/>
    <polyline points="354.0877,315.9909 310.5003,311.7871 276.4166,322.9752 243.5647,319.3809 183.44,319.1088 144.8053,315.3483 109.9673,313.364 75.6713,323.7228 46.4312,319.6642"/>
    <polyline points="47.6147,316.39 76.0804,321.037 111.3331,310.8061 144.0052,311.6606 184.3833,316.1569 245.0348,317.5476 277.578,320.7242 311.8153,309.0914 353.6379,312.8331"/>
    <polyline points="353.1881,309.6754 313.1304,306.3958 278.7394,318.4733 246.505,315.7143 185.3267,313.2051 143.2051,307.9729 112.6988,308.2482 76.4896,318.3513 48.7983,313.1158"/>
    <polyline points="49.9818,309.8415 76.8988,315.6656 114.0646,305.6902 142.405,304.2852 186.2701,310.2532 247.9752,313.881 279.9009,316.2223 314.4454,303.7001 352.7382,306.5176"/>
    <polyline points="352.2884,303.3598 315.7605,301.0045 281.0623,313.9713 249.4454,312.0476 187.2134,307.3013 141.6049,300.5975 115.4304,303.1323 77.3079,312.9798 51.1653,306.5673"/>
    <polyline points="52.3488,303.2931 77.7171,310.2941 116.7962,300.5744 140.8048,296.9098 188.1568,304.3495 205.0382,306.2524 250.9155,310.2143 282.2237,311.7204 317.0755,298.3088 351.8386,300.2021"/>
    <polyline points="351.3888,297.0443 318.3906,295.6132 283.3851,309.4694 252.3857,308.381 205.2293,303.6868 189.1002,301.3976 140.0047,293.2221 118.162,298.0165 78.1263,307.6084 53.5323,300.0189"/>
    <polyline points="53.9004,294.0938 79.3594,302.3144 118.4609,293.6408 139.9346,286.9305 189.9402,295.6652 206.6857,297.1931 252.5768,302.3753 285.0112,302.9124 319.3636,289.5066 350.3664,290.8238"/>
    <polyline points="349.7938,287.761 319.0216,286.0956 285.4757,298.6064 251.2977,298.203 207.951,293.2651 189.8367,292.8846 140.6645,284.3266 117.394,291.823 80.1833,299.7062 53.0849,291.4429"/>
    <polyline points="52.2694,288.7919 81.0072,297.098 116.3272,290.0052 141.3945,281.7228 189.7333,290.1041 209.2163,289.3372 250.0186,294.0306 285.9403,294.3004 318.6796,282.6847 349.2212,284.6982"/>
    <polyline points="348.6486,281.6355 318.3376,279.2737 286.4049,289.9944 248.7395,289.8582 210.4816,285.4092 189.6299,287.3235 142.1244,279.1189 115.2603,288.1874 81.8312,294.4898 51.454,286.141"/>
    <polyline points="50.6385,283.4901 82.6551,291.8815 114.1934,286.3696 142.8544,276.515 189.5265,284.543 211.7469,281.4813 247.4604,285.6859 286.8695,285.6883 317.9956,275.8627 348.076,278.5727"/>
    <polyline points="347.5034,275.5099 317.6536,272.4518 287.3341,281.3823 246.1813,281.5135 213.0122,277.5533 189.4231,281.7624 143.5843,273.9111 113.1265,284.5518 83.4791,289.2733 49.823,280.8391"/>
    <polyline points="49.0076,278.1882 84.303,286.6651 112.0596,282.7341 144.3142,271.3073 189.3196,278.9818 214.2775,273.6254 244.9022,277.3412 287.7987,277.0763 317.3116,269.0408 346.9308,272.4472"/>
    <polyline points="346.3583,269.3844 316.9696,265.6299 288.2632,272.7702 243.6231,273.1688 215.5428,269.6974 189.2162,276.2013 145.0442,268.7034 110.9927,280.9163 85.1269,284.0569 48.1921,275.5373"/>
    <polyline points="47.3766,272.8863 85.9509,281.4486 109.9258,279.0985 145.7741,266.0995 189.1128,273.4207 216.8081,265.7694 242.3441,268.9964 288.7278,268.4642 316.6276,262.2189 345.7857,266.3216"/>
    <polyline points="345.2131,263.2589 316.2856,258.808 289.1924,264.1582 241.065,264.8241 218.0734,261.8415 189.0094,270.6402 146.504,263.4957 108.8589,277.2807 86.7748,278.8404 46.5612,270.2354"/>
    <polyline points="45.7457,267.5845 87.5988,276.2322 107.792,275.4629 147.234,260.8918 188.906,267.8596 219.3387,257.9135 239.7859,260.6517 289.657,259.8522 315.9436,255.397 344.6405,260.1961"/>
    <polyline points="343.4388,254.2447 316.1252,249.6371 289.7684,254.0106 240.0888,253.6313 220.5637,251.6242 188.6449,262.7702 148.0029,255.667 106.6353,270.0895 87.5178,270.1521 45.5108,261.6046"/>
    <polyline points="46.0913,258.2757 86.6129,266.6802 106.5454,266.5339 148.0419,253.0461 188.4873,260.4613 220.5234,249.2628 241.6708,250.7833 289.4152,252.475 316.6488,247.2882 342.8098,251.356"/>
    <polyline points="342.1807,248.4673 317.1724,244.9392 289.0621,250.9394 243.2528,247.9352 220.4831,246.9015 188.3297,258.1524 148.0809,250.4251 106.4556,262.9783 85.708,263.2083 46.6719,254.9468"/>
    <polyline points="47.2524,251.6179 84.8031,259.7365 106.3657,259.4227 148.1199,247.8042 188.172,255.8435 220.4428,244.5401 244.8347,245.0872 288.7089,249.4038 317.6959,242.5903 341.5516,245.5787"/>
    <polyline points="340.9226,242.69 318.2195,240.2413 288.3557,247.8682 246.4167,242.2392 220.4024,242.1788 188.0144,253.5346 148.1589,245.1833 106.2758,255.8671 83.8982,256.2646 47.833,248.2889"/>
    <polyline points="48.4135,244.96 82.9933,252.7927 106.186,252.3115 148.1979,242.5623 187.8568,251.2256 220.3621,239.8174 247.9987,239.3911 288.0026,246.3326 318.7431,237.8924 340.2935,239.8013"/>
    <polyline points="339.6645,236.9127 319.2667,235.5435 287.6494,244.7971 249.5807,236.5431 220.3218,237.456 187.6992,248.9167 148.2369,239.9414 106.0961,248.7559 82.0884,249.3208 48.994,241.6311"/>
    <polyline points="49.5746,238.3022 81.1836,245.849 106.0063,245.2002 148.2759,237.3205 187.5415,246.6078 220.2815,235.0947 251.1627,233.6951 287.2962,243.2615 319.7903,233.1945 339.0354,234.024"/>
    <polyline points="338.4063,231.1353 320.3138,230.8456 286.9431,241.7259 252.7447,230.847 220.2412,232.7333 187.3839,244.2989 148.3149,234.6995 105.9164,241.6446 80.2787,242.3771 50.1551,234.9733"/>
    <polyline points="50.7356,231.6444 79.3738,238.9052 105.8266,238.089 148.3539,232.0786 187.2263,241.99 220.2009,230.372 254.3267,227.999 286.5899,240.1903 320.8374,228.4966 337.7773,228.2466"/>
    <polyline points="337.1482,225.358 321.361,226.1477 286.2367,238.6547 255.9087,225.1509 220.1606,228.0106 187.0687,239.6811 148.3929,229.4577 105.7367,234.5334 78.4689,235.4333 51.3162,228.3155"/>
    <polyline points="51.3817,222.3789 77.6357,228.1977 105.9003,228.7507 148.4155,224.1506 186.7101,233.4881 218.8401,222.6378 255.7433,219.1946 284.8778,233.4128 320.8902,221.1998 337.2994,220.5362"/>
    <polyline points="338.0797,218.603 319.8957,218.6009 283.8719,229.7065 253.996,216.0863 217.5598,219.6264 186.5091,229.604 148.3991,221.4645 106.1538,226.5236 77.7075,224.4339 50.8667,219.7713"/>
    <polyline points="50.3517,217.1637 106.4073,224.2964 148.3827,218.7784 186.3081,225.7199 216.2796,216.6149 252.2486,212.978 282.8661,226.0002 318.9013,216.0019 338.86,216.6699"/>
    <polyline points="339.6402,214.7367 317.9069,213.403 281.8603,222.2939 250.5013,209.8696 214.9994,213.6035 186.1072,221.8358 148.3664,216.0923 106.6608,222.0693 77.851,216.9063 49.8367,214.5561"/>
    <polyline points="49.3217,211.9485 77.9228,213.1426 106.9143,219.8422 148.35,213.4062 185.9062,217.9517 213.7192,210.592 248.7539,206.7613 280.8545,218.5876 316.9125,210.8041 340.4205,212.8036"/>
    <polyline points="341.2008,210.8704 315.918,208.2052 279.8487,214.8813 247.0066,203.653 212.439,207.5806 185.7052,214.0676 148.3336,210.7201 107.1678,217.615 77.9945,209.3788 48.8067,209.3409"/>
    <polyline points="48.2917,206.7333 78.0663,205.615 107.4213,215.3879 148.3172,208.034 185.5043,210.1835 211.1588,204.5691 245.2592,200.5447 278.8429,211.175 314.9236,205.6063 341.9811,208.9373"/>
    <polyline points="342.7613,207.0041 313.9292,203.0073 277.8371,207.4687 243.5119,197.4364 209.8785,201.5577 185.3033,206.2994 148.3008,205.348 107.6748,213.1608 78.138,201.8512 47.7767,204.1257"/>
    <polyline points="47.2617,201.5181 78.2098,198.0874 107.9282,210.9337 148.2844,202.6619 185.1023,202.4154 208.5983,198.5462 241.7645,194.3281 276.8313,203.7624 312.9348,200.4084 343.5416,205.071"/>
    <polyline points="344.3219,203.1378 311.9404,197.8095 275.8254,200.0561 240.0172,191.2198 184.9014,198.5313 148.2681,199.9758 108.1817,208.7065 78.2815,194.3236 46.7467,198.9104"/>
    <polyline points="46.2317,196.3028 78.3533,190.5599 108.4352,206.4794 148.2517,197.2897 184.7004,194.6472 206.0379,192.5233 238.2698,188.1114 274.8196,196.3498 310.9459,195.2106 345.1022,201.2047"/>
    <polyline points="346.4516,195.9752 310.4384,190.0982 273.6278,191.0338 237.1532,184.0155 204.9956,187.678 184.1882,188.182 148.9463,192.1029 109.7137,200.2686 79.2314,185.0987 45.5452,190.6196"/>
    <polyline points="45.3738,187.5441 80.0378,183.4013 110.7387,196.2849 149.6572,189.6022 183.877,185.6009 205.2335,185.844 237.7839,183.0279 273.4418,189.4241 310.9254,187.5848 347.0208,192.6789"/>
    <polyline points="347.59,189.3826 311.4123,185.0713 273.2558,187.8144 238.4146,182.0403 205.4714,184.0101 183.5658,183.0198 150.3682,187.1015 111.7637,192.3012 80.8441,181.7039 45.2024,184.4685"/>
    <polyline points="45.031,181.3929 81.6505,180.0066 112.7887,188.3175 151.0792,184.6008 183.2546,180.4388 205.7094,182.1762 239.0453,181.0528 273.0697,186.2047 311.8992,182.5579 348.1592,186.0863"/>
    <polyline points="348.7284,182.79 312.3862,180.0444 272.8837,184.595 239.676,180.0652 205.9473,180.3423 182.9434,177.8577 151.7901,182.1001 113.8137,184.3338 82.4568,178.3092 44.8596,178.3173"/>
    <polyline points="44.6882,175.2417 83.2632,176.6118 114.8387,180.3501 152.5011,179.5994 182.6321,175.2766 206.1852,178.5083 240.3067,179.0776 272.6977,182.9853 312.8731,177.531 349.2976,179.4937"/>
    <polyline points="349.8668,176.1973 313.36,175.0175 272.5117,181.3756 240.9374,178.09 206.4231,176.6744 182.3209,172.6955 153.2121,177.0987 115.8637,176.3664 84.0695,174.9144 44.5168,172.1661"/>
    <polyline points="44.3454,169.0905 84.8759,173.217 116.8887,172.3827 153.923,174.598 182.0097,170.1145 206.6611,174.8405 241.5681,177.1024 272.3257,179.7659 313.8469,172.5041 350.436,172.901"/>
    <polyline points="351.0052,169.6047 314.3339,169.9906 272.1397,178.1562 242.1988,176.1148 206.899,173.0066 181.6985,167.5334 154.634,172.0973 117.9138,168.399 85.6822,171.5196 44.174,166.0149"/>
    <polyline points="44.0026,162.9393 86.4886,169.8223 118.9388,164.4153 155.345,169.5966 181.3873,164.9523 207.1369,171.1726 242.8295,175.1272 271.9536,176.5464 314.8208,167.4772 351.5744,166.3084"/>
    <polyline points="352.1436,163.0121 315.3077,164.9637 271.7676,174.9367 243.4602,174.1396 207.3748,169.3387 181.0761,162.3712 156.056,167.0959 119.9638,160.4316 87.2949,168.1249 43.8312,159.8638"/>
    <polyline points="44.4607,154.9316 86.9888,163.7145 119.3514,154.12 156.4846,161.6767 181.4406,157.9955 208.3443,164.9198 244.4799,169.2387 272.3426,168.7343 315.6104,159.4641 352.5581,157.3566"/>
    <polygon points="352.7128,159.7158 315.7947,162.4503 271.5816,173.327 244.0909,173.152 207.6128,167.5048 180.7649,159.7902 156.7669,164.5952 120.9888,156.4479 88.1013,166.4275 43.6598,156.7882 88.1013,166.4275 120.9888,156.4479 156.7669,164.5952 180.7649,159.7902 207.6128,167.5048 244.0909,173.152 271.5816,173.327 315.7947,162.4503"/>
    <polyline points="352.4034,154.9974 315.4262,156.478 273.1037,164.1415 244.8688,165.3254 209.0759,162.3348 182.1163,156.2008 156.2024,158.7582 117.714,151.7922 85.8763,161.0015 45.2617,153.075"/>
    <polyline points="46.0627,151.2184 84.7638,158.2885 116.0766,149.4644 155.9201,155.8396 182.7921,154.4061 209.8074,159.7498 245.2577,161.4121 273.8647,159.5487 315.242,153.4918 352.2487,152.6381"/>
    <polyline points="352.0939,150.2789 315.0577,150.5056 274.6258,154.956 245.6467,157.4988 210.539,157.1648 183.4678,152.6114 155.6378,152.9211 114.4391,147.1365 83.6514,155.5755 46.8637,149.3618"/>
    <polyline points="47.6646,147.5052 82.5389,152.8624 112.8017,144.8087 155.3555,150.0026 184.1435,150.8167 211.2705,154.5798 246.0356,153.5855 275.3868,150.3632 314.8735,147.5195 351.9392,147.9197"/>
    <polyline points="351.7845,145.5605 314.6893,144.5333 276.1478,145.7705 246.4245,149.6722 212.0021,151.9948 184.8192,149.022 155.0733,147.0841 111.1643,142.4808 81.4264,150.1494 48.4656,145.6486"/>
    <polyline points="49.2666,143.7921 80.3139,147.4364 109.5269,140.153 154.791,144.1656 185.495,147.2273 212.7336,149.4098 246.8135,145.7589 276.9089,141.1777 314.5051,141.5472 351.6298,143.2012"/>
    <polyline points="351.4751,140.842 277.6699,136.5849 247.2024,141.8456 213.4652,146.8248 186.1707,145.4326 154.5087,141.247 107.8895,137.8252 79.2014,144.7234 50.0676,141.9355"/>
    <polyline points="50.8686,140.0789 78.0889,142.0104 106.2521,135.4973 154.2264,138.3285 186.8464,143.6379 214.1967,144.2398 278.4309,131.9922 314.1366,135.5748 351.3204,138.4828"/>
    <polyline points="351.1656,136.1236 313.9524,132.5887 279.192,127.3994 247.9803,134.019 214.9283,141.6548 187.5222,141.8432 153.9441,135.41 104.6147,133.1695 76.9764,139.2974 51.6695,138.2223"/>
    <polyline points="52.4705,136.3657 75.8639,136.5844 102.9773,130.8417 153.6619,132.4915 188.1979,140.0485 215.6598,139.0698 248.3692,130.1057 279.953,122.8066 313.7682,129.6025 351.0109,133.7644"/>
    <polyline points="347.7502,131.0061 349.6363,159.9437 342.8882,198.7165 335.2996,222.5801 348.3362,293.8058 351.9691,331.2369 342.7532,362.6547 348.9398,395.3251 348.1291,422.4449"/>
    <polyline points="344.7568,424.146 345.4795,395.0788 339.6242,363.6957 347.6014,330.694 345.7334,293.725 339.3235,256.2755 334.0801,222.6909 339.8939,198.1615 346.5598,160.1715 344.6442,130.607"/>
    <polyline points="341.5381,130.2079 343.4833,160.3994 336.8997,197.6065 332.8605,222.8017 336.9513,255.8465 343.1307,293.6443 343.2338,330.1511 336.4952,364.7367 342.0191,394.8325 341.3846,425.847"/>
    <polyline points="338.0124,427.548 338.5588,394.5862 333.3662,365.7777 338.8662,329.6083 340.5279,293.5635 334.5791,255.4176 331.641,222.9124 333.9055,197.0516 340.4068,160.6273 338.4321,129.8089"/>
    <polyline points="335.3261,129.4098 337.3303,160.8552 330.9112,196.4966 330.4214,223.0232 332.2069,254.9887 337.9251,293.4828 334.4985,329.0654 330.2372,366.8187 335.0985,394.3398 334.6401,429.249"/>
    <polyline points="331.2679,430.9501 331.6382,394.0935 327.1082,367.8597 330.1309,328.5225 335.3223,293.402 329.8347,254.5597 329.2019,223.134 327.917,195.9416 334.2537,161.083 332.2201,129.0107"/>
    <polyline points="329.114,128.6117 331.1772,161.3109 324.9227,195.3866 327.9823,223.2448 327.4626,254.1308 332.7195,293.3213 325.7633,327.9797 323.9792,368.9007 328.1779,393.8472 327.8957,432.6511"/>
    <polyline points="324.5234,434.3521 324.7176,393.6008 320.8502,369.9417 321.3956,327.4368 330.1167,293.2405 325.0904,253.7018 326.7628,223.3556 321.9285,194.8316 328.1007,161.5388 326.008,128.2126"/>
    <polyline points="322.902,127.8136 325.0242,161.7667 318.9342,194.2766 325.5432,223.4664 322.7182,253.2729 327.514,293.1598 317.028,326.8939 317.7212,370.9827 321.2572,393.3545 321.1512,436.0531"/>
    <polyline points="317.7789,437.7542 317.7969,393.1082 314.5923,372.0237 312.6603,326.351 324.9112,293.079 320.346,252.844 324.3237,223.5771 315.94,193.7216 321.9477,161.9945 319.796,127.4145"/>
    <polyline points="316.6899,127.0154 318.8712,162.2224 312.9458,193.1666 323.1041,223.6879 317.9738,252.415 322.3084,292.9983 308.2927,325.8082 311.4633,373.0647 314.3366,392.8619 314.4067,439.4552"/>
    <polyline points="308.3919,439.6972 307.8847,393.1993 306.6785,372.9514 301.1488,326.0124 316.7757,294.1093 313.4783,252.2828 318.8845,224.9087 306.94,192.6143 312.1102,163.3567 310.8448,125.9162"/>
    <polyline points="308.1056,125.2159 308.4258,164.2631 303.9286,192.617 315.8844,226.0188 311.3549,252.5794 313.8458,295.301 298.3725,326.7594 305.0227,371.7971 304.8932,393.7831 305.7493,438.2381"/>
    <polyline points="303.1067,436.779 301.9017,394.3668 303.3669,370.6428 295.5962,327.5065 310.9158,296.4927 309.2316,252.8761 312.8843,227.1288 300.9171,192.6196 304.7414,165.1695 305.3665,124.5157"/>
    <polyline points="302.6273,123.8155 301.057,166.0759 297.9056,192.6223 309.8842,228.2389 307.1083,253.1728 307.9859,297.6845 292.8199,328.2535 301.7111,369.4885 298.9101,394.9506 300.4641,435.32"/>
    <polyline points="297.8215,433.8609 295.9186,395.5344 300.0553,368.3342 290.0435,329.0006 305.056,298.8762 304.9849,253.4694 306.8842,229.3489 294.8941,192.6249 297.3726,166.9823 299.8881,123.1153"/>
    <polyline points="297.149,122.4151 291.8827,192.6276 303.8841,230.4589 302.8616,253.7661 302.1261,300.068 287.2672,329.7477 298.3996,367.1799 292.9271,396.1182 295.1789,432.4018"/>
    <polyline points="292.5364,430.9428 289.9355,396.7019 296.7438,366.0256 284.4909,330.4947 299.1962,301.2597 300.7383,254.0628 300.884,231.569 288.8712,192.6302 290.0037,168.7951 294.4098,121.7149"/>
    <polyline points="291.6707,121.0147 286.3193,169.7015 285.8597,192.6329 297.8839,232.679 298.6149,254.3595 296.2663,302.4515 281.7146,331.2418 295.088,364.8713 286.944,397.2857 289.8938,429.4837"/>
    <polyline points="287.2512,428.0247 283.9525,397.8695 293.4322,363.717 278.9383,331.9888 293.3363,303.6432 296.4916,254.6561 294.8838,233.789 282.8482,192.6355 282.6349,170.6078 288.9315,120.3145"/>
    <polyline points="286.1924,119.6143 278.9504,171.5142 279.8368,192.6382 291.8837,234.8991 294.3682,254.9528 290.4064,304.835 276.162,332.7359 291.7764,362.5627 280.9609,398.4533 284.6086,426.5656"/>
    <polyline points="281.966,425.1065 277.9694,399.037 290.1206,361.4084 273.3857,333.483 287.4765,306.0267 292.2449,255.2495 288.8837,236.0091 276.8253,192.6408 275.266,172.4206 283.4532,118.9141"/>
    <polyline points="278.0511,118.8787 269.2907,173.3125 270.7062,192.0068 283.5175,235.8845 285.8203,255.6239 281.989,307.1626 267.7431,333.7565 284.2593,360.0984 272.1218,399.7156 276.3499,423.6579"/>
    <polyline points="273.3763,423.6683 269.2657,399.8103 280.0538,359.9427 264.8768,333.2829 279.4315,307.1067 281.5191,255.7017 281.1514,234.6498 267.5986,191.3701 266.9998,173.2979 275.3881,119.5436"/>
    <polyline points="272.7251,120.2085 264.7089,173.2833 264.491,190.7334 278.7853,233.4151 277.2179,255.7794 276.8739,307.0508 262.0105,332.8094 275.8484,359.787 266.4096,399.905 270.4028,423.6787"/>
    <polyline points="267.4292,423.689 263.5536,399.9998 271.6429,359.6313 259.1442,332.3358 274.3163,306.9949 272.9166,255.8572 276.4193,232.1804 261.3834,190.0967 262.418,173.2687 270.0621,120.8734"/>
    <polyline points="267.3991,121.5383 260.1272,173.2541 258.2758,189.46 274.0532,230.9457 268.6154,255.935 271.7588,306.939 256.2779,331.8623 267.4374,359.4756 260.6975,400.0945 264.4557,423.6994"/>
    <polyline points="261.4821,423.7098 257.8414,400.1893 263.2319,359.3199 253.4116,331.3888 269.2012,306.8831 264.3142,256.0127 271.6871,229.711 255.1681,188.8233 257.8363,173.2395 264.7361,122.2031"/>
    <polyline points="262.0731,122.868 255.5454,173.2249 252.0605,188.1866 269.321,228.4763 260.0129,256.0905 266.6437,306.8272 250.5453,330.9152 259.0264,359.1642 254.9854,400.284 258.5086,423.7202"/>
    <polyline points="255.5351,423.7306 252.1293,400.3787 254.8209,359.0085 247.679,330.4417 264.0861,306.7713 255.7117,256.1683 266.955,227.2417 248.9529,187.5499 253.2545,173.2104 259.4101,123.5329"/>
    <polyline points="256.7471,124.1978 250.9636,173.1958 245.8453,186.9132 264.5889,226.007 251.4105,256.246 261.5285,306.7154 244.8127,329.9681 250.6154,358.8528 249.2732,400.4735 252.5615,423.741"/>
    <polyline points="249.588,423.7514 246.4171,400.5682 246.4099,358.6971 241.9464,329.4946 258.971,306.6595 247.1092,256.3238 262.2228,224.7723 242.7377,186.2765 248.6727,173.1812 254.0842,124.8626"/>
    <polyline points="251.4212,125.5275 246.3818,173.1666 239.6301,185.6398 259.8567,223.5376 242.808,256.4016 256.4134,306.6036 239.0801,329.021 242.2044,358.5414 243.5611,400.663 246.6144,423.7618"/>
    <polyline points="241.3792,424.5772 238.7742,399.5856 236.7272,358.904 233.4566,328.8277 249.8196,306.0955 237.0149,256.2715 254.3765,222.5818 233.8754,185.3789 241.0511,172.6814 246.0609,127.0501"/>
    <polyline points="243.3637,127.9078 238.0112,172.2108 231.2283,185.7546 251.2623,222.8606 235.523,256.0637 245.7833,305.6432 230.6994,329.1078 235.4554,359.4224 236.8434,398.4135 239.1176,425.3823"/>
    <polyline points="236.856,426.1874 234.9125,397.2415 234.1837,359.9407 227.9422,329.388 241.747,305.191 234.0311,255.8559 248.1481,223.1395 228.5813,186.1303 234.9714,171.7402 240.6665,128.7655"/>
    <polyline points="237.9692,129.6232 231.9315,171.2696 225.9342,186.506 245.0339,223.4184 232.5392,255.6481 237.7107,304.7388 225.185,329.6681 232.9119,360.459 232.9817,396.0694 234.5944,426.9925"/>
    <polyline points="232.3328,427.7976 231.0509,394.8973 231.6402,360.9773 222.4277,329.9483 233.6744,304.2866 231.0473,255.4403 241.9197,223.6972 223.2871,186.8818 228.8917,170.799 235.272,130.4809"/>
    <polyline points="232.5748,131.3386 225.8518,170.3284 220.6401,187.2575 238.8055,223.9761 229.5554,255.2325 229.6381,303.8344 219.6705,330.2284 230.3685,361.4956 229.1201,393.7252 230.0711,428.6026"/>
    <polyline points="227.8095,429.4077 227.1893,392.5531 229.0967,362.014 216.9133,330.5086 225.6018,303.3822 228.0635,255.0246 235.6913,224.2549 217.993,187.6332 222.812,169.8578 229.8775,132.1963"/>
    <polyline points="227.1803,133.054 219.7721,169.3872 215.3459,188.009 232.5771,224.5338 226.5716,254.8168 221.5655,302.9299 214.1561,330.7887 227.825,362.5323 225.2585,391.381 225.5479,430.2128"/>
    <polyline points="223.2863,431.0179 223.3277,390.2089 226.5532,363.0506 211.3988,331.0689 217.5293,302.4777 225.0797,254.609 229.4629,224.8127 212.6989,188.3847 224.4831,133.9117"/>
    <polyline points="221.7858,134.7694 213.6924,168.446 210.0518,188.7604 226.3487,225.0915 223.5878,254.4012 213.493,302.0255 208.6416,331.349 225.2815,363.5689 221.3969,389.0369 221.0246,431.823"/>
    <polyline points="218.763,432.628 219.466,387.8648 224.0097,364.0872 205.8844,331.6292 209.4567,301.5733 222.0959,254.1934 223.2345,225.3704 207.4047,189.1362 210.6526,167.9754 219.0886,135.6271"/>
    <polyline points="214.0982,136.6322 205.3754,166.8619 203.0695,189.6162 217.3528,226.6262 217.9539,254.91 204.139,300.8981 201.0935,332.0726 220.1013,365.3289 214.9486,386.7979 213.6598,433.2065"/>
    <polyline points="210.8181,432.98 212.362,386.9031 217.4646,366.0522 199.0598,332.2358 202.8576,300.6752 215.3037,255.8345 214.5854,227.6031 201.3813,189.7204 203.1381,166.219 211.8051,136.7797"/>
    <polyline points="209.5119,136.9271 200.9008,165.5761 199.6931,189.8247 211.818,228.58 212.6536,256.7589 201.5762,300.4522 197.0262,332.399 214.828,366.7755 209.7754,387.0083 207.9765,432.7534"/>
    <polyline points="205.1349,432.5268 207.1888,387.1135 212.1913,367.4987 194.9925,332.5623 200.2948,300.2293 210.0035,257.6834 209.0505,229.5569 198.0049,189.9289 198.6635,164.9332 207.2188,137.0745"/>
    <polyline points="204.9256,137.2219 196.4261,164.2903 196.3167,190.0332 206.2831,230.5338 207.3534,258.6079 199.0134,300.0063 192.9588,332.7255 209.5546,368.222 204.6022,387.2188 202.2932,432.3003"/>
    <polyline points="199.4516,432.0737 202.0156,387.324 206.9179,368.9453 190.9251,332.8887 197.732,299.7834 204.7033,259.5323 203.5157,231.5107 194.6285,190.1375 194.1888,163.6475 202.6325,137.3693"/>
    <polyline points="200.3393,137.5167 191.9515,163.0046 192.9404,190.2417 200.7482,232.4876 202.0531,260.4568 196.4506,299.5604 188.8915,333.052 204.2813,369.6686 199.429,387.4292 196.61,431.8471"/>
    <polyline points="193.7683,431.6205 196.8424,387.5344 201.6446,370.3919 186.8578,333.2152 195.1692,299.3375 199.403,261.3812 197.9808,233.4646 191.2522,190.346 189.7142,162.3617 198.0462,137.6641"/>
    <polyline points="195.753,137.8115 187.4768,161.7188 189.564,190.4503 195.2133,234.4415 196.7529,262.3057 193.8878,299.1145 184.8241,333.3785 199.0079,371.1152 194.2558,387.6396 190.9267,431.394"/>
    <polyline points="188.085,431.1674 191.6692,387.7448 196.3712,371.8385 182.7904,333.5417 192.6064,298.8916 194.1028,263.2302 192.4459,235.4184 187.8758,190.5545 185.2395,161.0759 193.4599,137.9589"/>
    <polyline points="191.1668,138.1064 183.0022,160.433 186.1876,190.6588 189.6785,236.3953 191.4527,264.1546 191.325,298.6687 180.7568,333.7049 193.7346,372.5618 189.0826,387.85 185.2434,430.9408"/>
    <polygon points="182.4018,430.7142 186.496,387.9553 191.0979,373.2851 178.7231,333.8682 190.0436,298.4457 188.8025,265.0791 186.911,237.3722 184.4994,190.7631 180.7649,159.7902 188.8736,138.2538 180.7649,159.7902 184.4994,190.7631 186.911,237.3722 188.8025,265.0791 190.0436,298.4457 178.7231,333.8682 191.0979,373.2851 186.496,387.9553"/>
    <polyline points="180.1891,431.387 183.6288,389.4565 187.3161,371.722 176.23,333.8614 185.807,297.7031 185.3993,264.5132 183.7044,236.4942 181.4774,191.0831 178.765,160.1906 185.9158,137.5304"/>
    <polyline points="182.9579,136.807 176.7652,160.591 181.9961,263.9472 181.5704,296.9605 173.7369,333.8546 183.5343,370.159 180.7616,390.9577 177.9764,432.0598"/>
    <polyline points="175.7637,432.7326 177.8945,392.4589 179.7525,368.5959 171.2438,333.8478 177.3338,296.2179 178.5929,263.3813 175.4334,191.7232 174.7654,160.9914 180.0001,136.0836"/>
    <polyline points="177.0423,135.3602 172.7656,161.3918 172.4114,192.0432 175.1897,262.8154 173.0973,295.4753 168.7506,333.8411 175.9707,367.0329 173.551,433.4054"/>
    <polyline points="171.3383,434.0782 172.1602,395.4614 172.1888,365.4698 166.2575,333.8343 168.8607,294.7327 171.7865,262.2494 169.3894,192.3633 170.7657,161.7923 174.0844,134.6368"/>
    <polyline points="171.1266,133.9134 166.3674,192.6833 168.3832,261.6835 164.6241,293.99 163.7644,333.8275 168.407,363.9068 169.293,396.9626 169.1256,434.751"/>
    <polyline points="166.9129,435.4238 166.4259,398.4638 164.6252,362.3437 161.2713,333.8207 160.3875,293.2474 164.98,261.1176 164.4649,231.2265 163.3453,193.0034 166.7661,162.5931 168.1688,133.19"/>
    <polyline points="165.2109,132.4666 164.7662,162.9935 160.3233,193.3234 161.2583,230.3486 161.5768,260.5516 156.151,292.5048 158.7782,333.814 163.5587,399.965 164.7002,436.0965"/>
    <polyline points="162.4875,436.7693 160.6916,401.4663 157.0616,359.2176 156.2851,333.8072 151.9144,291.7622 158.1736,259.9857 158.0517,229.4706 157.3013,193.6434 162.7664,163.3939 162.2531,131.7432"/>
    <polyline points="159.2953,131.0198 160.7666,163.7944 154.2793,193.9635 154.8451,228.5926 154.7704,259.4198 147.6778,291.0196 153.792,333.8004 153.2798,357.6545 157.8244,402.9675 160.2748,437.4421"/>
    <polyline points="158.0622,438.1149 154.9573,404.4687 149.498,356.0915 151.2989,333.7936 143.4412,290.277 151.3671,258.8539 151.6385,227.7147 151.2573,194.2835 158.7667,164.1948 156.3374,130.2964"/>
    <polyline points="149.043,129.4847 153.7854,163.9163 144.9397,195.4076 144.5274,259.5677 137.5649,290.028 145.0001,333.1507 142.9759,356.1215 148.0649,405.3548 152.6401,438.2302"/>
    <polyline points="149.4307,437.6726 144.0396,404.7397 140.2356,357.7146 141.1945,332.5146 135.9252,290.5217 141.0908,260.8475 141.6442,196.2117 150.8039,163.2373 144.7063,129.3964"/>
    <polyline points="140.3697,129.3082 147.8224,162.5584 138.3486,197.0157 137.7356,227.872 137.6542,262.1272 134.2854,291.0154 137.3889,331.8785 137.4953,359.3077 140.0144,404.1246 146.2213,437.1151"/>
    <polyline points="143.0119,436.5576 135.9891,403.5094 133.5833,331.2424 132.6457,291.5091 134.2177,263.407 134.1702,228.2171 135.0531,197.8198 144.8409,161.8794 136.033,129.2199"/>
    <polyline points="131.6964,129.1317 141.8594,161.2005 131.7575,198.6239 130.6048,228.5622 131.006,292.0028 129.7776,330.6063 132.0147,362.4939 131.9639,402.8943 139.8025,436.0001"/>
    <polyline points="136.5931,435.4426 127.9386,402.2792 129.2744,364.087 125.972,329.9702 129.3662,292.4965 127.3445,265.9665 127.0394,228.9073 128.462,199.4279 138.8778,160.5215 127.3598,129.0434"/>
    <polyline points="123.0231,128.9551 135.8963,159.8426 125.1664,200.232 123.474,229.2524 123.908,267.2463 127.7265,292.9901 122.1664,329.3341 126.5341,365.6801 123.9134,401.6641 133.3837,434.8851"/>
    <polyline points="130.1744,434.3275 119.8881,401.0489 123.7938,367.2731 118.3608,328.698 126.0868,293.4838 120.4714,268.5261 119.9085,229.5974 121.8709,201.036 132.9148,159.1637 118.6865,128.8669"/>
    <polyline points="114.3498,128.7786 129.9333,158.4847 118.5754,201.8401 116.3431,229.9425 117.0348,269.8058 124.447,293.9775 114.5551,328.0619 121.0535,368.8662 115.8629,400.4338 126.965,433.77"/>
    <polyline points="123.7556,433.2125 111.8376,399.8187 118.3132,370.4593 110.7495,327.4258 122.8073,294.4712 113.5983,271.0856 112.7777,230.2876 115.2798,202.6442 126.9518,157.8058 110.0132,128.6903"/>
    <polyline points="105.6765,128.6021 123.9703,157.1268 111.9843,203.4482 109.2123,230.6327 110.1617,272.3654 121.1676,294.9649 106.9439,326.7897 115.5729,372.0524 107.8124,399.2036 120.5462,432.655"/>
    <polyline points="114.7607,432.3256 102.1414,398.3004 110.11,371.9092 100.6789,327.0701 116.1118,296.2472 105.1999,273.6434 103.3066,231.0598 106.1667,202.7976 118.2481,157.2795 99.1242,128.9603"/>
    <polygon points="101.3399,128.5138 120.9888,156.4479 108.6887,204.2523 105.6469,230.9778 106.7251,273.6451 119.5278,295.4586 103.1383,326.1536 112.8326,373.6455 103.7871,398.5885 117.3368,432.0975 103.7871,398.5885 112.8326,373.6455 103.1383,326.1536 119.5278,295.4586 106.7251,273.6451 105.6469,230.9778 108.6887,204.2523 120.9888,156.4479"/>
    <polyline points="96.9085,129.4067 115.5075,158.1111 103.6448,201.3429 100.9664,231.1417 103.6747,273.6416 112.6958,297.0359 98.2195,327.9866 107.3874,370.1729 100.4958,398.0123 112.1846,432.5537"/>
    <polyline points="109.6084,432.7818 98.8501,397.7242 104.6648,368.4366 95.7601,328.9031 109.2797,297.8246 102.1495,273.6398 98.6261,231.2237 101.1228,199.8882 112.7669,158.9428 94.6928,129.8532"/>
    <polyline points="92.4771,130.2997 110.0263,159.7744 98.6008,198.4336 96.2859,231.3057 100.6243,273.6381 105.8637,298.6132 93.3007,329.8195 101.9421,366.7003 97.2044,397.4361 107.0323,433.01"/>
    <polyline points="104.4562,433.2381 95.5588,397.148 99.2195,364.964 90.8413,330.736 102.4477,299.4019 93.9457,231.3877 96.0789,196.9789 107.2857,160.606 90.2614,130.7461"/>
    <polyline points="88.0457,131.1926 104.545,161.4377 93.5569,195.5242 91.6054,231.4696 97.5739,273.6346 99.0316,300.1906 88.3818,331.6525 96.4969,363.2277 93.9131,396.86 101.8801,433.4662"/>
    <polyline points="99.3039,433.6943 92.2674,396.5719 93.7743,361.4914 85.9224,332.569 95.6156,300.9793 96.0487,273.6328 89.2652,231.5516 91.0349,194.0695 101.8044,162.2693 85.83,131.6391"/>
    <polyline points="83.6143,132.0855 99.0638,163.1009 88.5129,192.6148 86.9249,231.6336 94.5235,273.631 92.1996,301.7679 83.463,333.4855 91.0516,359.7551 90.6217,396.2838 96.7278,433.9224"/>
    <polyline points="94.1517,434.1505 88.9761,395.9957 88.329,358.0188 81.0036,334.402 88.7835,302.5566 92.9983,273.6293 84.5847,231.7155 85.991,191.1601 96.3232,163.9326 81.3986,132.532"/>
    <polyline points="79.1829,132.9785 93.5825,164.7642 83.469,189.7055 82.2445,231.7975 91.4731,273.6275 78.5442,335.3185 85.6064,356.2825 87.3304,395.7076 91.5756,434.3787"/>
    <polyline points="88.9995,434.6068 85.6847,395.4195 82.8838,354.5462 76.0848,336.2349 81.9515,304.134 89.9479,273.6257 79.9042,231.8795 80.947,188.2508 90.8419,165.5959 76.9672,133.4249"/>
    <polygon points="148.2353,194.6036 148.4319,226.8367 147.9639,258.2879 139.2047,289.5344 148.8058,333.7868 145.7162,354.5284 155.8495,438.7877 145.7162,354.5284 148.8058,333.7868 139.2047,289.5344 147.9639,258.2879 148.4319,226.8367 148.2353,194.6036 156.7669,164.5952 153.3796,129.573 156.7669,164.5952"/>
    <polygon points="77.564,231.9615 105.6469,230.9778 148.4319,226.8367 186.911,237.3722 220.1203,225.6492 257.4907,222.3029 285.8836,237.1191 321.8846,223.7987 336.5192,222.4693 321.8846,223.7987 285.8836,237.1191 257.4907,222.3029 220.1203,225.6492 186.911,237.3722 148.4319,226.8367 105.6469,230.9778 77.564,231.9615 51.8967,224.9865"/>
    <polygon points="88.4227,273.624 44.9303,264.9335 88.4227,273.624 106.7251,273.6451 147.9639,258.2879 188.8025,265.0791 220.604,253.9856 238.5068,256.4793 290.1216,255.5461 315.6016,251.9861 344.0679,257.1333 315.6016,251.9861 290.1216,255.5461 238.5068,256.4793 220.604,253.9856 188.8025,265.0791 147.9639,258.2879 106.7251,273.6451"/>
    <polygon points="78.5354,304.9226 54.7158,296.7447 78.5354,304.9226 119.5278,295.4586 139.2047,289.5344 205.4204,301.1211 253.8559,306.5477 284.5466,307.2185 319.7056,292.9175 350.939,293.8865 319.7056,292.9175 284.5466,307.2185 253.8559,306.5477 205.4204,301.1211 139.2047,289.5344 119.5278,295.4586"/>
    <polygon points="145.7162,354.5284 112.8326,373.6455 80.1611,352.8099 48.1452,358.1722 80.1611,352.8099 112.8326,373.6455 145.7162,354.5284 191.0979,373.2851 222.738,364.6056 237.9989,358.3857 288.4648,360.2541 308.3343,374.1057 345.8822,361.6137 308.3343,374.1057 288.4648,360.2541 237.9989,358.3857 222.738,364.6056 191.0979,373.2851"/>
    <polygon points="222.738,364.6056 217.5352,386.6927 216.5014,433.4331 217.5352,386.6927 222.738,364.6056 203.1272,331.9093 205.4204,301.1211 220.604,253.9856 220.1203,225.6492 204.7577,189.5119 207.6128,167.5048 216.3914,136.4848 207.6128,167.5048 204.7577,189.5119 220.1203,225.6492 220.604,253.9856 205.4204,301.1211 203.1272,331.9093"/>
    <polygon points="270.6094,334.23 303.9251,325.2653 356.3367,331.7797 303.9251,325.2653 270.6094,334.23 236.2138,328.5475 203.1272,331.9093 178.7231,333.8682 148.8058,333.7868 103.1383,326.1536 73.6254,337.1514 40.5137,336.0352 73.6254,337.1514 103.1383,326.1536 148.8058,333.7868 178.7231,333.8682 203.1272,331.9093 236.2138,328.5475"/>
    <polygon points="285.8836,237.1191 273.8138,192.6435 271.5816,173.327 280.714,118.2139 271.5816,173.327 273.8138,192.6435 285.8836,237.1191 290.1216,255.5461 284.5466,307.2185 270.6094,334.23 288.4648,360.2541 274.9779,399.6208 279.3234,423.6475 274.9779,399.6208 288.4648,360.2541 270.6094,334.23 284.5466,307.2185 290.1216,255.5461"/>
    <polygon points="257.4907,222.3029 238.5068,256.4793 253.8559,306.5477 236.2138,328.5475 240.705,400.7577 243.6409,423.7722 240.705,400.7577 236.2138,328.5475 253.8559,306.5477 238.5068,256.4793 257.4907,222.3029 236.5225,185.0031 244.0909,173.152 248.7582,126.1924 244.0909,173.152 236.5225,185.0031"/>
    <polygon points="236.5225,185.0031 273.8138,192.6435 309.9515,192.6117 345.8824,199.2715 309.9515,192.6117 273.8138,192.6435 236.5225,185.0031 204.7577,189.5119 184.4994,190.7631 148.2353,194.6036 108.6887,204.2523 78.4251,186.7961 45.7167,193.6952 78.4251,186.7961 108.6887,204.2523 148.2353,194.6036 184.4994,190.7631 204.7577,189.5119"/>
    <polygon points="321.8846,223.7987 309.9515,192.6117 315.7947,162.4503 313.5839,126.6164 315.7947,162.4503 309.9515,192.6117 321.8846,223.7987 315.6016,251.9861 319.7056,292.9175 303.9251,325.2653 308.3343,374.1057 310.8763,392.6155 311.0345,441.1562 310.8763,392.6155 308.3343,374.1057 303.9251,325.2653 319.7056,292.9175 315.6016,251.9861"/>
  </g>
</svg>
