<?xml version="1.0" encoding="utf-8" ?>
<svg xmlns="http://www.w3.org/2000/svg" xmlns:cc="http://creativecommons.org/ns" xmlns:dc="http://purl.org/dc/elements/1.1/" xmlns:ev="http://www.w3.org/2001/xml-events" xmlns:inkscape="http://www.inkscape.org/namespaces/inkscape" xmlns:rdf="http://www.w3.org/1999/02/22-rdf-syntax-ns" xmlns:sodipodi="http://sodipodi.sourceforge.net/DTD/sodipodi-0.dtd" xmlns:xlink="http://www.w3.org/1999/xlink" baseProfile="tiny" height="14.8cm" version="1.2" viewBox="0 0 396.85039370078744 559.3700787401575" width="10.5cm">
  <metadata>
    <rdf:RDF>
      <cc:Work>
        <dc:format>image/svg+xml</dc:format>
        <dc:source>Vsketch with params {'__seed__': 894065904, 'WIDTH': 10.4, 'HEIGHT': 14.7, 'TIMESTEP': 0.005, 'SIZE': 0.11, 'NOISE_RESOLUTION': 0.1, 'STEP_MULTIPLIER': 9, 'MARGIN': 1.5}</dc:source>
        <dc:date>2024-03-16T20:01:10.158961</dc:date>
      </cc:Work>
    </rdf:RDF>
  </metadata>
  <defs/>
  <g fill="none" id="layer1" inkscape:groupmode="layer" inkscape:label="1" stroke="#0000ff" style="display:inline">
    <line x1="32.315" x2="28.1575" y1="28.1575" y2="32.315"/>
    <line x1="28.1575" x2="36.5729" y1="36.579" y2="28.1575"/>
    <line x1="40.8309" x2="28.1575" y1="28.1575" y2="40.8431"/>
    <line x1="28.1575" x2="45.0888" y1="45.1072" y2="28.1575"/>
    <line x1="49.3468" x2="28.1575" y1="28.1575" y2="49.3713"/>
    <line x1="28.1575" x2="53.6047" y1="53.6354" y2="28.1575"/>
    <line x1="57.8627" x2="28.1575" y1="28.1575" y2="57.8995"/>
    <line x1="28.1575" x2="62.1206" y1="62.1635" y2="28.1575"/>
    <line x1="66.3786" x2="28.1575" y1="28.1575" y2="66.4276"/>
    <line x1="28.1575" x2="70.6365" y1="70.6917" y2="28.1575"/>
    <line x1="74.8944" x2="28.1575" y1="28.1575" y2="74.9558"/>
    <line x1="28.1575" x2="79.1524" y1="79.2199" y2="28.1575"/>
    <line x1="83.4103" x2="28.1575" y1="28.1575" y2="83.4839"/>
    <line x1="28.1575" x2="87.6683" y1="87.748" y2="28.1575"/>
    <line x1="91.9262" x2="28.1575" y1="28.1575" y2="92.0121"/>
    <line x1="28.1575" x2="96.1842" y1="96.2762" y2="28.1575"/>
    <polyline points="100.4421,28.1575 28.1575,100.6469 108.958,181.5578 177.1857,113.4391 364.435,300.9522 134.6062,531.2126"/>
    <polyline points="130.3483,531.2126 360.177,301.0588 177.1857,117.7032 172.9277,121.8607"/>
    <polyline points="177.1857,121.9673 355.9191,301.0588 126.0903,531.2126"/>
    <polyline points="121.8324,531.2126 351.6611,300.9522 172.9277,121.9673 104.7001,190.086 28.1575,113.4391"/>
    <polyline points="28.1575,117.7032 104.7001,194.3501 172.9277,126.2314 347.4032,300.9522 117.5744,531.2126"/>
    <polyline points="113.3165,531.2126 343.1452,301.0588 338.9877,296.7947"/>
    <line x1="338.8873" x2="109.0585" y1="301.0588" y2="531.2126"/>
    <polyline points="104.8006,531.2126 338.8873,296.6881 172.9277,130.4955 104.7001,198.6142 28.1575,121.9673"/>
    <line x1="28.1575" x2="100.4421" y1="126.2314" y2="198.6142"/>
    <polyline points="104.7001,198.7208 100.4421,202.8783 28.1575,130.4955"/>
    <polyline points="28.1575,134.7595 100.4421,207.1423 172.9277,134.7595 330.3714,292.424 92.0267,531.2126"/>
    <polyline points="87.7688,531.2126 326.1134,292.424 172.9277,139.0236 100.4421,211.4064 28.1575,139.0236"/>
    <polyline points="28.1575,143.2877 100.4421,215.6705 172.9277,143.2877 321.8555,292.424 83.5108,531.2126"/>
    <polyline points="79.2529,531.2126 317.5975,292.424 172.9277,147.5518 100.4421,219.9346 28.1575,147.5518"/>
    <polyline points="28.1575,151.8159 100.4421,224.1987 172.9277,151.8159 313.3396,292.424 74.9949,531.2126"/>
    <polyline points="70.737,531.2126 304.8237,296.7947 172.9277,164.6081 109.0585,228.4627"/>
    <polyline points="104.8006,228.5694 109.0585,232.7268 172.9277,168.8722 300.5657,296.6881 245.3129,352.1211 138.8641,245.5191 143.1221,241.3616 245.2124,343.593 287.7919,300.9522 168.6698,181.6644 113.3165,237.0975 117.5744,241.255 160.1539,198.7208 266.5021,305.2162 270.7601,301.0588 164.4118,194.4567 160.1539,198.6142"/>
    <line x1="164.4118" x2="266.5021" y1="198.7208" y2="300.9522"/>
    <line x1="266.5021" x2="253.8288" y1="305.3228" y2="318.0085"/>
    <line x1="249.4703" x2="155.8959" y1="318.0085" y2="224.3053"/>
    <polyline points="151.638,224.1987 155.8959,220.0412 253.7283,318.0085 249.4703,322.2726 151.638,224.3053 126.0903,249.7832 236.6965,360.6493 232.539,364.9134 28.1575,160.344"/>
    <polyline points="28.1575,156.08 108.958,236.9909 168.6698,177.4004 292.0498,300.9522 296.3078,296.7947 172.9277,173.1363 168.6698,177.2938"/>
    <line x1="172.9277" x2="292.0498" y1="177.4004" y2="296.6881"/>
    <polyline points="292.0498,301.0588 245.2124,347.8571 143.1221,245.6257"/>
    <polyline points="134.6062,245.5191 143.1221,237.0975 245.2124,339.3289 249.4703,335.1714"/>
    <line x1="245.2124" x2="147.38" y1="335.0648" y2="237.0975"/>
    <line x1="143.1221" x2="147.2796" y1="236.9909" y2="232.8334"/>
    <polyline points="151.638,232.8334 249.4703,330.8007 279.276,301.0588 168.6698,190.1926"/>
    <polyline points="164.4118,190.086 168.6698,185.9285 283.5339,301.0588 249.4703,335.0648 147.38,232.7268 151.638,228.5694 249.4703,326.5366 275.018,300.9522 164.4118,190.1926 117.5744,236.9909"/>
    <polyline points="117.5744,241.3616 121.8324,245.5191 155.8959,211.513 253.7283,309.4803"/>
    <polyline points="257.9862,309.5869 253.7283,313.7444 155.8959,215.7771 126.0903,245.5191"/>
    <line x1="121.8324" x2="125.9898" y1="245.6257" y2="249.7832"/>
    <polyline points="134.6062,249.8898 240.9545,356.3852 245.2124,352.2277"/>
    <polyline points="240.9545,352.1211 134.6062,245.6257 130.3483,249.7832 236.6965,356.3852"/>
    <line x1="240.9545" x2="236.797" y1="356.4918" y2="360.6493"/>
    <line x1="232.4386" x2="109.0585" y1="360.6493" y2="237.0975"/>
    <polyline points="121.8324,241.255 155.8959,207.2489 257.9862,309.4803 262.2442,305.3228 160.1539,202.9849 155.8959,207.1423"/>
    <line x1="160.1539" x2="257.9862" y1="207.2489" y2="305.2162"/>
    <polyline points="304.9242,296.6881 309.0816,292.424 172.9277,156.08 104.8006,224.1987"/>
    <polyline points="100.5426,224.3053 104.8006,228.4627 172.9277,160.344 304.8237,292.424"/>
    <polyline points="330.4718,292.5306 334.6293,296.7947 100.5426,531.2126"/>
    <line x1="96.2847" x2="330.3714" y1="531.2126" y2="296.7947"/>
    <polyline points="368.6929,296.6881 181.4436,109.175 177.1857,113.3325"/>
    <polyline points="181.4436,113.4391 368.6929,301.0588 138.8641,531.2126"/>
    <line x1="143.1221" x2="368.6929" y1="531.2126" y2="305.3228"/>
    <line x1="368.6929" x2="147.38" y1="309.5869" y2="531.2126"/>
    <line x1="151.638" x2="368.6929" y1="531.2126" y2="313.851"/>
    <line x1="368.6929" x2="155.8959" y1="318.1151" y2="531.2126"/>
    <line x1="160.1539" x2="368.6929" y1="531.2126" y2="322.3792"/>
    <line x1="368.6929" x2="164.4118" y1="326.6432" y2="531.2126"/>
    <line x1="168.6698" x2="368.6929" y1="531.2126" y2="330.9073"/>
    <line x1="368.6929" x2="172.9277" y1="335.1714" y2="531.2126"/>
    <line x1="177.1857" x2="368.6929" y1="531.2126" y2="339.4355"/>
    <line x1="368.6929" x2="181.4436" y1="343.6996" y2="531.2126"/>
    <line x1="185.7016" x2="368.6929" y1="531.2126" y2="347.9637"/>
    <line x1="368.6929" x2="189.9595" y1="352.2277" y2="531.2126"/>
    <line x1="194.2175" x2="368.6929" y1="531.2126" y2="356.4918"/>
    <line x1="368.6929" x2="198.4754" y1="360.7559" y2="531.2126"/>
    <line x1="202.7334" x2="368.6929" y1="531.2126" y2="365.02"/>
    <line x1="368.6929" x2="206.9913" y1="369.2841" y2="531.2126"/>
    <line x1="211.2493" x2="368.6929" y1="531.2126" y2="373.5482"/>
    <line x1="368.6929" x2="215.5072" y1="377.8122" y2="531.2126"/>
    <line x1="219.7652" x2="368.6929" y1="531.2126" y2="382.0763"/>
    <line x1="368.6929" x2="224.0231" y1="386.3404" y2="531.2126"/>
    <line x1="228.2811" x2="368.6929" y1="531.2126" y2="390.6045"/>
    <line x1="368.6929" x2="232.539" y1="394.8686" y2="531.2126"/>
    <line x1="236.797" x2="368.6929" y1="531.2126" y2="399.1326"/>
    <line x1="368.6929" x2="241.0549" y1="403.3967" y2="531.2126"/>
    <line x1="245.3129" x2="368.6929" y1="531.2126" y2="407.6608"/>
    <line x1="368.6929" x2="249.5708" y1="411.9249" y2="531.2126"/>
    <line x1="253.8288" x2="368.6929" y1="531.2126" y2="416.189"/>
    <line x1="368.6929" x2="258.0867" y1="420.4531" y2="531.2126"/>
    <line x1="262.3447" x2="368.6929" y1="531.2126" y2="424.7171"/>
    <line x1="368.6929" x2="266.6026" y1="428.9812" y2="531.2126"/>
    <line x1="270.8606" x2="368.6929" y1="531.2126" y2="433.2453"/>
    <line x1="368.6929" x2="275.1185" y1="437.5094" y2="531.2126"/>
    <line x1="279.3765" x2="368.6929" y1="531.2126" y2="441.7735"/>
    <line x1="368.6929" x2="283.6344" y1="446.0376" y2="531.2126"/>
    <line x1="287.8924" x2="368.6929" y1="531.2126" y2="450.3016"/>
    <line x1="368.6929" x2="292.1503" y1="454.5657" y2="531.2126"/>
    <line x1="296.4083" x2="368.6929" y1="531.2126" y2="458.8298"/>
    <line x1="368.6929" x2="300.6662" y1="463.0939" y2="531.2126"/>
    <line x1="304.9242" x2="368.6929" y1="531.2126" y2="467.358"/>
    <line x1="368.6929" x2="309.1821" y1="471.622" y2="531.2126"/>
    <line x1="313.44" x2="368.6929" y1="531.2126" y2="475.8861"/>
    <line x1="368.6929" x2="317.698" y1="480.1502" y2="531.2126"/>
    <line x1="321.9559" x2="368.6929" y1="531.2126" y2="484.4143"/>
    <line x1="368.6929" x2="326.2139" y1="488.6784" y2="531.2126"/>
    <line x1="330.4718" x2="368.6929" y1="531.2126" y2="492.9425"/>
    <line x1="368.6929" x2="334.7298" y1="497.2065" y2="531.2126"/>
    <line x1="338.9877" x2="368.6929" y1="531.2126" y2="501.4706"/>
    <line x1="368.6929" x2="343.2457" y1="505.7347" y2="531.2126"/>
    <line x1="347.5036" x2="368.6929" y1="531.2126" y2="509.9988"/>
    <line x1="368.6929" x2="351.7616" y1="514.2629" y2="531.2126"/>
    <polyline points="356.0195,531.2126 360.2775,527.0551 364.435,531.2126"/>
    <line x1="364.5354" x2="368.6929" y1="527.0551" y2="531.2126"/>
    <polyline points="368.6929,526.9485 364.5354,522.791 360.2775,526.9485"/>
    <line x1="364.5354" x2="368.6929" y1="522.6844" y2="518.527"/>
    <line x1="232.4386" x2="66.479" y1="365.02" y2="531.2126"/>
    <line x1="62.2211" x2="223.9227" y1="531.2126" y2="369.2841"/>
    <line x1="223.9227" x2="28.1575" y1="364.9134" y2="168.8722"/>
    <polyline points="28.1575,173.1363 223.9227,369.1775 228.1806,365.02 28.1575,164.6081"/>
    <polyline points="28.1575,177.4004 219.6647,369.1775 57.9631,531.2126"/>
    <polyline points="53.7052,531.2126 215.4068,369.1775 28.1575,181.6644"/>
    <polyline points="28.1575,185.9285 211.1488,369.1775 49.4472,531.2126"/>
    <polyline points="45.1893,531.2126 206.8909,369.1775 28.1575,190.1926"/>
    <polyline points="28.1575,194.4567 202.6329,369.1775 40.9313,531.2126"/>
    <polyline points="36.6734,531.2126 198.375,369.1775 28.1575,198.7208"/>
    <polyline points="28.1575,202.9849 194.117,369.1775 32.4154,531.2126"/>
    <polygon points="28.1575,531.2126 368.6929,531.2126 368.6929,28.1575 28.1575,28.1575"/>
    <polyline points="28.1575,531.2126 189.8591,369.1775 28.1575,207.2489"/>
    <polyline points="28.1575,211.513 185.6011,369.1775 28.1575,526.9485"/>
    <polyline points="28.1575,522.6844 181.3432,369.2841 177.1857,365.02"/>
    <line x1="177.0852" x2="28.1575" y1="369.2841" y2="518.4204"/>
    <polyline points="28.1575,514.1563 177.0852,364.9134 28.1575,215.7771"/>
    <polyline points="28.1575,220.0412 138.7637,330.8007 28.1575,441.6669"/>
    <line x1="28.1575" x2="138.7637" y1="445.931" y2="335.1714"/>
    <line x1="143.0216" x2="138.8641" y1="335.0648" y2="330.9073"/>
    <line x1="130.2478" x2="28.1575" y1="330.9073" y2="433.1387"/>
    <line x1="28.1575" x2="125.9898" y1="428.8746" y2="330.9073"/>
    <line x1="125.9898" x2="28.1575" y1="326.5366" y2="228.5694"/>
    <polyline points="28.1575,232.8334 125.9898,330.8007 130.2478,326.6432 28.1575,224.3053"/>
    <polyline points="28.1575,237.0975 121.7319,330.8007 28.1575,424.6105"/>
    <polyline points="28.1575,420.3465 117.4739,330.8007 28.1575,241.3616"/>
    <polyline points="28.1575,245.6257 113.216,330.8007 28.1575,416.0824"/>
    <polyline points="28.1575,411.8183 108.958,330.8007 28.1575,249.8898"/>
    <polyline points="28.1575,254.1538 104.7001,330.8007 28.1575,407.5542"/>
    <polyline points="28.1575,403.2901 100.4421,330.8007 28.1575,258.4179"/>
    <polyline points="28.1575,262.682 96.1842,330.8007 28.1575,399.026"/>
    <polyline points="28.1575,394.762 91.9262,330.8007 28.1575,266.9461"/>
    <polyline points="28.1575,271.2102 87.6683,330.8007 28.1575,390.4979"/>
    <polyline points="28.1575,386.2338 83.4103,330.9073 79.2529,326.6432"/>
    <line x1="79.1524" x2="28.1575" y1="330.9073" y2="381.9697"/>
    <polyline points="28.1575,377.7056 79.1524,326.5366 28.1575,275.4743"/>
    <polyline points="28.1575,279.7383 74.8944,326.5366 28.1575,373.4416"/>
    <polyline points="28.1575,369.1775 70.6365,326.5366 66.3786,322.3792 28.1575,360.6493"/>
    <line x1="28.1575" x2="66.3786" y1="364.9134" y2="326.6432"/>
    <line x1="66.3786" x2="62.2211" y1="322.2726" y2="318.1151"/>
    <line x1="62.1206" x2="28.1575" y1="322.3792" y2="356.3852"/>
    <polyline points="28.1575,352.1211 62.1206,318.0085 57.8627,313.851 28.1575,343.593"/>
    <line x1="28.1575" x2="57.8627" y1="347.8571" y2="318.1151"/>
    <line x1="57.8627" x2="53.7052" y1="313.7444" y2="309.5869"/>
    <line x1="53.6047" x2="28.1575" y1="313.851" y2="339.3289"/>
    <polyline points="28.1575,335.0648 53.6047,309.4803 28.1575,284.0024"/>
    <polyline points="28.1575,288.2665 40.8309,300.9522 28.1575,313.7444"/>
    <polyline points="28.1575,309.4803 36.5729,300.9522 28.1575,292.5306"/>
    <polyline points="28.1575,296.7947 32.315,300.9522 28.1575,305.2162"/>
    <line x1="40.8309" x2="28.1575" y1="305.3228" y2="318.0085"/>
    <polyline points="28.1575,322.2726 45.0888,305.3228 49.3468,309.4803 28.1575,330.8007"/>
    <line x1="28.1575" x2="45.0888" y1="326.5366" y2="309.5869"/>
    <line x1="45.0888" x2="40.9313" y1="305.2162" y2="301.0588"/>
    <polyline points="130.3483,326.6432 134.5057,330.9073 28.1575,437.4028"/>
    <polyline points="28.1575,450.195 143.0216,335.1714 147.2796,339.3289 28.1575,458.7232"/>
    <polyline points="28.1575,462.9873 147.2796,343.6996 151.5375,347.8571 28.1575,471.5154"/>
    <line x1="28.1575" x2="151.5375" y1="475.7795" y2="352.2277"/>
    <line x1="155.7955" x2="151.638" y1="352.1211" y2="347.9637"/>
    <line x1="147.2796" x2="28.1575" y1="347.9637" y2="467.2514"/>
    <line x1="28.1575" x2="143.0216" y1="454.4591" y2="339.4355"/>
    <polyline points="147.38,339.4355 172.8273,365.02 28.1575,509.8922"/>
    <polyline points="28.1575,505.6281 168.5693,364.9134 164.3114,360.7559 28.1575,497.0999"/>
    <line x1="28.1575" x2="164.3114" y1="501.364" y2="365.02"/>
    <line x1="164.3114" x2="160.1539" y1="360.6493" y2="356.4918"/>
    <line x1="160.0534" x2="28.1575" y1="360.7559" y2="492.8359"/>
    <polyline points="28.1575,488.5718 160.0534,356.3852 155.7955,352.2277 28.1575,480.0436"/>
    <line x1="28.1575" x2="155.7955" y1="484.3077" y2="356.4918"/>
    <polyline points="108.958,181.6644 104.7001,185.8219 28.1575,109.175"/>
    <line x1="28.1575" x2="104.7001" y1="104.911" y2="181.5578"/>
    <polyline points="104.8006,168.8722 109.0585,173.0297 194.2175,87.8546 368.6929,262.5754"/>
    <polyline points="368.6929,266.8395 194.2175,92.1187 189.9595,96.2762"/>
    <line x1="194.2175" x2="368.6929" y1="96.3828" y2="271.1036"/>
    <polyline points="368.6929,275.3677 189.9595,96.3828 185.7016,100.5403"/>
    <line x1="189.9595" x2="368.6929" y1="100.6469" y2="279.6317"/>
    <polyline points="368.6929,283.8958 185.7016,100.6469 108.958,177.2938 32.4154,100.6469 104.7001,28.1575"/>
    <polyline points="108.958,28.1575 36.6734,100.5403 104.7001,168.7656 108.958,164.5015 70.737,126.1248 168.5693,28.1575"/>
    <polyline points="172.8273,28.1575 74.9949,126.2314 109.0585,160.2374 202.7334,66.5342 368.6929,232.7268"/>
    <polyline points="368.6929,236.9909 202.7334,70.7983 109.0585,164.5015"/>
    <polyline points="109.0585,168.7656 198.4754,79.3265 368.6929,249.7832"/>
    <line x1="368.6929" x2="202.7334" y1="245.5191" y2="79.3265"/>
    <polyline points="198.4754,79.2199 202.7334,75.0624 368.6929,241.255"/>
    <polyline points="368.6929,254.0472 198.4754,83.5906 194.2175,87.748"/>
    <line x1="198.4754" x2="368.6929" y1="87.8546" y2="258.3113"/>
    <polyline points="368.6929,288.1599 185.7016,104.911 181.4436,109.0684"/>
    <line x1="185.7016" x2="368.6929" y1="109.175" y2="292.424"/>
    <polyline points="368.6929,228.4627 202.7334,62.2701 109.0585,155.9733 83.5108,130.4955"/>
    <line x1="83.5108" x2="181.3432" y1="126.1248" y2="28.1575"/>
    <polyline points="177.0852,28.1575 79.2529,126.1248 83.4103,130.3889 185.6011,28.1575"/>
    <polyline points="189.8591,28.1575 87.7688,130.4955 109.0585,151.7093 206.9913,53.742 368.6929,215.6705"/>
    <polyline points="368.6929,219.9346 206.9913,58.0061 202.7334,62.1635"/>
    <line x1="206.9913" x2="368.6929" y1="62.2701" y2="224.1987"/>
    <polyline points="368.6929,211.4064 206.9913,49.4779 113.3165,143.1811"/>
    <polyline points="108.958,143.1811 96.2847,130.3889 198.375,28.1575"/>
    <polyline points="202.6329,28.1575 100.5426,130.3889 113.216,143.1811 108.958,147.4452 92.0267,130.3889 194.117,28.1575"/>
    <polyline points="206.8909,28.1575 104.8006,130.4955 109.0585,134.6529 211.2493,32.4216 368.6929,190.086"/>
    <polyline points="368.6929,185.8219 211.2493,28.1575 109.0585,130.3889"/>
    <polyline points="109.0585,134.7595 113.3165,138.917 211.2493,40.9497 368.6929,198.6142"/>
    <polyline points="368.6929,194.3501 211.2493,36.6856 113.3165,134.6529"/>
    <polyline points="104.7001,164.5015 40.9313,100.5403 113.216,28.1575"/>
    <polyline points="117.4739,28.1575 45.1893,100.5403 49.3468,104.8044 125.9898,28.1575"/>
    <line x1="121.7319" x2="49.4472" y1="28.1575" y2="100.5403"/>
    <polyline points="49.4472,104.911 53.7052,109.0684 134.5057,28.1575"/>
    <line x1="138.7637" x2="57.9631" y1="28.1575" y2="109.0684"/>
    <polyline points="53.7052,109.175 57.9631,113.3325 143.0216,28.1575"/>
    <line x1="147.2796" x2="62.2211" y1="28.1575" y2="113.3325"/>
    <polyline points="57.9631,113.4391 62.2211,117.5966 151.5375,28.1575"/>
    <line x1="155.7955" x2="66.479" y1="28.1575" y2="117.5966"/>
    <polyline points="62.2211,117.7032 66.479,121.8607 160.0534,28.1575"/>
    <line x1="164.3114" x2="70.737" y1="28.1575" y2="121.8607"/>
    <line x1="66.479" x2="70.6365" y1="121.9673" y2="126.1248"/>
    <line x1="53.7052" x2="130.2478" y1="104.8044" y2="28.1575"/>
    <polyline points="206.9913,49.3713 211.2493,45.2138 368.6929,202.8783"/>
    <line x1="368.6929" x2="211.2493" y1="207.1423" y2="49.4779"/>
    <line x1="215.5072" x2="368.6929" y1="28.1575" y2="181.5578"/>
    <line x1="368.6929" x2="219.7652" y1="177.2938" y2="28.1575"/>
    <line x1="224.0231" x2="368.6929" y1="28.1575" y2="173.0297"/>
    <line x1="368.6929" x2="228.2811" y1="168.7656" y2="28.1575"/>
    <line x1="232.539" x2="368.6929" y1="28.1575" y2="164.5015"/>
    <line x1="368.6929" x2="236.797" y1="160.2374" y2="28.1575"/>
    <line x1="241.0549" x2="368.6929" y1="28.1575" y2="155.9733"/>
    <line x1="368.6929" x2="245.3129" y1="151.7093" y2="28.1575"/>
    <line x1="249.5708" x2="368.6929" y1="28.1575" y2="147.4452"/>
    <line x1="368.6929" x2="253.8288" y1="143.1811" y2="28.1575"/>
    <line x1="258.0867" x2="368.6929" y1="28.1575" y2="138.917"/>
    <line x1="368.6929" x2="262.3447" y1="134.6529" y2="28.1575"/>
    <line x1="266.6026" x2="368.6929" y1="28.1575" y2="130.3889"/>
    <line x1="368.6929" x2="270.8606" y1="126.1248" y2="28.1575"/>
    <line x1="275.1185" x2="368.6929" y1="28.1575" y2="121.8607"/>
    <line x1="368.6929" x2="279.3765" y1="117.5966" y2="28.1575"/>
    <line x1="283.6344" x2="368.6929" y1="28.1575" y2="113.3325"/>
    <line x1="368.6929" x2="287.8924" y1="109.0684" y2="28.1575"/>
    <line x1="292.1503" x2="368.6929" y1="28.1575" y2="104.8044"/>
    <line x1="368.6929" x2="296.4083" y1="100.5403" y2="28.1575"/>
    <line x1="300.6662" x2="368.6929" y1="28.1575" y2="96.2762"/>
    <line x1="368.6929" x2="304.9242" y1="92.0121" y2="28.1575"/>
    <line x1="309.1821" x2="368.6929" y1="28.1575" y2="87.748"/>
    <line x1="368.6929" x2="313.44" y1="83.4839" y2="28.1575"/>
    <line x1="317.698" x2="368.6929" y1="28.1575" y2="79.2199"/>
    <line x1="368.6929" x2="321.9559" y1="74.9558" y2="28.1575"/>
    <line x1="326.2139" x2="368.6929" y1="28.1575" y2="70.6917"/>
    <line x1="368.6929" x2="330.4718" y1="66.4276" y2="28.1575"/>
    <line x1="334.7298" x2="368.6929" y1="28.1575" y2="62.1635"/>
    <line x1="368.6929" x2="338.9877" y1="57.8995" y2="28.1575"/>
    <line x1="343.2457" x2="368.6929" y1="28.1575" y2="53.6354"/>
    <line x1="368.6929" x2="347.5036" y1="49.3713" y2="28.1575"/>
    <line x1="351.7616" x2="368.6929" y1="28.1575" y2="45.1072"/>
    <line x1="368.6929" x2="356.0195" y1="40.8431" y2="28.1575"/>
    <line x1="360.2775" x2="368.6929" y1="28.1575" y2="36.579"/>
    <line x1="368.6929" x2="364.5354" y1="32.315" y2="28.1575"/>
  </g>
</svg>
