<?xml version="1.0" encoding="utf-8" ?>
<svg xmlns="http://www.w3.org/2000/svg" xmlns:cc="http://creativecommons.org/ns" xmlns:dc="http://purl.org/dc/elements/1.1/" xmlns:ev="http://www.w3.org/2001/xml-events" xmlns:inkscape="http://www.inkscape.org/namespaces/inkscape" xmlns:rdf="http://www.w3.org/1999/02/22-rdf-syntax-ns" xmlns:sodipodi="http://sodipodi.sourceforge.net/DTD/sodipodi-0.dtd" xmlns:xlink="http://www.w3.org/1999/xlink" baseProfile="tiny" height="14.8cm" version="1.2" viewBox="0 0 396.85039370078744 559.3700787401575" width="10.5cm">
  <metadata>
    <rdf:RDF>
      <cc:Work>
        <dc:format>image/svg+xml</dc:format>
        <dc:source>Vsketch with params {'__seed__': 1467792554, 'WIDTH': 10.5, 'HEIGHT': 14.8, 'TIMESTEP': 0.003599999999999998, 'SIZE': 0.19999999999999996, 'NOISE_RESOLUTION': 0.09999999999999996, 'STEP_MULTIPLIER': 5.0, 'MARGIN': 1.5}</dc:source>
        <dc:date>2024-03-25T19:07:08.976511</dc:date>
      </cc:Work>
    </rdf:RDF>
  </metadata>
  <defs/>
  <g fill="none" id="layer1" inkscape:groupmode="layer" inkscape:label="1" stroke="#0000ff" style="display:inline">
    <line x1="32.2129" x2="24.48" y1="24.48" y2="32.2129"/>
    <line x1="24.48" x2="39.942" y1="39.9458" y2="24.48"/>
    <line x1="47.675" x2="24.48" y1="24.48" y2="47.6787"/>
    <line x1="24.48" x2="55.4041" y1="55.4117" y2="24.48"/>
    <line x1="63.137" x2="24.48" y1="24.48" y2="63.1483"/>
    <line x1="24.48" x2="70.8661" y1="70.8813" y2="24.48"/>
    <line x1="78.5991" x2="24.48" y1="24.48" y2="78.6142"/>
    <line x1="24.48" x2="86.3282" y1="86.3471" y2="24.48"/>
    <line x1="94.0611" x2="24.48" y1="24.48" y2="94.08"/>
    <line x1="24.48" x2="101.7902" y1="101.8129" y2="24.48"/>
    <line x1="109.5231" x2="24.48" y1="24.48" y2="109.5496"/>
    <line x1="24.48" x2="117.2523" y1="117.2825" y2="24.48"/>
    <line x1="124.9814" x2="24.48" y1="24.48" y2="125.0154"/>
    <line x1="24.48" x2="132.7143" y1="132.7483" y2="24.48"/>
    <line x1="140.4435" x2="24.48" y1="24.48" y2="140.4813"/>
    <line x1="24.48" x2="148.1764" y1="148.2142" y2="24.48"/>
    <line x1="155.9055" x2="24.48" y1="24.48" y2="155.9471"/>
    <line x1="24.48" x2="163.6384" y1="163.6838" y2="24.48"/>
    <line x1="171.3676" x2="24.48" y1="24.48" y2="171.4167"/>
    <line x1="24.48" x2="179.1005" y1="179.1496" y2="24.48"/>
    <polyline points="186.8296,24.48 24.48,186.8825 372.3704,534.8901"/>
    <line x1="364.6413" x2="24.48" y1="534.8901" y2="194.6154"/>
    <polyline points="32.2091,194.6154 202.2879,24.48 372.3704,194.6154"/>
    <polyline points="372.3704,202.3483 202.2917,32.2129 39.942,194.6154 372.3704,527.1572"/>
    <polyline points="372.3704,519.4243 47.6712,194.6154 202.2917,39.9458 372.3704,210.085"/>
    <polyline points="372.3704,217.818 202.2917,47.6787 55.4041,194.6154 372.3704,511.6913"/>
    <polyline points="372.3704,503.9546 63.1332,194.6154 101.7902,155.9509 372.3704,426.6217"/>
    <polyline points="372.3704,434.3546 101.7902,163.6838 70.8661,194.6154 372.3704,496.2217"/>
    <polyline points="372.3704,488.4888 78.5953,194.6154 94.0611,179.1496 372.3704,457.5534"/>
    <line x1="372.3704" x2="101.7902" y1="449.8205" y2="179.1496"/>
    <polyline points="94.0573,179.1496 101.7902,171.4167 372.3704,442.0876"/>
    <line x1="372.3704" x2="109.5194" y1="418.8888" y2="155.9509"/>
    <polyline points="101.7902,155.9471 109.5231,148.2142 372.3704,411.1559"/>
    <line x1="372.3704" x2="117.2485" y1="403.4192" y2="148.2142"/>
    <polyline points="109.5194,148.2142 117.2523,140.4813 372.3704,395.6863"/>
    <polyline points="372.3704,387.9534 124.9814,140.4813 132.7143,132.7483 372.3704,372.4876"/>
    <polyline points="372.3704,364.7546 140.4435,132.7483 148.1764,125.0154 372.3704,349.285"/>
    <line x1="372.3704" x2="148.1726" y1="357.018" y2="132.7483"/>
    <polyline points="148.1726,125.0154 210.0208,63.1483 372.3704,225.5509"/>
    <line x1="372.3704" x2="217.7499" y1="233.2838" y2="78.6142"/>
    <polyline points="210.0208,78.6142 163.6346,125.0154 372.3704,333.8192"/>
    <polyline points="372.3704,341.5521 155.9055,125.0154 210.0208,70.8813 217.7537,78.6142 171.3676,125.0154"/>
    <polyline points="171.3676,132.7483 217.7537,86.3471 372.3704,241.0167"/>
    <polyline points="372.3704,248.7496 217.7537,94.08 179.0967,132.7483 372.3704,326.0863"/>
    <polyline points="372.3704,318.3534 186.8296,132.7483 194.5625,125.0154 372.3704,302.8838"/>
    <polyline points="372.3704,295.1509 202.2879,125.0154 210.0208,117.2825 372.3704,279.685"/>
    <polyline points="372.3704,271.9521 210.0208,109.5496 194.5587,125.0154"/>
    <line x1="194.5587" x2="372.3704" y1="132.7483" y2="310.6205"/>
    <line x1="372.3704" x2="210.0208" y1="287.418" y2="125.0154"/>
    <polyline points="210.0208,109.5496 217.7537,101.8167 372.3704,256.4825"/>
    <line x1="372.3704" x2="217.7499" y1="264.2192" y2="109.5496"/>
    <line x1="210.0208" x2="132.7106" y1="55.4154" y2="132.7483"/>
    <line x1="132.7106" x2="372.3704" y1="140.4813" y2="380.2205"/>
    <polyline points="372.3704,465.2901 94.0611,186.8825 86.3282,194.6154 372.3704,480.7559"/>
    <line x1="372.3704" x2="94.0573" y1="473.023" y2="194.6154"/>
    <line x1="117.2485" x2="202.2917" y1="140.4813" y2="55.4154"/>
    <line x1="210.0208" x2="372.3704" y1="24.48" y2="186.8825"/>
    <line x1="372.3704" x2="217.7499" y1="179.1496" y2="24.48"/>
    <line x1="225.4828" x2="372.3704" y1="24.48" y2="171.4167"/>
    <line x1="372.3704" x2="233.212" y1="163.6838" y2="24.48"/>
    <line x1="240.9449" x2="372.3704" y1="24.48" y2="155.9471"/>
    <line x1="372.3704" x2="248.674" y1="148.2142" y2="24.48"/>
    <line x1="256.4069" x2="372.3704" y1="24.48" y2="140.4813"/>
    <line x1="372.3704" x2="264.1361" y1="132.7483" y2="24.48"/>
    <line x1="271.869" x2="372.3704" y1="24.48" y2="125.0154"/>
    <line x1="372.3704" x2="279.5981" y1="117.2825" y2="24.48"/>
    <line x1="287.3272" x2="372.3704" y1="24.48" y2="109.5496"/>
    <line x1="372.3704" x2="295.0602" y1="101.8129" y2="24.48"/>
    <line x1="302.7893" x2="372.3704" y1="24.48" y2="94.08"/>
    <line x1="372.3704" x2="310.5222" y1="86.3471" y2="24.48"/>
    <line x1="318.2513" x2="372.3704" y1="24.48" y2="78.6142"/>
    <line x1="372.3704" x2="325.9843" y1="70.8813" y2="24.48"/>
    <line x1="333.7134" x2="372.3704" y1="24.48" y2="63.1483"/>
    <line x1="372.3704" x2="341.4463" y1="55.4117" y2="24.48"/>
    <line x1="349.1754" x2="372.3704" y1="24.48" y2="47.6787"/>
    <line x1="372.3704" x2="356.9083" y1="39.9458" y2="24.48"/>
    <line x1="364.6375" x2="372.3704" y1="24.48" y2="32.2129"/>
    <line x1="194.5625" x2="32.2091" y1="24.48" y2="186.8825"/>
    <line x1="24.48" x2="356.9083" y1="202.3521" y2="534.8901"/>
    <line x1="349.1792" x2="24.48" y1="534.8901" y2="210.085"/>
    <line x1="24.48" x2="341.4463" y1="217.818" y2="534.8901"/>
    <line x1="333.7172" x2="24.48" y1="534.8901" y2="225.5509"/>
    <line x1="24.48" x2="325.9843" y1="233.2838" y2="534.8901"/>
    <polyline points="318.2551,534.8901 171.3676,387.9534 124.9814,434.3546 225.4828,534.8901"/>
    <polyline points="217.7537,534.8901 109.5194,426.6217 155.9055,380.2205 24.48,248.7496"/>
    <polyline points="24.48,241.0167 163.6384,380.2205 117.2485,426.6217"/>
    <line x1="117.2485" x2="163.6384" y1="434.3546" y2="387.9534"/>
    <line x1="171.3676" x2="163.6346" y1="387.9534" y2="380.2205"/>
    <line x1="171.3676" x2="132.7106" y1="403.423" y2="442.0876"/>
    <polyline points="132.7106,434.3546 171.3676,395.6863 179.1005,403.4192 140.4435,442.0876 233.2157,534.8901"/>
    <polyline points="240.9449,534.8901 155.9055,449.8205 186.8296,418.8888"/>
    <line x1="179.1005" x2="148.1726" y1="418.8888" y2="449.8205"/>
    <polyline points="148.1726,442.0876 179.1005,411.1559 194.5625,426.6217 171.3676,449.8205"/>
    <polyline points="179.0967,449.8205 186.8296,442.0876 279.6019,534.8901"/>
    <line x1="287.331" x2="194.5587" y1="534.8901" y2="442.0876"/>
    <polyline points="186.8296,442.0876 194.5625,434.3546 295.0602,534.8901"/>
    <line x1="302.7931" x2="194.5587" y1="534.8901" y2="426.6217"/>
    <polyline points="186.8296,426.6217 163.6346,449.8205 171.3676,457.5534 179.1005,449.8205 264.1398,534.8901"/>
    <line x1="271.869" x2="186.8296" y1="534.8901" y2="449.8205"/>
    <line x1="179.0967" x2="256.4069" y1="457.5572" y2="534.8901"/>
    <line x1="248.6778" x2="171.3676" y1="534.8901" y2="457.5572"/>
    <line x1="179.0967" x2="310.5222" y1="403.423" y2="534.8901"/>
    <polyline points="210.0208,534.8901 101.7902,426.6217 148.1764,380.2205 24.48,256.4863"/>
    <polyline points="24.48,264.2192 140.4435,380.2205 94.0573,426.6217 202.2917,534.8901"/>
    <polyline points="194.5625,534.8901 86.3282,426.6217 132.7143,380.2205 24.48,271.9521"/>
    <polyline points="24.48,279.685 124.9814,380.2205 86.3282,418.8888"/>
    <line x1="78.5991" x2="24.48" y1="418.8888" y2="364.7546"/>
    <line x1="24.48" x2="186.8296" y1="372.4876" y2="534.8901"/>
    <line x1="179.1005" x2="24.48" y1="534.8901" y2="380.2205"/>
    <line x1="24.48" x2="171.3676" y1="387.9534" y2="534.8901"/>
    <line x1="163.6384" x2="24.48" y1="534.8901" y2="395.6863"/>
    <line x1="24.48" x2="155.9055" y1="403.423" y2="534.8901"/>
    <line x1="148.1764" x2="24.48" y1="534.8901" y2="411.1559"/>
    <line x1="24.48" x2="140.4435" y1="418.8888" y2="534.8901"/>
    <line x1="132.7143" x2="24.48" y1="534.8901" y2="426.6217"/>
    <line x1="24.48" x2="124.9814" y1="434.3546" y2="534.8901"/>
    <line x1="117.2523" x2="24.48" y1="534.8901" y2="442.0876"/>
    <line x1="24.48" x2="109.5231" y1="449.8205" y2="534.8901"/>
    <line x1="101.7902" x2="24.48" y1="534.8901" y2="457.5572"/>
    <line x1="24.48" x2="94.0611" y1="465.2901" y2="534.8901"/>
    <line x1="86.3282" x2="24.48" y1="534.8901" y2="473.023"/>
    <line x1="24.48" x2="78.5991" y1="480.7559" y2="534.8901"/>
    <line x1="70.8661" x2="24.48" y1="534.8901" y2="488.4888"/>
    <line x1="24.48" x2="63.137" y1="496.2217" y2="534.8901"/>
    <line x1="55.4041" x2="24.48" y1="534.8901" y2="503.9584"/>
    <line x1="24.48" x2="47.675" y1="511.6913" y2="534.8901"/>
    <line x1="39.942" x2="24.48" y1="534.8901" y2="519.4243"/>
    <line x1="24.48" x2="32.2129" y1="527.1572" y2="534.8901"/>
    <polygon points="24.5669,534.8031 372.2835,534.8031 372.2835,24.5669 24.5669,24.5669"/>
    <polyline points="86.3282,426.6217 78.5953,418.8888 109.5231,387.9534 24.48,302.8876"/>
    <polyline points="24.48,310.6205 101.7902,387.9534 78.5953,411.1559 24.48,357.0217"/>
    <polyline points="24.48,349.285 78.5953,403.4192 86.3282,395.6863 24.48,333.8192"/>
    <line x1="24.48" x2="78.5991" y1="341.5521" y2="395.6863"/>
    <line x1="94.0611" x2="24.48" y1="395.6863" y2="326.0863"/>
    <line x1="24.48" x2="94.0611" y1="318.3534" y2="387.9534"/>
    <line x1="117.2523" x2="24.48" y1="387.9534" y2="295.1509"/>
    <line x1="24.48" x2="117.2523" y1="287.418" y2="380.2205"/>
  </g>
</svg>
