<?xml version="1.0" encoding="utf-8" ?>
<svg xmlns="http://www.w3.org/2000/svg" xmlns:cc="http://creativecommons.org/ns" xmlns:dc="http://purl.org/dc/elements/1.1/" xmlns:ev="http://www.w3.org/2001/xml-events" xmlns:inkscape="http://www.inkscape.org/namespaces/inkscape" xmlns:rdf="http://www.w3.org/1999/02/22-rdf-syntax-ns" xmlns:sodipodi="http://sodipodi.sourceforge.net/DTD/sodipodi-0.dtd" xmlns:xlink="http://www.w3.org/1999/xlink" baseProfile="tiny" height="14.80000799cm" version="1.2" viewBox="0 0 396.850608 559.3703808000001" width="10.50000567cm">
  <metadata>
    <rdf:RDF>
      <cc:Work>
        <dc:format>image/svg+xml</dc:format>
        <dc:source>vpype read maze_liked_4.svg linemerge linesimplify linesort write maze_liked_4_large_opt.svg
</dc:source>
        <dc:date>2024-03-17T09:39:50.961857</dc:date>
      </cc:Work>
    </rdf:RDF>
  </metadata>
  <defs/>
  <g fill="none" id="layer1" inkscape:groupmode="layer" inkscape:label="1" stroke="#0000ff" stroke-width="1.0" style="display:inline">
    <line x1="35.1496" x2="25.3228" y1="25.3228" y2="35.1496"/>
    <line x1="25.3228" x2="45.0431" y1="44.9319" y2="25.3228"/>
    <line x1="54.9365" x2="25.3228" y1="25.3228" y2="54.7142"/>
    <line x1="25.3228" x2="64.83" y1="64.4965" y2="25.3228"/>
    <line x1="74.7235" x2="25.3228" y1="25.3228" y2="74.2788"/>
    <line x1="25.3228" x2="84.617" y1="84.0611" y2="25.3228"/>
    <line x1="94.5105" x2="25.3228" y1="25.3228" y2="93.8435"/>
    <line x1="25.3228" x2="104.404" y1="103.6259" y2="25.3228"/>
    <line x1="114.2975" x2="25.3228" y1="25.3228" y2="113.4082"/>
    <line x1="25.3228" x2="124.1909" y1="123.1905" y2="25.3228"/>
    <line x1="134.0844" x2="25.3228" y1="25.3228" y2="132.9728"/>
    <line x1="25.3228" x2="143.9779" y1="142.7551" y2="25.3228"/>
    <line x1="153.8713" x2="25.3228" y1="25.3228" y2="152.5374"/>
    <line x1="25.3228" x2="163.7648" y1="162.3197" y2="25.3228"/>
    <line x1="173.6583" x2="25.3228" y1="25.3228" y2="172.102"/>
    <line x1="25.3228" x2="183.5517" y1="181.8843" y2="25.3228"/>
    <line x1="193.4452" x2="25.3228" y1="25.3228" y2="191.6666"/>
    <line x1="25.3228" x2="203.3387" y1="201.4489" y2="25.3228"/>
    <line x1="213.2322" x2="25.3228" y1="25.3228" y2="211.2312"/>
    <line x1="25.3228" x2="223.1256" y1="221.0135" y2="25.3228"/>
    <line x1="233.0191" x2="25.3228" y1="25.3228" y2="230.7958"/>
    <line x1="25.3228" x2="242.9126" y1="240.5781" y2="25.3228"/>
    <line x1="252.806" x2="25.3228" y1="25.3228" y2="250.3605"/>
    <line x1="25.3228" x2="262.6995" y1="260.1428" y2="25.3228"/>
    <line x1="272.593" x2="25.3228" y1="25.3228" y2="269.9251"/>
    <line x1="25.3228" x2="282.4865" y1="279.7075" y2="25.3228"/>
    <line x1="292.38" x2="25.3228" y1="25.3228" y2="289.4898"/>
    <line x1="25.3228" x2="302.2735" y1="299.2721" y2="25.3228"/>
    <line x1="312.1669" x2="25.3228" y1="25.3228" y2="309.0544"/>
    <line x1="25.3228" x2="322.0604" y1="318.8367" y2="25.3228"/>
    <line x1="331.9539" x2="25.3228" y1="25.3228" y2="328.619"/>
    <line x1="25.3228" x2="341.8474" y1="338.4013" y2="25.3228"/>
    <line x1="351.7408" x2="25.3228" y1="25.3228" y2="348.1836"/>
    <line x1="25.3228" x2="361.6343" y1="357.9659" y2="25.3228"/>
    <line x1="371.5278" x2="25.3228" y1="25.3228" y2="367.7482"/>
    <line x1="25.3228" x2="371.5278" y1="377.5305" y2="35.1051"/>
    <line x1="371.5278" x2="114.3642" y1="44.8874" y2="299.2721"/>
    <polyline points="114.3642,309.0099 153.8713,348.1836 25.3228,475.3537"/>
    <polyline points="25.3228,465.5714 143.9779,348.1392 104.404,309.0099 25.3228,387.3128"/>
    <polyline points="25.3228,397.0952 104.404,318.7922 124.1909,338.3568 25.3228,436.2244"/>
    <polyline points="25.3228,426.4421 114.2975,338.3568 104.404,328.5745 25.3228,406.8775"/>
    <line x1="25.3228" x2="104.404" y1="416.6598" y2="338.3568"/>
    <polyline points="124.2576,338.3568 134.0844,348.1836 25.3228,455.789"/>
    <line x1="25.3228" x2="124.1909" y1="446.0067" y2="348.1392"/>
    <polyline points="153.938,348.1392 163.7648,357.9659 25.3228,494.9183"/>
    <line x1="25.3228" x2="163.7648" y1="504.7006" y2="367.7038"/>
    <polyline points="163.8315,357.9215 173.6583,367.7482 163.8315,377.5305"/>
    <polyline points="173.725,377.4861 223.1256,426.4421 233.0191,416.6598 114.3642,299.2276 104.4707,309.0544"/>
    <polyline points="134.1511,299.2276 262.6995,426.3976 153.938,534.0475"/>
    <polyline points="144.0446,534.0475 252.806,426.4421 242.9793,416.6153"/>
    <line x1="242.9126" x2="134.1511" y1="426.3976" y2="534.0475"/>
    <polyline points="124.2576,534.0475 242.9126,416.6598 124.2576,299.2721 134.0844,289.4453 262.6995,416.6598 371.5278,309.0099"/>
    <line x1="371.5278" x2="262.7662" y1="318.7922" y2="426.4421"/>
    <line x1="262.7662" x2="371.5278" y1="397.0952" y2="289.4453"/>
    <polyline points="371.5278,299.2276 262.7662,406.8775 252.8727,397.0507"/>
    <line x1="252.8727" x2="371.5278" y1="377.5305" y2="260.0983"/>
    <polyline points="371.5278,250.316 242.9793,377.5305 153.938,289.4453"/>
    <polyline points="153.938,279.7075 163.8315,269.8806 242.9126,348.1836"/>
    <line x1="252.8727" x2="371.5278" y1="348.1836" y2="230.7514"/>
    <line x1="371.5278" x2="262.7662" y1="220.9691" y2="328.619"/>
    <line x1="252.806" x2="183.6184" y1="328.619" y2="260.0983"/>
    <polyline points="183.5517,250.316 173.725,260.1428 252.8727,338.4013 262.6995,328.5745 183.6184,250.316 193.5119,240.5337 242.9793,289.4898 371.5278,162.2752"/>
    <polyline points="371.5278,152.4929 242.9793,279.7075 233.0858,269.8806"/>
    <line x1="242.9793" x2="371.5278" y1="269.9251" y2="142.7106"/>
    <polyline points="371.5278,132.9283 233.0858,269.9251 203.4054,240.5781 371.5278,74.2344"/>
    <line x1="371.5278" x2="193.5119" y1="64.4521" y2="240.5781"/>
    <polyline points="193.5119,250.316 262.7662,318.8367 371.5278,211.1868"/>
    <polyline points="371.5278,201.4045 262.7662,309.0544 252.8727,299.2276"/>
    <line x1="252.8727" x2="371.5278" y1="289.4898" y2="172.0575"/>
    <polyline points="371.5278,181.8398 252.8727,299.2721 242.9793,289.4453"/>
    <line x1="262.7662" x2="371.5278" y1="299.2721" y2="191.6221"/>
    <polyline points="371.5278,240.5337 242.9793,367.7482 153.938,279.663 144.0446,289.4898 252.8727,397.0952 371.5278,279.663"/>
    <polyline points="371.5278,269.8806 252.8727,387.3128 242.9793,377.4861"/>
    <line x1="223.1256" x2="173.725" y1="416.6598" y2="367.7038"/>
    <line x1="153.8713" x2="25.3228" y1="357.9215" y2="485.136"/>
    <polyline points="25.3228,514.4829 163.7648,377.4861 213.2322,426.4421 203.3387,436.2244 163.8315,397.0507"/>
    <polyline points="153.938,397.0952 163.8315,387.2684 203.3387,426.4421"/>
    <line x1="203.3387" x2="104.4707" y1="436.1799" y2="534.0475"/>
    <polyline points="94.5772,534.0475 193.4452,436.2244 153.938,397.0507 25.3228,524.2652"/>
    <polyline points="25.3228,534.0475 153.938,406.833 163.7648,416.6598 45.1098,534.0475"/>
    <line x1="35.2163" x2="153.8713" y1="534.0475" y2="416.6153"/>
    <polyline points="163.8315,416.6153 183.5517,436.2244 84.6836,534.0475"/>
    <polyline points="74.7902,534.0475 173.6583,436.2244 163.8315,426.3976 55.0032,534.0475"/>
    <line x1="64.8967" x2="163.7648" y1="534.0475" y2="436.1799"/>
    <line x1="223.1256" x2="114.3642" y1="426.3976" y2="534.0475"/>
    <line x1="163.8315" x2="371.5278" y1="534.0475" y2="328.5745"/>
    <line x1="371.5278" x2="173.725" y1="338.3568" y2="534.0475"/>
    <line x1="183.6184" x2="371.5278" y1="534.0475" y2="348.1392"/>
    <line x1="371.5278" x2="193.5119" y1="357.9215" y2="534.0475"/>
    <line x1="203.4054" x2="371.5278" y1="534.0475" y2="367.7038"/>
    <line x1="371.5278" x2="213.2988" y1="377.4861" y2="534.0475"/>
    <line x1="223.1923" x2="371.5278" y1="534.0475" y2="387.2684"/>
    <line x1="371.5278" x2="233.0858" y1="397.0507" y2="534.0475"/>
    <line x1="242.9793" x2="371.5278" y1="534.0475" y2="406.833"/>
    <line x1="371.5278" x2="252.8727" y1="416.6153" y2="534.0475"/>
    <line x1="262.7662" x2="371.5278" y1="534.0475" y2="426.3976"/>
    <line x1="371.5278" x2="272.6597" y1="436.1799" y2="534.0475"/>
    <line x1="282.5532" x2="371.5278" y1="534.0475" y2="445.9622"/>
    <line x1="371.5278" x2="292.4467" y1="455.7445" y2="534.0475"/>
    <line x1="302.3402" x2="371.5278" y1="534.0475" y2="465.5269"/>
    <line x1="371.5278" x2="312.2336" y1="475.3092" y2="534.0475"/>
    <line x1="322.1271" x2="371.5278" y1="534.0475" y2="485.0915"/>
    <line x1="371.5278" x2="332.0206" y1="494.8739" y2="534.0475"/>
    <line x1="341.914" x2="371.5278" y1="534.0475" y2="504.6562"/>
    <line x1="371.5278" x2="351.8075" y1="514.4385" y2="534.0475"/>
    <line x1="361.701" x2="371.5278" y1="534.0475" y2="524.2208"/>
    <polygon points="371.5278,534.0475 371.5278,25.3228 25.3228,25.3228 25.3228,534.0475"/>
    <line x1="233.0858" x2="371.5278" y1="250.3605" y2="113.3637"/>
    <polyline points="371.5278,103.5814 223.1923,250.3605 213.2988,240.5781 371.5278,84.0167"/>
    <line x1="371.5278" x2="223.1923" y1="93.7991" y2="240.5781"/>
    <polyline points="223.1923,250.316 233.0858,260.1428 371.5278,123.146"/>
    <line x1="371.5278" x2="163.8315" y1="54.6698" y2="260.1428"/>
    <polyline points="163.8315,279.663 242.9126,357.9659 252.806,348.1836 163.8315,260.0983 134.1511,289.4898"/>
  </g>
</svg>
