<?xml version="1.0" encoding="utf-8" ?>
<svg xmlns="http://www.w3.org/2000/svg" xmlns:cc="http://creativecommons.org/ns" xmlns:dc="http://purl.org/dc/elements/1.1/" xmlns:ev="http://www.w3.org/2001/xml-events" xmlns:inkscape="http://www.inkscape.org/namespaces/inkscape" xmlns:rdf="http://www.w3.org/1999/02/22-rdf-syntax-ns" xmlns:sodipodi="http://sodipodi.sourceforge.net/DTD/sodipodi-0.dtd" xmlns:xlink="http://www.w3.org/1999/xlink" baseProfile="tiny" height="14.80000799cm" version="1.2" viewBox="0 0 396.850608 559.3703808000001" width="10.50000567cm">
  <metadata>
    <rdf:RDF>
      <cc:Work>
        <dc:format>image/svg+xml</dc:format>
        <dc:source>vpype read maze_liked_10.svg linemerge linesimplify linesort write maze_liked_10_large_opt.svg
</dc:source>
        <dc:date>2024-03-25T19:07:12.405434</dc:date>
      </cc:Work>
    </rdf:RDF>
  </metadata>
  <defs/>
  <g fill="none" id="layer1" inkscape:groupmode="layer" inkscape:label="1" stroke="#0000ff" stroke-width="1.0" style="display:inline">
    <line x1="32.2129" x2="24.48" y1="24.48" y2="32.2129"/>
    <line x1="24.48" x2="39.942" y1="39.9458" y2="24.48"/>
    <line x1="47.675" x2="24.48" y1="24.48" y2="47.6787"/>
    <line x1="24.48" x2="55.4041" y1="55.4117" y2="24.48"/>
    <line x1="63.137" x2="24.48" y1="24.48" y2="63.1483"/>
    <line x1="24.48" x2="70.8661" y1="70.8813" y2="24.48"/>
    <line x1="78.5991" x2="24.48" y1="24.48" y2="78.6142"/>
    <line x1="24.48" x2="86.3282" y1="86.3471" y2="24.48"/>
    <line x1="94.0612" x2="24.48" y1="24.48" y2="94.0801"/>
    <line x1="24.48" x2="101.7903" y1="101.813" y2="24.48"/>
    <line x1="109.5232" x2="24.48" y1="24.48" y2="109.5497"/>
    <line x1="24.48" x2="117.2524" y1="117.2826" y2="24.48"/>
    <line x1="124.9815" x2="24.48" y1="24.48" y2="125.0155"/>
    <line x1="24.48" x2="132.7144" y1="132.7484" y2="24.48"/>
    <line x1="140.4436" x2="24.48" y1="24.48" y2="140.4814"/>
    <line x1="24.48" x2="148.1765" y1="148.2143" y2="24.48"/>
    <line x1="155.9056" x2="24.48" y1="24.48" y2="155.9472"/>
    <line x1="24.48" x2="163.6385" y1="163.6839" y2="24.48"/>
    <line x1="171.3677" x2="24.48" y1="24.48" y2="171.4168"/>
    <line x1="24.48" x2="179.1006" y1="179.1497" y2="24.48"/>
    <polyline points="186.8297,24.48 24.48,186.8826 372.3706,534.8904"/>
    <line x1="364.6415" x2="24.48" y1="534.8904" y2="194.6155"/>
    <polyline points="32.2091,194.6155 202.288,24.48 372.3706,194.6155"/>
    <polyline points="372.3706,202.3484 202.2918,32.2129 39.942,194.6155 372.3706,527.1575"/>
    <polyline points="372.3706,519.4246 47.6712,194.6155 202.2918,39.9458 372.3706,210.0851"/>
    <polyline points="372.3706,217.8181 202.2918,47.6787 55.4041,194.6155 372.3706,511.6916"/>
    <polyline points="372.3706,503.9549 63.1332,194.6155 101.7903,155.951 372.3706,426.6219"/>
    <line x1="372.3706" x2="109.5195" y1="418.889" y2="155.951"/>
    <polyline points="101.7903,155.9472 109.5232,148.2143 372.3706,411.1561"/>
    <line x1="372.3706" x2="117.2486" y1="403.4194" y2="148.2143"/>
    <polyline points="109.5195,148.2143 117.2524,140.4814 372.3706,395.6865"/>
    <polyline points="372.3706,387.9536 124.9815,140.4814 132.7144,132.7484 372.3706,372.4878"/>
    <line x1="372.3706" x2="132.7107" y1="380.2207" y2="140.4814"/>
    <line x1="132.7107" x2="210.0209" y1="132.7484" y2="55.4154"/>
    <line x1="202.2918" x2="117.2486" y1="55.4154" y2="140.4814"/>
    <line x1="148.1727" x2="372.3706" y1="132.7484" y2="357.0182"/>
    <polyline points="372.3706,349.2852 148.1765,125.0155 140.4436,132.7484 372.3706,364.7548"/>
    <polyline points="372.3706,341.5523 155.9056,125.0155 210.0209,70.8813 217.7538,78.6142 171.3677,125.0155"/>
    <polyline points="171.3677,132.7484 217.7538,86.3471 372.3706,241.0168"/>
    <polyline points="372.3706,248.7497 217.7538,94.0801 179.0968,132.7484 372.3706,326.0865"/>
    <polyline points="372.3706,318.3536 186.8297,132.7484 194.5626,125.0155 372.3706,302.884"/>
    <polyline points="372.3706,295.1511 202.288,125.0155 210.0209,117.2826 372.3706,279.6852"/>
    <polyline points="372.3706,271.9522 210.0209,109.5497 194.5588,125.0155"/>
    <line x1="194.5588" x2="372.3706" y1="132.7484" y2="310.6207"/>
    <polyline points="372.3706,333.8194 163.6347,125.0155 210.0209,78.6142"/>
    <line x1="217.75" x2="372.3706" y1="78.6142" y2="233.2839"/>
    <polyline points="372.3706,225.551 210.0209,63.1483 148.1727,125.0155"/>
    <line x1="210.0209" x2="372.3706" y1="125.0155" y2="287.4182"/>
    <line x1="372.3706" x2="217.75" y1="264.2193" y2="109.5497"/>
    <polyline points="210.0209,109.5497 217.7538,101.8168 372.3706,256.4826"/>
    <line x1="372.3706" x2="210.0209" y1="186.8826" y2="24.48"/>
    <line x1="217.75" x2="372.3706" y1="24.48" y2="179.1497"/>
    <line x1="372.3706" x2="225.4829" y1="171.4168" y2="24.48"/>
    <line x1="233.2121" x2="372.3706" y1="24.48" y2="163.6839"/>
    <line x1="372.3706" x2="240.945" y1="155.9472" y2="24.48"/>
    <line x1="248.6741" x2="372.3706" y1="24.48" y2="148.2143"/>
    <line x1="372.3706" x2="256.407" y1="140.4814" y2="24.48"/>
    <line x1="264.1362" x2="372.3706" y1="24.48" y2="132.7484"/>
    <line x1="372.3706" x2="271.8691" y1="125.0155" y2="24.48"/>
    <line x1="279.5983" x2="372.3706" y1="24.48" y2="117.2826"/>
    <line x1="372.3706" x2="287.3274" y1="109.5497" y2="24.48"/>
    <line x1="295.0604" x2="372.3706" y1="24.48" y2="101.813"/>
    <line x1="372.3706" x2="302.7895" y1="94.0801" y2="24.48"/>
    <line x1="310.5224" x2="372.3706" y1="24.48" y2="86.3471"/>
    <line x1="372.3706" x2="318.2515" y1="78.6142" y2="24.48"/>
    <line x1="325.9845" x2="372.3706" y1="24.48" y2="70.8813"/>
    <line x1="372.3706" x2="333.7136" y1="63.1483" y2="24.48"/>
    <line x1="341.4465" x2="372.3706" y1="24.48" y2="55.4117"/>
    <line x1="372.3706" x2="349.1756" y1="47.6787" y2="24.48"/>
    <line x1="356.9085" x2="372.3706" y1="24.48" y2="39.9458"/>
    <line x1="372.3706" x2="364.6377" y1="32.2129" y2="24.48"/>
    <line x1="194.5626" x2="32.2091" y1="24.48" y2="186.8826"/>
    <line x1="24.48" x2="356.9085" y1="202.3522" y2="534.8904"/>
    <line x1="349.1794" x2="24.48" y1="534.8904" y2="210.0851"/>
    <line x1="24.48" x2="341.4465" y1="217.8181" y2="534.8904"/>
    <line x1="333.7174" x2="24.48" y1="534.8904" y2="225.551"/>
    <line x1="24.48" x2="325.9845" y1="233.2839" y2="534.8904"/>
    <polyline points="318.2553,534.8904 171.3677,387.9536 124.9815,434.3548 225.4829,534.8904"/>
    <polyline points="217.7538,534.8904 109.5195,426.6219 155.9056,380.2207 24.48,248.7497"/>
    <polyline points="24.48,241.0168 163.6385,380.2207 117.2486,426.6219"/>
    <line x1="117.2486" x2="163.6385" y1="434.3548" y2="387.9536"/>
    <line x1="171.3677" x2="163.6347" y1="387.9536" y2="380.2207"/>
    <line x1="171.3677" x2="132.7107" y1="403.4232" y2="442.0878"/>
    <polyline points="132.7107,434.3548 171.3677,395.6865 179.1006,403.4194 140.4436,442.0878 233.2158,534.8904"/>
    <polyline points="240.945,534.8904 155.9056,449.8207 186.8297,418.889"/>
    <line x1="179.1006" x2="148.1727" y1="418.889" y2="449.8207"/>
    <polyline points="148.1727,442.0878 179.1006,411.1561 194.5626,426.6219 171.3677,449.8207"/>
    <polyline points="179.0968,449.8207 186.8297,442.0878 279.6021,534.8904"/>
    <line x1="287.3312" x2="194.5588" y1="534.8904" y2="442.0878"/>
    <polyline points="186.8297,442.0878 194.5626,434.3548 295.0604,534.8904"/>
    <line x1="302.7933" x2="194.5588" y1="534.8904" y2="426.6219"/>
    <polyline points="186.8297,426.6219 163.6347,449.8207 171.3677,457.5536 179.1006,449.8207 264.1399,534.8904"/>
    <line x1="271.8691" x2="186.8297" y1="534.8904" y2="449.8207"/>
    <line x1="179.0968" x2="256.407" y1="457.5574" y2="534.8904"/>
    <line x1="248.6779" x2="171.3677" y1="534.8904" y2="457.5574"/>
    <line x1="179.0968" x2="310.5224" y1="403.4232" y2="534.8904"/>
    <polyline points="372.3706,496.222 70.8661,194.6155 101.7903,163.6839 372.3706,434.3548"/>
    <polyline points="372.3706,442.0878 101.7903,171.4168 94.0574,179.1497"/>
    <line x1="101.7903" x2="372.3706" y1="179.1497" y2="449.8207"/>
    <polyline points="372.3706,457.5536 94.0612,179.1497 78.5953,194.6155 372.3706,488.4891"/>
    <polyline points="372.3706,480.7562 86.3282,194.6155 94.0612,186.8826 372.3706,465.2904"/>
    <line x1="372.3706" x2="94.0574" y1="473.0233" y2="194.6155"/>
    <polyline points="24.48,256.4864 148.1765,380.2207 101.7903,426.6219 210.0209,534.8904"/>
    <polyline points="202.2918,534.8904 94.0574,426.6219 140.4436,380.2207 24.48,264.2193"/>
    <polyline points="24.48,271.9522 132.7144,380.2207 86.3282,426.6219 194.5626,534.8904"/>
    <line x1="186.8297" x2="24.48" y1="534.8904" y2="372.4878"/>
    <line x1="24.48" x2="179.1006" y1="380.2207" y2="534.8904"/>
    <line x1="171.3677" x2="24.48" y1="534.8904" y2="387.9536"/>
    <line x1="24.48" x2="163.6385" y1="395.6865" y2="534.8904"/>
    <line x1="155.9056" x2="24.48" y1="534.8904" y2="403.4232"/>
    <line x1="24.48" x2="148.1765" y1="411.1561" y2="534.8904"/>
    <line x1="140.4436" x2="24.48" y1="534.8904" y2="418.889"/>
    <line x1="24.48" x2="132.7144" y1="426.6219" y2="534.8904"/>
    <line x1="124.9815" x2="24.48" y1="534.8904" y2="434.3548"/>
    <line x1="24.48" x2="117.2524" y1="442.0878" y2="534.8904"/>
    <line x1="109.5232" x2="24.48" y1="534.8904" y2="449.8207"/>
    <line x1="24.48" x2="101.7903" y1="457.5574" y2="534.8904"/>
    <line x1="94.0612" x2="24.48" y1="534.8904" y2="465.2904"/>
    <line x1="24.48" x2="86.3282" y1="473.0233" y2="534.8904"/>
    <line x1="78.5991" x2="24.48" y1="534.8904" y2="480.7562"/>
    <line x1="24.48" x2="70.8661" y1="488.4891" y2="534.8904"/>
    <line x1="63.137" x2="24.48" y1="534.8904" y2="496.222"/>
    <line x1="24.48" x2="55.4041" y1="503.9587" y2="534.8904"/>
    <line x1="47.675" x2="24.48" y1="534.8904" y2="511.6916"/>
    <line x1="24.48" x2="39.942" y1="519.4246" y2="534.8904"/>
    <line x1="32.2129" x2="24.48" y1="534.8904" y2="527.1575"/>
    <polygon points="24.5669,534.8034 372.2837,534.8034 372.2837,24.5669 24.5669,24.5669"/>
    <polyline points="86.3282,426.6219 78.5953,418.889 109.5232,387.9536 24.48,302.8878"/>
    <polyline points="24.48,310.6207 101.7903,387.9536 78.5953,411.1561 24.48,357.0219"/>
    <line x1="24.48" x2="78.5991" y1="364.7548" y2="418.889"/>
    <polyline points="86.3282,418.889 124.9815,380.2207 24.48,279.6852"/>
    <line x1="24.48" x2="117.2524" y1="287.4182" y2="380.2207"/>
    <line x1="117.2524" x2="24.48" y1="387.9536" y2="295.1511"/>
    <line x1="24.48" x2="94.0612" y1="318.3536" y2="387.9536"/>
    <line x1="94.0612" x2="24.48" y1="395.6865" y2="326.0865"/>
    <polyline points="24.48,333.8194 86.3282,395.6865 78.5953,403.4194 24.48,349.2852"/>
    <line x1="24.48" x2="78.5991" y1="341.5523" y2="395.6865"/>
  </g>
</svg>
