<?xml version="1.0" encoding="utf-8" ?>
<svg xmlns="http://www.w3.org/2000/svg" xmlns:cc="http://creativecommons.org/ns" xmlns:dc="http://purl.org/dc/elements/1.1/" xmlns:ev="http://www.w3.org/2001/xml-events" xmlns:inkscape="http://www.inkscape.org/namespaces/inkscape" xmlns:rdf="http://www.w3.org/1999/02/22-rdf-syntax-ns" xmlns:sodipodi="http://sodipodi.sourceforge.net/DTD/sodipodi-0.dtd" xmlns:xlink="http://www.w3.org/1999/xlink" baseProfile="tiny" height="14.8cm" version="1.2" viewBox="0 0 396.85039370078744 559.3700787401575" width="10.5cm">
  <metadata>
    <rdf:RDF>
      <cc:Work>
        <dc:format>image/svg+xml</dc:format>
        <dc:source>Vsketch with params {'__seed__': 536587736, 'WIDTH': 10.4, 'HEIGHT': 14.7, 'TIMESTEP': 0.005, 'SIZE': 0.11, 'NOISE_RESOLUTION': 0.1, 'STEP_MULTIPLIER': 9, 'MARGIN': 1.5}</dc:source>
        <dc:date>2024-03-16T19:59:45.795716</dc:date>
      </cc:Work>
    </rdf:RDF>
  </metadata>
  <defs/>
  <g fill="none" id="layer1" inkscape:groupmode="layer" inkscape:label="1" stroke="#0000ff" style="display:inline">
    <line x1="32.315" x2="28.1575" y1="28.1575" y2="32.315"/>
    <line x1="28.1575" x2="36.5729" y1="36.579" y2="28.1575"/>
    <line x1="40.8309" x2="28.1575" y1="28.1575" y2="40.8431"/>
    <line x1="28.1575" x2="45.0888" y1="45.1072" y2="28.1575"/>
    <line x1="49.3468" x2="28.1575" y1="28.1575" y2="49.3713"/>
    <line x1="28.1575" x2="53.6047" y1="53.6354" y2="28.1575"/>
    <line x1="57.8627" x2="28.1575" y1="28.1575" y2="57.8995"/>
    <line x1="28.1575" x2="62.1206" y1="62.1635" y2="28.1575"/>
    <line x1="66.3786" x2="28.1575" y1="28.1575" y2="66.4276"/>
    <line x1="28.1575" x2="70.6365" y1="70.6917" y2="28.1575"/>
    <line x1="74.8944" x2="28.1575" y1="28.1575" y2="74.9558"/>
    <line x1="28.1575" x2="79.1524" y1="79.2199" y2="28.1575"/>
    <line x1="83.4103" x2="28.1575" y1="28.1575" y2="83.4839"/>
    <line x1="28.1575" x2="87.6683" y1="87.748" y2="28.1575"/>
    <line x1="91.9262" x2="28.1575" y1="28.1575" y2="92.0121"/>
    <line x1="28.1575" x2="96.1842" y1="96.2762" y2="28.1575"/>
    <line x1="100.4421" x2="28.1575" y1="28.1575" y2="100.5403"/>
    <line x1="28.1575" x2="104.7001" y1="104.8044" y2="28.1575"/>
    <line x1="108.958" x2="28.1575" y1="28.1575" y2="109.0684"/>
    <line x1="28.1575" x2="113.216" y1="113.3325" y2="28.1575"/>
    <line x1="117.4739" x2="28.1575" y1="28.1575" y2="117.5966"/>
    <line x1="28.1575" x2="121.7319" y1="121.8607" y2="28.1575"/>
    <line x1="125.9898" x2="28.1575" y1="28.1575" y2="126.1248"/>
    <line x1="28.1575" x2="130.2478" y1="130.3889" y2="28.1575"/>
    <line x1="134.5057" x2="28.1575" y1="28.1575" y2="134.6529"/>
    <line x1="28.1575" x2="138.7637" y1="138.917" y2="28.1575"/>
    <line x1="143.0216" x2="28.1575" y1="28.1575" y2="143.1811"/>
    <line x1="28.1575" x2="147.2796" y1="147.4452" y2="28.1575"/>
    <line x1="151.5375" x2="28.1575" y1="28.1575" y2="151.7093"/>
    <line x1="28.1575" x2="155.7955" y1="155.9733" y2="28.1575"/>
    <line x1="160.0534" x2="28.1575" y1="28.1575" y2="160.2374"/>
    <line x1="28.1575" x2="164.3114" y1="164.5015" y2="28.1575"/>
    <line x1="168.5693" x2="28.1575" y1="28.1575" y2="168.7656"/>
    <line x1="28.1575" x2="172.8273" y1="173.0297" y2="28.1575"/>
    <line x1="177.0852" x2="28.1575" y1="28.1575" y2="177.2938"/>
    <line x1="28.1575" x2="181.3432" y1="181.5578" y2="28.1575"/>
    <line x1="185.6011" x2="28.1575" y1="28.1575" y2="185.8219"/>
    <line x1="28.1575" x2="189.8591" y1="190.086" y2="28.1575"/>
    <line x1="194.117" x2="28.1575" y1="28.1575" y2="194.3501"/>
    <line x1="28.1575" x2="198.375" y1="198.6142" y2="28.1575"/>
    <line x1="202.6329" x2="28.1575" y1="28.1575" y2="202.8783"/>
    <line x1="28.1575" x2="206.8909" y1="207.1423" y2="28.1575"/>
    <line x1="211.1488" x2="28.1575" y1="28.1575" y2="211.4064"/>
    <line x1="28.1575" x2="215.4068" y1="215.6705" y2="28.1575"/>
    <line x1="219.6647" x2="28.1575" y1="28.1575" y2="219.9346"/>
    <line x1="28.1575" x2="223.9227" y1="224.1987" y2="28.1575"/>
    <line x1="228.1806" x2="28.1575" y1="28.1575" y2="228.4627"/>
    <line x1="28.1575" x2="232.4386" y1="232.7268" y2="28.1575"/>
    <line x1="236.6965" x2="28.1575" y1="28.1575" y2="236.9909"/>
    <line x1="28.1575" x2="240.9545" y1="241.255" y2="28.1575"/>
    <line x1="245.2124" x2="28.1575" y1="28.1575" y2="245.5191"/>
    <line x1="28.1575" x2="249.4703" y1="249.7832" y2="28.1575"/>
    <line x1="253.7283" x2="28.1575" y1="28.1575" y2="254.0472"/>
    <line x1="28.1575" x2="257.9862" y1="258.3113" y2="28.1575"/>
    <line x1="262.2442" x2="28.1575" y1="28.1575" y2="262.5754"/>
    <line x1="28.1575" x2="266.5021" y1="266.8395" y2="28.1575"/>
    <line x1="270.7601" x2="28.1575" y1="28.1575" y2="271.1036"/>
    <line x1="28.1575" x2="275.018" y1="275.3677" y2="28.1575"/>
    <line x1="279.276" x2="28.1575" y1="28.1575" y2="279.6317"/>
    <line x1="28.1575" x2="283.5339" y1="283.8958" y2="28.1575"/>
    <line x1="287.7919" x2="28.1575" y1="28.1575" y2="288.1599"/>
    <line x1="28.1575" x2="292.0498" y1="292.424" y2="28.1575"/>
    <polyline points="296.3078,28.1575 28.1575,296.6881 223.9227,492.8359 185.7016,531.2126"/>
    <polyline points="189.9595,531.2126 228.1806,492.8359 32.4154,296.6881 300.5657,28.1575"/>
    <polyline points="304.8237,28.1575 36.6734,296.6881 232.4386,492.8359 194.2175,531.2126"/>
    <polyline points="198.4754,531.2126 236.6965,492.8359 49.4472,305.3228"/>
    <line x1="49.4472" x2="321.8555" y1="300.9522" y2="28.1575"/>
    <polyline points="317.5975,28.1575 45.0888,300.9522 40.9313,296.6881 309.0816,28.1575"/>
    <line x1="313.3396" x2="45.1893" y1="28.1575" y2="296.6881"/>
    <polyline points="45.1893,301.0588 49.4472,305.2162 326.1134,28.1575"/>
    <polyline points="330.3714,28.1575 53.7052,305.3228 57.9631,309.4803 202.7334,164.6081 368.6929,330.8007"/>
    <polyline points="368.6929,335.0648 202.7334,168.8722 62.2211,309.4803"/>
    <polyline points="57.9631,309.5869 62.2211,313.7444 198.4754,177.4004 368.6929,347.8571"/>
    <polyline points="368.6929,352.1211 198.4754,181.6644 66.479,313.7444 245.2124,492.8359 206.9913,531.2126"/>
    <polyline points="211.2493,531.2126 249.4703,492.8359 70.737,313.7444 198.4754,185.9285 368.6929,356.3852"/>
    <polyline points="368.6929,360.6493 198.4754,190.1926 74.9949,313.7444 257.9862,497.0999 224.0231,531.2126"/>
    <polyline points="219.7652,531.2126 253.7283,497.2065 249.5708,492.9425"/>
    <line x1="249.4703" x2="215.5072" y1="497.2065" y2="531.2126"/>
    <polyline points="228.2811,531.2126 262.2442,497.0999 79.2529,313.7444 198.4754,194.4567 368.6929,364.9134"/>
    <polyline points="368.6929,369.1775 198.4754,198.7208 83.5108,313.7444 266.5021,497.0999 232.539,531.2126"/>
    <line x1="236.797" x2="266.5021" y1="531.2126" y2="501.4706"/>
    <line x1="270.7601" x2="266.6026" y1="501.364" y2="497.2065"/>
    <line x1="270.7601" x2="245.3129" y1="505.7347" y2="531.2126"/>
    <polyline points="249.5708,531.2126 275.018,505.7347 270.8606,501.4706 241.0549,531.2126"/>
    <line x1="253.8288" x2="275.018" y1="531.2126" y2="509.9988"/>
    <line x1="279.276" x2="275.1185" y1="509.8922" y2="505.7347"/>
    <line x1="279.276" x2="262.3447" y1="514.2629" y2="531.2126"/>
    <polyline points="266.6026,531.2126 283.5339,514.2629 279.3765,509.9988 258.0867,531.2126"/>
    <polyline points="270.8606,531.2126 283.6344,518.527 287.7919,522.791 279.3765,531.2126"/>
    <line x1="275.1185" x2="283.5339" y1="531.2126" y2="522.791"/>
    <polyline points="287.8924,522.791 292.0498,526.9485 287.8924,531.2126"/>
    <line x1="287.7919" x2="283.6344" y1="527.0551" y2="531.2126"/>
    <line x1="292.1503" x2="296.3078" y1="527.0551" y2="531.2126"/>
    <line x1="300.5657" x2="283.6344" y1="531.2126" y2="514.2629"/>
    <polyline points="304.8237,531.2126 87.7688,313.7444 198.4754,202.9849 368.6929,373.4416"/>
    <polyline points="368.6929,377.7056 198.4754,207.2489 92.0267,313.7444 309.0816,531.2126"/>
    <polyline points="313.3396,531.2126 96.2847,313.851 100.4421,309.5869 321.8555,531.2126"/>
    <line x1="317.5975" x2="100.5426" y1="531.2126" y2="313.851"/>
    <polyline points="100.5426,309.4803 198.4754,211.513 368.6929,381.9697"/>
    <polyline points="368.6929,386.2338 198.4754,215.7771 194.2175,219.9346"/>
    <line x1="198.4754" x2="368.6929" y1="220.0412" y2="390.4979"/>
    <polyline points="368.6929,394.762 194.2175,220.0412 104.8006,309.4803 326.1134,531.2126"/>
    <polyline points="330.3714,531.2126 109.0585,309.4803 194.2175,224.3053 368.6929,399.026"/>
    <polyline points="368.6929,403.2901 194.2175,228.5694 189.9595,232.7268"/>
    <line x1="194.2175" x2="368.6929" y1="232.8334" y2="407.5542"/>
    <polyline points="368.6929,411.8183 189.9595,232.8334 185.7016,236.9909"/>
    <line x1="189.9595" x2="368.6929" y1="237.0975" y2="416.0824"/>
    <polyline points="368.6929,420.3465 185.7016,237.0975 138.8641,283.8958"/>
    <line x1="138.8641" x2="368.6929" y1="288.2665" y2="518.4204"/>
    <polyline points="368.6929,514.1563 138.8641,284.0024 134.6062,288.1599"/>
    <line x1="134.6062" x2="368.6929" y1="292.5306" y2="526.9485"/>
    <polyline points="368.6929,522.6844 134.6062,288.2665 130.3483,292.424"/>
    <line x1="130.3483" x2="364.435" y1="296.7947" y2="531.2126"/>
    <polyline points="368.6929,531.2126 130.3483,292.5306 126.0903,296.6881"/>
    <line x1="126.0903" x2="355.9191" y1="301.0588" y2="531.2126"/>
    <polyline points="351.6611,531.2126 121.8324,301.0588 117.5744,305.2162"/>
    <line x1="121.8324" x2="347.4032" y1="305.3228" y2="531.2126"/>
    <polyline points="343.1452,531.2126 117.4739,305.3228 113.3165,309.5869 334.6293,531.2126"/>
    <line x1="338.8873" x2="117.5744" y1="531.2126" y2="309.5869"/>
    <polyline points="121.8324,300.9522 126.0903,296.7947 360.177,531.2126"/>
    <polyline points="368.6929,509.8922 143.1221,283.8958 147.38,279.7383 368.6929,501.364"/>
    <line x1="368.6929" x2="151.638" y1="497.0999" y2="279.7383"/>
    <polyline points="147.38,279.6317 151.638,275.4743 368.6929,492.8359"/>
    <line x1="368.6929" x2="155.8959" y1="488.5718" y2="275.4743"/>
    <polyline points="151.638,275.3677 155.8959,271.2102 368.6929,484.3077"/>
    <line x1="368.6929" x2="160.1539" y1="480.0436" y2="271.2102"/>
    <polyline points="155.8959,271.1036 160.1539,266.9461 368.6929,475.7795"/>
    <line x1="368.6929" x2="164.4118" y1="471.5154" y2="266.9461"/>
    <polyline points="160.1539,266.8395 164.4118,262.682 368.6929,467.2514"/>
    <line x1="368.6929" x2="168.6698" y1="462.9873" y2="262.682"/>
    <polyline points="164.4118,262.5754 168.6698,258.4179 368.6929,458.7232"/>
    <line x1="368.6929" x2="172.9277" y1="454.4591" y2="258.4179"/>
    <polyline points="168.6698,258.3113 172.9277,254.1538 368.6929,450.195"/>
    <line x1="368.6929" x2="177.1857" y1="445.931" y2="254.1538"/>
    <polyline points="172.9277,254.0472 177.1857,249.8898 368.6929,441.6669"/>
    <line x1="368.6929" x2="181.4436" y1="437.4028" y2="249.8898"/>
    <polyline points="177.1857,249.7832 181.4436,245.6257 368.6929,433.1387"/>
    <line x1="368.6929" x2="185.7016" y1="428.8746" y2="245.6257"/>
    <polyline points="181.4436,245.5191 185.7016,241.3616 368.6929,424.6105"/>
    <line x1="368.6929" x2="147.38" y1="505.6281" y2="284.0024"/>
    <polyline points="62.2211,313.851 240.9545,492.8359 202.7334,531.2126"/>
    <polyline points="181.4436,531.2126 219.6647,492.8359 28.1575,301.0588"/>
    <polyline points="28.1575,305.3228 215.4068,492.9425 177.0852,531.2126 28.1575,382.0763"/>
    <line x1="28.1575" x2="172.8273" y1="386.3404" y2="531.2126"/>
    <line x1="168.5693" x2="28.1575" y1="531.2126" y2="390.6045"/>
    <line x1="28.1575" x2="164.3114" y1="394.8686" y2="531.2126"/>
    <line x1="160.0534" x2="28.1575" y1="531.2126" y2="399.1326"/>
    <line x1="28.1575" x2="155.7955" y1="403.3967" y2="531.2126"/>
    <line x1="151.5375" x2="28.1575" y1="531.2126" y2="407.6608"/>
    <line x1="28.1575" x2="147.2796" y1="411.9249" y2="531.2126"/>
    <line x1="143.0216" x2="28.1575" y1="531.2126" y2="416.189"/>
    <line x1="28.1575" x2="138.7637" y1="420.4531" y2="531.2126"/>
    <line x1="134.5057" x2="28.1575" y1="531.2126" y2="424.7171"/>
    <line x1="28.1575" x2="130.2478" y1="428.9812" y2="531.2126"/>
    <line x1="125.9898" x2="28.1575" y1="531.2126" y2="433.2453"/>
    <line x1="28.1575" x2="121.7319" y1="437.5094" y2="531.2126"/>
    <line x1="117.4739" x2="28.1575" y1="531.2126" y2="441.7735"/>
    <line x1="28.1575" x2="113.216" y1="446.0376" y2="531.2126"/>
    <line x1="108.958" x2="28.1575" y1="531.2126" y2="450.3016"/>
    <line x1="28.1575" x2="104.7001" y1="454.5657" y2="531.2126"/>
    <line x1="100.4421" x2="28.1575" y1="531.2126" y2="458.8298"/>
    <line x1="28.1575" x2="96.1842" y1="463.0939" y2="531.2126"/>
    <line x1="91.9262" x2="28.1575" y1="531.2126" y2="467.358"/>
    <line x1="28.1575" x2="87.6683" y1="471.622" y2="531.2126"/>
    <line x1="83.4103" x2="28.1575" y1="531.2126" y2="475.8861"/>
    <line x1="28.1575" x2="79.1524" y1="480.1502" y2="531.2126"/>
    <line x1="74.8944" x2="28.1575" y1="531.2126" y2="484.4143"/>
    <line x1="28.1575" x2="70.6365" y1="488.6784" y2="531.2126"/>
    <line x1="66.3786" x2="28.1575" y1="531.2126" y2="492.9425"/>
    <line x1="28.1575" x2="62.1206" y1="497.2065" y2="531.2126"/>
    <line x1="57.8627" x2="28.1575" y1="531.2126" y2="501.4706"/>
    <line x1="28.1575" x2="53.6047" y1="505.7347" y2="531.2126"/>
    <line x1="49.3468" x2="28.1575" y1="531.2126" y2="509.9988"/>
    <line x1="28.1575" x2="45.0888" y1="514.2629" y2="531.2126"/>
    <line x1="40.8309" x2="28.1575" y1="531.2126" y2="518.527"/>
    <line x1="28.1575" x2="36.5729" y1="522.791" y2="531.2126"/>
    <line x1="32.315" x2="28.1575" y1="531.2126" y2="527.0551"/>
    <polyline points="28.1575,377.8122 177.0852,526.9485 211.1488,492.9425 28.1575,309.5869"/>
    <polyline points="28.1575,313.851 206.8909,492.9425 177.0852,522.6844 28.1575,373.5482"/>
    <polyline points="28.1575,369.2841 177.0852,518.4204 198.375,497.2065"/>
    <line x1="198.375" x2="28.1575" y1="492.8359" y2="322.3792"/>
    <polyline points="28.1575,318.1151 202.6329,492.9425 198.375,497.0999 28.1575,326.6432"/>
    <polyline points="28.1575,330.9073 194.117,497.2065 189.8591,501.364 28.1575,339.4355"/>
    <line x1="28.1575" x2="185.6011" y1="343.6996" y2="501.364"/>
    <polyline points="189.8591,501.4706 185.6011,505.6281 28.1575,347.9637"/>
    <line x1="28.1575" x2="181.3432" y1="352.2277" y2="505.6281"/>
    <polyline points="185.6011,505.7347 181.3432,509.8922 28.1575,356.4918"/>
    <line x1="28.1575" x2="177.0852" y1="360.7559" y2="509.8922"/>
    <polyline points="181.3432,509.9988 177.0852,514.1563 28.1575,365.02"/>
    <line x1="28.1575" x2="189.8591" y1="335.1714" y2="497.0999"/>
    <polyline points="57.9631,305.2162 206.9913,156.08 368.6929,318.0085"/>
    <polyline points="368.6929,322.2726 206.9913,160.344 202.7334,164.5015"/>
    <line x1="206.9913" x2="368.6929" y1="164.6081" y2="326.5366"/>
    <polyline points="368.6929,339.3289 202.7334,173.1363 198.4754,177.2938"/>
    <line x1="202.7334" x2="368.6929" y1="177.4004" y2="343.593"/>
    <polyline points="368.6929,313.7444 211.2493,155.9733 215.5072,151.8159 368.6929,305.2162"/>
    <polyline points="368.6929,300.9522 219.7652,151.7093 224.0231,147.5518 368.6929,292.424"/>
    <line x1="368.6929" x2="224.0231" y1="296.6881" y2="151.8159"/>
    <line x1="224.0231" x2="343.1452" y1="147.4452" y2="28.1575"/>
    <line x1="338.8873" x2="215.5072" y1="28.1575" y2="151.7093"/>
    <line x1="215.5072" x2="368.6929" y1="156.08" y2="309.4803"/>
    <polyline points="368.6929,288.1599 228.2811,147.5518 347.4032,28.1575"/>
    <polyline points="351.6611,28.1575 232.539,147.5518 368.6929,283.8958"/>
    <polyline points="368.6929,279.6317 236.797,147.5518 355.9191,28.1575"/>
    <polyline points="360.177,28.1575 241.0549,147.5518 368.6929,275.3677"/>
    <polyline points="368.6929,271.1036 245.3129,147.5518 364.435,28.1575"/>
    <polygon points="368.6929,28.1575 28.1575,28.1575 28.1575,531.2126 368.6929,531.2126"/>
    <polyline points="368.6929,28.1575 249.5708,147.4452 368.6929,266.8395"/>
    <polyline points="368.6929,262.5754 253.8288,147.4452 368.6929,32.4216"/>
    <polyline points="368.6929,36.6856 258.0867,147.4452 368.6929,258.3113"/>
    <line x1="368.6929" x2="266.6026" y1="254.0472" y2="151.8159"/>
    <line x1="266.6026" x2="368.6929" y1="147.4452" y2="45.2138"/>
    <polyline points="368.6929,40.9497 262.3447,147.5518 266.6026,151.7093 368.6929,49.4779"/>
    <polyline points="368.6929,53.742 270.8606,151.7093 368.6929,249.7832"/>
    <polyline points="368.6929,245.5191 275.1185,151.7093 368.6929,58.0061"/>
    <line x1="368.6929" x2="283.6344" y1="62.2701" y2="147.4452"/>
    <line x1="283.6344" x2="368.6929" y1="151.8159" y2="236.9909"/>
    <polyline points="368.6929,241.255 279.3765,151.7093 283.6344,147.5518 368.6929,232.7268"/>
    <polyline points="368.6929,228.4627 287.8924,147.4452 368.6929,66.5342"/>
    <polyline points="368.6929,70.7983 292.1503,147.4452 368.6929,224.1987"/>
    <polyline points="368.6929,219.9346 296.4083,147.4452 300.6662,143.2877 368.6929,211.4064"/>
    <polyline points="368.6929,207.1423 304.9242,143.1811 368.6929,79.3265"/>
    <line x1="368.6929" x2="300.6662" y1="75.0624" y2="143.1811"/>
    <line x1="300.6662" x2="368.6929" y1="147.5518" y2="215.6705"/>
    <polyline points="368.6929,202.8783 309.1821,143.1811 368.6929,83.5906"/>
    <polyline points="368.6929,87.8546 313.44,143.1811 368.6929,198.6142"/>
    <polyline points="368.6929,194.3501 317.698,143.1811 368.6929,92.1187"/>
    <polyline points="368.6929,96.3828 321.9559,143.1811 368.6929,190.086"/>
    <polyline points="368.6929,185.8219 326.2139,143.1811 368.6929,100.6469"/>
    <polyline points="368.6929,104.911 330.4718,143.1811 368.6929,181.5578"/>
    <polyline points="368.6929,177.2938 334.7298,143.1811 338.9877,139.0236 368.6929,168.7656"/>
    <line x1="368.6929" x2="338.9877" y1="173.0297" y2="143.2877"/>
    <polyline points="338.9877,138.917 343.2457,134.7595 368.6929,160.2374"/>
    <line x1="368.6929" x2="343.2457" y1="164.5015" y2="139.0236"/>
    <polyline points="343.2457,134.6529 347.5036,130.4955 368.6929,151.7093"/>
    <polyline points="368.6929,147.4452 351.7616,130.3889 356.0195,126.2314 368.6929,138.917"/>
    <line x1="368.6929" x2="360.2775" y1="134.6529" y2="126.2314"/>
    <polyline points="356.0195,126.1248 360.2775,121.9673 368.6929,130.3889"/>
    <polyline points="368.6929,126.1248 364.5354,121.8607 368.6929,117.7032"/>
    <line x1="368.6929" x2="360.2775" y1="113.4391" y2="121.8607"/>
    <line x1="356.0195" x2="368.6929" y1="130.4955" y2="143.1811"/>
    <line x1="368.6929" x2="347.5036" y1="155.9733" y2="134.7595"/>
    <line x1="347.5036" x2="368.6929" y1="130.3889" y2="109.175"/>
    <line x1="334.6293" x2="206.9913" y1="28.1575" y2="155.9733"/>
  </g>
</svg>
