<?xml version="1.0" encoding="utf-8" ?>
<svg xmlns="http://www.w3.org/2000/svg" xmlns:cc="http://creativecommons.org/ns" xmlns:dc="http://purl.org/dc/elements/1.1/" xmlns:ev="http://www.w3.org/2001/xml-events" xmlns:inkscape="http://www.inkscape.org/namespaces/inkscape" xmlns:rdf="http://www.w3.org/1999/02/22-rdf-syntax-ns" xmlns:sodipodi="http://sodipodi.sourceforge.net/DTD/sodipodi-0.dtd" xmlns:xlink="http://www.w3.org/1999/xlink" baseProfile="tiny" height="14.8cm" version="1.2" viewBox="0 0 396.85039370078744 559.3700787401575" width="10.5cm">
  <metadata>
    <rdf:RDF>
      <cc:Work>
        <dc:format>image/svg+xml</dc:format>
        <dc:source>Vsketch with params {'__seed__': 1394492623, 'WIDTH': 10.4, 'HEIGHT': 14.7, 'TIMESTEP': 0.001, 'SIZE': 0.2600000000000001, 'NOISE_RESOLUTION': 0.1, 'STEP_MULTIPLIER': 4, 'MARGIN': 1.5}</dc:source>
        <dc:date>2024-03-17T09:39:15.495137</dc:date>
      </cc:Work>
    </rdf:RDF>
  </metadata>
  <defs/>
  <g fill="none" id="layer1" inkscape:groupmode="layer" inkscape:label="1" stroke="#0000ff" style="display:inline">
    <line x1="35.1496" x2="25.3228" y1="25.3228" y2="35.1496"/>
    <line x1="25.3228" x2="45.0431" y1="44.9319" y2="25.3228"/>
    <line x1="54.9365" x2="25.3228" y1="25.3228" y2="54.7142"/>
    <line x1="25.3228" x2="64.83" y1="64.4965" y2="25.3228"/>
    <line x1="74.7235" x2="25.3228" y1="25.3228" y2="74.2788"/>
    <line x1="25.3228" x2="84.617" y1="84.0611" y2="25.3228"/>
    <line x1="94.5104" x2="25.3228" y1="25.3228" y2="93.8434"/>
    <line x1="25.3228" x2="104.4039" y1="103.6258" y2="25.3228"/>
    <line x1="114.2974" x2="25.3228" y1="25.3228" y2="113.4081"/>
    <line x1="25.3228" x2="124.1908" y1="123.1904" y2="25.3228"/>
    <line x1="134.0843" x2="25.3228" y1="25.3228" y2="132.9727"/>
    <line x1="25.3228" x2="143.9778" y1="142.755" y2="25.3228"/>
    <line x1="153.8712" x2="25.3228" y1="25.3228" y2="152.5373"/>
    <line x1="25.3228" x2="163.7647" y1="162.3196" y2="25.3228"/>
    <line x1="173.6582" x2="25.3228" y1="25.3228" y2="172.1019"/>
    <line x1="25.3228" x2="183.5516" y1="181.8842" y2="25.3228"/>
    <line x1="193.4451" x2="25.3228" y1="25.3228" y2="191.6665"/>
    <line x1="25.3228" x2="203.3386" y1="201.4488" y2="25.3228"/>
    <line x1="213.2321" x2="25.3228" y1="25.3228" y2="211.2311"/>
    <line x1="25.3228" x2="223.1255" y1="221.0134" y2="25.3228"/>
    <line x1="233.019" x2="25.3228" y1="25.3228" y2="230.7957"/>
    <line x1="25.3228" x2="242.9125" y1="240.578" y2="25.3228"/>
    <line x1="252.8059" x2="25.3228" y1="25.3228" y2="250.3604"/>
    <line x1="25.3228" x2="262.6994" y1="260.1427" y2="25.3228"/>
    <line x1="272.5929" x2="25.3228" y1="25.3228" y2="269.925"/>
    <line x1="25.3228" x2="282.4863" y1="279.7073" y2="25.3228"/>
    <line x1="292.3798" x2="25.3228" y1="25.3228" y2="289.4896"/>
    <line x1="25.3228" x2="302.2733" y1="299.2719" y2="25.3228"/>
    <line x1="312.1667" x2="25.3228" y1="25.3228" y2="309.0542"/>
    <line x1="25.3228" x2="322.0602" y1="318.8365" y2="25.3228"/>
    <line x1="331.9537" x2="25.3228" y1="25.3228" y2="328.6188"/>
    <line x1="25.3228" x2="341.8472" y1="338.4011" y2="25.3228"/>
    <line x1="351.7406" x2="25.3228" y1="25.3228" y2="348.1834"/>
    <line x1="25.3228" x2="361.6341" y1="357.9657" y2="25.3228"/>
    <line x1="371.5276" x2="25.3228" y1="25.3228" y2="367.748"/>
    <line x1="25.3228" x2="371.5276" y1="377.5303" y2="35.1051"/>
    <line x1="371.5276" x2="114.3641" y1="44.8874" y2="299.2719"/>
    <polyline points="114.3641,309.0097 153.8712,348.1834 25.3228,475.3534"/>
    <polyline points="25.3228,465.5711 143.9778,348.139 104.4039,309.0097 25.3228,387.3126"/>
    <polyline points="25.3228,397.095 104.4039,318.792 124.1908,338.3566 25.3228,436.2242"/>
    <polyline points="25.3228,426.4419 114.2974,338.3566 104.4039,328.5743 25.3228,406.8773"/>
    <line x1="25.3228" x2="104.4039" y1="416.6596" y2="338.3566"/>
    <polyline points="124.2575,338.3566 134.0843,348.1834 25.3228,455.7888"/>
    <line x1="25.3228" x2="124.1908" y1="446.0065" y2="348.139"/>
    <polyline points="153.9379,348.139 163.7647,357.9657 25.3228,494.918"/>
    <line x1="25.3228" x2="163.7647" y1="504.7003" y2="367.7036"/>
    <polyline points="163.8314,357.9213 173.6582,367.748 163.8314,377.5303"/>
    <polyline points="173.7249,377.4859 223.1255,426.4419 233.019,416.6596 114.3641,299.2274 104.4706,309.0542"/>
    <polyline points="134.151,299.2274 262.6994,426.3974 153.9379,534.0472"/>
    <polyline points="144.0445,534.0472 252.8059,426.4419 242.9792,416.6151"/>
    <line x1="242.9125" x2="134.151" y1="426.3974" y2="534.0472"/>
    <polyline points="124.2575,534.0472 242.9125,416.6596 124.2575,299.2719 134.0843,289.4451 262.6994,416.6596 371.5276,309.0097"/>
    <line x1="371.5276" x2="262.7661" y1="318.792" y2="426.4419"/>
    <line x1="262.7661" x2="371.5276" y1="397.095" y2="289.4451"/>
    <polyline points="371.5276,299.2274 262.7661,406.8773 252.8726,397.0505"/>
    <line x1="252.8726" x2="371.5276" y1="377.5303" y2="260.0982"/>
    <polyline points="371.5276,250.3159 242.9792,377.5303 153.9379,289.4451"/>
    <polyline points="153.9379,279.7073 163.8314,269.8805 242.9125,348.1834"/>
    <line x1="252.8726" x2="371.5276" y1="348.1834" y2="230.7513"/>
    <line x1="371.5276" x2="262.7661" y1="220.969" y2="328.6188"/>
    <line x1="252.8059" x2="183.6183" y1="328.6188" y2="260.0982"/>
    <polyline points="183.5516,250.3159 173.7249,260.1427 252.8726,338.4011 262.6994,328.5743 183.6183,250.3159 193.5118,240.5336 242.9792,289.4896 371.5276,162.2751"/>
    <polyline points="371.5276,152.4928 242.9792,279.7073 233.0857,269.8805"/>
    <line x1="242.9792" x2="371.5276" y1="269.925" y2="142.7105"/>
    <polyline points="371.5276,132.9282 233.0857,269.925 203.4053,240.578 371.5276,74.2344"/>
    <line x1="371.5276" x2="193.5118" y1="64.4521" y2="240.578"/>
    <polyline points="193.5118,250.3159 262.7661,318.8365 371.5276,211.1867"/>
    <polyline points="371.5276,201.4044 262.7661,309.0542 252.8726,299.2274"/>
    <line x1="252.8726" x2="371.5276" y1="289.4896" y2="172.0574"/>
    <polyline points="371.5276,181.8397 252.8726,299.2719 242.9792,289.4451"/>
    <line x1="262.7661" x2="371.5276" y1="299.2719" y2="191.622"/>
    <polyline points="371.5276,240.5336 242.9792,367.748 153.9379,279.6628 144.0445,289.4896 252.8726,397.095 371.5276,279.6628"/>
    <polyline points="371.5276,269.8805 252.8726,387.3126 242.9792,377.4859"/>
    <line x1="223.1255" x2="173.7249" y1="416.6596" y2="367.7036"/>
    <line x1="153.8712" x2="25.3228" y1="357.9213" y2="485.1357"/>
    <polyline points="25.3228,514.4826 163.7647,377.4859 213.2321,426.4419 203.3386,436.2242 163.8314,397.0505"/>
    <polyline points="153.9379,397.095 163.8314,387.2682 203.3386,426.4419"/>
    <line x1="203.3386" x2="104.4706" y1="436.1797" y2="534.0472"/>
    <polyline points="94.5771,534.0472 193.4451,436.2242 153.9379,397.0505 25.3228,524.2649"/>
    <polyline points="25.3228,534.0472 153.9379,406.8328 163.7647,416.6596 45.1098,534.0472"/>
    <line x1="35.2163" x2="153.8712" y1="534.0472" y2="416.6151"/>
    <polyline points="163.8314,416.6151 183.5516,436.2242 84.6836,534.0472"/>
    <polyline points="74.7902,534.0472 173.6582,436.2242 163.8314,426.3974 55.0032,534.0472"/>
    <line x1="64.8967" x2="163.7647" y1="534.0472" y2="436.1797"/>
    <line x1="223.1255" x2="114.3641" y1="426.3974" y2="534.0472"/>
    <line x1="163.8314" x2="371.5276" y1="534.0472" y2="328.5743"/>
    <line x1="371.5276" x2="173.7249" y1="338.3566" y2="534.0472"/>
    <line x1="183.6183" x2="371.5276" y1="534.0472" y2="348.139"/>
    <line x1="371.5276" x2="193.5118" y1="357.9213" y2="534.0472"/>
    <line x1="203.4053" x2="371.5276" y1="534.0472" y2="367.7036"/>
    <line x1="371.5276" x2="213.2987" y1="377.4859" y2="534.0472"/>
    <line x1="223.1922" x2="371.5276" y1="534.0472" y2="387.2682"/>
    <line x1="371.5276" x2="233.0857" y1="397.0505" y2="534.0472"/>
    <line x1="242.9792" x2="371.5276" y1="534.0472" y2="406.8328"/>
    <line x1="371.5276" x2="252.8726" y1="416.6151" y2="534.0472"/>
    <line x1="262.7661" x2="371.5276" y1="534.0472" y2="426.3974"/>
    <line x1="371.5276" x2="272.6596" y1="436.1797" y2="534.0472"/>
    <line x1="282.553" x2="371.5276" y1="534.0472" y2="445.962"/>
    <line x1="371.5276" x2="292.4465" y1="455.7443" y2="534.0472"/>
    <line x1="302.34" x2="371.5276" y1="534.0472" y2="465.5266"/>
    <line x1="371.5276" x2="312.2334" y1="475.3089" y2="534.0472"/>
    <line x1="322.1269" x2="371.5276" y1="534.0472" y2="485.0912"/>
    <line x1="371.5276" x2="332.0204" y1="494.8736" y2="534.0472"/>
    <line x1="341.9138" x2="371.5276" y1="534.0472" y2="504.6559"/>
    <line x1="371.5276" x2="351.8073" y1="514.4382" y2="534.0472"/>
    <line x1="361.7008" x2="371.5276" y1="534.0472" y2="524.2205"/>
    <polygon points="371.5276,534.0472 371.5276,25.3228 25.3228,25.3228 25.3228,534.0472"/>
    <line x1="233.0857" x2="371.5276" y1="250.3604" y2="113.3636"/>
    <polyline points="371.5276,103.5813 223.1922,250.3604 213.2987,240.578 371.5276,84.0167"/>
    <line x1="371.5276" x2="223.1922" y1="93.799" y2="240.578"/>
    <polyline points="223.1922,250.3159 233.0857,260.1427 371.5276,123.1459"/>
    <line x1="371.5276" x2="163.8314" y1="54.6698" y2="260.1427"/>
    <polyline points="163.8314,279.6628 242.9125,357.9657 252.8059,348.1834 163.8314,260.0982 134.151,289.4896"/>
  </g>
</svg>
