<?xml version="1.0" encoding="utf-8" ?>
<svg xmlns="http://www.w3.org/2000/svg" xmlns:cc="http://creativecommons.org/ns" xmlns:dc="http://purl.org/dc/elements/1.1/" xmlns:ev="http://www.w3.org/2001/xml-events" xmlns:inkscape="http://www.inkscape.org/namespaces/inkscape" xmlns:rdf="http://www.w3.org/1999/02/22-rdf-syntax-ns" xmlns:sodipodi="http://sodipodi.sourceforge.net/DTD/sodipodi-0.dtd" xmlns:xlink="http://www.w3.org/1999/xlink" baseProfile="tiny" height="14.8cm" version="1.2" viewBox="0 0 396.85039370078744 559.3700787401575" width="10.5cm">
  <metadata>
    <rdf:RDF>
      <cc:Work>
        <dc:format>image/svg+xml</dc:format>
        <dc:source>Vsketch with params {'__seed__': 1394492623, 'WIDTH': 10.4, 'HEIGHT': 14.7, 'TIMESTEP': 0.001, 'SIZE': 0.17000000000000004, 'NOISE_RESOLUTION': 0.1, 'STEP_MULTIPLIER': 6, 'MARGIN': 1.5}</dc:source>
        <dc:date>2024-03-17T09:38:09.157636</dc:date>
      </cc:Work>
    </rdf:RDF>
  </metadata>
  <defs/>
  <g fill="none" id="layer1" inkscape:groupmode="layer" inkscape:label="1" stroke="#0000ff" style="display:inline">
    <line x1="33.4488" x2="27.0236" y1="27.0236" y2="33.4488"/>
    <line x1="27.0236" x2="39.9176" y1="39.8449" y2="27.0236"/>
    <line x1="46.3864" x2="27.0236" y1="27.0236" y2="46.2411"/>
    <line x1="27.0236" x2="52.8552" y1="52.6372" y2="27.0236"/>
    <line x1="59.324" x2="27.0236" y1="27.0236" y2="59.0333"/>
    <line x1="27.0236" x2="65.7929" y1="65.4294" y2="27.0236"/>
    <line x1="72.2617" x2="27.0236" y1="27.0236" y2="71.8256"/>
    <line x1="27.0236" x2="78.7305" y1="78.2217" y2="27.0236"/>
    <line x1="85.1993" x2="27.0236" y1="27.0236" y2="84.6178"/>
    <line x1="27.0236" x2="91.6681" y1="91.0139" y2="27.0236"/>
    <line x1="98.1369" x2="27.0236" y1="27.0236" y2="97.4101"/>
    <line x1="27.0236" x2="104.6057" y1="103.8062" y2="27.0236"/>
    <line x1="111.0745" x2="27.0236" y1="27.0236" y2="110.2023"/>
    <line x1="27.0236" x2="117.5433" y1="116.5984" y2="27.0236"/>
    <line x1="124.0121" x2="27.0236" y1="27.0236" y2="122.9945"/>
    <line x1="27.0236" x2="130.4809" y1="129.3907" y2="27.0236"/>
    <line x1="136.9497" x2="27.0236" y1="27.0236" y2="135.7868"/>
    <line x1="27.0236" x2="143.4185" y1="142.1829" y2="27.0236"/>
    <line x1="149.8873" x2="27.0236" y1="27.0236" y2="148.579"/>
    <line x1="27.0236" x2="156.3561" y1="154.9752" y2="27.0236"/>
    <line x1="162.825" x2="27.0236" y1="27.0236" y2="161.3713"/>
    <line x1="27.0236" x2="169.2938" y1="167.7674" y2="27.0236"/>
    <line x1="175.7626" x2="27.0236" y1="27.0236" y2="174.1635"/>
    <line x1="27.0236" x2="182.2314" y1="180.5597" y2="27.0236"/>
    <line x1="188.7002" x2="27.0236" y1="27.0236" y2="186.9558"/>
    <line x1="27.0236" x2="195.169" y1="193.3519" y2="27.0236"/>
    <line x1="201.6378" x2="27.0236" y1="27.0236" y2="199.748"/>
    <line x1="27.0236" x2="208.1066" y1="206.1442" y2="27.0236"/>
    <line x1="214.5754" x2="27.0236" y1="27.0236" y2="212.5403"/>
    <line x1="27.0236" x2="221.0442" y1="218.9364" y2="27.0236"/>
    <line x1="227.513" x2="27.0236" y1="27.0236" y2="225.3325"/>
    <line x1="27.0236" x2="233.9818" y1="231.7286" y2="27.0236"/>
    <line x1="240.4506" x2="27.0236" y1="27.0236" y2="238.1248"/>
    <line x1="27.0236" x2="246.9194" y1="244.5209" y2="27.0236"/>
    <line x1="253.3882" x2="27.0236" y1="27.0236" y2="250.917"/>
    <line x1="27.0236" x2="259.8571" y1="257.3131" y2="27.0236"/>
    <line x1="266.3259" x2="27.0236" y1="27.0236" y2="263.7093"/>
    <line x1="27.0236" x2="272.7947" y1="270.1054" y2="27.0236"/>
    <line x1="279.2635" x2="27.0236" y1="27.0236" y2="276.5015"/>
    <line x1="27.0236" x2="285.7323" y1="282.8976" y2="27.0236"/>
    <line x1="292.2011" x2="27.0236" y1="27.0236" y2="289.2938"/>
    <line x1="27.0236" x2="298.6699" y1="295.6899" y2="27.0236"/>
    <line x1="305.1387" x2="27.0236" y1="27.0236" y2="302.086"/>
    <line x1="27.0236" x2="311.6075" y1="308.4821" y2="27.0236"/>
    <line x1="318.0763" x2="27.0236" y1="27.0236" y2="314.8783"/>
    <line x1="27.0236" x2="324.5451" y1="321.2744" y2="27.0236"/>
    <line x1="331.0139" x2="27.0236" y1="27.0236" y2="327.6705"/>
    <line x1="27.0236" x2="337.4827" y1="334.0666" y2="27.0236"/>
    <line x1="343.9515" x2="27.0236" y1="27.0236" y2="340.4627"/>
    <line x1="27.0236" x2="350.4204" y1="346.8589" y2="27.0236"/>
    <line x1="356.8892" x2="27.0236" y1="27.0236" y2="353.255"/>
    <line x1="27.0236" x2="363.358" y1="359.6511" y2="27.0236"/>
    <line x1="369.8268" x2="27.0236" y1="27.0236" y2="366.0472"/>
    <line x1="27.0236" x2="369.8268" y1="372.4434" y2="33.4197"/>
    <line x1="369.8268" x2="27.0236" y1="39.8159" y2="378.8395"/>
    <polyline points="27.0236,385.2356 111.1181,302.0569 227.513,417.1872 221.0442,423.6124 169.2938,372.4143 162.8686,378.8395 214.5754,430.0085 111.1181,532.3465"/>
    <polyline points="117.5869,532.3465 233.9818,417.2162 117.5869,302.086 124.0557,295.6608 253.3882,423.5833 143.4621,532.3465"/>
    <line x1="149.931" x2="253.3882" y1="532.3465" y2="429.9794"/>
    <polyline points="253.4319,423.5833 259.8571,430.0085 266.3259,423.6124 136.9933,295.6608"/>
    <line x1="136.9933" x2="369.8268" y1="289.2938" y2="59.0042"/>
    <line x1="369.8268" x2="124.0557" y1="52.6081" y2="295.6899"/>
    <polyline points="124.0557,302.0569 240.4506,417.2162 124.0557,532.3465"/>
    <line x1="130.5245" x2="240.4506" y1="532.3465" y2="423.5833"/>
    <polyline points="240.4942,417.1872 246.9194,423.6124 136.9933,532.3465"/>
    <line x1="156.3998" x2="259.8571" y1="532.3465" y2="429.9794"/>
    <polyline points="259.8571,423.6124 130.5245,295.6899 136.9497,289.2647 266.3259,417.2162 369.8268,314.8492"/>
    <line x1="369.8268" x2="266.3695" y1="321.2453" y2="423.6124"/>
    <line x1="266.3695" x2="369.8268" y1="398.0279" y2="295.6608"/>
    <polyline points="369.8268,302.0569 266.3695,404.424 259.9007,397.9988"/>
    <line x1="259.9007" x2="369.8268" y1="391.6317" y2="282.8686"/>
    <polyline points="369.8268,289.2647 259.9007,398.0279 253.4319,391.6027"/>
    <line x1="253.4319" x2="369.8268" y1="385.2356" y2="270.0763"/>
    <polyline points="369.8268,263.6802 246.9631,385.2356 149.931,289.2647"/>
    <polyline points="149.931,282.8976 156.3998,276.4724 246.9631,366.0472 369.8268,244.4918"/>
    <polyline points="369.8268,238.0957 246.9631,359.6511 162.8686,276.4724"/>
    <line x1="162.8686" x2="169.2938" y1="270.1054" y2="263.6802"/>
    <line x1="169.3374" x2="246.9194" y1="270.0763" y2="346.8589"/>
    <line x1="253.4319" x2="369.8268" y1="346.8589" y2="231.6996"/>
    <line x1="369.8268" x2="259.9007" y1="225.3035" y2="334.0666"/>
    <polyline points="253.3882,334.0666 175.8062,257.2841 169.3374,263.7093 253.3882,346.8298 246.9631,353.255 162.8686,270.0763 156.3998,276.5015"/>
    <polyline points="156.3998,282.8686 246.9631,372.4434 369.8268,250.8879"/>
    <polyline points="369.8268,257.2841 246.9631,378.8395 149.931,282.8686 143.4621,289.2938 266.3259,410.8201 369.8268,308.4531"/>
    <line x1="369.8268" x2="162.8686" y1="327.6414" y2="532.3465"/>
    <line x1="169.3374" x2="369.8268" y1="532.3465" y2="334.0376"/>
    <line x1="369.8268" x2="175.8062" y1="340.4337" y2="532.3465"/>
    <line x1="182.275" x2="369.8268" y1="532.3465" y2="346.8298"/>
    <line x1="369.8268" x2="188.7438" y1="353.2259" y2="532.3465"/>
    <line x1="195.2126" x2="369.8268" y1="532.3465" y2="359.622"/>
    <line x1="369.8268" x2="201.6814" y1="366.0182" y2="532.3465"/>
    <line x1="208.1502" x2="369.8268" y1="532.3465" y2="372.4143"/>
    <line x1="369.8268" x2="214.619" y1="378.8104" y2="532.3465"/>
    <line x1="221.0878" x2="369.8268" y1="532.3465" y2="385.2065"/>
    <line x1="369.8268" x2="227.5566" y1="391.6027" y2="532.3465"/>
    <line x1="234.0254" x2="369.8268" y1="532.3465" y2="397.9988"/>
    <line x1="369.8268" x2="240.4942" y1="404.3949" y2="532.3465"/>
    <line x1="246.9631" x2="369.8268" y1="532.3465" y2="410.791"/>
    <line x1="369.8268" x2="253.4319" y1="417.1872" y2="532.3465"/>
    <line x1="259.9007" x2="369.8268" y1="532.3465" y2="423.5833"/>
    <line x1="369.8268" x2="266.3695" y1="429.9794" y2="532.3465"/>
    <line x1="272.8383" x2="369.8268" y1="532.3465" y2="436.3755"/>
    <line x1="369.8268" x2="279.3071" y1="442.7717" y2="532.3465"/>
    <line x1="285.7759" x2="369.8268" y1="532.3465" y2="449.1678"/>
    <line x1="369.8268" x2="292.2447" y1="455.5639" y2="532.3465"/>
    <line x1="298.7135" x2="369.8268" y1="532.3465" y2="461.96"/>
    <line x1="369.8268" x2="305.1823" y1="468.3561" y2="532.3465"/>
    <line x1="311.6511" x2="369.8268" y1="532.3465" y2="474.7523"/>
    <line x1="369.8268" x2="318.1199" y1="481.1484" y2="532.3465"/>
    <line x1="324.5887" x2="369.8268" y1="532.3465" y2="487.5445"/>
    <line x1="369.8268" x2="331.0575" y1="493.9406" y2="532.3465"/>
    <line x1="337.5263" x2="369.8268" y1="532.3465" y2="500.3368"/>
    <line x1="369.8268" x2="343.9952" y1="506.7329" y2="532.3465"/>
    <line x1="350.464" x2="369.8268" y1="532.3465" y2="513.129"/>
    <line x1="369.8268" x2="356.9328" y1="519.5251" y2="532.3465"/>
    <line x1="363.4016" x2="369.8268" y1="532.3465" y2="525.9213"/>
    <polygon points="369.8268,532.3465 369.8268,27.0236 27.0236,27.0236 27.0236,532.3465"/>
    <line x1="221.0442" x2="214.619" y1="423.5833" y2="430.0085"/>
    <line x1="214.5754" x2="169.3374" y1="423.6124" y2="378.8104"/>
    <line x1="162.825" x2="27.0236" y1="378.8104" y2="513.1581"/>
    <polyline points="27.0236,519.5542 156.3561,391.6027 201.6378,436.3755 195.169,442.8007 156.3561,404.3949 27.0236,532.3465"/>
    <polyline points="27.0236,525.9503 156.3561,397.9988 195.169,436.4046"/>
    <line x1="195.169" x2="104.6493" y1="442.7717" y2="532.3465"/>
    <polyline points="98.1805,532.3465 188.7002,442.8007 156.3998,410.791 33.4924,532.3465"/>
    <polyline points="39.9612,532.3465 156.3998,417.1872 162.825,423.6124 52.8988,532.3465"/>
    <line x1="46.43" x2="156.3561" y1="532.3465" y2="423.5833"/>
    <polyline points="162.8686,423.5833 169.2938,430.0085 65.8365,532.3465"/>
    <line x1="59.3677" x2="162.825" y1="532.3465" y2="429.9794"/>
    <polyline points="169.3374,429.9794 175.7626,436.4046 78.7741,532.3465"/>
    <line x1="72.3053" x2="169.2938" y1="532.3465" y2="436.3755"/>
    <polyline points="175.8062,436.3755 182.2314,442.8007 91.7117,532.3465"/>
    <line x1="85.2429" x2="175.7626" y1="532.3465" y2="442.7717"/>
    <polyline points="201.6814,436.4046 208.1066,429.9794 201.6814,423.5833 162.8686,385.2065 156.3998,391.6317"/>
    <line x1="162.8686" x2="201.6378" y1="391.6027" y2="430.0085"/>
    <line x1="221.0442" x2="169.3374" y1="417.2162" y2="366.0182"/>
    <line x1="162.825" x2="27.0236" y1="366.0182" y2="500.3658"/>
    <polyline points="27.0236,493.9697 162.825,359.6511 156.3998,353.2259"/>
    <line x1="156.3561" x2="27.0236" y1="359.622" y2="487.5736"/>
    <polyline points="27.0236,481.1775 156.3561,353.255 111.1181,308.4531 104.6493,314.8783"/>
    <polyline points="111.1181,314.8492 143.4185,346.8589 27.0236,461.9891"/>
    <line x1="27.0236" x2="143.4185" y1="468.3852" y2="353.2259"/>
    <polyline points="143.4621,346.8298 149.8873,353.255 27.0236,474.7813"/>
    <polyline points="27.0236,455.593 136.9497,346.8298 104.6057,314.8492 27.0236,391.6317"/>
    <polyline points="27.0236,398.0279 104.6057,321.2453 124.0121,340.4337 27.0236,436.4046"/>
    <line x1="27.0236" x2="124.0121" y1="442.8007" y2="346.8298"/>
    <polyline points="124.0557,340.4337 130.4809,346.8589 27.0236,449.1969"/>
    <polyline points="27.0236,430.0085 117.5433,340.4627 111.1181,334.0376"/>
    <line x1="111.0745" x2="27.0236" y1="340.4337" y2="423.6124"/>
    <polyline points="27.0236,417.2162 111.0745,334.0376 104.6057,327.6414 27.0236,404.424"/>
    <line x1="27.0236" x2="104.6057" y1="410.8201" y2="334.0376"/>
    <line x1="111.1181" x2="369.8268" y1="302.086" y2="46.212"/>
    <polyline points="369.8268,65.4004 188.7438,244.4918 266.3259,321.2453 259.9007,327.6705 182.275,250.8879 175.8062,257.3131"/>
    <polyline points="175.8062,263.6802 253.4319,340.4627 259.8571,334.0376 182.275,257.2841"/>
    <line x1="182.275" x2="188.7002" y1="250.917" y2="244.4918"/>
    <line x1="188.7438" x2="259.8571" y1="250.8879" y2="321.2744"/>
    <line x1="266.3695" x2="369.8268" y1="321.2744" y2="218.9073"/>
    <polyline points="369.8268,212.5112 266.3695,314.8783 259.9007,308.4531"/>
    <line x1="266.3695" x2="369.8268" y1="308.4821" y2="206.1151"/>
    <polyline points="369.8268,199.719 259.9007,308.4821 195.2126,244.5209 369.8268,71.7965"/>
    <polyline points="369.8268,78.1926 201.6814,244.5209 246.9631,289.2938 369.8268,167.7383"/>
    <line x1="369.8268" x2="253.4319" y1="174.1345" y2="289.2938"/>
    <polyline points="253.4319,295.6608 259.9007,302.086 369.8268,193.3228"/>
    <line x1="369.8268" x2="259.9007" y1="186.9267" y2="295.6899"/>
    <polyline points="246.9631,289.2647 253.4319,295.6899 369.8268,180.5306"/>
    <polyline points="369.8268,161.3422 246.9631,282.8976 240.4942,276.4724"/>
    <line x1="240.4942" x2="369.8268" y1="270.1054" y2="142.1538"/>
    <polyline points="369.8268,135.7577 234.0254,270.1054 208.1502,244.5209 369.8268,84.5887"/>
    <polyline points="369.8268,90.9849 214.619,244.5209 221.0878,250.917 369.8268,103.7771"/>
    <line x1="369.8268" x2="227.5566" y1="110.1732" y2="250.917"/>
    <polyline points="227.5566,257.2841 234.0254,263.7093 369.8268,129.3616"/>
    <line x1="369.8268" x2="234.0254" y1="122.9655" y2="257.3131"/>
    <polyline points="234.0254,270.0763 240.4942,276.5015 369.8268,148.55"/>
    <line x1="369.8268" x2="246.9631" y1="154.9461" y2="276.5015"/>
    <polyline points="221.0878,250.8879 227.5566,257.3131 369.8268,116.5694"/>
    <line x1="369.8268" x2="221.0878" y1="97.381" y2="244.5209"/>
    <polyline points="162.8686,359.622 169.2938,366.0472 27.0236,506.762"/>
    <polyline points="246.9631,385.2065 253.4319,391.6317 369.8268,276.4724"/>
  </g>
</svg>
